<?xml version="1.0" standalone="no"?>
<!DOCTYPE svg PUBLIC "-//W3C//DTD SVG 20010904//EN" "http://www.w3.org/TR/2001/REC-SVG-20010904/DTD/svg10.dtd">
<svg xmlns="http://www.w3.org/2000/svg" version="1.0" width="1884.000000pt" height="1598.000000pt" viewBox="0 0 1884.000000 1598.000000" preserveAspectRatio="xMidYMid meet">
<metadata>
Created by potrace 1.16, written by Peter Selinger 2001-2019
<meta name="Producer" content="Online-Convert"/></metadata>
<g transform="translate(0.000000,1598.000000) scale(0.100000,-0.100000)" fill="#000000" stroke="none">
<path d="M2076 15923 c-8 -30 -228 -1455 -224 -1458 2 -1 91 -21 198 -44 917 -198 1891 -503 2770 -868 626 -260 1339 -614 1925 -956 1197 -697 2258 -1512 3285 -2524 l226 -222 1674 1100 c921 605 1704 1116 1739 1136 153 87 323 117 416 74 170 -79 168 -284 -7 -502 -29 -36 -649 -684 -1379 -1440 -729 -756 -1353 -1404 -1387 -1440 l-61 -66 101 -129 c1623 -2069 2713 -4484 3182 -7044 76 -416 147 -917 181 -1280 9 -96 18 -185 21 -198 l4 -22 790 0 c525 0 790 3 790 10 0 6 558 3577 1240 7936 682 4359 1240 7932 1240 7940 0 12 -1198 14 -8359 14 -7953 0 -8360 -1 -8365 -17z"/>
<path d="M1565 12668 c-7 -33 -1452 -9286 -1470 -9409 -49 -358 -69 -834 -46 -1111 64 -752 347 -1273 883 -1625 133 -88 374 -202 552 -263 335 -113 686 -177 1156 -210 94 -6 1933 -10 5219 -10 l5074 0 -7 73 c-4 39 -21 180 -37 312 -306 2452 -1242 4774 -2730 6773 -87 116 -163 212 -168 212 -6 0 -1064 -627 -2353 -1393 l-2342 -1394 -73 89 -73 88 1785 2005 c982 1103 1788 2011 1791 2019 5 14 -162 180 -424 419 -1845 1680 -4091 2852 -6507 3396 -99 23 -190 43 -202 46 -17 4 -24 0 -28 -17z"/>
</g>
</svg>
