<?xml version="1.0" encoding="UTF-8"?>
<!-- Generator: visioncortex VTracer 0.6.3 -->
<svg version="1.1" xmlns="http://www.w3.org/2000/svg" width="1390" height="530">
<path d="M0 0 C20.46 0 40.92 0 62 0 C62 37.95 62 75.9 62 115 C85.69 114.95 85.69 114.95 109.85 114.89 C119.86 114.88 129.87 114.86 139.88 114.85 C155.76 114.84 171.64 114.81 187.52 114.77 C199.09 114.74 210.66 114.72 222.23 114.72 C228.35 114.71 234.47 114.7 240.59 114.68 C246.36 114.66 252.13 114.66 257.9 114.66 C260.01 114.66 262.12 114.65 264.23 114.64 C286.9 114.52 305.16 117.74 322.25 133.81 C333.48 145.64 339.28 160.78 339 177 C340.05 176.94 341.1 176.88 342.19 176.81 C358.45 176.9 372.63 184.76 383.96 195.94 C395.27 208.21 400.14 222.66 400.16 239.11 C400.17 240.12 400.17 241.14 400.18 242.18 C400.19 245.54 400.2 248.9 400.2 252.25 C400.21 254.59 400.21 256.94 400.22 259.28 C400.23 264.19 400.24 269.1 400.24 274.01 C400.25 280.27 400.27 286.54 400.3 292.81 C400.32 297.65 400.32 302.49 400.32 307.32 C400.33 309.63 400.33 311.94 400.35 314.25 C400.47 336.76 397.58 354.21 381.06 370.96 C369.06 382.02 354.74 387.16 338.6 387.14 C337.64 387.14 336.69 387.15 335.71 387.15 C332.52 387.16 329.33 387.16 326.14 387.16 C323.86 387.17 321.57 387.17 319.28 387.18 C313.07 387.19 306.85 387.2 300.64 387.2 C296.75 387.2 292.87 387.21 288.98 387.21 C278.22 387.22 267.45 387.23 256.68 387.24 C255.99 387.24 255.3 387.24 254.59 387.24 C253.56 387.24 253.56 387.24 252.5 387.24 C251.1 387.24 249.71 387.24 248.31 387.24 C247.61 387.24 246.92 387.24 246.2 387.24 C234.97 387.24 223.74 387.26 212.51 387.29 C200.97 387.31 189.42 387.32 177.88 387.32 C171.4 387.32 164.93 387.33 158.45 387.35 C152.36 387.36 146.26 387.37 140.16 387.36 C137.93 387.36 135.7 387.36 133.47 387.37 C113.06 387.46 95.51 385.17 80.17 370.23 C79.46 369.5 78.74 368.76 78 368 C77.05 367.08 77.05 367.08 76.08 366.14 C65.72 355.42 61 340.66 61 326 C40.87 326 20.74 326 0 326 C0 218.42 0 110.84 0 0 Z M62 178 C62 226.51 62 275.02 62 325 C153.08 325 244.16 325 338 325 C338 276.49 338 227.98 338 178 C246.92 178 155.84 178 62 178 Z " fill="#006DC6" transform="translate(0,27)"/>
<path d="M0 0 C2.3 -0 4.6 -0.01 6.89 -0.02 C13.09 -0.03 19.29 -0.02 25.49 -0 C32 0.01 38.51 0 45.02 0 C55.94 -0 66.87 0.01 77.79 0.04 C89 0.06 100.22 0.07 111.43 0.06 C124.99 0.04 138.54 0.05 152.1 0.06 C157.26 0.07 162.42 0.07 167.58 0.06 C173.67 0.06 179.75 0.07 185.83 0.09 C188.05 0.09 190.28 0.1 192.5 0.09 C206.37 0.06 219.2 0.21 231.6 7.19 C232.55 7.72 232.55 7.72 233.52 8.25 C247.33 16.14 257.34 29.24 261.92 44.5 C263.48 51.6 264.21 58.42 264.21 65.68 C264.21 66.63 264.22 67.58 264.23 68.56 C264.24 71.67 264.25 74.78 264.25 77.89 C264.26 80.08 264.26 82.26 264.27 84.45 C264.28 89.03 264.29 93.6 264.29 98.18 C264.29 104 264.31 109.82 264.35 115.64 C264.37 120.16 264.37 124.68 264.37 129.19 C264.38 131.34 264.38 133.48 264.4 135.63 C264.54 156.42 262.3 175.56 247.18 191.26 C246.44 192 245.69 192.74 244.92 193.5 C244.3 194.14 243.69 194.78 243.05 195.43 C233.4 204.73 219.38 210.34 206.04 210.57 C204.49 210.54 204.49 210.54 202.92 210.5 C202.79 212.01 202.79 212.01 202.65 213.54 C200.87 231.79 193.95 247.53 179.57 259.45 C162.23 272.14 143.68 272.96 123 272.84 C120.84 272.84 118.68 272.84 116.52 272.84 C110.7 272.84 104.89 272.83 99.07 272.81 C92.98 272.79 86.88 272.79 80.79 272.78 C69.26 272.77 57.74 272.75 46.22 272.72 C30.64 272.68 15.06 272.66 -0.52 272.64 C-25.04 272.62 -49.56 272.56 -74.08 272.5 C-74.08 310.45 -74.08 348.4 -74.08 387.5 C-94.54 387.5 -115 387.5 -136.08 387.5 C-136.08 279.92 -136.08 172.34 -136.08 61.5 C-115.95 61.5 -95.82 61.5 -75.08 61.5 C-75.08 58.53 -75.08 55.56 -75.08 52.5 C-72.84 37 -64.36 23.06 -52.32 13.16 C-35.77 0.91 -19.85 -0.09 0 0 Z M-74.08 62.5 C-74.08 111.01 -74.08 159.52 -74.08 209.5 C17 209.5 108.08 209.5 201.92 209.5 C201.92 160.99 201.92 112.48 201.92 62.5 C110.84 62.5 19.76 62.5 -74.08 62.5 Z " fill="#006DC6" transform="translate(988.084716796875,142.498291015625)"/>
<path d="M0 0 C0.96 -0 1.92 -0 2.91 -0 C6.13 -0 9.35 0 12.56 0.01 C14.87 0.01 17.18 0.01 19.48 0.01 C25.75 0.01 32.01 0.01 38.27 0.02 C44.82 0.03 51.36 0.03 57.91 0.03 C68.9 0.03 79.88 0.04 90.87 0.04 C102.18 0.05 113.5 0.06 124.81 0.07 C125.51 0.07 126.21 0.07 126.93 0.07 C130.43 0.07 133.93 0.07 137.43 0.07 C166.46 0.08 195.49 0.1 224.52 0.12 C224.52 20.58 224.52 41.04 224.52 62.12 C130.47 62.12 36.42 62.12 -60.48 62.12 C-60.48 131.09 -60.48 200.06 -60.48 271.12 C-80.94 271.12 -101.4 271.12 -122.48 271.12 C-122.48 201.82 -122.48 132.52 -122.48 61.12 C-102.35 61.12 -82.22 61.12 -61.48 61.12 C-61.48 58.48 -61.48 55.84 -61.48 53.12 C-58.6 36.6 -50.85 21.68 -37.15 11.58 C-30.07 6.66 -22.9 3.23 -14.48 1.12 C-13.8 0.94 -13.12 0.77 -12.41 0.59 C-8.27 -0.07 -4.19 -0.01 0 0 Z " fill="#006DC6" transform="translate(574.4848175048828,142.87974548339844)"/>
<path d="M0 0 C40.59 0 81.18 0 123 0 C123 10.56 123 21.12 123 32 C82.41 32 41.82 32 0 32 C0 21.44 0 10.88 0 0 Z " fill="#006DC6" transform="translate(1267,382)"/>
<path d="M0 0 C6.51 -0.25 13.02 -0.43 19.53 -0.55 C21.74 -0.6 23.95 -0.67 26.17 -0.75 C46.86 -1.55 46.86 -1.55 53.47 3.75 C59.4 11.48 58.05 21.41 57.62 30.62 C57.57 32.51 57.53 34.39 57.49 36.27 C57.38 40.85 57.21 45.42 57 50 C53.04 50 49.08 50 45 50 C44.5 46.04 44.5 46.04 44 42 C43.63 42.56 43.26 43.13 42.88 43.71 C39.68 47.74 37.24 49.74 32.13 50.82 C28.27 51.18 24.43 51.21 20.56 51.15 C18.13 51.13 15.72 51.19 13.29 51.27 C5.35 51.35 -0.04 51.01 -6.05 45.27 C-9.09 41.81 -10.75 39.11 -11.25 34.5 C-10.57 28.61 -7.84 25.1 -3.63 21.08 C3.68 16.04 14.72 18.03 23.12 18.38 C25.25 18.43 27.37 18.47 29.49 18.51 C34.66 18.62 39.83 18.79 45 19 C45 16.36 45 13.72 45 11 C30.15 11 15.3 11 0 11 C0 7.37 0 3.74 0 0 Z M1 31 C1 33.31 1 35.62 1 38 C15.52 38 30.04 38 45 38 C45 35.69 45 33.38 45 31 C30.48 31 15.96 31 1 31 Z " fill="#006DC6" transform="translate(906,17)"/>
<path d="M0 0 C3.96 0 7.92 0 12 0 C12 5.61 12 11.22 12 17 C13.35 16.95 14.69 16.91 16.08 16.86 C21.11 16.69 26.13 16.59 31.16 16.51 C33.33 16.46 35.5 16.4 37.67 16.32 C58 15.61 58 15.61 63.9 20.57 C68.09 26.22 68.4 32.57 68.23 39.37 C68.19 41.44 68.25 43.48 68.32 45.54 C68.39 52.33 67.47 57.56 63.06 62.9 C56.49 68.51 49.55 68.45 41.3 68.19 C38.87 68.12 36.45 68.15 34.01 68.19 C21.14 68.16 21.14 68.16 15.88 62.93 C14.12 60.71 14.12 60.71 13 59 C12.67 61.64 12.34 64.28 12 67 C8.04 67 4.08 67 0 67 C0 44.89 0 22.78 0 0 Z M12 28 C12 36.91 12 45.82 12 55 C26.52 55 41.04 55 56 55 C56 46.09 56 37.18 56 28 C41.48 28 26.96 28 12 28 Z " fill="#006DC5" transform="translate(799,0)"/>
<path d="M0 0 C3.21 0.05 6.41 0 9.62 -0.06 C26.61 -0.13 26.61 -0.13 33.1 5.44 C38.08 11.86 38.2 18.44 37.96 26.3 C38 27.61 38.04 28.91 38.08 30.25 C38.02 36.83 37.2 41.88 33.1 47.16 C25.57 53.63 15.88 52.8 6.43 52.61 C3.22 52.55 0.02 52.61 -3.19 52.67 C-20.18 52.74 -20.18 52.74 -26.68 47.16 C-31.65 40.74 -31.77 34.16 -31.54 26.3 C-31.57 25 -31.61 23.7 -31.65 22.36 C-31.59 15.78 -30.77 10.73 -26.68 5.44 C-19.15 -1.03 -9.46 -0.19 0 0 Z M-19.29 12.3 C-19.29 21.21 -19.29 30.12 -19.29 39.3 C-4.77 39.3 9.75 39.3 24.71 39.3 C24.71 30.39 24.71 21.48 24.71 12.3 C10.19 12.3 -4.33 12.3 -19.29 12.3 Z " fill="#006DC6" transform="translate(1215.28564453125,15.6962890625)"/>
<path d="M0 0 C2.22 0.05 4.44 0.1 6.66 0.14 C12.07 0.25 17.47 0.42 22.88 0.62 C22.88 4.25 22.88 7.89 22.88 11.62 C8.03 11.62 -6.83 11.62 -22.12 11.62 C-22.12 20.53 -22.12 29.45 -22.12 38.62 C-3.97 38.62 14.17 38.62 32.88 38.62 C30.35 43.68 27.48 47.3 22.88 50.62 C19.28 51.75 15.91 51.8 12.16 51.76 C10.65 51.78 10.65 51.78 9.11 51.8 C6.99 51.81 4.86 51.8 2.74 51.78 C-0.49 51.75 -3.7 51.82 -6.93 51.89 C-24.08 52.04 -24.08 52.04 -30.52 46.49 C-35.48 40.07 -35.61 33.48 -35.38 25.62 C-35.41 24.32 -35.45 23.02 -35.49 21.68 C-35.43 15.11 -34.6 10.02 -30.55 4.73 C-22.21 -2.47 -10.33 -0.41 0 0 Z " fill="#006DC6" transform="translate(1122.125,16.375)"/>
<path d="M0 0 C3.21 0.05 6.41 0 9.62 -0.06 C26.59 -0.14 26.59 -0.14 33.14 5.09 C39.13 12.79 37.77 22.71 37.34 31.93 C37.29 33.81 37.24 35.69 37.2 37.57 C37.09 42.15 36.92 46.73 36.71 51.3 C33.08 51.3 29.45 51.3 25.71 51.3 C25.71 38.43 25.71 25.56 25.71 12.3 C10.86 12.3 -3.99 12.3 -19.29 12.3 C-19.29 25.17 -19.29 38.04 -19.29 51.3 C-22.92 51.3 -26.55 51.3 -30.29 51.3 C-30.53 45.79 -30.72 40.28 -30.83 34.76 C-30.88 32.89 -30.95 31.02 -31.04 29.15 C-31.83 11.67 -31.83 11.67 -26.72 5.09 C-19.13 -0.96 -9.27 -0.18 0 0 Z " fill="#006DC6" transform="translate(1022.28564453125,15.6962890625)"/>
</svg>
