<?xml version="1.0" encoding="utf-8"?>
<!-- Generator: Adobe Illustrator 27.8.1, SVG Export Plug-In . SVG Version: 6.00 Build 0)  -->
<svg version="1.1" id="Layer_1" xmlns="http://www.w3.org/2000/svg" xmlns:xlink="http://www.w3.org/1999/xlink" x="0px" y="0px"
	 viewBox="0 0 512 512" style="enable-background:new 0 0 512 512;" xml:space="preserve">
<style type="text/css">
	.st0{fill:#183B68;}
	.st1{fill:#193A67;}
	.st2{fill:#0976A5;}
	.st3{fill:#2EBADB;}
</style>
<g>
	<path class="st0" d="M145.3,301.5l6.8-8.1c6.1,5.3,12.3,8.3,20.2,8.3c7,0,11.4-3.2,11.4-8.1v-0.2c0-4.6-2.6-7.1-14.5-9.8
		c-13.6-3.3-21.4-7.3-21.4-19.1v-0.2c0-11,9.2-18.6,21.9-18.6c9.4,0,16.8,2.8,23.3,8.1l-6.1,8.5c-5.8-4.3-11.5-6.6-17.4-6.6
		c-6.6,0-10.4,3.4-10.4,7.6v0.2c0,4.9,2.9,7.1,15.2,10.1c13.6,3.3,20.6,8.2,20.6,18.8v0.2c0,12-9.4,19.1-22.9,19.1
		C162.2,311.7,153,308.4,145.3,301.5"/>
	<polygon class="st0" points="204.5,246.7 252.1,246.7 252.1,256.8 215.8,256.8 215.8,273.5 248,273.5 248,283.5 215.8,283.5 
		215.8,300.8 252.5,300.8 252.5,310.8 204.5,310.8 	"/>
	<polygon class="st0" points="260.1,246.7 272.1,246.7 291.7,277 311.2,246.7 323.2,246.7 323.2,310.8 311.9,310.8 311.9,264.8 
		291.7,295.1 291.3,295.1 271.2,265 271.2,310.8 260.1,310.8 	"/>
	<polygon class="st0" points="336,246.7 383.6,246.7 383.6,256.8 347.3,256.8 347.3,273.5 379.4,273.5 379.4,283.5 347.3,283.5 
		347.3,300.8 384,300.8 384,310.8 336,310.8 	"/>
	<path class="st0" d="M431.2,285.4l-11.1-25.7l-11,25.6L431.2,285.4L431.2,285.4z M415.1,246.2h10.4l28.2,64.6h-11.9l-6.5-15.5H405
		l-6.6,15.5h-11.5L415.1,246.2z"/>
	<path class="st0" d="M485.3,278.5c8.1,0,13.2-4.2,13.2-10.7v-0.2c0-6.9-5-10.6-13.3-10.6h-16.4v21.5H485.3z M457.6,246.7h28.6
		c8.1,0,14.4,2.4,18.5,6.4c3.4,3.5,5.3,8.2,5.3,13.8v0.2c0,10.5-6.3,16.9-15.3,19.4l17.3,24.3h-13.3L483,288.5h-14.1v22.4h-11.3
		L457.6,246.7L457.6,246.7z"/>
	<path class="st0" d="M164.7,227.6c3.7,0,6-1.5,6-4.2v-0.1c0-2.6-2.1-4.2-6.4-4.2h-8.6v8.5H164.7z M163.1,214.5
		c3.5,0,5.8-1.4,5.8-4.2v-0.1c0-2.4-1.9-3.9-5.4-3.9h-7.8v8.2H163.1z M150.4,201.4h13.9c3.5,0,6.3,1,8.1,2.7
		c1.4,1.4,2.1,3.1,2.1,5.1v0.1c0,3.7-2.1,5.7-4.4,6.9c3.6,1.2,6.1,3.3,6.1,7.5v0.1c0,5.5-4.6,8.5-11.5,8.5h-14.3L150.4,201.4
		L150.4,201.4z"/>
	<path class="st0" d="M214.2,220.1l-5.4-12.4l-5.3,12.4H214.2z M206.4,201.2h5l13.6,31.2h-5.8l-3.1-7.5h-14.6l-3.2,7.5h-5.6
		L206.4,201.2z"/>
	<polygon class="st0" points="243.5,201.4 248.5,201.4 265.1,222.8 265.1,201.4 270.5,201.4 270.5,232.4 265.9,232.4 248.9,210.4 
		248.9,232.4 243.5,232.4 	"/>
	<path class="st0" d="M290.2,217L290.2,217c0-8.9,6.6-16.1,16-16.1c5.7,0,9.2,2,12.1,4.8l-3.5,4c-2.5-2.3-5.1-3.9-8.7-3.9
		c-5.9,0-10.2,4.9-10.2,10.9v0.1c0,6.1,4.3,11,10.2,11c3.8,0,6.2-1.5,8.9-4l3.5,3.5c-3.2,3.4-6.8,5.5-12.6,5.5
		C296.9,232.9,290.2,225.9,290.2,217"/>
	<path class="st0" d="M362.7,217L362.7,217c0-6.1-4.4-11.1-10.5-11.1s-10.4,4.9-10.4,10.9v0.1c0,6,4.4,11,10.5,11
		C358.4,227.9,362.7,223,362.7,217 M336,217L336,217c0-8.8,6.7-16.1,16.2-16.1s16.1,7.2,16.1,15.9v0.1c0,8.7-6.7,16-16.2,16
		S336,225.7,336,217"/>
	<path class="st1" d="M67.9,312.6h45.9V210.7c-13.5,5.9-22.5,10.8-31,18.2c-18.4,16.9-28.1,31.6-26.4,61.4
		C57.1,301.4,60,311.9,67.9,312.6"/>
	<path class="st2" d="M51.3,290.1C52,253.4,27,238.4,0,232.2v80.2h39.8C46.3,311,50.6,302.9,51.3,290.1"/>
	<path class="st3" d="M0.1,223.1c0,0,16.6,4.7,32.2,17.2C48,252.8,51.6,261.3,52.8,268c0,0,2.2-19.5,16.6-35.5
		c17.6-20.1,33.8-28.3,44.2-33.3l0.1-0.2H0L0.1,223.1z"/>
</g>
</svg>
