<svg width="54" height="48" viewBox="0 0 54 48" fill="none" xmlns="http://www.w3.org/2000/svg">
<g clip-path="url(#clip0_3295_6745)">
<path d="M0 25.7791C0.136253 25.0932 0.25696 24.4046 0.410587 23.7233C2.15718 15.9791 6.29049 9.84321 12.741 5.30089C16.5661 2.60717 20.8128 0.91047 25.44 0.294578C33.9782 -0.841463 41.6403 1.31186 48.3999 6.69378C48.9111 7.10069 48.998 7.75157 48.6331 8.2174C48.2582 8.69428 47.608 8.73663 47.0813 8.30946C43.3202 5.26498 39.0725 3.27737 34.311 2.48564C27.5889 1.36802 21.2435 2.51142 15.4103 6.06776C8.66714 10.1774 4.35917 16.1375 2.5065 23.867C2.31721 24.6587 2.20931 25.4697 2.05294 26.2698C1.96606 26.7144 1.63686 27.0302 1.23359 27.09C0.740703 27.1628 0.350234 26.9694 0.117049 26.5386C0.079557 26.4686 0.0384068 26.4005 0 26.3305C0 26.1464 0 25.9623 0 25.7791Z" fill="#C3A301"/>
<path d="M31.861 32.8053C31.861 36.0468 31.8738 39.2892 31.8564 42.5307C31.8445 44.9132 30.2744 47.0472 28.0176 47.7349C25.9427 48.3674 24.1147 47.8527 22.5492 46.3798C21.846 45.7188 21.8222 44.6545 22.4449 43.9926C23.1362 43.2579 24.1494 43.2165 24.8892 43.9199C25.5769 44.5735 26.3588 44.7539 27.2202 44.3839C28.0871 44.011 28.4784 43.2874 28.4967 42.3557C28.5095 41.6892 28.4867 41.0218 28.5068 40.3562C28.5159 40.0588 28.4044 39.9953 28.131 39.9934C27.2531 39.987 26.3652 40.0303 25.5001 39.9124C23.1646 39.5957 21.2013 37.4903 20.9617 35.1243C20.9187 34.7027 20.9032 34.2764 20.9022 33.852C20.8968 31.5072 20.8876 29.1615 20.9032 26.8167C20.9196 24.2767 22.5482 22.0819 24.9176 21.4163C25.3949 21.2819 25.9052 21.2258 26.4026 21.2147C27.6234 21.1862 28.8461 21.2018 30.0678 21.2064C31.1834 21.211 31.8601 21.8904 31.8619 23.0127C31.8656 26.2772 31.8628 29.5417 31.8628 32.8071H31.8601L31.861 32.8053ZM28.5022 30.5949C28.5022 28.7223 28.5022 26.8507 28.5022 24.9782C28.5022 24.7996 28.5196 24.6284 28.2535 24.6339C27.5805 24.6477 26.9056 24.6164 26.2353 24.6624C25.212 24.7324 24.4576 25.4311 24.3186 26.4503C24.2464 26.9815 24.2665 27.5265 24.2647 28.065C24.2592 30.1327 24.2555 32.1995 24.2647 34.2672C24.2711 35.6675 25.1553 36.5457 26.5362 36.5513C27.0492 36.5531 27.564 36.5282 28.0761 36.5595C28.4364 36.5816 28.5104 36.4445 28.5077 36.1084C28.4931 34.2709 28.5004 32.4333 28.5004 30.5958L28.5022 30.5949Z" fill="#00467E"/>
<path d="M16.739 31.7631C16.739 33.9128 16.7399 36.0615 16.7372 38.2111C16.7372 38.4173 16.7372 38.6281 16.6988 38.8288C16.5433 39.6196 15.8593 40.1591 15.0464 40.1518C14.2371 40.1444 13.5641 39.5865 13.426 38.792C13.3867 38.5674 13.3775 38.3345 13.3775 38.1062C13.3748 33.7728 13.3757 29.4404 13.3757 25.1071C13.3757 24.6357 13.3748 24.6366 12.9066 24.6339C12.5527 24.6311 12.1979 24.644 11.8458 24.6173C10.9826 24.5501 10.3379 23.8035 10.3443 22.904C10.3507 22.0064 11.0109 21.269 11.8732 21.2147C12.2262 21.1926 12.5819 21.1843 12.934 21.2092C13.2723 21.2331 13.3912 21.1328 13.3857 20.7719C13.372 19.9222 13.3675 19.0697 13.4296 18.2227C13.6281 15.4829 16.0239 13.2431 18.7545 13.2099C19.7503 13.198 20.4819 13.8534 20.5468 14.8146C20.6099 15.7619 19.9506 16.5794 18.9666 16.6208C17.7477 16.6724 17.017 17.4604 16.8332 18.2383C16.7838 18.4492 16.75 18.6692 16.7463 18.8855C16.7344 19.5521 16.7482 20.2186 16.7372 20.8851C16.7335 21.1226 16.8167 21.2101 17.0545 21.2073C17.6937 21.1981 18.3338 21.1908 18.9721 21.2138C19.8079 21.2442 20.4499 21.8904 20.5422 22.7549C20.63 23.5807 20.0841 24.3881 19.2922 24.5805C19.1065 24.6256 18.9072 24.6302 18.7142 24.632C18.1774 24.6385 17.6407 24.6477 17.1048 24.6293C16.8186 24.6201 16.7326 24.7222 16.7354 25.0058C16.7473 26.3158 16.7409 27.6259 16.7409 28.9368C16.7409 29.8795 16.7409 30.8213 16.7409 31.764L16.739 31.7631Z" fill="#00467E"/>
<path d="M33.6234 30.5939C33.6234 29.1347 33.5392 27.6691 33.6426 26.2173C33.8053 23.9323 34.9822 22.2724 37.112 21.4328C39.2234 20.6015 41.1502 21.072 42.8273 22.5753C43.4006 23.089 43.5506 23.7574 43.3229 24.4939C43.1089 25.1889 42.5987 25.5305 41.9037 25.6078C41.3861 25.6649 40.9252 25.4983 40.5576 25.1365C39.9038 24.4939 39.1558 24.2785 38.3026 24.6265C37.4439 24.9763 37.0114 25.6667 36.9721 26.5837C36.9382 27.3634 36.9547 28.146 36.9538 28.9276C36.952 30.6859 36.9456 32.4443 36.9593 34.2027C36.962 34.5663 36.9876 34.9475 37.1001 35.2881C37.5857 36.7537 39.3661 37.203 40.49 36.1489C41.0313 35.6416 41.6248 35.429 42.3362 35.6895C43.5104 36.1194 43.8167 37.7047 42.8703 38.5839C41.3038 40.0376 39.4658 40.5393 37.422 39.8792C35.3672 39.2164 34.1355 37.736 33.7176 35.6158C33.5859 34.9475 33.6087 34.245 33.5959 33.5573C33.5776 32.5695 33.5914 31.5808 33.5914 30.592C33.6023 30.592 33.6133 30.592 33.6243 30.592L33.6234 30.5939Z" fill="#00467E"/>
<path d="M29.63 5.14893C41.5041 5.20692 51.6014 13.5901 53.8601 25.3224C53.914 25.6041 53.9762 25.8867 53.9973 26.1712C54.0402 26.7558 53.6626 27.2317 53.1267 27.3045C52.5323 27.3846 52.033 27.043 51.9288 26.4363C51.5849 24.4469 51.0628 22.5071 50.1986 20.6825C46.774 13.4483 41.1429 9.07904 33.3079 7.64287C30.4941 7.12733 27.674 7.2378 24.873 7.83252C24.0098 8.01572 23.3907 7.55818 23.4199 6.77473C23.4391 6.26103 23.7693 5.88634 24.3371 5.77494C24.9855 5.64698 25.6357 5.50612 26.2913 5.43432C27.4015 5.3128 28.5171 5.24191 29.63 5.14893Z" fill="#4B721D"/>
</g>
<defs>
<clipPath id="clip0_3295_6745">
<rect width="54" height="48" fill="white"/>
</clipPath>
</defs>
</svg>
