<svg width="512" height="512" viewBox="0 0 512 512" fill="none" xmlns="http://www.w3.org/2000/svg">
<path d="M326.294 186.734C323.703 186.734 321.218 187.762 319.386 189.593C317.554 191.424 316.525 193.906 316.525 196.495V314.343C316.525 316.932 317.554 319.414 319.386 321.245C321.218 323.076 323.703 324.104 326.294 324.104C328.885 324.104 331.37 323.076 333.202 321.245C335.034 319.414 336.063 316.932 336.063 314.343V196.495C336.063 193.906 335.034 191.424 333.202 189.593C331.37 187.762 328.885 186.734 326.294 186.734Z" fill="#5A646E"/>
<path d="M177.425 228.278C177.425 222.887 173.051 218.517 167.656 218.517C162.261 218.517 157.887 222.887 157.887 228.278V314.341C157.887 319.732 162.261 324.102 167.656 324.102C173.051 324.102 177.425 319.732 177.425 314.341V228.278Z" fill="#5A646E"/>
<path d="M180.178 196.511C180.114 199.787 178.766 202.907 176.425 205.2C174.084 207.494 170.936 208.779 167.657 208.779C164.378 208.779 161.23 207.494 158.889 205.2C156.548 202.907 155.2 199.787 155.135 196.511C155.135 193.193 156.455 190.011 158.803 187.665C161.151 185.318 164.336 184 167.657 184C170.978 184 174.163 185.318 176.511 187.665C178.859 190.011 180.178 193.193 180.178 196.511Z" fill="#00AEEF"/>
<path d="M298.869 249.662C289.481 228.455 267.274 213.514 241.936 216.056C233.395 216.958 225.178 219.822 217.929 224.424C210.68 229.026 204.595 235.242 200.15 242.585C195.705 249.928 193.02 258.199 192.306 266.751C191.593 275.303 192.869 283.904 196.035 291.881C199.201 299.858 204.172 306.995 210.558 312.734C216.944 318.472 224.572 322.657 232.845 324.959C241.119 327.262 249.814 327.621 258.249 326.008C266.685 324.395 274.632 320.853 281.47 315.661C282.62 314.781 283.559 313.656 284.217 312.367C284.875 311.078 285.236 309.658 285.274 308.212C285.312 306.765 285.025 305.329 284.435 304.007C283.845 302.686 282.966 301.513 281.863 300.575C280.184 299.135 278.063 298.313 275.852 298.243C273.641 298.174 271.472 298.862 269.706 300.194C262.94 305.407 254.533 308.034 246 307.602C239.056 307.241 232.36 304.908 226.696 300.878C221.032 296.847 216.636 291.286 214.024 284.847C213.788 284.273 213.696 283.649 213.758 283.03C213.819 282.412 214.032 281.818 214.377 281.301C214.723 280.785 215.19 280.36 215.738 280.066C216.285 279.772 216.897 279.617 217.519 279.615H285.343C287.511 279.623 289.66 279.203 291.666 278.38C293.672 277.557 295.496 276.347 297.033 274.818C298.57 273.29 299.79 271.474 300.623 269.473C301.457 267.473 301.887 265.328 301.89 263.161C301.751 258.511 300.726 253.929 298.869 249.662ZM247.703 235.132C254.964 235.132 262.058 237.309 268.067 241.38C274.076 245.452 278.725 251.232 281.411 257.972C281.64 258.546 281.725 259.167 281.659 259.781C281.592 260.396 281.376 260.985 281.029 261.496C280.682 262.008 280.216 262.427 279.669 262.717C279.123 263.007 278.514 263.158 277.896 263.159H217.509C216.891 263.158 216.282 263.007 215.736 262.717C215.19 262.427 214.723 262.008 214.376 261.496C214.03 260.985 213.813 260.396 213.747 259.781C213.68 259.167 213.765 258.546 213.995 257.972C216.681 251.232 221.33 245.452 227.339 241.38C233.348 237.308 240.442 235.132 247.703 235.132Z" fill="#5A646E"/>
<path d="M406.34 307.642C399.379 307.644 392.565 305.644 386.711 301.883C380.856 298.121 376.208 292.755 373.322 286.426C370.436 280.097 369.433 273.072 370.433 266.189C371.433 259.306 374.394 252.856 378.963 247.609L364.233 235.02C359.451 240.566 355.812 247 353.525 253.955C351.237 260.909 350.347 268.246 350.903 275.545C351.46 282.844 353.454 289.962 356.77 296.489C360.086 303.017 364.659 308.826 370.227 313.583C375.794 318.341 382.247 321.954 389.216 324.214C396.184 326.474 403.53 327.337 410.833 326.754C418.136 326.171 425.252 324.153 431.772 320.816C438.293 317.479 444.09 312.888 448.831 307.308L434.101 294.724C430.699 298.773 426.451 302.028 421.655 304.26C416.859 306.492 411.631 307.646 406.34 307.642Z" fill="#5A646E"/>
<path d="M406.34 215.772C398.348 215.764 390.449 217.479 383.181 220.801C375.914 224.122 369.449 228.972 364.23 235.019L378.96 247.608C385.236 240.384 394.117 235.933 403.664 235.224C413.212 234.515 422.654 237.606 429.93 243.824C437.206 250.041 441.727 258.881 442.508 268.416C443.289 277.95 440.265 287.407 434.097 294.723L448.827 307.307C455.684 299.211 460.081 289.325 461.499 278.814C462.917 268.302 461.298 257.605 456.831 247.984C452.365 238.362 445.238 230.218 436.291 224.51C427.344 218.803 416.951 215.771 406.336 215.772H406.34Z" fill="#00AEEF"/>
<path d="M139.897 300.64C138.214 299.182 136.083 298.344 133.857 298.264C131.631 298.184 129.445 298.867 127.662 300.2C122.289 304.302 115.876 306.822 109.146 307.476C102.416 308.13 95.6367 306.892 89.5731 303.903C83.5094 300.913 78.4024 296.289 74.828 290.554C71.2536 284.819 69.3539 278.2 69.3432 271.444C69.3325 264.688 71.2112 258.063 74.7674 252.316C78.3236 246.57 83.4159 241.931 89.4701 238.922C95.5242 235.913 102.299 234.653 109.031 235.286C115.763 235.919 122.184 238.419 127.571 242.503C129.335 243.86 131.512 244.572 133.738 244.518C135.964 244.465 138.104 243.651 139.802 242.211C140.897 241.279 141.772 240.114 142.36 238.802C142.949 237.49 143.238 236.064 143.205 234.626C143.172 233.189 142.819 231.777 142.171 230.493C141.523 229.209 140.596 228.085 139.459 227.204C131.207 220.901 121.354 217.03 111.014 216.031C100.675 215.031 90.2619 216.943 80.9534 221.55C71.6449 226.156 63.8123 233.274 58.3417 242.097C52.8712 250.92 49.981 261.097 49.9981 271.477C50.0153 281.856 52.939 292.023 58.4387 300.829C63.9383 309.634 71.7944 316.726 81.1181 321.301C90.4418 325.877 100.861 327.755 111.197 326.721C121.533 325.688 131.373 321.785 139.605 315.454C140.722 314.579 141.631 313.467 142.265 312.198C142.899 310.929 143.242 309.534 143.27 308.116C143.298 306.698 143.01 305.291 142.427 303.998C141.843 302.705 140.979 301.558 139.897 300.64Z" fill="#5A646E"/>
</svg>
