<svg xmlns="http://www.w3.org/2000/svg" width="512" height="512" fill="none"><g clip-path="url(#a)"><path fill="#22522F" d="M305.496 329.206c-3.975-1.459-8.051-2.767-11.976-4.327-9.56-3.824-18.265-9.057-25.712-16.252-5.937-5.737-10.365-12.479-13.837-19.926-4.78-10.215-7.598-20.932-8.906-32.052-1.611-13.687-1.56-27.423-.504-41.11 1.258-16.454 5.435-32.102 14.442-46.191 12.478-19.574 30.089-31.348 53.185-34.719 15.196-2.214 30.191-1.409 44.883 3.27 18.769 5.938 32.103 18.265 41.16 35.524 5.485 10.416 8.504 21.536 10.215 33.16 1.962 13.283 1.66 26.618 1.258 39.952-.353 13.133-2.768 25.913-7.8 38.14-5.686 13.737-14.189 25.36-26.467 34.015-8.453 5.938-17.913 9.208-28.178 10.366-.201 0-.352.05-.805.1.202 1.51.252 3.019.604 4.428.705 2.566 1.359 5.233 2.466 7.648 2.314 5.082 6.793 7.296 12.026 8.152 3.069.503 6.189.805 9.308.855 7.548.101 15.045.05 22.593.05h1.761v22.442c-.453.05-.855.101-1.258.101-13.988 0-28.027.151-42.015-.101-10.063-.151-19.724-2.365-27.876-8.604-10.516-8.051-16.756-18.668-18.265-31.952a293 293 0 0 0-.302-2.969m-15.8-95.603c.252 11.372.503 22.693 1.761 34.015.755 6.541 1.862 12.982 3.925 19.271 2.667 8.102 8.001 13.435 16.051 16.102 5.888 1.962 11.926 2.415 18.064 2.063 10.466-.553 18.719-5.082 24.455-13.988 2.968-4.629 4.83-9.712 6.138-14.995 2.869-11.472 3.674-23.146 3.825-34.87.151-13.133.151-26.316-1.258-39.399-.805-7.145-1.912-14.239-4.227-21.083-3.522-10.264-10.516-16.554-21.184-18.768-6.642-1.409-13.334-1.459-20.026-.151-10.919 2.113-18.416 8.252-21.939 19.02-2.616 7.95-3.824 16.202-4.327 24.505-.654 9.359-.855 18.818-1.258 28.278"/><path fill="#22522F" d="M204.309 285.732c.856 6.994 1.761 13.838 8.554 17.913 3.17 1.912 6.793 2.667 10.466 2.768 9.309.251 18.618.251 27.977.352h1.761v22.542c-.503.051-.956.101-1.459.101h-38.191c-7.598 0-15.146-.755-22.241-3.673-13.988-5.686-22.24-16.454-26.366-30.694-.755-2.667-1.006-5.485-1.359-8.252-.1-1.006-.503-1.308-1.358-1.56-9.46-2.818-18.467-6.692-26.719-12.177-12.68-8.403-21.033-20.177-26.316-34.316-3.975-10.567-6.39-21.486-6.742-32.757-.353-10.869-.504-21.788.05-32.606.906-16.906 5.233-32.907 14.391-47.349 12.176-19.171 29.335-30.995 51.877-34.618 15.951-2.566 31.7-1.71 47.097 3.32 18.064 5.888 30.996 17.914 39.902 34.418 4.076 7.548 6.843 15.548 8.755 23.851.101.503-.1 1.358-.503 1.71-11.774 12.026-18.768 26.518-22.391 42.77-1.912 8.504-2.919 17.159-2.919 25.864.051 8.352-.1 16.755.453 25.108.403 6.038 1.711 12.076 2.667 18.064.151.956.201 1.61-.604 2.365-8.453 7.9-18.215 13.284-29.586 15.598-2.315.554-4.68.856-7.196 1.258m-56.859-93.188c.453 9.158.805 18.718 1.46 28.228.503 7.296 1.761 14.542 3.874 21.587 2.868 9.56 9.107 15.397 18.718 17.862 5.585 1.409 11.271 1.812 17.007 1.359 8.353-.705 15.448-4.076 20.832-10.667 4.076-4.982 6.441-10.718 8.101-16.857 3.12-11.472 3.975-23.297 4.176-35.121.252-13.838.151-27.625-1.358-41.412-.755-6.692-1.862-13.284-3.975-19.674-3.372-10.265-10.164-16.856-20.781-19.221-6.693-1.51-13.435-1.56-20.127-.352-11.171 2.012-18.869 8.201-22.392 19.171-2.667 8.252-3.824 16.755-4.377 25.36-.554 9.761-.755 19.573-1.158 29.737"/><path fill="#F3C716" d="M280.993 369.461c-.202-.353-.453-.755-.654-1.158-3.472-6.793-10.366-7.195-15.549-5.233-2.515.956-4.629 2.617-6.34 4.68-6.692 8.051-9.057 17.359-7.044 27.574.956 4.73 3.673 8.403 8.604 9.862 3.472 1.006 6.944.604 10.366-.252.352-.1.805-.553.905-.905.705-3.07 1.309-6.189 2.013-9.46h-9.812c.352-1.711.654-3.22.956-4.68.604-2.817 1.158-5.635 1.812-8.453.1-.453.754-1.057 1.157-1.057q13.058-.075 26.115 0c.201 0 .352.101.704.202-.604 2.918-1.207 5.837-1.811 8.705a4778 4778 0 0 0-5.535 26.165c-.252 1.107-.705 1.66-1.761 2.012-7.95 2.869-16.102 4.227-24.505 3.724-10.718-.654-19.775-4.428-25.461-14.19-2.616-4.528-3.723-9.459-3.975-14.642-.453-10.516 1.912-20.278 7.649-29.083 6.239-9.561 15.045-15.347 26.416-16.807 7.749-1.006 15.297-.301 22.241 3.674 4.478 2.566 7.547 6.34 9.61 11.069.252.604.453 1.107-.402 1.46-5.082 2.264-10.164 4.579-15.246 6.843-.101 0-.202-.05-.453-.05M152.783 419.677c1.761-2.968 3.371-5.685 5.032-8.453 12.428-20.781 24.907-41.512 37.285-62.343.654-1.057 1.309-1.51 2.566-1.46 4.982.101 9.913.051 14.894 0 1.107 0 1.611.302 1.762 1.409 3.522 19.675 7.044 39.399 10.566 59.073.604 3.422 1.258 6.843 1.912 10.315.101.453.101.906.151 1.56h-2.717c-5.183 0-10.315-.05-15.498 0-1.107 0-1.509-.302-1.71-1.459-.453-3.321-1.107-6.592-1.611-9.913-.151-.905-.553-1.157-1.409-1.157-7.396 0-14.743.05-22.139 0-.906 0-1.359.352-1.761 1.057-2.013 3.472-4.026 6.943-6.139 10.365-.302.503-1.057 1.006-1.61 1.006-6.24.051-12.479.051-18.718.051-.202.05-.403 0-.856-.051m51.123-27.121c-1.057-7.346-2.063-14.491-3.12-21.636-.151 0-.251-.051-.402-.051-4.076 7.146-8.102 14.341-12.278 21.687zM106.14 419.778c5.132-24.202 10.164-48.154 15.246-72.205.453-.051.855-.101 1.258-.101 9.007 0 17.963-.151 26.97.05 6.39.151 12.479 1.761 17.36 6.29 3.572 3.321 5.384 7.497 5.635 12.328.856 14.944-8.554 24.907-21.938 28.278-3.724.956-7.649 1.107-11.473 1.459-2.163.202-4.327 0-6.541.051-3.17.05-2.516-.403-3.12 2.516a1232 1232 0 0 0-4.075 19.674c-.252 1.308-.755 1.711-2.114 1.711-5.132-.101-10.214-.051-15.347-.051zm27.272-39.298c4.629-.251 9.158.604 13.535-.905 2.566-.856 4.478-2.567 5.736-4.982 2.718-5.183.252-10.416-5.434-11.17-3.12-.403-6.34-.151-9.51-.101-.302 0-.805.604-.906.956-.503 1.962-.905 3.975-1.308 5.937-.704 3.321-1.409 6.642-2.113 10.265"/></g><defs><clipPath id="a"><path fill="#fff" d="M0 0h512v512H0z"/></clipPath></defs></svg>