<?xml version="1.0" encoding="utf-8"?>
<!-- Generator: Adobe Illustrator 27.9.0, SVG Export Plug-In . SVG Version: 6.00 Build 0)  -->
<svg version="1.1" id="Layer_1" xmlns="http://www.w3.org/2000/svg" xmlns:xlink="http://www.w3.org/1999/xlink" x="0px" y="0px"
	 viewBox="0 0 512 512" style="enable-background:new 0 0 512 512;" xml:space="preserve">
<style type="text/css">
	.st0{fill:#0B3471;}
	.st1{fill:#0047BB;}
</style>
<g>
	<g>
		<path class="st0" d="M222.3,249.9v-6.6c0-1.7-2.1-2.7-3.4-1.7l-9.8,7.4v51.9h13.2v-35.1c1.4-4.2,3.1-7.3,5.1-9.2
			c2.1-1.9,4.4-2.9,7.2-2.9c1.8,0,3.8,0.3,5.7,1.1l2.3-12c-1.9-1.1-4.3-1.7-7.1-1.7C229.7,241,225.3,244,222.3,249.9z"/>
		<path class="st0" d="M35.4,269.4c-2.5-1.1-5.7-2.3-9.7-3.5c-4-1.3-6.8-2.4-8.7-3.4c-1.8-1-2.7-2.5-2.7-4.4c0-1.8,0.8-3.3,2.5-4.6
			c1.7-1.1,4-1.8,6.8-1.8c2.5,0,5.1,0.3,7.9,1.1c2.7,0.8,5.1,1.8,7.3,3.1l4.1-9.4c-2.4-1.7-5.4-3.1-8.8-4c-3.4-1-7.1-1.5-10.8-1.5
			c-6.6,0-12,1.6-16,4.7c-4,3.2-5.9,7.4-5.9,12.8c0,3.5,0.9,6.4,2.6,8.7c1.7,2.2,3.8,3.9,6.3,5c2.4,1.1,5.6,2.3,9.5,3.5
			c4,1.3,7,2.4,8.8,3.5c1.8,1.1,2.7,2.6,2.7,4.7c0,2.1-1,3.8-3,5.1c-1.9,1.4-4.7,1.9-8.2,1.9c-3,0-5.8-0.5-8.8-1.4
			c-2.9-0.9-5.5-2.2-7.8-3.9L0,295.9c2.5,1.9,5.6,3.4,9.2,4.6s7.5,1.7,11.6,1.7c7.1,0,12.8-1.7,17.1-5c4.3-3.3,6.5-8,6.5-13.9
			c0-3.8-0.9-6.7-2.7-9C40,272.1,37.9,270.5,35.4,269.4z"/>
		<path class="st0" d="M67.6,241.4l-9.8,7.4v51.9h13.2v-57.5C71.1,241.4,69.1,240.4,67.6,241.4z"/>
		<path class="st0" d="M262.3,241.4l-9.8,7.4v51.9h13.2v-57.5C265.8,241.4,263.7,240.4,262.3,241.4z"/>
		<path class="st0" d="M119.8,269.4c-2.5-1.1-5.7-2.3-9.7-3.5c-4-1.3-6.8-2.4-8.7-3.4c-1.8-1-2.7-2.5-2.7-4.4c0-1.8,0.8-3.3,2.5-4.6
			c1.7-1.1,4-1.8,6.8-1.8c2.5,0,5.1,0.3,7.9,1.1c2.7,0.8,5.1,1.8,7.3,3.1l4.1-9.4c-2.4-1.7-5.4-3.1-8.8-4c-3.4-1-7.1-1.5-10.8-1.5
			c-6.6,0-12,1.6-16,4.7c-4,3.2-5.9,7.4-5.9,12.8c0,3.5,0.9,6.4,2.6,8.7c1.7,2.2,3.8,3.9,6.3,5c2.4,1.1,5.6,2.3,9.5,3.5
			c4,1.3,7,2.4,8.8,3.5c1.8,1.1,2.7,2.6,2.7,4.7c0,2.1-1,3.8-3,5.1c-1.9,1.4-4.7,1.9-8.2,1.9c-3,0-5.8-0.5-8.8-1.4
			c-2.9-0.9-5.5-2.2-7.8-3.9l-3.5,10.3c2.5,1.9,5.6,3.4,9.2,4.6c3.6,1.1,7.5,1.7,11.6,1.7c7.1,0,12.8-1.7,17.1-5
			c4.3-3.3,6.5-8,6.5-13.9c0-3.8-0.9-6.7-2.7-9C124.4,272.1,122.3,270.5,119.8,269.4z"/>
		<path class="st0" d="M431.4,268.1c0-4.9-0.9-9.4-2.9-13.5c-1.9-4.1-4.8-7.4-8.7-9.9c-3.9-2.5-8.7-3.8-14.3-3.8
			c-5.6,0-10.4,1.3-14.7,3.8c-4.2,2.5-7.5,6.2-9.8,10.8c-2.3,4.7-3.5,10-3.5,16.3c0,6.6,1.3,12.2,3.8,16.9c2.5,4.6,6,8,10.4,10.3
			c4.3,2.3,9.2,3.4,14.7,3.4c9.7,0,17.8-2.6,24.4-7.9l-5.4-8.7c-4.9,3.9-10.7,5.8-17.2,5.8c-10.2,0-16-5.4-17.2-16h39.7
			C431.1,273.9,431.4,271.4,431.4,268.1z M390.9,266.9c0.6-5.1,2.1-9,4.7-11.6c2.6-2.6,6-3.9,10.4-3.9c4.1,0,7.3,1.4,9.6,4.1
			c2.3,2.7,3.4,6.6,3.6,11.5h-28.3V266.9z"/>
		<path class="st0" d="M183.9,244.4c-3.6-2.2-7.6-3.3-12-3.3c-3.8,0-29.7,1.7-29.7,1.7v74h13.2v-19.3c3.6,2.2,8,3.2,13.1,3.2
			c4.9,0,9.5-1.4,13.6-4c4.1-2.6,7.4-6.4,9.8-11.2c2.4-4.9,3.6-10.5,3.6-17c0-6.2-1.1-9.8-3.3-14.3
			C190.4,249.9,187.4,246.6,183.9,244.4z M180,280.3c-1.5,3.1-3.4,5.4-5.8,7c-2.4,1.6-5.1,2.4-8,2.4c-2.3,0-4.2-0.2-5.8-0.8
			c-1.6-0.6-3.2-1.5-4.9-2.7v-33.4c0,0,0,0,13.2,0c3.9,0,7.1,1.6,9.6,4.7c2.5,3.1,3.8,6,3.8,12.2C182.1,273.7,181.5,277.4,180,280.3
			z"/>
		<g>
			<path class="st0" d="M334.2,253.1c1.3-0.3,2.6-0.6,3.9-0.7C336.7,252.6,335.4,252.7,334.2,253.1z"/>
			<path class="st0" d="M363.3,257.4c-0.7-3.4-1.8-6.4-3.5-8.8c-1.7-2.4-4.1-4.3-7.1-5.6c-3-1.4-6.8-2.1-11.5-2.1
				c0,0-9.9-0.1-19.7,4.9c-1.6-1.4-3.4-2.4-5.5-3.3c-2.6-1-6-1.6-10.2-1.6c-4.4,0-24.2,1.7-24.2,1.7v57.9H295v-47.9
				c0,0,8.2-0.3,9.7-0.3c4.4,0,7.6,1.5,9.2,4.4c1.6,3,2.4,6.3,2.4,12.8v31h13.2v-31.3c0-2.5-0.1-4.8-0.3-7c-0.2-2.2-0.7-4.2-1.3-6.2
				l-0.3-0.9c0,0,3-1.4,6.6-2.2c1.3-0.3,2.5-0.6,3.9-0.7c0.5,0,0.8,0,1.3,0c4.6,0,7.8,1.5,9.4,4.4c1.6,3,2.4,7.6,2.4,14.1v29.7h13.3
				v-31.8C364.3,264.7,364,260.9,363.3,257.4z"/>
		</g>
	</g>
	<g>
		<g>
			<g>
				<path class="st0" d="M174.2,328.8c0.9,0.6,2.1,0.8,3.2,0.8c0.9,0,1.8-0.1,2.6-0.5c0.8-0.3,1.5-0.8,2.1-1.3l-1.3-1.8
					c-0.9,0.8-2.1,1.1-3.2,1.1c-1,0-1.9-0.3-2.6-1.1c-0.7-0.8-1-1.8-1-3.1s0.3-2.3,1-3c0.7-0.7,1.6-1,2.6-1c0.6,0,1.1,0.1,1.6,0.2
					c0.5,0.2,0.9,0.5,1.4,0.8l1.1-2.1c-0.6-0.5-1.3-0.9-2.1-1.1c-0.8-0.2-1.6-0.3-2.4-0.3c-1.1,0-2.2,0.2-3.1,0.8
					c-0.9,0.6-1.7,1.3-2.3,2.3c-0.6,1-0.8,2.2-0.8,3.5s0.2,2.6,0.8,3.5C172.5,327.5,173.3,328.2,174.2,328.8z"/>
				<path class="st0" d="M189.9,329.6c1.1,0,2.2-0.2,3.1-0.7c0.9-0.5,1.7-1.3,2.3-2.2c0.6-1,0.9-2.2,0.9-3.6s-0.3-2.7-0.9-3.6
					c-0.6-1-1.4-1.7-2.3-2.2c-0.9-0.5-1.9-0.7-3.1-0.7s-2.2,0.2-3.1,0.7c-0.9,0.5-1.7,1.3-2.3,2.2c-0.6,1-0.9,2.2-0.9,3.6
					s0.3,2.7,0.9,3.6c0.6,1,1.4,1.7,2.3,2.2C187.7,329.4,188.8,329.6,189.9,329.6z M187.4,320c0.6-0.7,1.5-1,2.5-1s1.8,0.3,2.5,1
					c0.6,0.7,0.9,1.7,0.9,3s-0.3,2.3-0.9,3c-0.6,0.7-1.5,1-2.5,1s-1.8-0.3-2.5-1c-0.6-0.7-0.9-1.7-0.9-3
					C186.5,321.7,186.8,320.7,187.4,320z"/>
				<path class="st0" d="M210.3,326.6c0.6-1,0.9-2.2,0.9-3.6c0-1.5-0.3-2.7-0.9-3.6c-0.6-1-1.4-1.7-2.3-2.2
					c-0.9-0.5-1.9-0.7-3.1-0.7s-2.2,0.2-3.1,0.7c-0.9,0.5-1.7,1.3-2.3,2.2c-0.6,1-0.9,2.2-0.9,3.6c0,1.5,0.3,2.7,0.9,3.6
					c0.6,1,1.4,1.7,2.3,2.2c0.9,0.5,1.9,0.7,3.1,0.7s2.2-0.2,3.1-0.7C209,328.3,209.8,327.6,210.3,326.6z M204.8,327.1
					c-1,0-1.8-0.3-2.5-1c-0.6-0.7-0.9-1.7-0.9-3s0.3-2.3,0.9-3s1.5-1,2.5-1c1,0,1.8,0.3,2.5,1c0.6,0.7,0.9,1.7,0.9,3s-0.3,2.3-0.9,3
					C206.8,326.7,205.9,327.1,204.8,327.1z"/>
				<path class="st0" d="M224.9,326.3c0.6-1,0.8-2.3,0.8-3.6c0-1.4-0.2-2.5-0.7-3.4c-0.5-0.9-1.1-1.7-1.8-2.2
					c-0.8-0.5-1.6-0.7-2.6-0.7c-0.8,0-1.5,0.1-2.1,0.5c-0.6,0.3-1.1,0.8-1.7,1.5l0,0l-0.6-1.6h-2.1V334h2.9v-5.2
					c0.8,0.5,1.7,0.7,2.9,0.7c1,0,2.1-0.2,3-0.8C223.7,328.1,224.3,327.3,224.9,326.3z M222.3,325.1c-0.3,0.7-0.7,1.1-1.3,1.5
					c-0.6,0.3-1.1,0.5-1.7,0.5c-0.5,0-0.9-0.1-1.3-0.2c-0.3-0.1-0.7-0.3-1-0.6v-5.7c0.5-0.6,0.8-1,1.3-1.4c0.5-0.3,1-0.5,1.6-0.5
					c0.8,0,1.5,0.3,2.1,1c0.6,0.7,0.8,1.7,0.8,3C222.8,323.8,222.6,324.6,222.3,325.1z"/>
				<path class="st0" d="M231.2,328.8c0.9,0.5,1.9,0.7,3.2,0.7c2.1,0,3.9-0.6,5.2-1.7l-1.1-1.8c-1,0.8-2.3,1.3-3.8,1.3
					c-2.2,0-3.4-1.1-3.8-3.4h8.6c0.1-0.3,0.1-0.9,0.1-1.6c0-1-0.2-2.1-0.6-2.9c-0.5-0.9-1-1.6-1.8-2.2c-0.8-0.6-1.8-0.8-3.1-0.8
					c-1.1,0-2.3,0.2-3.2,0.8c-0.9,0.6-1.6,1.4-2.2,2.3c-0.5,1-0.8,2.2-0.8,3.5c0,1.5,0.2,2.6,0.8,3.6
					C229.5,327.6,230.3,328.3,231.2,328.8z M232,319.4c0.6-0.6,1.3-0.8,2.3-0.8c0.9,0,1.6,0.3,2.1,0.9c0.5,0.6,0.8,1.4,0.8,2.5h-6
					C231.1,320.8,231.4,320,232,319.4z"/>
				<path class="st0" d="M245.8,321.7c0.2-0.9,0.7-1.6,1.1-1.9c0.5-0.5,0.9-0.6,1.6-0.6c0.3,0,0.8,0.1,1.3,0.2l0.5-2.6
					c-0.5-0.2-0.9-0.3-1.5-0.3c-1.4,0-2.4,0.7-3,2.2h-0.1l-0.5-1.8h-2.2v12.4h2.9v-7.5H245.8z"/>
				<path class="st0" d="M262.1,326.3v-5.4c0-1.5-0.5-2.6-1.3-3.4c-0.9-0.8-2.2-1.1-3.8-1.1c-0.9,0-1.8,0.1-2.6,0.5
					c-0.8,0.3-1.6,0.7-2.3,1.3l1.1,1.8c1-0.8,2.2-1.1,3.3-1.1c1.7,0,2.6,0.8,2.6,2.4v1.3c-0.9-0.2-1.8-0.3-2.7-0.3
					c-1.5,0-2.6,0.3-3.5,0.9c-0.9,0.7-1.4,1.6-1.4,2.9c0,1.1,0.3,2.1,1.1,2.7c0.8,0.7,1.8,1,3,1c1.6,0,3-0.6,3.9-1.8
					c0.2,1.1,0.9,1.7,2.2,1.7c0.7,0,1.3-0.1,1.5-0.3l0.2-1.8c-0.1,0-0.3,0-0.7,0C262.3,327.2,262.1,326.9,262.1,326.3z M259.3,325.7
					c-0.3,0.5-0.8,0.9-1.3,1.3c-0.6,0.3-1.1,0.5-1.7,0.5s-1-0.1-1.5-0.5c-0.5-0.2-0.6-0.7-0.6-1.3s0.2-1,0.7-1.4
					c0.5-0.3,1.1-0.5,1.8-0.5c0.5,0,0.8,0,1.4,0.1c0.5,0.1,0.9,0.1,1.1,0.2L259.3,325.7L259.3,325.7z"/>
				<path class="st0" d="M270.7,327c-0.7,0-1-0.3-1-1.1v-6.7h3.1v-2.4h-3.1v-3.2H268l-1.3,1.6v1.6h-1.9v2.4h1.9v7.3
					c0,2.1,1,3.1,3.2,3.1c1.1,0,2.1-0.3,3.1-0.9l-0.7-2.1C271.7,326.9,271.1,327,270.7,327z"/>
				<rect x="275.8" y="316.7" class="st0" width="2.9" height="12.4"/>
				<path class="st0" d="M277.3,315c0.5,0,0.9-0.1,1.3-0.5c0.3-0.2,0.6-0.7,0.6-1.3s-0.2-0.9-0.6-1.3c-0.3-0.2-0.8-0.5-1.3-0.5
					c-0.5,0-0.9,0.1-1.3,0.5c-0.3,0.2-0.5,0.7-0.5,1.3s0.1,0.9,0.5,1.3C276.4,314.9,276.8,315,277.3,315z"/>
				<polygon class="st0" points="287.4,326.2 284.2,316.7 281.1,316.7 286.1,329.2 288.7,329.2 293.8,316.7 290.7,316.7 				"/>
				<path class="st0" d="M306.5,327.2c-0.5,0-0.7-0.3-0.7-0.9v-5.4c0-1.5-0.5-2.6-1.3-3.4c-0.9-0.8-2.2-1.1-3.8-1.1
					c-0.9,0-1.8,0.1-2.6,0.5s-1.6,0.7-2.3,1.3l1.1,1.8c1-0.8,2.2-1.1,3.3-1.1c1.7,0,2.6,0.8,2.6,2.4v1.3c-0.9-0.2-1.8-0.3-2.7-0.3
					c-1.5,0-2.6,0.3-3.5,0.9c-0.9,0.7-1.4,1.6-1.4,2.9c0,1.1,0.3,2.1,1.1,2.7c0.8,0.7,1.8,1,3,1c1.6,0,3-0.6,3.9-1.8
					c0.2,1.1,0.9,1.7,2.2,1.7c0.7,0,1.3-0.1,1.5-0.3l0.2-1.8C307,327.2,306.8,327.2,306.5,327.2z M302.9,325.7
					c-0.3,0.5-0.8,0.9-1.3,1.3c-0.6,0.3-1.1,0.5-1.7,0.5s-1-0.1-1.5-0.5c-0.5-0.2-0.6-0.7-0.6-1.3s0.2-1,0.7-1.4
					c0.5-0.3,1.1-0.5,1.8-0.5c0.5,0,0.8,0,1.4,0.1c0.5,0.1,0.9,0.1,1.1,0.2L302.9,325.7L302.9,325.7z"/>
			</g>
			<g>
				<path class="st0" d="M324.5,317.6c-0.9-0.8-2.1-1.1-3.4-1.1c-0.9,0-1.8,0.2-2.6,0.7c-0.8,0.5-1.5,1.3-2.1,2.2
					c-0.5,1-0.8,2.2-0.8,3.6c0,1.5,0.2,2.7,0.8,3.8c0.6,1,1.3,1.7,2.1,2.2c0.8,0.5,1.7,0.7,2.6,0.7c0.8,0,1.5-0.1,2.1-0.5
					c0.7-0.3,1.1-0.8,1.6-1.4l0,0l0.3,1.5h2.1v-17.9h-2.9v6.3H324.5z M324.5,325.4c-0.3,0.5-0.7,0.9-1.3,1.1c-0.5,0.3-1,0.5-1.6,0.5
					s-1-0.1-1.5-0.5c-0.5-0.3-0.9-0.8-1.1-1.4c-0.3-0.6-0.5-1.4-0.5-2.3c0-1.3,0.3-2.3,0.9-3c0.6-0.7,1.4-1,2.3-1
					c1.1,0,2.1,0.5,2.9,1.3v5.2H324.5z"/>
				<path class="st0" d="M341.9,322.2c0-1-0.2-2.1-0.6-2.9c-0.5-0.9-1-1.6-1.8-2.2c-0.8-0.6-1.8-0.8-3.1-0.8c-1.1,0-2.3,0.2-3.2,0.8
					s-1.6,1.4-2.2,2.3c-0.5,1-0.8,2.2-0.8,3.5c0,1.5,0.2,2.6,0.8,3.6c0.6,1,1.3,1.7,2.3,2.2c0.9,0.5,1.9,0.7,3.2,0.7
					c2.1,0,3.9-0.6,5.2-1.7l-1.1-1.8c-1,0.8-2.3,1.3-3.8,1.3c-2.2,0-3.4-1.1-3.8-3.4h8.6C341.8,323.4,341.9,322.9,341.9,322.2z
					 M333.2,321.9c0.1-1.1,0.5-1.9,1-2.5s1.3-0.8,2.3-0.8c0.9,0,1.6,0.3,2.1,0.9s0.8,1.4,0.8,2.5h-6.2V321.9z"/>
				<path class="st0" d="M358,327.1c-1,0-1.9-0.3-2.6-1.1c-0.7-0.8-1-1.8-1-3.1s0.3-2.3,1-3c0.7-0.7,1.6-1,2.6-1
					c0.6,0,1.1,0.1,1.6,0.2c0.5,0.2,0.9,0.5,1.4,0.8l1.1-2.1c-0.6-0.5-1.3-0.9-2.1-1.1c-0.8-0.2-1.6-0.3-2.4-0.3
					c-1.1,0-2.2,0.2-3.1,0.8c-0.9,0.6-1.7,1.3-2.3,2.3c-0.6,1-0.8,2.2-0.8,3.5s0.2,2.6,0.8,3.5c0.6,1,1.3,1.8,2.3,2.3
					c0.9,0.6,2.1,0.8,3.2,0.8c0.9,0,1.8-0.1,2.6-0.5c0.8-0.3,1.5-0.8,2.1-1.3l-1.3-1.8C360.2,326.7,359.2,327.1,358,327.1z"/>
				<path class="st0" d="M367.8,318.5L367.8,318.5l-0.6-1.8h-2.2v12.4h2.9v-7.5c0.2-0.9,0.7-1.6,1.1-1.9c0.5-0.5,0.9-0.6,1.6-0.6
					c0.3,0,0.8,0.1,1.3,0.2l0.5-2.6c-0.5-0.2-0.9-0.3-1.5-0.3C369.5,316.4,368.5,317.2,367.8,318.5z"/>
				<path class="st0" d="M385.2,322.2c0-1-0.2-2.1-0.6-2.9c-0.5-0.9-1-1.6-1.8-2.2s-1.8-0.8-3.1-0.8c-1.1,0-2.3,0.2-3.2,0.8
					s-1.6,1.4-2.2,2.3c-0.5,1-0.8,2.2-0.8,3.5c0,1.5,0.2,2.6,0.8,3.6c0.6,1,1.3,1.7,2.3,2.2c0.9,0.5,1.9,0.7,3.2,0.7
					c2.1,0,3.9-0.6,5.2-1.7l-1.1-1.8c-1,0.8-2.3,1.3-3.8,1.3c-2.2,0-3.4-1.1-3.8-3.4h8.6C385.2,323.4,385.2,322.9,385.2,322.2z
					 M376.5,321.9c0.1-1.1,0.5-1.9,1-2.5s1.3-0.8,2.3-0.8c0.9,0,1.6,0.3,2.1,0.9c0.5,0.6,0.8,1.4,0.8,2.5h-6.2V321.9z"/>
				<polygon class="st0" points="380.2,315.2 383.2,312 379.9,312 378.3,315.2 				"/>
				<path class="st0" d="M396.6,317.6c-0.9-0.8-2.1-1.1-3.4-1.1c-0.9,0-1.8,0.2-2.6,0.7c-0.8,0.5-1.5,1.3-2.1,2.2
					c-0.5,1-0.8,2.2-0.8,3.6c0,1.5,0.2,2.7,0.8,3.8c0.6,1,1.3,1.7,2.1,2.2c0.8,0.5,1.7,0.7,2.6,0.7c0.8,0,1.5-0.1,2.1-0.5
					c0.7-0.3,1.1-0.8,1.6-1.4l0,0l0.3,1.5h2.1v-17.9h-2.9v6.3H396.6z M396.6,325.4c-0.3,0.5-0.7,0.9-1.3,1.1c-0.5,0.3-1,0.5-1.6,0.5
					s-1-0.1-1.5-0.5c-0.5-0.3-0.9-0.8-1.1-1.4c-0.3-0.6-0.5-1.4-0.5-2.3c0-1.3,0.3-2.3,0.9-3c0.6-0.7,1.4-1,2.3-1
					c1.1,0,2.1,0.5,2.9,1.3v5.2H396.6z"/>
				<path class="st0" d="M404.8,311.7c-0.5,0-0.9,0.1-1.3,0.5c-0.3,0.2-0.5,0.7-0.5,1.3s0.1,0.9,0.5,1.3c0.3,0.2,0.8,0.5,1.3,0.5
					c0.5,0,0.9-0.1,1.3-0.5c0.3-0.2,0.6-0.7,0.6-1.3s-0.2-0.9-0.6-1.3C405.7,311.9,405.2,311.7,404.8,311.7z"/>
				<rect x="403.3" y="316.7" class="st0" width="2.9" height="12.4"/>
				<path class="st0" d="M414.7,327c-0.7,0-1-0.3-1-1.1v-6.7h3.1v-2.4h-3.1v-3.2h-1.6l-1.3,1.6v1.6h-1.9v2.4h1.9v7.3
					c0,2.1,1,3.1,3.2,3.1c1.1,0,2.1-0.3,3.1-0.9l-0.7-2.1C415.9,326.9,415.3,327,414.7,327z"/>
				<path class="st0" d="M428.2,317c-0.9-0.5-1.9-0.7-3.1-0.7s-2.2,0.2-3.1,0.7c-0.9,0.5-1.7,1.3-2.3,2.2c-0.6,1-0.9,2.2-0.9,3.6
					c0,1.5,0.3,2.7,0.9,3.6c0.6,1,1.4,1.7,2.3,2.2c0.9,0.5,1.9,0.7,3.1,0.7s2.2-0.2,3.1-0.7c0.9-0.5,1.7-1.3,2.3-2.2
					c0.6-1,0.9-2.2,0.9-3.6c0-1.5-0.3-2.7-0.9-3.6S429.2,317.6,428.2,317z M427.6,325.9c-0.6,0.7-1.5,1-2.5,1c-1,0-1.8-0.3-2.5-1
					c-0.6-0.7-0.9-1.7-0.9-3c0-1.3,0.3-2.3,0.9-3c0.6-0.7,1.5-1,2.5-1c1,0,1.8,0.3,2.5,1c0.6,0.7,0.9,1.7,0.9,3
					C428.5,324.2,428.2,325.3,427.6,325.9z"/>
			</g>
		</g>
	</g>
	<g>
		<path class="st1" d="M466.6,181.3l-0.5,11.7l45.9,9.5l-40-24.1C469.7,177.1,466.7,178.7,466.6,181.3z"/>
		<path class="st1" d="M462.5,272.1c-0.1,3.6,4.7,5.1,6.5,1.9l43-71.5l-48,35.9L462.5,272.1z"/>
		<path class="st1" d="M423.3,184.3c-2.9-0.6-5.1,2.4-3.9,5l27.7,56.6c0.9,1.9,3.5,2.6,5.2,1.3l11.5-8.7l2.1-45.4L423.3,184.3z"/>
	</g>
</g>
</svg>
