<?xml version="1.0" encoding="UTF-8"?>
<!DOCTYPE svg PUBLIC "-//W3C//DTD SVG 1.1//EN" "http://www.w3.org/Graphics/SVG/1.1/DTD/svg11.dtd">
<!-- Creator: CorelDRAW 2019 (64 Bit) -->
<svg xmlns="http://www.w3.org/2000/svg" xml:space="preserve" width="1206px" height="1206px" version="1.1" style="shape-rendering:geometricPrecision; text-rendering:geometricPrecision; image-rendering:optimizeQuality; fill-rule:evenodd; clip-rule:evenodd"
viewBox="0 0 255.87 255.87"
 xmlns:xlink="http://www.w3.org/1999/xlink">
 <defs>
  <style type="text/css">
   <![CDATA[
    .fil1 {fill:#FFDD21}
    .fil2 {fill:#57B952}
    .fil0 {fill:#08558C}
   ]]>
  </style>
 </defs>
 <g id="Camada_x0020_1">
  <metadata id="CorelCorpID_0Corel-Layer"/>
  <circle class="fil0" cx="127.94" cy="127.94" r="127.94"/>
  <g id="_1990512660624">
   <path class="fil1" d="M210.69 193.19c-17.8,19.66 -43.52,32.01 -72.13,32.01 -0.82,0 -1.64,-0.01 -2.45,-0.03 -0.25,-0.01 -0.49,-0.02 -0.73,-0.03 -0.58,-0.02 -1.17,-0.04 -1.75,-0.06 -0.27,-0.02 -0.55,-0.04 -0.82,-0.05 -0.53,-0.03 -1.05,-0.06 -1.57,-0.1 -0.35,-0.03 -0.7,-0.06 -1.04,-0.09 -0.47,-0.04 -0.94,-0.08 -1.4,-0.13 -0.34,-0.03 -0.67,-0.07 -1,-0.11 -0.46,-0.05 -0.92,-0.1 -1.38,-0.15 -0.35,-0.05 -0.71,-0.1 -1.06,-0.14 -0.45,-0.07 -0.89,-0.13 -1.34,-0.19 -0.34,-0.05 -0.67,-0.11 -1.01,-0.16 -0.45,-0.08 -0.9,-0.15 -1.35,-0.23 -0.34,-0.06 -0.68,-0.12 -1.02,-0.18 -0.44,-0.09 -0.87,-0.17 -1.31,-0.25 -0.35,-0.07 -0.71,-0.15 -1.07,-0.23 -0.42,-0.09 -0.84,-0.18 -1.25,-0.27 -0.35,-0.08 -0.69,-0.16 -1.04,-0.24 -0.42,-0.1 -0.85,-0.21 -1.27,-0.31l-1.04 -0.27c-0.4,-0.11 -0.79,-0.21 -1.19,-0.32 -0.38,-0.11 -0.76,-0.22 -1.14,-0.33l-1.09 -0.32c-0.39,-0.12 -0.78,-0.24 -1.16,-0.36 -0.36,-0.12 -0.72,-0.23 -1.08,-0.35 -0.37,-0.13 -0.75,-0.25 -1.12,-0.38l-1.12 -0.4c-0.35,-0.12 -0.7,-0.25 -1.05,-0.37 -0.39,-0.15 -0.77,-0.3 -1.16,-0.45 -0.35,-0.13 -0.69,-0.26 -1.03,-0.4 -0.37,-0.15 -0.72,-0.29 -1.08,-0.44 -0.36,-0.15 -0.72,-0.3 -1.07,-0.45 -0.38,-0.16 -0.75,-0.32 -1.12,-0.49 -0.33,-0.14 -0.65,-0.29 -0.98,-0.43 -0.38,-0.18 -0.76,-0.36 -1.15,-0.54 -0.32,-0.15 -0.64,-0.3 -0.96,-0.46 -0.35,-0.17 -0.7,-0.34 -1.05,-0.52 -0.34,-0.17 -0.69,-0.34 -1.04,-0.52 -0.3,-0.15 -0.6,-0.32 -0.9,-0.47 -0.39,-0.21 -0.77,-0.41 -1.16,-0.62l-0.67 -0.38c-0.45,-0.25 -0.9,-0.5 -1.35,-0.76l-0.32 -0.18c-2.35,-1.38 -4.64,-2.85 -6.87,-4.4l-0.42 -0.29c-0.49,-0.35 -0.97,-0.7 -1.45,-1.06l-0.37 -0.27c-0.48,-0.35 -0.95,-0.71 -1.42,-1.08l-0.39 -0.29c-0.43,-0.34 -0.86,-0.69 -1.28,-1.03l-0.51 -0.41c-0.4,-0.33 -0.8,-0.66 -1.19,-1l-0.56 -0.47c-0.37,-0.32 -0.74,-0.65 -1.11,-0.97l-0.61 -0.54c-0.37,-0.34 -0.74,-0.67 -1.1,-1.01l-0.55 -0.51c-0.38,-0.36 -0.75,-0.72 -1.12,-1.08l-0.51 -0.5c-0.36,-0.36 -0.72,-0.72 -1.08,-1.09l-0.51 -0.52c-0.37,-0.38 -0.73,-0.76 -1.09,-1.15l-0.45 -0.48c-0.37,-0.4 -0.74,-0.8 -1.1,-1.21l-0.4 -0.45c-0.37,-0.42 -0.74,-0.84 -1.1,-1.26l-0.36 -0.44c-0.38,-0.44 -0.75,-0.89 -1.12,-1.35l-0.27 -0.33c-0.39,-0.48 -0.77,-0.96 -1.14,-1.45l-0.25 -0.33c-0.38,-0.49 -0.76,-0.99 -1.13,-1.49l-0.19 -0.27c-0.39,-0.52 -0.76,-1.04 -1.14,-1.57l-0.16 -0.24c-0.38,-0.54 -0.76,-1.09 -1.13,-1.65l-0.08 -0.12c-0.39,-0.6 -0.78,-1.19 -1.16,-1.79l0 -0.01c-5.21,-8.2 -9.22,-17.25 -11.79,-26.88l-0.01 -0.07c-0.19,-0.71 -0.37,-1.42 -0.54,-2.13l-0.04 -0.13c-0.17,-0.7 -0.32,-1.4 -0.48,-2.11l-0.04 -0.17c-0.14,-0.7 -0.28,-1.39 -0.42,-2.09l-0.04 -0.22c-0.13,-0.69 -0.25,-1.38 -0.37,-2.08l-0.04 -0.23c-0.12,-0.7 -0.22,-1.4 -0.32,-2.11l-0.03 -0.19c-0.1,-0.72 -0.19,-1.44 -0.28,-2.16l-0.02 -0.17c-0.08,-0.74 -0.16,-1.48 -0.23,-2.23l0 -0.06c-0.07,-0.77 -0.14,-1.54 -0.19,-2.31l0 -0.01c-0.15,-2.21 -0.23,-4.43 -0.23,-6.67l0 0 0 -0.01 0 0 0 -0.01 0 0 0 -0.01 0 0 0 -0.01 0 0 0 -0.01 0 0 0 -0.01 0 0 0 -0.01 0 0 0 -0.01 0 0 0 -0.01 0 0 0 -0.01 0 -0.01 0 0 0 -0.01 0 0 0 -0.01 0 0 0 -0.01 0 0 0 -0.01 0 0 0 -0.01 0 0c0.07,-43.44 28.66,-80.19 68,-92.62l-0.01 22.73c-27.34,11.44 -46.56,38.41 -46.63,69.89l0 0 0 0.02 0 0 0 0.01 0 0 0 0.01 0 0.01 0 0 0 0.01 0 0.01 0 0 0 0.01 0 0 0 0.01 0 0 0 0.01 0 0 0 0.01 0 0 0 0.01 0 0 0 0.01 0 0 0 0.01 0 0 0 0.01 0 0 0 0.01 0 0c0,2.27 0.1,4.51 0.3,6.72 0.05,0.57 0.1,1.14 0.16,1.7l0.02 0.16c0.07,0.56 0.13,1.11 0.21,1.66l0.01 0.12c0.9,6.54 2.62,12.82 5.07,18.72l0.01 0.02c0.21,0.5 0.42,1 0.64,1.5l0.07 0.15c0.21,0.48 0.42,0.95 0.64,1.42l0.1 0.2c0.22,0.47 0.45,0.94 0.68,1.4l0.08 0.16c0.22,0.45 0.45,0.9 0.69,1.34l0.14 0.28c0.23,0.42 0.46,0.85 0.69,1.27l0.14 0.26c0.24,0.42 0.48,0.83 0.72,1.25l0.17 0.28c0.24,0.41 0.49,0.83 0.74,1.23l0.16 0.25c0.26,0.42 0.52,0.83 0.78,1.24l0.14 0.21c0.28,0.42 0.56,0.84 0.84,1.26l0.09 0.13c2.24,3.25 4.72,6.33 7.42,9.19l0.11 0.12c0.36,0.38 0.73,0.76 1.11,1.13l0.09 0.1c0.32,0.32 0.64,0.63 0.95,0.94l0.35 0.34c0.29,0.28 0.59,0.56 0.89,0.84l0.38 0.35c0.31,0.29 0.62,0.56 0.93,0.84l0.38 0.33c0.31,0.28 0.63,0.56 0.95,0.83l0.38 0.32c0.3,0.25 0.61,0.5 0.92,0.75l0.48 0.39c0.3,0.24 0.59,0.47 0.89,0.7l0.5 0.38c0.3,0.23 0.6,0.45 0.9,0.68l0.53 0.38c0.3,0.22 0.59,0.43 0.89,0.64l0.58 0.4c0.28,0.2 0.57,0.39 0.86,0.59l0.63 0.41c0.29,0.19 0.58,0.38 0.88,0.57l0.57 0.35c0.31,0.2 0.62,0.4 0.94,0.59l0.54 0.32c0.33,0.19 0.66,0.38 0.99,0.57l0.6 0.34c0.31,0.17 0.62,0.34 0.93,0.51l0.66 0.35c0.31,0.17 0.63,0.33 0.94,0.5l0.28 0.14c0.43,0.21 0.86,0.43 1.3,0.64 0.52,0.25 1.05,0.5 1.58,0.74l0.02 0.01c0.28,0.12 0.57,0.25 0.86,0.37 0.25,0.11 0.5,0.23 0.76,0.34 0.31,0.13 0.62,0.25 0.93,0.38 0.25,0.1 0.49,0.21 0.74,0.3 0.3,0.12 0.6,0.23 0.9,0.35l0.79 0.3c0.3,0.11 0.6,0.21 0.9,0.32l0.81 0.29c0.28,0.09 0.57,0.19 0.86,0.28l0.88 0.29 0.84 0.26 0.91 0.27 0.8 0.22c0.33,0.09 0.66,0.18 0.99,0.27l0.78 0.2c0.33,0.08 0.66,0.16 0.99,0.24l0.81 0.19 0.98 0.21 0.84 0.17c0.32,0.07 0.64,0.13 0.96,0.19l0.85 0.15c0.33,0.06 0.66,0.11 0.99,0.17l0.85 0.13c0.33,0.05 0.66,0.09 1,0.14l0.84 0.11c0.34,0.04 0.67,0.08 1.01,0.12 0.28,0.03 0.57,0.06 0.86,0.09 0.34,0.03 0.68,0.06 1.02,0.09 0.28,0.02 0.57,0.05 0.85,0.07 0.41,0.03 0.83,0.05 1.25,0.08l0.6 0.03c0.55,0.03 1.11,0.05 1.68,0.07l0.21 0.01c0.65,0.01 1.29,0.02 1.94,0.02l0.39 0 0.02 0 0.37 0 0.03 0 0.36 -0.01 0.04 0 0.34 0 0.06 -0.01 0.33 0 0.07 0 0.31 -0.01 0.09 -0.01 0.3 0 0.1 -0.01 0.28 -0.01 0.12 0 0.27 -0.02 0.13 0 0.25 -0.01 0.15 -0.01 0.23 -0.02 0.17 0 0.21 -0.02 0.19 -0.01 0.19 -0.01 0.02 0 0.37 -0.03 0.21 -0.01 0.17 -0.02 0.22 -0.01 0.16 -0.01 0.24 -0.02 0.14 -0.02 0.25 -0.02 0.13 -0.01 0.27 -0.02 0.11 -0.01 0.75 -0.08 0.32 -0.03 0.06 -0.01 0.33 -0.04 0.05 0 0.34 -0.04 0.03 -0.01 0.36 -0.04 0.02 0 0.37 -0.05 0 0 0.38 -0.05 0.01 0 0.36 -0.05 0.03 -0.01 0.67 -0.09 0.04 -0.01 0.06 -0.01 0.32 -0.05 0.07 -0.01 0.3 -0.05 0.08 -0.01 0.29 -0.05 0.1 -0.02 0.27 -0.04 0.11 -0.02 0.26 -0.05 0.74 -0.13 0 0c0.49,-0.09 0.98,-0.19 1.46,-0.29l0.22 -0.04 0.15 -0.03 0.01 -0.01c0.72,-0.15 1.44,-0.31 2.16,-0.49l0.32 -0.08 0.05 -0.01 0.35 -0.09 0.34 -0.09 0.02 0 0.72 -0.19 0.01 0 0.35 -0.1 0.02 0 0.33 -0.1 0.04 -0.01 0.32 -0.09 0.05 -0.01 0.3 -0.09 0.07 -0.02 0.29 -0.08 0.26 -0.08 0.09 -0.03 0.09 -0.02 0.26 -0.09 0.11 -0.03 0.25 -0.07c0.34,-0.11 0.69,-0.22 1.03,-0.34l0.02 0 -0.03 -0.1c13.53,-4.44 24.97,-12.33 33.66,-22.36 0.76,-0.85 1.49,-1.75 2.19,-2.63l16.51 13.79c-0.44,0.46 -2.63,3.05 -3.9,4.42z"/>
   <path class="fil2" d="M174.3 88.91l15.23 -13.15c-4.61,-4.88 -10.24,-8.98 -16.42,-12.22l-29.11 25.05c9.33,-0.86 19.85,-0.65 30.3,0.32z"/>
   <path class="fil2" d="M137.24 30.69c20.35,-0.41 39.26,5.52 54.98,16.05l-0.1 26.86 -0.1 -0.1c-12.13,-12.88 -33.15,-22.33 -54.78,-21.91l0 -20.9z"/>
   <path class="fil2" d="M187.4 118.7l-50.15 42.37 0 27.51 74.48 -62.76c-7.01,-3.03 -15.47,-5.46 -24.33,-7.12z"/>
   <path class="fil2" d="M214.59 123.42c-19.98,-9.18 -50.16,-12.59 -69.26,-9.5l-5.9 -21.41c17.25,-2.48 45.5,-0.47 68.23,5.59l6.93 25.32z"/>
   <polygon class="fil2" points="112.54,181.94 133.89,191.42 133.89,51.74 112.64,34.14 "/>
  </g>
 </g>
</svg>
