<?xml version="1.0" encoding="UTF-8"?>
<svg id="Camada_1" xmlns="http://www.w3.org/2000/svg" version="1.1" viewBox="0 0 512 512">
  <!-- Generator: Adobe Illustrator 29.8.9, SVG Export Plug-In . SVG Version: 2.1.1 Build 1)  -->
  <defs>
    <style>
      .st0 {
        fill: #e80070;
      }
    </style>
  </defs>
  <path class="st0" d="M215.7,446.8c3,0,5.5,2.2,5.5,5.1v9.4c0,2.9-2.5,5.1-5.5,5.1h-10.2c-3,0-5.5-2.2-5.5-5.1v-9.4c0-2.9,2.5-5.1,5.5-5.1h10.2ZM150.3,413.2h.7c1,.3,1.6,1,1.6,2.2v.7l-12.1,34.1c0,.4-.3.8-.7,1-.4.3-.8.4-1.3.4s-.5,0-.8-.1c-1-.3-1.6-1-1.6-2.2s0-.4,0-.5l3.1-8.5-8.4-24v-.7c0-1,.5-1.8,1.7-2.2h.7c.5,0,.9.1,1.3.4.4.3.7.7.7,1l6.6,18.9,6.6-18.9c0-.4.3-.8.7-1,.4-.3.8-.4,1.3-.4h0ZM104,402.5c.7,0,1.2.3,1.6.7.5.4.7.9.7,1.6v11.9c2.6-2.4,5.8-3.5,9.3-3.5s7.2,1.3,10,4.1c2.8,2.8,4.1,5.9,4.1,9.8s-1.3,7.2-4.1,9.8c-2.8,2.8-6,4.1-10,4.1s-6.7-1.2-9.3-3.5h0v1.2c0,.5-.3,1-.7,1.6-.5.4-1,.7-1.6.7s-1-.3-1.6-.7c-.5-.4-.7-.9-.7-1.6v-33.7c0-.5.3-1,.7-1.6.5-.4,1-.7,1.6-.7h0ZM193.5,423.9c2.6,0,4.7,2,4.7,4.2v7.9c0,2.4-2.1,4.2-4.7,4.2h-8.7c-2.6,0-4.7-1.8-4.7-4.2v-7.9c0-2.4,2.1-4.2,4.7-4.2h8.7ZM222.1,399.2c3.3,0,6.4.9,9.1,3s1.3,1.3,1.7,2c.5.9.5,2,0,2.9-.7.9-1.7,1.4-2.8,1.2-1-.3-2.1-.7-3.1-1.2-2-1-3.9-1.7-6.2-1.4-.8,0-1.4.3-2.1.7-2.1,1.2-2.4,3.9-.7,5.8.8.8,1.7,1.4,2.6,2,1.7,1,3.5,2,5.4,2.9l1.8.9c2.1,1.2,3.9,2.6,5.1,4.9,2.8,5.5.9,11.4-4.6,14.2-5.1,2.6-12.7,1.7-16.9-2.1-.8-.7-1.4-1.6-1.7-2.6-.5-2.5,1.8-4.3,4.2-3.3.8.4,1.6.8,2.4,1.3,2.2,1.4,4.6,2.1,7.3,1.7,1.3-.3,2.5-.8,3.3-2,1-1.6.7-3.5-.9-5.2-1.3-1.3-2.9-2.2-4.6-3.1-2-1-3.9-2-5.9-3-2.2-1.2-3.9-2.9-5-5.4-2-4.9-.1-10,4.5-12.6,2.1-1.2,4.5-1.7,7-1.7v.4ZM257.4,400.9c10.5,0,19.4,8.1,19.5,17.7,0,1.7-1.2,3-2.6,3.3h-29.9c1.2,6,6.4,10.4,13,10.4s6.7-1,8.9-3.3c.7-.7,1.6-1.2,2.6-1.2,1.7,0,3.3,1.4,3.3,3.1s-.5,1.7-1.2,2.4c-3.5,3.4-8.4,5.4-13.6,5.4-11,0-19.8-8.5-19.8-18.9s8.8-18.8,19.8-18.8h0ZM298.1,399.2c2.1,0,3.5,1.6,3.5,3.3s-1.6,3.4-3.5,3.4c-5.1.1-9.7,2-9.7,9.7v19.9c0,1.7-1.6,3.1-3.1,3.1s-3.3-1.4-3.3-3.1v-32.8c0-1.7,1.6-3.1,3.3-3.1s3.1,1.4,3.1,3c2.6-2.1,6-3.3,9.7-3.3h0ZM319.7,399.2c5,0,9.6,2,13.1,5v-1.6c0-1.6,1.3-2.9,2.9-3.1h.3c1.6,0,3.1,1.4,3.1,3.1v32.5c0,1.7-1.6,3.1-3.1,3.1s-3.3-1.4-3.3-3.1v-1.6c-3.5,3.1-8.1,5-13.1,5-11,0-19.8-8.9-19.8-19.8s8.8-19.5,19.8-19.5h.1ZM355,399.2c3.3,0,6.4.9,9.1,3,.7.5,1.3,1.3,1.7,2,.5.9.5,2,0,2.9-.7.9-1.7,1.4-2.8,1.2s-2.1-.7-3.1-1.2c-2-1-3.9-1.7-6.2-1.4-.8,0-1.4.3-2.1.7-2.1,1.2-2.4,3.9-.7,5.8.8.8,1.7,1.4,2.6,2,1.7,1,3.5,2,5.4,2.9l1.8.9c2.1,1.2,3.9,2.6,5.1,4.9,2.8,5.5.9,11.4-4.6,14.2-5.1,2.6-12.7,1.7-16.9-2.1-.8-.7-1.4-1.6-1.7-2.6-.5-2.5,1.8-4.3,4.2-3.3.8.4,1.6.8,2.4,1.3,2.2,1.4,4.6,2.1,7.3,1.7,1.3-.3,2.5-.8,3.3-2,1-1.6.7-3.5-.9-5.2-1.3-1.3-2.9-2.2-4.6-3.1-2-1-3.9-2-5.9-3-2.2-1.2-3.9-2.9-5-5.4-2-4.9-.1-10,4.5-12.6,2.1-1.2,4.5-1.7,7-1.7v.4ZM390.2,399.2c5,0,9.6,2,13.1,5v-1.6c0-1.6,1.3-2.9,2.9-3.1h.3c1.6,0,3.1,1.4,3.1,3.1v32.5c0,1.7-1.6,3.1-3.1,3.1s-3.3-1.4-3.3-3.1v-1.6c-3.5,3.1-8.1,5-13.1,5-11,0-19.8-8.9-19.8-19.8s8.8-19.5,19.8-19.5h.1ZM115.7,417.7c-2.6,0-4.9.9-6.6,2.8-1.8,1.8-2.8,3.9-2.8,6.6s.9,4.9,2.8,6.6c1.8,1.8,4.1,2.8,6.6,2.8s4.9-.9,6.7-2.8c1.8-1.8,2.8-4.1,2.8-6.6s-.9-4.7-2.8-6.6-4.1-2.8-6.7-2.8ZM319.7,405.8c-7.3,0-13.3,5.8-13.3,13.1s5.8,13.3,13.3,13.3,13.1-5.9,13.1-13.3-5.8-13.1-13.1-13.1ZM390.2,405.8c-7.3,0-13.3,5.8-13.3,13.1s5.8,13.3,13.3,13.3,13.1-5.9,13.1-13.3-5.8-13.1-13.1-13.1ZM257.4,407.1c-6,0-10.9,3.7-12.6,8.7h25.1c-1.7-5.1-6.6-8.7-12.5-8.7ZM194.7,385.2c3.9,0,7.2,3.3,7.2,7.2v13.4c0,3.9-3.3,7.2-7.2,7.2h-13.4c-3.9,0-7.2-3.3-7.2-7.2v-13.4c0-3.9,3.3-7.2,7.2-7.2h13.4ZM250.6,377.9c1.8,0,3.4,1.6,3.4,3.4v6.3c0,1.8-1.6,3.4-3.4,3.4h-6.3c-1.8,0-3.4-1.6-3.4-3.4v-6.3c0-1.8,1.6-3.4,3.4-3.4h6.3ZM225.5,361.5c3.5,0,6.4,2.9,6.4,6.4v11.9c0,3.5-2.9,6.4-6.4,6.4h-11.9c-3.5,0-6.4-2.9-6.4-6.4v-11.9c0-3.5,2.9-6.4,6.4-6.4h11.9ZM172.4,273c6.7-14.7,23.9-21.6,40.4-16.1,13.9,4.7,21.8,18.8,19.5,35-.3,2.1-2.1,3.7-4.2,3.7h-37.8c4.1,8.3,15.5,9.7,28.1,3.9,2.4-1,5.8,4.1,7,6.2,1,2,1.6,4.3,0,5.9-9.6,9.3-27.4,11.3-40.4,3.8-14-8-19.4-26.6-12.5-42.2h-.1ZM303.2,255c19.2,0,33.2,13.6,33.2,32.4s-14.2,32.4-33.2,32.5c-19.3,0-33.3-13.8-33.3-32.7s14-32.1,33.3-32.1h0ZM107,255.9h13.5c1.7,0,4.5,1.3,5.5,4.1,3.8,9.4,7.3,19,11,28.6.7,1.7,1.3,3.3,2.2,5.6,4.5-11.8,8.8-22.8,12.7-34,1.2-3.1,2.5-4.3,6.2-4.2h13c1.7,0,2.9,1.7,2.2,3.4-2.4,5.8-4.6,11.4-7,16.9-5.5,13.1-11,26.2-16.4,39.5-.9,2.2-2,3.3-4.6,3.1-4.5-.3-8.9,0-13.4-.1-1.2,0-3-1-3.4-2.1-8-19-16-38.2-23.9-57.3-.5-1.3.1-3.4,2.2-3.4h0ZM393.6,256.2c1.3,0,2.4,1,2.5,2.4,0,3,0,6.2-2.1,9.1-6.7,9.3-20.6,24-27.3,33.6h23.9c1.3,0,2.5,1,2.5,2.5v12.5c0,1.3-1,2.5-2.5,2.5h-50.4c-1.3,0-2.4-.9-2.4-2.2-.4-4.1-.4-9.1,1.7-12.5,6.8-10.5,23.2-26.5,25.6-30.3h-24.1c-1.3,0-2.4-1.2-2.4-2.5v-12.5h0c0-1.3,1-2.5,2.4-2.5h52.7-.1ZM238.4,255.9h14.4c3.4,0,6.2,2.8,6.2,6.3v38.3h5.4c1.3,0,2.4,1,2.4,2.5v14.3c0,.8-.7,1.4-1.4,1.4h-24.9c-.8,0-1.4-.7-1.4-1.4v-42.1h-1.6c-.8,0-1.4-.7-1.4-1.4v-15.2c0-1.3,1-2.5,2.5-2.5h0ZM303.3,271.7c-9.3,0-14.2,7.9-14,15.7,0,7.5,6.4,14.4,13.8,14.4s13.9-7.6,13.9-14.4-4.3-15.9-13.6-15.9h0ZM201.6,272.3c-5.6,0-10.1,2.9-12.1,8h23.6c-1.7-5.2-5.9-8-11.5-8ZM119.6,171.4c16.1,0,29.1,14.3,29.1,32s-13,32-29.1,32-13.4-2.6-18.4-7.1v24.4c0,3.5-2.8,6.3-6.3,6.3h-11.7c-1.3,0-2.5-1-2.5-2.4v-82c0-1.3,1-2.4,2.4-2.4h11.9c3.4,0,6.2,2.8,6.2,6.3,5-4.5,11.4-7.2,18.4-7.2ZM255.4,171.4c7,0,13.4,2.6,18.4,7.2,0-3.4,2.8-6.3,6.2-6.3h11.8c1.3,0,2.4,1,2.4,2.5v23.5c0,7.9,0,15.7.1,23.6v7.3c0,3.3-.3,6.7-1,9.8-.9,3.9-3,7.2-5.8,10.1-5,5-11.9,8.1-18.8,9.7-2.2.5-4.6-.3-6.2-2.1l-7-8.1c-1-1.3-.7-3.3.9-3.8,2.4-.9,4.6-1.8,6.8-2.9,5.4-2.5,10.2-7.2,10.4-13.5h0c-5,4.3-11.4,7.1-18.5,7.1-16.1,0-29.1-14.3-29.1-32s13-32,29.1-32h.3ZM370.9,189.3c6.7-14.7,23.9-21.6,40.4-16.1,13.9,4.7,21.8,18.8,19.5,35-.3,2.1-2.1,3.7-4.2,3.7h-37.8c4.1,8.3,15.5,9.7,28.1,3.9,2.4-1,5.8,4.1,7,6.2,1,2,1.6,4.3,0,5.9-9.6,9.3-27.4,11.3-40.4,3.8-14-8-19.4-26.6-12.5-42.2h-.1ZM360.5,172.2c1.3,0,2.5,1,2.5,2.5v57.9c0,1.3-1,2.5-2.5,2.5h-12.5c-2.6,0-4.1-1.3-4.9-2.6-.8-1.2-2.2-1.6-3.4-.8-3,2-7,3.5-10.8,3.9-12.5,1.4-25.8-6.3-26.8-19.5-.8-13-.3-24.4-.3-37.7s3.4-6,6-6h11.8c1.3,0,2.5,1,2.5,2.5v30c0,4.6,1.4,8.7,5.9,10.8,6.8,3.1,14.3-1.4,14.6-9.7.3-10,0-27.3,0-27.6,0-3.9,3-6,5.6-6h12.3-.3ZM182.7,171.4c7,0,13.4,2.6,18.4,7.2h0c0-3.4,2.8-6.3,6.2-6.3h11.9c1.3,0,2.4,1,2.4,2.4v57.9c0,1.3-1,2.4-2.4,2.4h-11.4c-3.5,0-6.3-2.9-6.3-6.3v-.5c-5,4.6-11.5,7.2-18.6,7.2-16.1,0-29.1-14.3-29.1-32s13-32,29.1-32h-.1ZM260.1,187.5c-6.8,0-13.5,6.4-13.5,15s6.4,15.3,13.5,15.3,13.6-7.2,13.5-15.3c0-8.1-5.2-15-13.5-15ZM114.9,187.5c-8.4,0-13.5,6.8-13.5,15s5,15.3,13.5,15.3,13.6-7.2,13.5-15.3c0-8.5-6.7-15-13.5-15ZM187.5,187.5c-6.8,0-13.5,6.4-13.5,15s6.4,15.3,13.5,15.3,13.6-7.2,13.5-15.3c0-8.1-5.2-15-13.5-15ZM400.1,188.6c-5.6,0-10.1,2.9-12.1,8h23.6c-1.7-5.2-5.9-8-11.5-8ZM281.8,45.6c.7,0,.9.8.5,1.2l-32.7,33.1-10.6-10.9c-.3-.3-.8-.3-1,0l-12.9,13c-2.5,2.5-2.5,6.6,0,9.1l18.4,18.8c3.1,3.3,8.4,3.3,11.7,0h0l51.7-52.5c.4-.4,1-.3,1.2.3.7,1.8.9,3.8.9,5.8v23.9c0,6-2.4,11.8-6.6,16l-20.9,21.3c-3.8,3.9-9.1,6-14.4,6l-35,.3c-2.8,0-5.5.4-8.1,1l-19.3,5.1c-.9.3-1.7-.4-1.7-1.3v-64.9c0-13.9,11-25.3,24.7-25.2h54.2Z"/>
</svg>