<?xml version="1.0" encoding="utf-8"?>
<!-- Generator: Adobe Illustrator 27.6.1, SVG Export Plug-In . SVG Version: 6.00 Build 0)  -->
<svg version="1.1" id="Camada_1" xmlns="http://www.w3.org/2000/svg" xmlns:xlink="http://www.w3.org/1999/xlink" x="0px" y="0px"
	 viewBox="0 0 512 512" style="enable-background:new 0 0 512 512;" xml:space="preserve">
<style type="text/css">
	.st0{fill:#165C7D;}
	.st1{fill:url(#SVGID_1_);}
	.st2{fill:url(#SVGID_00000132061193433105016290000006925938370089674394_);}
	.st3{fill:#926B17;}
	.st4{fill:url(#SVGID_00000093880658748136560140000014986472608399013552_);}
	.st5{fill:#007E8B;}
	.st6{fill:#00713C;}
	.st7{fill:url(#SVGID_00000093136871017910903900000017477413253363089330_);}
	.st8{fill:url(#SVGID_00000022523198436275600240000017235208055029586081_);}
	.st9{fill:url(#SVGID_00000044865418629970667530000017029228417352858544_);}
	.st10{fill:url(#SVGID_00000040556182853194091480000001394535213363527069_);}
	.st11{fill:url(#SVGID_00000035516837020111619580000013746434874232580489_);}
	.st12{fill:url(#SVGID_00000104704480480925825200000002729793131022364085_);}
	.st13{fill:url(#SVGID_00000081640745015279428810000011288535079800065717_);}
	.st14{fill:url(#SVGID_00000120520037608700460950000015245264768742778509_);}
	.st15{fill:#886B25;}
	.st16{fill:url(#SVGID_00000180337633541819013160000005269757334455464348_);}
	.st17{fill:#007D8A;}
	.st18{fill:#007041;}
	.st19{fill:url(#SVGID_00000074432514464761495260000000049208053315196346_);}
	.st20{fill:url(#SVGID_00000035528028922589650280000016295356656978043037_);}
	.st21{fill:url(#SVGID_00000146495786006760030570000013919786671811387819_);}
	.st22{fill:url(#SVGID_00000125584608489945546220000012503277559165731200_);}
	.st23{fill:url(#SVGID_00000024683276426549295450000009416776758661680828_);}
	.st24{fill:url(#SVGID_00000098184747079621104780000000410955009768924086_);}
	.st25{fill:url(#SVGID_00000100382609492309934890000013957638133008718764_);}
	.st26{fill:url(#SVGID_00000065051111428001142830000013434066286944034720_);}
	.st27{fill:url(#SVGID_00000132073961620115109270000004498021136708633224_);}
	.st28{fill:url(#SVGID_00000047034022381058264980000005731750629288959113_);}
	.st29{fill:url(#SVGID_00000013156529615106395410000009481167641435955849_);}
	.st30{fill:url(#SVGID_00000175294039661413932790000012510018788801452691_);}
	.st31{fill:url(#SVGID_00000021824981246121417500000014280104786915424683_);}
	.st32{fill:url(#SVGID_00000114052629168325798610000008773442053124704918_);}
	.st33{fill:url(#SVGID_00000165918336499937353800000000692006196386206653_);}
	.st34{fill:url(#SVGID_00000161609884047851474610000010258870134251104410_);}
	.st35{fill:url(#SVGID_00000098189646876447278120000002757459663533775287_);}
	.st36{fill:url(#SVGID_00000101821302770894192710000001241430654732007615_);}
	.st37{fill:url(#SVGID_00000165218578398255977180000008664164528904270988_);}
	.st38{fill:url(#SVGID_00000080903251667334711430000008557743442546986397_);}
	.st39{fill:url(#SVGID_00000133494370669772639590000006275058826038263743_);}
	.st40{fill:url(#SVGID_00000009579659961434872450000006427624592763791002_);}
	.st41{fill:url(#SVGID_00000033359047081114795650000012983399672014749349_);}
	.st42{fill:url(#SVGID_00000027599380472652582120000010524946683350036625_);}
	.st43{fill:url(#SVGID_00000104666505867832143570000008511271631906973850_);}
	.st44{fill:url(#SVGID_00000001648081095089722710000001140154120168724668_);}
	.st45{fill:url(#SVGID_00000031909831993276454530000013088521478189812397_);}
	.st46{fill:url(#SVGID_00000145749242307574196490000015122451636471670203_);}
	.st47{fill:url(#SVGID_00000077305108197991595570000005523461794961019557_);}
	.st48{fill:#876B26;}
	.st49{fill:url(#SVGID_00000025402243539470680700000000009807317083106945_);}
	.st50{fill:#007D88;}
	.st51{fill:#027042;}
</style>
<g>
	<g>
		<path class="st0" d="M192.65,329.18c0,2.21,1.19,2.54,3.8,3.27c3.02,0.84,4.85,2.02,4.85,5.18c0,3.7-2.28,5.06-6.34,5.06
			c-1.89,0-3.29-0.17-4.69-0.45l0.24-1.98c1.36,0.2,3.06,0.35,4.38,0.35c2.28,0,3.87-0.5,3.87-2.88c0-2.08-1.54-2.57-3.59-3.19
			c-3.14-0.95-4.98-1.8-4.98-5.02c0-3.62,2.19-4.8,6.1-4.8c1.67,0,3.39,0.2,4.65,0.45l-0.23,1.93c-1.09-0.16-2.39-0.32-3.62-0.32
			C195.02,326.77,192.65,326.97,192.65,329.18z"/>
		<path class="st0" d="M204.8,324.89h2.47v17.61h-2.47V324.89z"/>
		<path class="st0" d="M213.21,329.18c0,2.21,1.19,2.54,3.8,3.27c3.02,0.84,4.85,2.02,4.85,5.18c0,3.7-2.28,5.06-6.34,5.06
			c-1.89,0-3.29-0.17-4.69-0.45l0.24-1.98c1.36,0.2,3.06,0.35,4.38,0.35c2.28,0,3.87-0.5,3.87-2.88c0-2.08-1.54-2.57-3.59-3.19
			c-3.14-0.95-4.98-1.8-4.98-5.02c0-3.62,2.19-4.8,6.1-4.8c1.67,0,3.39,0.2,4.65,0.45l-0.23,1.93c-1.09-0.16-2.39-0.32-3.62-0.32
			C215.58,326.77,213.21,326.97,213.21,329.18z"/>
		<path class="st0" d="M236.21,326.88h-4.66v15.63h-2.47v-15.63h-4.66v-1.99h11.79V326.88z"/>
		<path class="st0" d="M249.58,326.86h-4.55c-2.88,0-3.36,0.54-3.36,3.07v2.63h7.57v1.96h-7.57v2.96c0,2.53,0.48,3.06,3.36,3.06
			h4.55v1.9c-1.35,0.06-3.18,0.1-4.47,0.1c-3.05,0-5.9-0.16-5.9-4.01v-9.67c0-3.85,2.84-4.02,5.9-4.02c1.17,0,3.11,0.05,4.47,0.12
			V326.86z"/>
		<path class="st0" d="M261.98,337.04l4.67-10.77c0.45-1.04,1.13-1.56,1.86-1.56c1.06,0,1.55,0.54,1.61,1.74l0.83,16.05h-2.4
			l-0.71-14.18l-4.46,10.69c-0.31,0.73-0.75,1.11-1.4,1.11c-0.67,0-1.11-0.37-1.42-1.11l-4.48-10.66l-0.73,14.16h-2.3l0.86-16.06
			c0.06-1.2,0.55-1.73,1.6-1.73c0.73,0,1.38,0.47,1.84,1.53L261.98,337.04z"/>
		<path class="st0" d="M274.06,342.5l5.74-16.11c0.41-1.15,1.1-1.68,2.05-1.68c0.95,0,1.65,0.54,2.05,1.68l5.66,16.11h-2.62
			l-1.66-4.88h-7.05l-1.65,4.88H274.06z M284.64,335.71l-2.89-8.49l-2.87,8.49H284.64z"/>
		<path class="st0" d="M299.5,325.13c1.51-0.25,3.53-0.42,5.48-0.42c6.53,0,7.68,3,7.68,8.99c0,5.98-1.15,8.99-7.68,8.99
			c-1.95,0-3.97-0.18-5.48-0.44V325.13z M301.97,326.92v13.56c0.75,0.1,1.65,0.19,2.5,0.19c5.68,0,5.72-3.02,5.72-6.97
			c0-3.95-0.04-6.97-5.72-6.97C303.62,326.73,302.71,326.82,301.97,326.92z"/>
		<path class="st0" d="M326.93,326.86h-4.55c-2.88,0-3.36,0.54-3.36,3.07v2.63h7.57v1.96h-7.57v2.96c0,2.53,0.48,3.06,3.36,3.06
			h4.55v1.9c-1.34,0.06-3.18,0.1-4.47,0.1c-3.05,0-5.9-0.16-5.9-4.01v-9.67c0-3.85,2.84-4.02,5.9-4.02c1.17,0,3.11,0.05,4.47,0.12
			V326.86z"/>
		<path class="st0" d="M348.55,342.25c-1.13,0.25-2.57,0.44-4.2,0.44c-5.74,0-7.14-2.74-7.14-8.99c0-6.26,1.41-8.99,7.14-8.99
			c1.63,0,3.08,0.18,4.2,0.43l-0.23,1.91c-1.02-0.16-2.15-0.28-3.26-0.28c-5.09,0-5.34,2.66-5.34,6.92c0,4.28,0.3,6.92,5.34,6.92
			c1.12,0,2.22-0.11,3.26-0.28L348.55,342.25z"/>
		<path class="st0" d="M351.01,333.7c0-6.38,1.53-8.99,6.89-8.99c5.37,0,6.89,2.61,6.89,8.99c0,6.38-1.52,8.99-6.89,8.99
			C352.54,342.68,351.01,340.08,351.01,333.7z M362.29,333.7c0-4.1-0.15-6.95-4.38-6.95c-4.25,0-4.38,2.86-4.38,6.95
			c0,4.09,0.13,6.95,4.38,6.95C362.14,340.65,362.29,337.79,362.29,333.7z"/>
		<path class="st0" d="M368.33,333.7c0-6.38,1.53-8.99,6.89-8.99c5.37,0,6.89,2.61,6.89,8.99c0,6.38-1.52,8.99-6.89,8.99
			C369.86,342.68,368.33,340.08,368.33,333.7z M379.61,333.7c0-4.1-0.15-6.95-4.38-6.95c-4.25,0-4.38,2.86-4.38,6.95
			c0,4.09,0.13,6.95,4.38,6.95C379.46,340.65,379.61,337.79,379.61,333.7z"/>
		<path class="st0" d="M388.56,342.5h-2.46v-17.35c1.5-0.26,3.53-0.44,5.49-0.44c3.82,0,6.92,0.76,6.92,5.39
			c0,4.52-2.77,5.51-6.72,5.51c-0.93,0-2.4-0.06-3.23-0.11V342.5z M388.56,333.51c1.15,0.13,2.08,0.14,3.03,0.14
			c2.86,0,4.47-0.71,4.47-3.55c0-2.46-1.13-3.44-4.38-3.44c-0.91,0-2.05,0.06-3.12,0.21V333.51z"/>
		<path class="st0" d="M412.23,326.86h-4.55c-2.88,0-3.36,0.54-3.36,3.07v2.63h7.57v1.96h-7.57v2.96c0,2.53,0.48,3.06,3.36,3.06
			h4.55v1.9c-1.34,0.06-3.18,0.1-4.47,0.1c-3.05,0-5.9-0.16-5.9-4.01v-9.67c0-3.85,2.84-4.02,5.9-4.02c1.17,0,3.11,0.05,4.47,0.12
			V326.86z"/>
		<path class="st0" d="M415.88,342.5v-17.35c1.51-0.26,3.54-0.44,5.49-0.44c3.79,0,6.92,0.73,6.92,5.32c0,3.33-1.58,4.72-4.01,5.2
			l4.22,7.27h-2.87l-3.92-7.05h-0.13c-0.93,0-2.39-0.07-3.23-0.11v7.16H415.88z M418.34,333.36c1.15,0.13,2.08,0.14,3.02,0.14
			c2.83,0,4.47-0.7,4.47-3.47c0-2.44-1.16-3.38-4.38-3.38c-0.91,0-2.04,0.07-3.11,0.21V333.36z"/>
		<path class="st0" d="M431.33,342.5l5.74-16.11c0.41-1.15,1.1-1.68,2.05-1.68c0.95,0,1.65,0.54,2.05,1.68l5.66,16.11h-2.62
			l-1.66-4.88h-7.05l-1.65,4.88H431.33z M441.91,335.71l-2.89-8.49l-2.87,8.49H441.91z"/>
		<path class="st0" d="M458.1,326.88h-4.66v15.63h-2.47v-15.63h-4.66v-1.99h11.79V326.88z"/>
		<path class="st0" d="M461.28,324.89h2.47v17.61h-2.47V324.89z"/>
		<path class="st0" d="M476.21,340.99c-0.41,1.19-1.01,1.69-1.93,1.69c-0.91,0-1.53-0.49-1.93-1.69l-5.44-16.1h2.62l4.78,14.86
			l4.84-14.86h2.51L476.21,340.99z"/>
		<path class="st0" d="M480.94,342.5l5.74-16.11c0.41-1.15,1.1-1.68,2.05-1.68c0.95,0,1.65,0.54,2.05,1.68l5.66,16.11h-2.62
			l-1.66-4.88h-7.05l-1.65,4.88H480.94z M491.52,335.71l-2.89-8.49l-2.87,8.49H491.52z"/>
		<path class="st0" d="M501.09,329.18c0,2.21,1.19,2.54,3.8,3.27c3.02,0.84,4.85,2.02,4.85,5.18c0,3.7-2.28,5.06-6.34,5.06
			c-1.89,0-3.29-0.17-4.69-0.45l0.24-1.98c1.36,0.2,3.06,0.35,4.38,0.35c2.28,0,3.87-0.5,3.87-2.88c0-2.08-1.54-2.57-3.59-3.19
			c-3.14-0.95-4.98-1.8-4.98-5.02c0-3.62,2.19-4.8,6.1-4.8c1.67,0,3.39,0.2,4.65,0.45l-0.23,1.93c-1.09-0.16-2.39-0.32-3.62-0.32
			C503.46,326.77,501.09,326.97,501.09,329.18z"/>
	</g>
	<g>
		<path class="st0" d="M190.4,299.08l25.7-75.26c2.89-8.46,7.57-12.05,14.21-12.05c6.45,0,11.31,3.82,14.09,12.05l25.26,75.26
			h-18.62l-6.6-21.4h-29.49l-6.45,21.4H190.4z M240.32,264.22l-10.76-34.94L219,264.22H240.32z"/>
		<path class="st0" d="M279.58,212.66h17.58v86.42h-17.58V212.66z"/>
		<path class="st0" d="M366.5,298.71c-6.12,0.26-16.69,0.6-22.1,0.6c-15.61,0-30.01-0.85-30.01-21.1v-65.54h17.58v60.64
			c0,9.61,1.74,11.76,12.09,11.76h22.44V298.71z"/>
		<path class="st0" d="M374.27,255.87c0-31.3,7.68-44.1,34.57-44.1c26.85,0,34.53,12.8,34.53,44.1c0,31.3-7.68,44.1-34.53,44.1
			C381.95,299.97,374.27,287.18,374.27,255.87z M425.57,255.87c0-17.62-0.37-29.67-16.73-29.67c-16.39,0-16.76,12.05-16.76,29.67
			c0,17.62,0.37,29.64,16.76,29.64C425.2,285.51,425.57,273.49,425.57,255.87z"/>
		<path class="st0" d="M472.46,234.99c0,8.68,5.93,9.87,15.87,12.54c16.54,4.49,23.66,10.87,23.66,26.52
			c0,19.06-11.61,25.93-32.08,25.93c-9.72,0-17.92-1.15-24.96-2.67l1.71-13.83c6.34,0.93,15.98,1.93,22.62,1.93
			c9.09,0,14.65-2.04,14.65-10.72c0-8.05-6.34-9.87-14.35-12.31c-15.5-4.75-24.63-9.53-24.63-25.85c0-18.73,11.05-24.74,30.93-24.74
			c9.16,0,18.58,1.37,24.74,2.71l-1.59,13.46c-5.6-0.89-12.57-1.89-19.03-1.89C483.03,226.05,472.46,226.35,472.46,234.99z"/>
	</g>
	<g>
		<g>
			<path class="st0" d="M129.36,266.19l-16.7-40.92c-1.65-3.78-2.88-6.5-5.38-6.5c-2.54,0.02-3.74,2.88-5.25,6.48l-10.17,23.61
				l-10.04-23.6c-1.52-3.62-2.72-6.48-5.26-6.5c-2.49,0.02-3.73,2.72-5.4,6.55l-16.69,40.9c-1.12,2.87-0.91,5.75,0.57,7.92
				c1.48,2.17,4.1,3.41,7.18,3.41h7.35l0.03,9.32c0,3.34,2.72,6.06,6.07,6.06h2.11c3.34,0,6.07-2.72,6.07-6.06v-4.56
				c0-0.15,0-0.32-0.02-0.49v-4.27h7.4c0.25,0,0.48-0.02,0.72-0.03c0.23,0.02,0.45,0.03,0.7,0.03h7.4v4.27
				c-0.01,0.16-0.02,0.33-0.02,0.49v4.56c0,3.34,2.72,6.06,6.07,6.06h2.11c3.34,0,6.07-2.72,6.07-6.06l0.03-9.32h7.35
				c3.08,0,5.7-1.24,7.18-3.41C130.29,271.98,130.5,269.09,129.36,266.19z M84.85,273.02h-5.56l0.02,13.85
				c0,0.85-0.69,1.53-1.53,1.53h-2.11c-0.85,0-1.53-0.69-1.53-1.53l-0.03-5.53v-8.32H62.22c-1.58,0-2.8-0.51-3.44-1.43
				c-0.63-0.92-0.66-2.24-0.1-3.69l16.66-40.82c0.22-0.51,0.71-1.64,1.19-2.59c0.31,0.65,0.69,1.49,1.12,2.54l11.75,27.63
				l-4.5,11.56C83.96,268.65,83.95,271.02,84.85,273.02z M94.7,271.5c-0.51,0.81-1.49,1.32-2.76,1.46
				c-1.28-0.14-2.26-0.65-2.78-1.47c-0.57-0.92-0.58-2.2-0.03-3.62l2.75-7.08l2.84,7.08C95.28,269.3,95.27,270.59,94.7,271.5z
				 M125.07,271.59c-0.63,0.92-1.85,1.43-3.44,1.43h-11.88l-0.03,13.85c0,0.85-0.69,1.53-1.53,1.53h-2.11
				c-0.85,0-1.53-0.69-1.53-1.53l0.02-13.85h-5.55c0.9-2,0.88-4.37-0.07-6.8l-4.64-11.56l11.9-27.63c0.44-1.04,0.81-1.88,1.12-2.53
				c0.47,0.94,0.95,2.05,1.16,2.54l16.67,40.84C125.73,269.35,125.7,270.67,125.07,271.59z"/>
		</g>
		<g>
			<linearGradient id="SVGID_1_" gradientUnits="userSpaceOnUse" x1="45.2308" y1="303.5775" x2="168.0468" y2="303.5775">
				<stop  offset="0" style="stop-color:#0EA7CC"/>
				<stop  offset="0.411" style="stop-color:#0DA5C9"/>
				<stop  offset="0.6581" style="stop-color:#0A9DC1"/>
				<stop  offset="0.8612" style="stop-color:#068FB3"/>
				<stop  offset="1" style="stop-color:#0181A4"/>
			</linearGradient>
			<path class="st1" d="M138.31,297.36c-11.58,12.44-28.09,20.22-46.42,20.22c-1.94,0-3.85-0.09-5.75-0.26
				c-5.63,1.5-11.54,2.3-17.64,2.3c-8.17,0-16-1.43-23.27-4.06c12.52,16.27,32.19,26.76,54.32,26.76c37.83,0,68.5-30.66,68.5-68.48
				c0-3.05-0.2-6.06-0.59-9.01C161.54,278.59,151.24,290.02,138.31,297.36z"/>
			
				<linearGradient id="SVGID_00000078043304035473836310000015152339125916512172_" gradientUnits="userSpaceOnUse" x1="63.6417" y1="217.0745" x2="173.006" y2="217.0745">
				<stop  offset="0" style="stop-color:#FDA101"/>
				<stop  offset="0.3498" style="stop-color:#FAA001"/>
				<stop  offset="0.5601" style="stop-color:#F29C01"/>
				<stop  offset="0.7336" style="stop-color:#E49401"/>
				<stop  offset="0.8861" style="stop-color:#D08A01"/>
				<stop  offset="1" style="stop-color:#BB8001"/>
			</linearGradient>
			<path style="fill:url(#SVGID_00000078043304035473836310000015152339125916512172_);" d="M102.57,191.72
				c20.37,3.45,37.43,16.61,46.25,34.56c9.94,10.28,16.68,23.67,18.64,38.56c3.57-8.29,5.55-17.43,5.55-27.04
				c0-37.82-30.67-68.48-68.5-68.48c-15.32,0-29.46,5.03-40.86,13.52c1.61-0.11,3.22-0.17,4.86-0.17
				C80.9,182.66,92.53,185.96,102.57,191.72z"/>
			<path class="st48" d="M155.29,254.2c0,16.68-6.45,31.85-16.98,43.16c12.92-7.35,23.22-18.77,29.14-32.53
				c-1.96-14.89-8.7-28.27-18.64-38.56C152.96,234.7,155.29,244.18,155.29,254.2z"/>
			
				<linearGradient id="SVGID_00000183930449592961080930000012398391536673476023_" gradientUnits="userSpaceOnUse" x1="0" y1="249.1989" x2="63.6417" y2="249.1989">
				<stop  offset="0" style="stop-color:#09AF41"/>
				<stop  offset="0.3902" style="stop-color:#09AC40"/>
				<stop  offset="0.6248" style="stop-color:#08A43F"/>
				<stop  offset="0.8176" style="stop-color:#07963C"/>
				<stop  offset="0.9878" style="stop-color:#068237"/>
				<stop  offset="1" style="stop-color:#068037"/>
			</linearGradient>
			<path style="fill:url(#SVGID_00000183930449592961080930000012398391536673476023_);" d="M31.07,272.13
				c-1.68-5.69-2.58-11.7-2.58-17.93c0-12.41,3.57-23.99,9.74-33.76c3.99-15.26,13.11-28.45,25.41-37.61
				C28.08,185.33,0,214.95,0,251.14c0,29.65,18.85,54.9,45.23,64.42c-8.89-11.55-14.18-26.02-14.18-41.72
				C31.05,273.27,31.06,272.7,31.07,272.13z"/>
			<path class="st50" d="M86.14,317.32c-26.23-2.36-47.86-20.69-55.07-45.19c-0.01,0.57-0.02,1.14-0.02,1.71
				c0,15.7,5.29,30.17,14.18,41.72c7.26,2.62,15.1,4.06,23.27,4.06C74.6,319.62,80.51,318.82,86.14,317.32z"/>
			<path class="st51" d="M38.23,220.44c11.23-17.8,31.06-29.62,53.66-29.62c3.64,0,7.2,0.31,10.68,0.9
				c-10.03-5.76-21.67-9.06-34.07-9.06c-1.63,0-3.25,0.06-4.86,0.17C51.34,191.99,42.22,205.18,38.23,220.44z"/>
		</g>
	</g>
</g>
</svg>
