<svg xmlns="http://www.w3.org/2000/svg" viewBox="0 0 512 512" fill-rule="evenodd" xmlns:v="https://vecta.io/nano"><path d="M178.14 90h180.25c28.63 0 52.11 23.61 52.11 52.37V322.3c0 28.76-23.48 52.26-52.11 52.26H197.5v-23.71h159.4c17.06 0 29.88-12.96 29.88-29.8v-177.3c0-17.07-12.82-30.04-29.88-30.04H179.64c-17.06 0-30.01 12.96-30.01 30.04v105.32c-8.01 7.1-16.04 14.66-22.55 23.16-.35.45-.69.91-1.16 1.37V142.37c0-28.76 23.58-52.37 52.22-52.37" fill="#f28a24"/><path d="M167.42 131.8c51.73 2.18 100.22 46.23 100.79 99.34.82-58.05 54.37-97.82 100.8-99.66v65.76c-33.55 1.03-74.83-.35-100.8 35.06-110.93-.11-174.14 100.9-166 189.71h71.15c-10.14-71.45 16.92-167.15 94.85-189.71 57.58 0 97.82 54.42 100.93 100.52h-65.65c-.91-36.33-2.4-76.62-35.28-100.52-25.07-34.26-62.97-33.82-100.79-34.75V131.8z" fill="#a71b3d"/></svg>