<?xml version="1.0" encoding="utf-8"?>
<!-- Generator: Adobe Illustrator 25.3.1, SVG Export Plug-In . SVG Version: 6.00 Build 0)  -->
<svg version="1.1" id="Camada_1" xmlns="http://www.w3.org/2000/svg" xmlns:xlink="http://www.w3.org/1999/xlink" x="0px" y="0px"
	 viewBox="0 0 512 512" style="enable-background:new 0 0 512 512;" xml:space="preserve">
<style type="text/css">
	.st0{fill:#FFFFFF;}
	.st1{fill:#EE8600;}
	.st2{fill:#005742;}
</style>
<path class="st0" d="M440.8,512H71.2C31.88,512,0,480.12,0,440.8V71.2C0,31.88,31.88,0,71.2,0H440.8C480.12,0,512,31.88,512,71.2
	V440.8C512,480.12,480.12,512,440.8,512z"/>
<g>
	<path class="st2" d="M383.31,220.36l-70.83-70.38c-1.35-1.35-4.26-1.35-5.83,0l-50.72,50.59l-50.59-50.59
		c-0.67-0.67-1.79-1.12-2.91-1.12c-1.12,0-2.24,0.45-2.91,1.12l-70.83,70.38c-9.64,9.41-14.79,22.19-14.79,35.64
		c0,13.45,5.15,26.23,14.79,35.64l70.83,70.38c1.34,1.34,4.26,1.57,5.83,0l50.73-50.59l50.59,50.59c0.9,0.67,1.79,1.12,2.92,1.12
		c1.12,0,2.24-0.45,2.91-1.12l70.83-70.38c9.64-9.41,15.02-22.19,15.02-35.64C398.33,242.55,392.95,229.78,383.31,220.36
		 M360,268.55l-50.43,49.99l-30.26-30.26l-4.38,4.34l16.26-16.22c19.5-21.51-5.38-40.35-5.38-40.35c-0.23,0-0.23,0-0.45-0.22
		l-42.81,42.81l-2.69,2.69l-37.43,37.21L152,268.55c-6.95-6.95-6.95-18.16,0-25.1l50.43-49.99l30.26,30.26l4.43-4.39l-16.31,16.26
		c-19.5,21.52,5.38,40.35,5.38,40.35c0.22,0,0.22,0,0.45,0.23l42.81-42.81l2.69-2.69l37.43-37.21L360,243.45
		C366.95,250.4,366.95,261.6,360,268.55"/>
	<path class="st1" d="M256,83.41c-95.26,0-172.59,77.33-172.59,172.59c0,95.04,77.33,172.59,172.59,172.59
		c95.04,0,172.59-77.55,172.59-172.59C428.59,160.74,351.04,83.41,256,83.41 M256,464.9c-115.21,0-208.9-93.69-208.9-208.9
		c0-115.21,93.69-208.9,208.9-208.9c115.21,0,208.9,93.69,208.9,208.9C464.9,371.21,371.21,464.9,256,464.9"/>
</g>
</svg>
