<svg width="515" height="512" viewBox="0 0 515 512" fill="none" xmlns="http://www.w3.org/2000/svg">
<path d="M131.538 280.655V288.526C130.933 296.758 125.622 297.748 117.668 298.214V316.844H170.995V298.295C163.029 297.795 157.707 296.828 157.09 288.573V280.725L131.538 280.655Z" fill="#F97501"/>
<path d="M41.4092 247.774H171.425C171.813 247.792 172.179 247.962 172.443 248.247C172.706 248.533 172.847 248.911 172.834 249.299C172.847 249.689 172.705 250.069 172.438 250.354C172.172 250.64 171.804 250.809 171.414 250.824H41.4092C41.0291 250.806 40.6706 250.643 40.4082 250.367C40.1458 250.092 39.9996 249.726 40 249.346V249.218C39.9996 248.837 40.1458 248.471 40.4082 248.196C40.6706 247.92 41.0291 247.757 41.4092 247.739" fill="#009A4E"/>
<path d="M41.4092 255.471H171.425C171.813 255.489 172.179 255.659 172.443 255.945C172.706 256.23 172.847 256.608 172.834 256.996C172.847 257.387 172.705 257.766 172.438 258.052C172.172 258.338 171.804 258.506 171.414 258.522H41.4092C41.0291 258.504 40.6706 258.34 40.4082 258.065C40.1458 257.789 39.9996 257.423 40 257.043V256.915C39.9996 256.534 40.1458 256.168 40.4082 255.893C40.6706 255.618 41.0291 255.454 41.4092 255.436" fill="#009A4E"/>
<path d="M41.4092 263.167H171.425C171.813 263.185 172.179 263.356 172.443 263.641C172.706 263.926 172.847 264.304 172.834 264.693C172.847 265.083 172.705 265.462 172.438 265.748C172.172 266.034 171.804 266.203 171.414 266.218H41.4092C41.0291 266.2 40.6706 266.036 40.4082 265.761C40.1458 265.485 39.9996 265.12 40 264.739V264.611C39.9996 264.231 40.1458 263.865 40.4082 263.589C40.6706 263.314 41.0291 263.15 41.4092 263.132" fill="#009A4E"/>
<path d="M41.4092 270.863H171.425C171.813 270.881 172.179 271.051 172.443 271.337C172.706 271.622 172.847 272 172.834 272.388C172.847 272.779 172.705 273.158 172.438 273.444C172.172 273.73 171.804 273.899 171.414 273.914H41.4092C41.0291 273.896 40.6706 273.732 40.4082 273.457C40.1458 273.181 39.9996 272.815 40 272.435V272.307C39.9996 271.926 40.1458 271.561 40.4082 271.285C40.6706 271.01 41.0291 270.846 41.4092 270.828" fill="#009A4E"/>
<path d="M41.4092 278.42H171.425C171.812 278.435 172.178 278.603 172.442 278.886C172.706 279.17 172.847 279.546 172.834 279.933C172.847 280.324 172.705 280.703 172.438 280.989C172.172 281.275 171.804 281.444 171.414 281.459H41.4092C41.0291 281.441 40.6706 281.277 40.4082 281.002C40.1458 280.726 39.9996 280.36 40 279.98V279.852C39.9997 279.473 40.1463 279.108 40.409 278.835C40.6717 278.561 41.0302 278.4 41.4092 278.385" fill="#009A4E"/>
<path d="M42.1313 298.295V316.832H95.8661L95.7962 298.295C91.988 298.295 89.5074 298.004 87.8303 296.584C86.1533 295.163 86.1417 293.44 88.04 290.599L131.549 226.769V247.925H156.996V195.156H126.285L63.7697 286.419C57.2595 295.978 55.0701 298.528 42.1313 298.295Z" fill="#F97501"/>
<path d="M461.039 264.995C459.851 269.443 458.476 272.664 456.916 274.659C456.281 275.501 455.49 276.212 454.587 276.755C453.542 277.356 452.356 277.665 451.151 277.651C450.209 277.763 449.259 277.514 448.492 276.955C447.725 276.395 447.198 275.567 447.017 274.636C446.528 272.621 446.889 269.349 448.1 264.843C449.311 260.337 450.674 257.182 452.257 255.179C452.892 254.341 453.683 253.633 454.587 253.095C455.643 252.47 456.853 252.151 458.08 252.175C459.025 252.067 459.974 252.321 460.739 252.885C461.504 253.448 462.027 254.281 462.203 255.214C462.692 257.252 462.331 260.5 461.12 264.995H461.039ZM472.498 251.802C469.89 248.635 465.542 247.052 459.455 247.052C457.845 247.048 456.237 247.164 454.645 247.401C450.722 247.96 446.995 249.471 443.791 251.802C439.444 255.031 436.363 259.677 435.08 264.936C433.604 270.494 434.167 274.857 436.768 278.024C439.369 281.191 443.709 282.778 449.789 282.786C451.418 282.787 453.045 282.666 454.657 282.425C458.565 281.867 462.279 280.364 465.476 278.047C469.826 274.833 472.91 270.192 474.187 264.936C475.678 259.363 475.119 254.985 472.51 251.802" fill="#009A4E"/>
<path d="M415.409 266.101H412.439L415.409 260.687L418.053 255.889L418.379 266.101H415.409ZM430.887 276.464C430.391 275.535 430.161 274.487 430.223 273.436L429.128 248.065H416.958L415.444 250.522L401.236 273.541C400.662 274.548 399.913 275.443 399.023 276.184C398.356 276.702 397.538 276.988 396.694 276.999H395.448L394.167 281.773H409.237L410.518 276.999H408.806C408.236 277.023 407.668 276.94 407.129 276.755C406.756 276.58 406.628 276.359 406.698 276.068C406.771 275.802 406.873 275.544 407.001 275.299C407.14 275.032 407.362 274.636 407.676 274.135L409.598 270.921H418.682L418.914 274.531C418.914 274.752 418.914 274.985 418.914 275.23C418.884 275.482 418.834 275.731 418.763 275.975C418.725 276.149 418.647 276.312 418.536 276.451C418.425 276.59 418.284 276.702 418.123 276.778C417.338 276.969 416.529 277.04 415.723 276.988H414.21L412.928 281.762H433.39L434.683 276.988H432.913C432.201 277.071 431.485 276.88 430.91 276.452" fill="#009A4E"/>
<path d="M387.353 264.902C386.196 269.202 384.841 272.268 383.288 274.1C382.8 274.69 382.227 275.204 381.588 275.625C380.314 276.453 378.821 276.879 377.302 276.848H374.659L381.064 252.92H383.719C386.15 252.92 387.652 253.84 388.226 255.68C388.801 257.52 388.51 260.593 387.353 264.902ZM400.408 264.902C401.961 259.212 401.464 254.981 398.917 252.21C396.39 249.439 391.767 248.065 385.012 248.065H366.681L365.412 252.816H367.054C368.219 252.816 368.964 252.967 369.208 253.27C369.453 253.572 369.406 254.434 369.057 255.692L364.119 274.1L364.049 274.345C363.924 275.206 363.514 276.002 362.885 276.603C362.154 276.929 361.353 277.065 360.555 276.999H358.855L357.574 281.773H375.905C377.782 281.782 379.658 281.662 381.518 281.412C385.262 280.99 388.854 279.69 392 277.616C396.021 274.845 398.793 270.607 400.315 264.902" fill="#009A4E"/>
<path d="M337.869 266.101H334.9L337.869 260.687L340.513 255.889L340.839 266.101H337.869ZM353.347 276.464C352.851 275.535 352.621 274.487 352.683 273.436L351.588 248.065H339.383L337.869 250.533L323.696 273.541C323.115 274.545 322.357 275.436 321.46 276.173C320.795 276.694 319.976 276.98 319.131 276.988H317.85L316.581 281.762H331.651L332.932 276.988H331.266C330.697 277.012 330.128 276.929 329.589 276.743C329.217 276.569 329.077 276.347 329.158 276.056C329.231 275.79 329.333 275.532 329.461 275.288C329.664 274.887 329.89 274.498 330.137 274.123L332.046 270.91H341.13L341.375 274.519C341.375 274.74 341.375 274.973 341.375 275.218C341.339 275.469 341.288 275.718 341.224 275.963C341.185 276.137 341.108 276.3 340.997 276.439C340.886 276.578 340.744 276.69 340.583 276.766C339.798 276.957 338.99 277.028 338.184 276.976H336.6L335.319 281.75H355.781L357.062 276.976H355.292C354.584 277.06 353.871 276.868 353.3 276.44" fill="#009A4E"/>
<path d="M315.393 269.094C314.615 271.633 313.157 273.912 311.177 275.684C309.466 277.242 307.238 278.113 304.923 278.129C302.419 278.129 300.882 277.116 300.265 275.113C299.648 273.111 300.02 269.804 301.255 265.216C302.489 260.629 303.84 257.555 305.459 255.552C306.153 254.619 307.056 253.861 308.096 253.34C309.135 252.818 310.282 252.547 311.445 252.548C312.296 252.471 313.152 252.637 313.912 253.026C314.673 253.416 315.308 254.013 315.743 254.749C316.546 256.204 316.826 258.568 316.546 261.805H322.625L326.352 247.914H320.878L319.516 249.777C318.28 248.965 316.919 248.363 315.486 247.995C313.871 247.596 312.212 247.404 310.548 247.425C305.352 247.342 300.289 249.066 296.224 252.303C292.076 255.601 289.135 260.178 287.862 265.321C286.309 271.05 286.697 275.455 289.027 278.536C291.356 281.618 295.42 283.171 301.22 283.194C305.679 283.351 310.072 282.074 313.751 279.549C317.236 276.964 319.734 273.268 320.832 269.07L315.393 269.094Z" fill="#009A4E"/>
<path d="M267.377 266.101H264.395L267.365 260.687L269.997 255.889L270.335 266.101H267.377ZM282.854 276.464C282.358 275.535 282.129 274.487 282.19 273.436L281.096 248.065H268.891L267.377 250.522L253.203 273.541C252.626 274.548 251.873 275.444 250.979 276.184C250.314 276.705 249.495 276.992 248.65 276.999H247.404L246.123 281.773H261.193L262.474 276.999H260.808C260.239 277.024 259.67 276.941 259.131 276.755C258.759 276.58 258.619 276.359 258.7 276.068C258.773 275.802 258.875 275.544 259.003 275.299C259.143 275.032 259.364 274.636 259.679 274.135L261.588 270.921H270.672L270.917 274.531C270.917 274.752 270.917 274.985 270.917 275.23C270.881 275.481 270.83 275.729 270.766 275.975C270.727 276.149 270.65 276.312 270.539 276.451C270.428 276.59 270.286 276.702 270.125 276.778C269.34 276.969 268.532 277.039 267.726 276.988H266.212L264.931 281.762H285.358L286.639 276.988H284.869C284.161 277.072 283.448 276.88 282.877 276.452" fill="#009A4E"/>
<path d="M244.818 253.34H246.285C247.031 253.25 247.787 253.383 248.458 253.72C249.13 254.058 249.686 254.586 250.059 255.238C250.711 256.484 250.723 258.312 250.059 260.676V260.815H254.997L258.409 248.007H222.912L219.488 260.815H224.473V260.676C224.931 258.621 225.947 256.732 227.407 255.215C228.676 253.986 230.381 253.312 232.147 253.34H233.626L228.059 274.101C227.942 275.033 227.535 275.904 226.895 276.592C226.165 276.922 225.364 277.063 224.566 277H221.934L220.653 281.774H242.85L244.131 277H241.313C240.148 277 239.391 276.837 239.135 276.523C238.879 276.208 238.914 275.358 239.263 274.101L244.818 253.34Z" fill="#009A4E"/>
<path d="M200.796 266.101H197.826L200.796 260.687L203.44 255.889L203.766 266.101H200.796ZM216.285 276.464C215.784 275.537 215.553 274.488 215.621 273.436L214.515 248.065H202.322L200.796 250.557L186.623 273.564C186.053 274.573 185.303 275.469 184.41 276.208C183.744 276.726 182.926 277.013 182.081 277.023H180.835L179.554 281.797H194.624L195.916 277.023H194.239C193.67 277.044 193.102 276.961 192.562 276.778C192.201 276.603 192.062 276.382 192.143 276.091C192.216 275.825 192.318 275.567 192.446 275.323C192.574 275.055 192.807 274.659 193.11 274.158L195.031 270.945H204.115L204.348 274.554C204.365 274.787 204.365 275.02 204.348 275.253C204.322 275.505 204.275 275.754 204.208 275.998C204.17 276.172 204.093 276.335 203.981 276.474C203.87 276.613 203.729 276.725 203.568 276.801C202.779 276.991 201.967 277.061 201.157 277.011H199.643L198.362 281.785H218.836L220.117 277.011H218.277C217.569 277.095 216.855 276.903 216.285 276.475" fill="#009A4E"/>
<path d="M431.493 241.824H419.09L417.238 244.921H429.629L431.493 241.824Z" fill="#009A4E"/>
<path d="M223.25 223.311H225.672L223.821 230.297H220.956C221.066 229.674 221.113 229.042 221.096 228.41C221.079 227.825 220.953 227.249 220.723 226.71C220.443 225.989 219.558 225.616 218.091 225.616C215.226 225.616 213.223 227.793 212.058 232.136C211.484 233.754 211.415 235.508 211.86 237.166C212.055 237.726 212.432 238.204 212.93 238.524C213.428 238.845 214.019 238.99 214.609 238.936C215.179 238.965 215.75 238.877 216.284 238.677C216.819 238.477 217.307 238.169 217.718 237.772C218.645 236.768 219.344 235.577 219.768 234.279H222.714C222.469 235.292 222.097 236.27 221.608 237.19C220.436 239.05 218.678 240.467 216.612 241.218C215.345 241.668 214.009 241.893 212.664 241.882C209.857 241.882 207.831 241.009 206.608 239.239C205.385 237.469 205.152 235.152 205.921 232.253C206.605 229.581 208.128 227.198 210.265 225.453C212.289 223.74 214.857 222.803 217.509 222.81C218.373 222.779 219.235 222.898 220.059 223.159C220.502 223.304 220.922 223.512 221.305 223.776C221.607 224.043 221.874 224.349 222.097 224.684L223.25 223.311Z" fill="#F97501"/>
<path d="M229.97 232.859H233.591L233.335 227.177L229.97 232.859ZM220.909 238.681H222.004C222.287 238.654 222.556 238.54 222.772 238.355C223.082 238.127 223.35 237.847 223.564 237.528L232.392 223.171H238.669L239.519 237.528C239.491 237.89 239.585 238.251 239.787 238.553C239.944 238.615 240.108 238.654 240.276 238.669H241.441L240.73 241.312H230.831L231.53 238.669H233.533C233.615 238.669 233.685 238.553 233.766 238.366V237.528L233.638 235.549H228.293L227.128 237.516L226.79 238.296C226.761 238.342 226.746 238.394 226.746 238.448C226.746 238.501 226.761 238.554 226.79 238.599C226.961 238.662 227.144 238.686 227.326 238.669H228.98L228.281 241.312H220.21L220.909 238.681Z" fill="#F97501"/>
<path d="M254.426 225.86L253.157 230.623H256.173C256.459 230.616 256.742 230.554 257.004 230.438C257.265 230.322 257.502 230.155 257.699 229.947C258.179 229.498 258.519 228.92 258.677 228.282C258.802 227.989 258.858 227.67 258.842 227.352C258.826 227.033 258.738 226.722 258.584 226.443C258.352 226.219 258.072 226.05 257.765 225.949C257.459 225.848 257.134 225.818 256.814 225.86H254.426ZM246.752 223.217H257.745C258.947 223.19 260.149 223.24 261.344 223.369C262.001 223.464 262.634 223.685 263.207 224.021C263.747 224.348 264.143 224.868 264.314 225.476C264.511 226.173 264.511 226.91 264.314 227.607C264.192 228.078 264.004 228.528 263.755 228.946C263.218 229.837 262.465 230.578 261.565 231.1C260.901 231.386 260.216 231.619 259.516 231.799L260.075 232.043C260.282 232.134 260.474 232.256 260.645 232.404C260.859 232.646 261.032 232.922 261.158 233.219C261.336 233.581 261.423 233.98 261.414 234.383C261.357 234.963 261.248 235.536 261.088 236.095L260.797 237.19C260.71 237.472 260.674 237.768 260.692 238.063C260.692 238.505 260.832 238.715 261.193 238.715C261.775 238.715 262.217 238.121 262.543 236.922L262.741 236.177H264.849L264.395 237.597C264.099 238.765 263.408 239.793 262.439 240.508C261.397 241.248 260.14 241.624 258.863 241.579C258.062 241.593 257.268 241.434 256.534 241.114C256.206 240.969 255.92 240.743 255.702 240.458C255.484 240.173 255.342 239.838 255.288 239.483C255.179 238.304 255.314 237.115 255.684 235.99C255.986 235.251 256.035 234.432 255.824 233.662C255.602 233.266 254.985 233.068 253.995 233.068H252.411L251.247 237.527C251.121 237.837 251.085 238.176 251.142 238.505C251.212 238.622 251.491 238.68 251.981 238.68H253.611L252.901 241.323H241.837L242.547 238.68H244.772C244.898 238.677 245.021 238.645 245.133 238.587C245.431 238.316 245.624 237.949 245.68 237.551L245.901 236.77L248.522 226.978C248.646 226.497 248.646 226.194 248.522 226.07L248.219 225.86H245.948L246.752 223.217Z" fill="#F97501"/>
<path d="M266.561 223.217H285.113L283.226 230.203H280.536L280.699 229.598C281.015 228.721 281.015 227.762 280.699 226.885C280.538 226.561 280.283 226.293 279.967 226.116C279.651 225.939 279.289 225.862 278.929 225.895H277.997L274.888 237.539C274.762 237.849 274.725 238.188 274.783 238.517C274.888 238.633 275.156 238.692 275.598 238.692H277.205L276.495 241.335H265.326L266.037 238.692H268.017C268.2 238.699 268.381 238.655 268.541 238.564C268.846 238.285 269.075 237.932 269.204 237.539L269.449 236.852L272.384 225.895H271.382C270.946 225.902 270.516 225.995 270.116 226.168C269.716 226.342 269.355 226.594 269.053 226.908C268.312 227.68 267.793 228.637 267.551 229.679L267.399 230.203H264.732L266.561 223.217Z" fill="#F97501"/>
<path d="M287.455 232.859H291.077L290.82 227.177L287.455 232.859ZM278.394 238.681H279.535C279.819 238.654 280.087 238.54 280.304 238.355C280.613 238.127 280.881 237.847 281.096 237.528L289.924 223.171H296.201L297.004 237.575C296.976 237.936 297.071 238.297 297.272 238.599C297.429 238.662 297.594 238.701 297.761 238.716H298.926L298.216 241.359H288.317L289.015 238.716H291.018C291.1 238.716 291.17 238.599 291.251 238.413V237.575L291.123 235.595H285.731L284.567 237.563L284.229 238.343C284.229 238.494 284.229 238.588 284.229 238.646C284.4 238.708 284.583 238.732 284.764 238.716H286.523L285.813 241.359H277.742L278.394 238.681Z" fill="#F97501"/>
<path d="M305.703 232.159C305.141 233.819 305.009 235.593 305.319 237.318C305.415 237.854 305.706 238.336 306.136 238.671C306.566 239.006 307.105 239.171 307.648 239.134C308.308 239.101 308.952 238.917 309.53 238.596C310.107 238.275 310.603 237.826 310.979 237.283C312.106 235.757 312.899 234.011 313.308 232.159C313.882 230.503 314.015 228.725 313.693 227.001C313.592 226.467 313.299 225.988 312.871 225.654C312.442 225.32 311.906 225.153 311.363 225.185C310.714 225.219 310.082 225.402 309.515 225.719C308.947 226.036 308.46 226.478 308.091 227.013C306.965 228.548 306.171 230.301 305.762 232.159H305.703ZM305.063 224.626C307.158 223.239 309.619 222.509 312.132 222.53C313.254 222.478 314.375 222.651 315.429 223.039C316.484 223.427 317.449 224.022 318.27 224.789C319.822 226.287 320.137 228.744 319.213 232.159C318.799 233.734 318.126 235.23 317.221 236.584C316.188 237.99 314.885 239.177 313.39 240.077C311.443 241.261 309.192 241.848 306.915 241.765C305.795 241.817 304.677 241.643 303.626 241.253C302.576 240.863 301.615 240.265 300.801 239.495C299.248 237.942 298.933 235.493 299.857 232.148C300.245 230.577 300.899 229.085 301.79 227.735C302.639 226.487 303.732 225.426 305.005 224.614" fill="#F97501"/>
<path d="M291.006 220.039H297.353L296.398 221.622H290.063L291.006 220.039Z" fill="#F97501"/>
</svg>
