<?xml version="1.0" encoding="UTF-8"?>
<svg id="Camada_1" xmlns="http://www.w3.org/2000/svg" version="1.1" viewBox="0 0 512 512">
  <!-- Generator: Adobe Illustrator 30.2.1, SVG Export Plug-In . SVG Version: 2.1.1 Build 1)  -->
  <defs>
    <style>
      .st0 {
        fill: #dde05b;
      }

      .st1 {
        fill: #ffe72d;
      }

      .st2 {
        fill: #9ed5d6;
      }

      .st3 {
        fill: #222;
      }
    </style>
  </defs>
  <path class="st3" d="M308.34,100.1c-16.34-6.51-34.17-10.1-52.82-10.1s-36.34,3.56-52.63,10.04c-65.55,22-112.9,83.93-112.9,156.7,0,91.13,74.25,165.26,165.52,165.26s165.52-74.13,165.52-165.26c0-72.7-47.25-134.58-112.7-156.64ZM117.93,234.29c0-75.94,61.53-137.38,137.6-137.38s137.68,61.52,137.71,137.44c0,6.95-.53,13.78-1.53,20.45-13.96-17.45-35.42-28.67-59.43-28.67-1.35,0-2.68.04-4.01.11-16.7-22.47-41.32-39.23-70.8-45.56-59.26-12.73-117.85,21.13-137.58,76.74-1.27-7.52-1.95-15.24-1.95-23.12ZM291.74,388.79c-24.41,15.87-53.59,21.2-82.08,15.08-28.5-6.12-52.9-23.01-68.68-47.38-15.89-24.37-21.23-53.5-15.1-81.95,10.9-51.12,56.31-86.15,106.6-86.15v.11c7.61,0,15.21.79,22.93,2.38,24.85,5.32,45.91,18.75,61,36.93-34.32,7.32-60.2,37.87-60.2,74.27,0,33.91,22.46,62.75,53.29,72.45-5.35,5.3-11.29,10.08-17.76,14.26ZM332.27,367.71c-36.22,0-65.73-29.47-65.73-65.63s29.52-65.63,65.73-65.63,65.73,29.47,65.73,65.63-29.52,65.63-65.73,65.63Z"/>
  <path class="st2" d="M256.2,302.08c0-36.4,25.88-66.95,60.2-74.27-15.08-18.18-36.15-31.61-61-36.93-7.72-1.59-15.33-2.38-22.93-2.38v-.11c-50.29,0-95.7,35.02-106.6,86.15-6.13,28.45-.79,57.58,15.1,81.95,15.78,24.37,40.19,41.26,68.68,47.38,28.49,6.12,57.67.79,82.08-15.08,6.47-4.17,12.4-8.96,17.76-14.26-30.83-9.7-53.29-38.54-53.29-72.45Z"/>
  <path class="st1" d="M332.27,236.45c-36.22,0-65.73,29.47-65.73,65.63s29.52,65.63,65.73,65.63,65.73-29.47,65.73-65.63-29.52-65.63-65.73-65.63Z"/>
  <path class="st0" d="M328.26,226.24c1.33-.07,2.66-.11,4.01-.11,24.01,0,45.47,11.22,59.43,28.67,1-6.67,1.53-13.5,1.53-20.45-.03-75.92-61.66-137.44-137.71-137.44s-137.6,61.44-137.6,137.38c0,7.88.67,15.61,1.95,23.12,19.73-55.6,78.32-89.47,137.58-76.74,29.48,6.33,54.1,23.09,70.8,45.56Z"/>
</svg>