<?xml version="1.0" encoding="utf-8"?>
<!-- Generator: Adobe Illustrator 27.4.1, SVG Export Plug-In . SVG Version: 6.00 Build 0)  -->
<svg version="1.1" id="Layer_1" xmlns="http://www.w3.org/2000/svg" xmlns:xlink="http://www.w3.org/1999/xlink" x="0px" y="0px"
	 viewBox="0 0 512 512" style="enable-background:new 0 0 512 512;" xml:space="preserve">
<style type="text/css">
	.st0{fill:#00595B;}
</style>
<g>
	<g>
		<path class="st0" d="M109.62,205.16h13.84v100.3h-21.49v-66.91l-32.24,41.12l-32.24-40.84v66.63H16v-100.3h19.34l34.39,43.7
			l31.43-39.61C103.21,206.67,106.33,205.16,109.62,205.16z"/>
		<path class="st0" d="M158.67,305.46H138.5v-72.89l20.17-5.15V305.46z"/>
		<path class="st0" d="M224.1,243.85v-33.56l19.34-5.12v100.3h-14.36c-2.75,0-4.99-2.23-4.99-4.99v-3.61c0,0-7.16,10.03-20.78,10.03
			c-17.91,0-33.67-15.76-33.67-36.54c0-20.78,15.76-36.54,33.67-36.54C216.93,233.82,224.1,243.85,224.1,243.85z M224.1,270.35
			c0-11.46-7.88-19.34-17.19-19.34c-9.31,0-17.19,7.88-17.19,19.34c0,11.46,7.88,19.34,17.19,19.34
			C216.22,289.7,224.1,281.82,224.1,270.35z"/>
		<path class="st0" d="M312.45,235.25l13.61,42.27l13.61-42.27h20.06l-23.93,70.21h-13.33c-2.14,0-4.03-1.36-4.72-3.38l-12.46-36.74
			l-13.61,40.12h-16.91l-23.93-70.21h20.06l13.61,42.27l13.61-42.27H312.45z"/>
		<path class="st0" d="M402,298.29c0,0-7.16,8.6-19.34,8.6c-14.33,0-23.64-9.31-23.64-20.06c0-11.46,7.88-19.49,20.78-21.78
			l22.21-4.01c0-5.73-4.3-10.03-12.18-10.03c-10.75,0-15.76,7.16-15.76,7.16l-10.75-10.75c0,0,9.31-13.61,27.94-13.61
			c17.91,0,30.09,12.18,30.09,27.94v43.7h-14.36c-2.75,0-4.99-2.23-4.99-4.99V298.29z M402,275.37v-2.15l-15.76,2.87
			c-5.01,0.86-7.88,3.58-7.88,7.88c0,4.3,2.87,7.16,9.31,7.16C396.27,291.13,402,285.4,402,275.37z"/>
		<path class="st0" d="M449.15,304.74l-27.22-69.49h20.06l16.48,46.57l16.48-46.57H495l-27.94,74.51
			c-6.45,17.19-15.04,25.79-27.22,25.79c-7.16,0-12.18-2.15-12.18-2.15v-15.97c0-0.57,0.56-0.97,1.1-0.78
			c1.21,0.42,3.35,0.99,6.06,0.99c6.45,0,10.32-3.58,12.18-7.88L449.15,304.74z"/>
	</g>
	<circle class="st0" cx="183.9" cy="190.89" r="14.28"/>
</g>
</svg>
