<svg width="512" height="512" viewBox="0 0 512 512" fill="none" xmlns="http://www.w3.org/2000/svg">
<rect width="512" height="512" fill="white"/>
<path d="M243.784 341.468C233.573 343.582 223.185 344.713 212.761 344.847C161.503 344.847 129.12 315.008 129.12 254.339C129.12 198.741 159.127 167.21 214.444 167.21C234.389 167.138 254.211 170.347 273.124 176.711C276.713 165.606 278.98 154.113 279.878 142.472C258.706 135.851 236.597 132.762 214.431 133.326C135.512 133.326 90 177.386 90 255.68C90 327.55 131.487 378.735 210.054 378.735C234.443 378.894 258.663 374.65 281.561 366.206V245.544H243.784V341.468ZM403.064 231.994H422V212.961H403.064V231.994ZM403.064 193.929H422V174.897H403.064V193.929ZM365.191 155.864H384.127V136.832H365.191V155.864ZM327.318 231.994H346.255V212.961H327.318V231.994ZM365.191 193.929H384.127V174.897H365.191V193.929ZM403.064 136.863V155.895H422V136.863H403.064ZM327.318 193.929H346.255V174.897H327.318V193.929ZM327.318 155.864H346.255V136.832H327.318V155.864ZM365.191 231.994H384.127V212.961H365.191V231.994Z" fill="#DE3131"/>
</svg>
