<?xml version="1.0" encoding="UTF-8"?>
<svg id="Layer_1" data-name="Layer 1" xmlns="http://www.w3.org/2000/svg" viewBox="0 0 512 512">
  <defs>
    <style>
      .cls-1 {
        fill: #00cd5c;
      }

      .cls-1, .cls-2 {
        stroke-width: 0px;
      }

      .cls-2 {
        fill: #0068ff;
      }
    </style>
  </defs>
  <g>
    <path class="cls-2" d="M195.61,235.89v7.52c-4.37-6.01-10.64-8.66-18.79-8.66-7.36,0-13.12,2.62-18.33,8.06-5.21,5.44-7.74,11.84-7.74,19.78s2.73,14.42,7.94,19.89c5.21,5.47,10.77,8.01,18.13,8.01,6.6,0,14.72-2.39,18.79-7.41.17,8.58-3.26,14.19-10.17,16.75-8.01,2.98-18.15.24-22.72-5.97l-8.46,8.46c5.72,6.75,14.86,10.63,24.16,10.63,16.06,0,29.06-8.29,29.06-32.05v-45h-11.88ZM191.02,274.86c-3.21,3.26-7.25,4.88-12.1,4.88s-8.89-1.63-12.1-4.88c-3.21-3.25-4.82-7.35-4.82-12.28s1.61-9.03,4.82-12.28c3.21-3.25,7.24-4.88,12.1-4.88s8.89,1.63,12.1,4.88c3.21,3.26,4.82,7.35,4.82,12.28s-1.61,9.03-4.82,12.28"/>
    <path class="cls-2" d="M133.08,235.89v7.62c-4.31-5.88-10.46-8.82-18.48-8.82-7.28,0-13.49,2.69-18.65,8.06-5.16,5.38-7.73,11.99-7.73,19.84s2.58,14.37,7.73,19.78c5.16,5.41,11.37,8.11,18.65,8.11,6.43,0,14.37-2.31,18.48-7.42v6.25h11.88v-53.43h-11.88ZM128.48,274.86c-3.21,3.26-7.25,4.88-12.11,4.88s-8.89-1.63-12.11-4.88c-3.21-3.25-4.82-7.35-4.82-12.28s1.61-9.03,4.82-12.28c3.21-3.25,7.25-4.88,12.11-4.88s8.89,1.63,12.11,4.88c3.21,3.26,4.82,7.35,4.82,12.28s-1.61,9.03-4.82,12.28"/>
    <path class="cls-1" d="M220.19,230.23c4.25,0,7.69-3.45,7.69-7.7s-3.44-7.7-7.69-7.7-7.69,3.45-7.69,7.7,3.44,7.7,7.69,7.7"/>
    <rect class="cls-2" x="214.25" y="235.79" width="11.88" height="53.43"/>
  </g>
  <g>
    <path class="cls-2" d="M281.73,266.78c0,14.31-10.34,23.59-23.01,23.59-7.93,0-14.12-3.67-17.79-9.47h-.19v8.99h-4.93v-71.16h5.12v33.45h.19c3.87-6.19,10.44-9.76,17.79-9.76,13.44,0,22.82,10.73,22.82,24.36ZM276.51,266.88c0-11.89-8.22-19.53-18.18-19.53s-17.6,8.6-17.6,19.53,8.22,18.66,17.69,18.66c10.73,0,18.08-8.12,18.08-18.66Z"/>
    <path class="cls-2" d="M331.23,242.9v46.99h-4.83v-8.99h-.19c-3.67,5.8-9.86,9.47-17.79,9.47-12.66,0-23.01-9.28-23.01-23.59s9.38-24.36,22.82-24.36c7.35,0,13.92,3.58,17.79,9.76h.19v-9.28h5.03ZM326.4,266.88c0-10.92-7.35-19.53-17.6-19.53s-18.18,7.64-18.18,19.53c0,10.54,7.35,18.66,18.08,18.66,9.47,0,17.69-7.54,17.69-18.66Z"/>
    <path class="cls-2" d="M379.96,262.04v27.84h-5.12v-27.17c0-12.28-5.32-15.47-11.89-15.47-10.34,0-17.21,7.64-17.21,19.34v23.3h-5.12v-46.99h5.12v9.18h.1c3.96-6.19,10.63-9.67,18.27-9.67,9.38,0,15.86,5.61,15.86,19.63Z"/>
    <path class="cls-2" d="M409.35,262.72l17.98,27.17h-5.9l-15.57-23.11h-.19l-11.6,12.76v10.34h-5.12v-71.16h5.12v53.56h.1l26.68-29.39h6.48l-17.98,19.82Z"/>
  </g>
</svg>