<?xml version="1.0" encoding="UTF-8"?>
<svg xmlns="http://www.w3.org/2000/svg" version="1.1" viewBox="0 0 512 512">
  <defs>
    <style>
      .cls-1 {
        fill: #fff;
      }

      .cls-2 {
        fill: #fa4600;
      }

      .cls-3 {
        fill: #e8550c;
      }
    </style>
  </defs>
  <!-- Generator: Adobe Illustrator 28.6.0, SVG Export Plug-In . SVG Version: 1.2.0 Build 709)  -->
  <g>
    <g id="Layer_1">
      <rect class="cls-1" x="80.1" y="161.3" width="369.1" height="207.5"/>
      <rect class="cls-2" x="-1899.4" y="-221.9" width="1652" height="779"/>
      <g>
        <path class="cls-3" d="M384.2,241.1c3.8-1.3,6.9-3.1,9.4-5.4,2.5-2.3,4.3-5,5.4-8.2,1.3-3.1,2-6.5,2-10.1s-.6-6.5-1.7-9.2c-1-2.8-2.7-5.2-5.2-7.2-2.3-2-5.4-3.5-9.2-4.5-3.6-1.2-8-1.7-13.1-1.7h-45.3v48h45c4.8,0,9-.6,12.6-1.7Z"/>
        <path class="cls-3" d="M399.8,272.5c-2.5-2.3-5.7-4-9.7-5.2-4-1.3-8.5-2-13.6-2h-50v53.7h50c5.3,0,9.8-.7,13.6-2,4-1.3,7.3-3.2,9.9-5.7,2.6-2.6,4.5-5.6,5.7-8.9,1.3-3.5,2-7.3,2-11.4s-.7-7.3-2-10.4c-1.3-3.1-3.3-5.9-5.9-8.2Z"/>
        <path class="cls-3" d="M441.5,102.7L296.3,18.9c-25.1-14.5-56-14.5-81.1,0L70.1,102.7c-25.1,14.5-40.5,41.3-40.5,70.2v167.6c0,29,15.5,55.7,40.5,70.2l145.2,83.8c25.1,14.5,56,14.5,81.1,0l145.2-83.8c25.1-14.5,40.5-41.3,40.5-70.2v-167.6c0-29-15.5-55.7-40.5-70.2ZM271.2,342.1h-28l2.2-129.7h-1l-55.4,129.7h-21.5l-55.4-127.4h-1l2,127.4h-28v-170.3h36.1l57.2,132.4h.7l56.4-132.4h35.6v170.3ZM432.2,311.9c-2.5,6.1-6.2,11.5-11.1,16.1-4.8,4.5-10.8,7.9-18.1,10.4-7.1,2.5-15.2,3.7-24.3,3.7h-80.2v-170.3h75.2c9.2,0,17.3,1,24.3,3,6.9,2,12.7,4.9,17.3,8.9,4.6,3.8,8,8.4,10.1,13.9,2.3,5.4,3.5,11.7,3.5,18.8s-.6,8-1.7,11.6c-1,3.6-2.6,7-4.9,10.1-2.1,3.1-4.9,5.9-8.4,8.2-3.3,2.3-7.2,4.1-11.6,5.4v1c5.1,1,9.7,2.6,13.9,4.9,4.3,2.1,7.8,4.9,10.6,8.4,3,3.5,5.2,7.3,6.7,11.6,1.7,4.3,2.5,8.9,2.5,13.9,0,7.3-1.2,14-3.7,20.3Z"/>
      </g>
    </g>
  </g>
</svg>