<svg width="512" height="512" viewBox="0 0 512 512" fill="none" xmlns="http://www.w3.org/2000/svg">
<path d="M425.478 168.236H367.261V330.185L324.071 168.236H272.031L254.539 233.82L237.036 168.236H184.995L152.205 291.183C149.346 278.588 141.336 267.791 127.227 261.411C143.988 251.655 148.702 231.2 148.702 218.726C148.702 190.379 126.321 168.247 83.0216 168.247H8.64404V354.684H86.2621C109.974 354.684 126.539 348.37 138.15 337.88C138.892 337.2 139.612 336.498 140.31 335.775L135.269 354.684H187.309L211.021 265.796L228.514 331.379H280.553L298.046 265.796L321.758 354.684H413.66V300.303H425.478C476.755 300.303 507.166 273.688 507.166 235.147C507.166 196.605 479.46 168.236 425.478 168.236ZM55.0426 207.074H81.5262C96.7055 207.074 104.42 215.218 104.42 225.38C104.42 235.541 96.7055 243.949 81.0355 243.949H55.0426V207.063V207.074ZM82.2796 315.825H55.0426V276.987H82.7703C98.1895 276.987 107.399 284.803 107.399 296.411C107.399 308.02 98.9423 315.825 82.2682 315.825H82.2796ZM431.392 261.444H413.66V207.063H431.392C449.561 207.063 462.045 216.797 462.045 234.248C462.045 251.699 449.31 261.433 431.392 261.433V261.444Z" fill="#1A1883"/>
<path d="M237.036 168.236H185.007L135.27 354.673H187.31L237.036 168.236Z" fill="url(#paint0_linear_197_1933)"/>
<path d="M228.513 331.369H280.553L324.071 168.236H272.031L228.513 331.369Z" fill="url(#paint1_linear_197_1933)"/>
<defs>
<linearGradient id="paint0_linear_197_1933" x1="186.153" y1="168.236" x2="186.153" y2="354.673" gradientUnits="userSpaceOnUse">
<stop offset="0.21" stop-color="#1A1883"/>
<stop offset="0.35" stop-color="#2045A5"/>
<stop offset="0.68" stop-color="#32B8FA"/>
<stop offset="0.7" stop-color="#33BEFF"/>
</linearGradient>
<linearGradient id="paint1_linear_197_1933" x1="276.287" y1="331.369" x2="276.287" y2="168.236" gradientUnits="userSpaceOnUse">
<stop offset="0.16" stop-color="#1A1883"/>
<stop offset="0.31" stop-color="#432EA6"/>
<stop offset="0.58" stop-color="#8A54E2"/>
<stop offset="0.71" stop-color="#A664FA"/>
</linearGradient>
</defs>
</svg>
