<?xml version="1.0" encoding="utf-8"?>
<!-- Generator: Adobe Illustrator 24.1.2, SVG Export Plug-In . SVG Version: 6.00 Build 0)  -->
<svg version="1.1" id="Camada_1" xmlns="http://www.w3.org/2000/svg" xmlns:xlink="http://www.w3.org/1999/xlink" x="0px" y="0px"
	 viewBox="0 0 512 512" style="enable-background:new 0 0 512 512;" xml:space="preserve">
<style type="text/css">
	.st0{fill-rule:evenodd;clip-rule:evenodd;fill:#256236;}
	.st1{fill:#256236;}
</style>
<g>
	<path class="st0" d="M215.85,184.47c0,0,5.23-26.19,33.08-21.24c27.85,4.96,49.71,16.39,77.9-7.58c0,0-5.96,23.32-36.57,27.82
		C259.65,187.97,245.71,171.46,215.85,184.47 M180.77,131.78h150.46v150.45H180.77v-32.16c19.07,3.44,38.5,8.36,64.89,4.47
		c54.36-8,64.95-49.41,64.95-49.41c-47.16,40.08-84.34,24.41-129.85,15.1v-9.6c31.16-6.02,51.29,10.01,88.45,4.54
		c44.12-6.5,52.71-40.11,52.71-40.11c-40.64,34.54-72.15,18.07-112.3,10.92c-12.55-2.23-21.92-0.07-28.86,3.95V131.78z"/>
	<path class="st1" d="M105.76,345.61h5.82c2.15,0,4.15,0.19,6,0.58c1.85,0.41,3.47,1.03,4.87,1.87c1.4,0.84,2.5,1.94,3.28,3.27
		c0.79,1.35,1.18,2.95,1.19,4.81c-0.01,1.98-0.41,3.68-1.19,5.08c-0.76,1.38-1.83,2.52-3.19,3.4c-1.35,0.86-2.89,1.49-4.64,1.91
		c-1.75,0.41-3.6,0.59-5.54,0.59c-1.44,0-2.71,0-3.77-0.01c-1.07-0.04-2.02-0.09-2.84-0.2V345.61z M105.76,315.81
		c0.65-0.12,1.55-0.23,2.71-0.32c1.18-0.08,2.69-0.13,4.58-0.13c3.88,0,6.87,0.75,8.94,2.22c2.1,1.47,3.13,3.66,3.16,6.51
		c0,1.89-0.52,3.51-1.55,4.89c-1.05,1.4-2.58,2.46-4.63,3.25c-2.03,0.77-4.58,1.14-7.6,1.16h-5.6V315.81z M89.73,378.78
		c1.85,0.26,3.76,0.43,6.63,0.63c3.1,0.23,6.76,0.34,10.96,0.36c4.98,0,9.37-0.28,13.14-0.81c3.77-0.52,7.02-1.3,9.75-2.31
		c2.71-1.02,4.98-2.26,6.8-3.72c1.59-1.27,2.95-2.7,4.13-4.33c1.18-1.62,2.07-3.41,2.72-5.38c0.65-1.96,0.99-4.1,0.99-6.42
		c-0.01-3.23-0.69-6.08-1.98-8.56c-1.29-2.5-3.06-4.6-5.3-6.28c-2.26-1.68-4.84-2.89-7.73-3.64v-0.23c2.84-1.1,5.17-2.48,7-4.13
		c1.85-1.67,3.21-3.49,4.1-5.52c0.88-2.04,1.32-4.15,1.32-6.37c-0.01-2.31-0.39-4.43-1.15-6.33c-0.75-1.9-1.8-3.56-3.14-5
		c-1.35-1.43-2.89-2.63-4.67-3.56c-1.85-1.08-3.85-1.93-5.97-2.55c-2.15-0.62-4.56-1.07-7.23-1.33c-2.69-0.26-5.74-0.37-9.2-0.37
		c-2.91,0-5.75,0.07-8.54,0.22c-2.8,0.15-5.38,0.35-7.74,0.58c-2.13,0.22-3.49,0.4-4.95,0.64c-0.51,0.07-0.86,0.57-0.84,1v72.48
		C88.84,378.25,89.19,378.71,89.73,378.78"/>
	<path class="st1" d="M181.99,359.05c0,0.5-0.02,1.01-0.08,1.5c-0.05,0.5-0.14,0.97-0.25,1.42c-0.39,1.17-1.01,2.22-1.87,3.18
		c-0.86,0.93-1.9,1.68-3.1,2.24c-1.19,0.56-2.48,0.84-3.88,0.86c-1.29,0-2.43-0.25-3.43-0.71c-1-0.49-1.82-1.19-2.39-2.17
		c-0.58-0.95-0.88-2.17-0.9-3.62c0.04-2.15,0.75-3.86,2.13-5.14c1.4-1.25,3.28-2.16,5.68-2.7c2.39-0.54,5.08-0.8,8.1-0.79V359.05z
		 M198.46,346.62c0.02-3.27-0.37-6.33-1.18-9.19c-0.81-2.87-2.12-5.37-3.96-7.56c-1.85-2.18-4.29-3.88-7.39-5.11
		c-3.08-1.24-6.88-1.87-11.45-1.89c-3.32,0.02-6.36,0.28-9.11,0.8c-2.72,0.52-5.11,1.15-7.17,1.91c-1.68,0.61-3.14,1.2-4.29,1.83
		c-0.61,0.36-0.54,0.98-0.48,1.17l2.55,8.94c0.18,0.63,0.9,0.93,1.45,0.64c0.95-0.52,2.02-1,3.19-1.44
		c1.62-0.61,3.38-1.12,5.23-1.49c1.87-0.37,3.73-0.58,5.62-0.58c2.09,0.02,3.78,0.24,5.09,0.69c1.33,0.44,2.34,1.04,3.05,1.75
		c0.7,0.73,1.19,1.49,1.46,2.34c0.26,0.82,0.39,1.62,0.37,2.39v0.67c-4.85,0-9.26,0.43-13.2,1.27c-3.93,0.86-7.32,2.15-10.14,3.86
		c-2.82,1.74-5,3.9-6.52,6.53c-1.51,2.63-2.28,5.74-2.29,9.28c0,2.21,0.41,4.31,1.21,6.31c0.79,2,1.96,3.79,3.48,5.36
		c1.53,1.58,3.38,2.82,5.57,3.73c2.18,0.92,4.66,1.38,7.45,1.4c3.27,0,6.25-0.58,8.94-1.72c2.67-1.14,4.93-2.82,6.74-5H183v4.47
		c0,0.47,0.38,1.01,1.01,1.01h15.35c-0.23-1.03-0.39-2.22-0.52-3.62c-0.13-1.4-0.22-2.91-0.3-4.56c-0.06-1.63-0.07-3.3-0.07-5.04
		V346.62z"/>
	<path class="st1" d="M208.52,378.99h14.97c0.7,0,1.03-0.61,1.03-1l0-30.59c0-0.8,0.04-1.57,0.11-2.3c0.07-0.74,0.22-1.4,0.45-1.96
		c0.41-1.06,0.99-2.09,1.77-3.04c0.76-0.97,1.72-1.77,2.87-2.39c1.16-0.61,2.53-0.93,4.1-0.95c2.05,0.02,3.71,0.52,4.99,1.51
		c1.27,0.99,2.18,2.37,2.77,4.14c0.59,1.78,0.88,3.84,0.87,6.21v29.36c0,0.57,0.47,1,1.01,1h14.99c0.71,0,1.03-0.6,1.03-1v-31.37
		c-0.02-4.04-0.51-7.53-1.5-10.5c-0.97-2.97-2.33-5.43-4.1-7.38c-1.75-1.94-3.82-3.39-6.22-4.34c-2.37-0.95-4.96-1.42-7.78-1.42
		c-2.29,0.01-4.37,0.31-6.2,0.87c-1.85,0.56-3.47,1.31-4.85,2.21c-1.41,0.89-2.6,1.84-3.57,2.87c-0.97,1.01-1.73,1.98-2.3,2.89
		h-0.33v-6.57c0-0.8-0.68-1.04-1.03-1.04h-14.55l0.32,4.83c0.19,2.89,0.13,4.88,0.13,8.29v40.64
		C207.49,378.6,207.99,378.99,208.52,378.99"/>
	<path class="st1" d="M281.6,345.38c0.11-1.14,0.37-2.35,0.82-3.62c0.45-1.27,1.08-2.48,1.93-3.61c0.84-1.14,1.91-2.05,3.17-2.76
		c1.29-0.71,2.82-1.08,4.61-1.1c1.94,0.02,3.55,0.41,4.82,1.14c1.24,0.75,2.24,1.7,2.95,2.86c0.69,1.14,1.2,2.35,1.48,3.61
		c0.28,1.26,0.41,2.42,0.39,3.49H281.6z M317.15,356.17c0.07-0.52,0.15-1.14,0.23-1.86c0.12-1.19,0.19-2.53,0.19-4
		c0-2.72-0.28-5.41-0.84-8.04c-0.57-2.63-1.46-5.12-2.65-7.43c-1.22-2.31-2.77-4.37-4.69-6.14c-1.92-1.77-4.22-3.16-6.91-4.16
		c-2.69-1.02-5.81-1.53-9.34-1.55c-3.81,0.01-7.2,0.6-10.19,1.7c-2.99,1.12-5.58,2.66-7.77,4.59c-2.21,1.94-4.02,4.16-5.45,6.65
		c-1.44,2.5-2.51,5.13-3.21,7.91c-0.69,2.79-1.05,5.58-1.05,8.39c0.02,5.73,1.17,10.7,3.46,14.84c2.28,4.16,5.58,7.38,9.93,9.64
		c4.36,2.24,9.64,3.38,15.86,3.42c3.71,0,7.23-0.31,10.58-0.87c3.02-0.5,5.86-1.27,8.43-2.29c0.52-0.2,0.75-0.77,0.65-1.14
		c-0.61-3.19-1.24-6.39-1.86-9.58c-0.15-0.8-0.87-0.91-1.3-0.79c-1.94,0.62-3.95,1.09-6.01,1.43c-2.46,0.39-5.14,0.57-8.03,0.57
		c-2,0-3.9-0.2-5.71-0.63c-1.79-0.43-3.41-1.07-4.83-1.93c-1.42-0.86-2.56-1.94-3.41-3.25c-0.88-1.3-1.36-2.86-1.49-4.61h34.44
		C316.63,357.03,317.08,356.67,317.15,356.17"/>
	<path class="st1" d="M324.14,376.65c1.96,0.98,4.3,1.79,7.02,2.45c3.05,0.73,6.37,1.1,9.99,1.12c5.22-0.04,9.59-0.8,13.11-2.34
		c3.49-1.51,6.12-3.6,7.87-6.27c1.78-2.67,2.65-5.73,2.65-9.21c-0.01-2.65-0.54-5.02-1.56-7.13c-1.03-2.09-2.62-3.96-4.78-5.58
		c-2.17-1.61-4.99-3.01-8.44-4.2c-2.22-0.76-3.98-1.48-5.28-2.11c-1.29-0.63-2.23-1.29-2.77-1.94c-0.55-0.67-0.82-1.45-0.8-2.33
		c0.02-1.36,0.57-2.42,1.7-3.19c1.12-0.76,2.71-1.15,4.8-1.18c1.55,0.02,3.08,0.19,4.57,0.5c1.49,0.34,2.88,0.74,4.15,1.21
		c0.76,0.29,1.43,0.57,2.04,0.85c0.37,0.22,1.2,0.16,1.43-0.7l2.51-10.11c0.08-0.31-0.15-0.51-0.28-0.57
		c-1.65-0.79-3.69-1.48-6.15-2.07c-2.65-0.64-5.58-0.95-8.81-0.99c-3.4,0.02-6.46,0.47-9.21,1.36c-2.73,0.9-5.08,2.17-7.02,3.79
		c-1.96,1.62-3.46,3.53-4.48,5.71c-1.05,2.18-1.57,4.57-1.59,7.17c-0.06,2.18,0.45,4.27,1.48,6.31c1.04,2.04,2.73,3.89,5.04,5.64
		c2.31,1.74,5.38,3.23,9.17,4.52c2.07,0.69,3.7,1.35,4.85,1.96c1.16,0.6,1.96,1.25,2.43,1.94c0.46,0.71,0.68,1.53,0.67,2.48
		c0.01,1.42-0.54,2.5-1.7,3.28c-1.16,0.79-3.02,1.18-5.58,1.2c-1.72-0.02-3.49-0.23-5.34-0.62c-1.86-0.41-3.6-0.91-5.26-1.53
		c-1.12-0.41-2.13-0.79-2.97-1.28c-0.47-0.26-1.24-0.01-1.42,0.65l-2.51,10.05C323.58,375.8,323.61,376.35,324.14,376.65"/>
	<path class="st1" d="M387.2,345.38c0.11-1.14,0.37-2.35,0.82-3.62c0.44-1.27,1.08-2.48,1.92-3.61c0.84-1.14,1.91-2.05,3.17-2.76
		c1.29-0.71,2.82-1.08,4.61-1.1c1.93,0.02,3.54,0.41,4.82,1.14c1.24,0.75,2.24,1.7,2.95,2.86c0.69,1.14,1.19,2.35,1.47,3.61
		c0.28,1.26,0.41,2.42,0.39,3.49H387.2z M422.74,356.17c0.08-0.52,0.15-1.14,0.23-1.86c0.12-1.19,0.19-2.53,0.19-4
		c0-2.72-0.28-5.41-0.84-8.04c-0.56-2.63-1.46-5.12-2.65-7.43c-1.22-2.31-2.77-4.37-4.69-6.14c-1.92-1.77-4.22-3.16-6.91-4.16
		c-2.68-1.02-5.8-1.53-9.34-1.55c-3.81,0.01-7.2,0.6-10.19,1.7c-2.99,1.12-5.59,2.66-7.77,4.59c-2.2,1.94-4.01,4.16-5.45,6.65
		c-1.44,2.5-2.5,5.13-3.21,7.91c-0.69,2.79-1.05,5.58-1.05,8.39c0.02,5.73,1.17,10.7,3.46,14.84c2.28,4.16,5.58,7.38,9.93,9.64
		c4.35,2.24,9.63,3.38,15.85,3.42c3.72,0,7.24-0.31,10.58-0.87c3.03-0.5,5.86-1.27,8.44-2.29c0.52-0.2,0.75-0.77,0.65-1.14
		c-0.62-3.19-1.24-6.39-1.86-9.58c-0.15-0.8-0.87-0.91-1.3-0.79c-1.95,0.62-3.96,1.09-6.02,1.43c-2.46,0.39-5.13,0.57-8.02,0.57
		c-2,0-3.91-0.2-5.72-0.63c-1.79-0.43-3.41-1.07-4.83-1.93c-1.41-0.86-2.55-1.94-3.41-3.25c-0.88-1.3-1.36-2.86-1.49-4.61h34.44
		C422.23,357.03,422.67,356.67,422.74,356.17"/>
</g>
</svg>
