<svg id="Camada_2_Imagem" data-name="Camada 2 Imagem" xmlns="http://www.w3.org/2000/svg" width="512" height="512" viewBox="0 0 512 512">
  <defs>
    <style>
      .cls-1 {
        fill: #fefefe;
      }

      .cls-2 {
        fill: #00a8e3;
      }

      .cls-3 {
        fill: #01a9e3;
      }

      .cls-4 {
        fill: #01a8e3;
      }

      .cls-5 {
        fill: #015cac;
      }

      .cls-6 {
        fill: #025cac;
      }

      .cls-7 {
        fill: #fafcfc;
      }

      .cls-8 {
        fill: #00a9e4;
      }

      .cls-9 {
        fill: #00a9e3;
      }

      .cls-10 {
        fill: #020202;
      }

      .cls-11 {
        fill: #fbfcfc;
      }

      .cls-12 {
        fill: #fafcfb;
      }

      .cls-13 {
        fill: #f7fbfb;
      }

      .cls-14 {
        fill: #f4fbfb;
      }

      .cls-15 {
        fill: #fdfefe;
      }
    </style>
  </defs>
  <g>
    <path class="cls-1" d="M255.5,511.91q-125.67,0-251.33.09C.87,512,0,511.51,0,508Q.19,256.12,0,4.26C0,.48,1,0,4.42,0Q256,.15,507.59,0C511,0,512,.51,512,4.27q-.19,251.61,0,503.21c0,3.9-1.05,4.52-4.67,4.52Q381.41,511.84,255.5,511.91Z" transform="translate(0 0)"/>
    <path d="M107.94,293c-10.61,10.61-23.75,8.85-30-4.34-7.78-16.38-7.16-33.16.42-49.62a21.5,21.5,0,0,1,5.16-6.67c8.37-7.71,17.21-6.89,25.84,2.44,1.76-1.81-.62-5.71,2.3-6.28,3.69-.71,7.62-.35,11.44-.15,1.58.08,1.16,1.74,1.11,2.84-1.11,23.79.6,47.62-1.06,71.39-1.55,22.23-23.83,34.5-43.9,24.47-1.49-.74-2.12-1.39-1.4-3a10.24,10.24,0,0,0,.31-1.46c.78-2.71.87-6.15,2.63-7.82,1-1,4.74,1,7.27,1.58,12.22,2.64,19-2.38,19.86-14.83C108.1,298.89,107.94,296.23,107.94,293Z" transform="translate(0 0)"/>
    <path class="cls-2" d="M340.93,228.13l7,0c3.48-.29,2.61,2.86,3.48,4.71,1.75-.81,2.77-2.52,4.63-2.8,16.8-9,26.36,4.94,28.8,18.7a80.44,80.44,0,0,1-2,38.18c-1.94,5.87-4.41,11.28-11.26,12.86-7.34,2.23-14.06,2-19.67-5.89,0,10.54-.19,20.08.09,29.6.12,3.82-1,4.79-4.73,4.66-7.31-.25-7.31,0-7.32-7.47q-.06-44.7-.14-89.4c0-1,.17-2,.26-3C340.17,227.52,340.45,227.45,340.93,228.13Z" transform="translate(0 0)"/>
    <path d="M308.29,278.52c1.21-6.4,2.44-12.81,3.61-19.22,1.7-9.32,3.4-18.63,5-28,.31-1.8.55-3.22,2.89-3.15,3.65.11,7.32.07,11,0,1.85,0,2.21.61,1.7,2.4-7,24.4-11.64,49.45-20.43,73.33-3.86,10.49-9.8,19.56-19.65,25.61-2.94,1.81-4.86,2.44-5.93-1.82-.76-3-3.19-6-3-8.83s4.54-3.25,6.46-5.51,4-4,5.6-6.32c3.56-5.07,4.88-10.14,2.8-16.72-6-19.14-11.09-38.59-16.81-57.83-1.16-3.9-.12-4.37,3.41-4.37,12.26,0,12.31-.09,14.82,11.91,2.67,12.77,5.24,25.56,7.85,38.35Z" transform="translate(0 0)"/>
    <path d="M166,270c0-8.66-.2-17.32.1-26,.12-3.64-1.1-4.56-4.46-4.31-1.63.12-4.35,1.19-4.85-1-.7-3.16-1.14-6.8.27-9.77.84-1.75,3.69-.74,5.59-.67,2.52.1,3.61-.54,3.41-3.29a31.63,31.63,0,0,1,.68-8.92c3.1-14.55,14.47-21.76,29-18.54,3,.66,4,1.78,3.1,4.66a6.65,6.65,0,0,0-.44,1.94c0,4.5-.85,7.54-6.74,6-3.8-1-6.65,1.59-8.21,5.09a17.56,17.56,0,0,0-1.28,4.8c-1.11,8.15-1.08,8.09,7.06,8.22,1.66,0,4.4-1.11,4.82,1a29.48,29.48,0,0,1-.1,9.87c-.18,1.21-2.37.59-3.65.62-8.41.16-8.41.14-8.41,8.65,0,15.81-.07,31.63.07,47.44,0,3.08-.53,4.3-4,4.3-11.91,0-11.91.14-11.91-11.71Z" transform="translate(0 0)"/>
    <path d="M205.89,263c0-6.32-.14-12.65.07-19,.1-3.06-.48-4.84-4-4.17-4,.77-5.25-1-4.83-4.89.38-3.36-1.34-7.9,5-6.74,2.49.46,3.8-.2,3.82-3.33,0-9.08.22-9.08,8.75-12,7-2.4,7-2.4,7,5.09,0,10,0,10.14,9.76,10.18,3,0,4.34.72,4,3.87a27.61,27.61,0,0,0,0,5c.15,2.18-.78,3.08-2.91,2.82a2.09,2.09,0,0,0-.5,0c-3.39.35-7.94-1.57-9.88,1-1.61,2.13-.4,6.41-.4,9.73,0,9.15-.1,18.3,0,27.44.11,7.78,2,9.59,9.68,9.87,1.48,0,2.58-.09,2.52,1.92-.36,11,2.89,10.89-9.52,11.17-11.47.26-17.55-5.36-18.32-17.05-.46-6.95-.09-14-.09-20.94Z" transform="translate(0 0)"/>
    <path d="M263.08,211.1c0,4.31.26,8.64-.08,12.91-.3,3.67,1.1,4.7,4.46,4.24,1.47-.2,3,.18,4.49-.07,4.33-.73,5.29,1.2,5.08,5.21-.33,6.42-.08,6.43-6.81,6.43-7.15,0-7.15,0-7.14,6.93,0,10,0,20,0,30,0,8.68,1.49,10.38,10.07,11,2,.16,2.11.93,2.13,2.41,0,2.33.06,4.67.3,7,.22,2.14-.7,3-2.69,3.27-12.67,1.95-24.46,0-25.32-17.05-.64-12.79-.48-25.63-.3-38.45,0-4-.68-6-5-5.14-3,.57-3.82-1-3.49-3.67a11.51,11.51,0,0,0,0-3c-.57-3.78.66-5.59,4.78-5,2,.3,3.66.4,3.74-2.87.23-9.54.42-9.56,9.76-12.74C258.88,211.94,260.63,210.82,263.08,211.1Z" transform="translate(0 0)"/>
    <path class="cls-3" d="M443.92,331c-3.34-2.5-4-6.33-5-10a176.13,176.13,0,0,0,13.89-16,.67.67,0,0,0,.24-.7,9,9,0,0,1,1.76-4.28c.09-.32.19-.64.29-1,1.29-3.58-2.66-6.46-1.35-10l-.81-2c-1.33-1.11.06-2.89-1-4.07q-5.67-21.59-11.35-43.15c-.25-1-.52-1.91-.77-2.86-2.28-8.68-2.29-8.49,6.74-8.32,3.3.06,3.75,1.94,4.3,4.25L456,254c3.41,7.37,4.53,15.34,6.24,23.34,1.78-11.81,5.51-23.1,7.18-34.83a18.73,18.73,0,0,1,2.33-6.48,4.84,4.84,0,0,1,.47-1.42c1.26-1.72-.43-5,2.28-5.58a27.29,27.29,0,0,1,8.93-.17c2.63.31,1,2.2.65,3.44Q476.7,261.13,469.31,290c-.24,1-.31,2-.46,2.93-.68.89.32,2.39-1.07,3q-4,9.46-7.91,18.95C456.63,322.29,451.83,328.18,443.92,331Z" transform="translate(0 0)"/>
    <path class="cls-4" d="M422.77,293.3c-9.19,9.28-19.48,10.27-26.19,2.8-7-7.79-7-23.34,0-31.35a27.62,27.62,0,0,1,20.53-9.69c4.13-.16,5.08-1.66,4.6-5.41q-2.37-18.51-20-11c-1.07.45-3.14,3-3.65-.36-.37-2.38-4-5.25-.14-7.26,8.1-4.19,16.7-5.85,25.21-1.4,7.67,4,9.7,11.42,9.83,19.37.21,13.31.12,26.62.17,39.94,0,1.49,0,3,.14,4.49.66,6.69.66,6.31-5.84,6.66C421.91,300.39,423.28,296.38,422.77,293.3Z" transform="translate(0 0)"/>
    <path d="M150.09,264.27c0,10.81-.06,21.62,0,32.42,0,2.45-.41,3.4-3.19,3.49-12.79.38-12.78.49-12.78-12.36,0-18.12.11-36.25-.09-54.37-.05-3.93.64-5.47,5-5.35,11,.31,11,.07,11,11.23Z" transform="translate(0 0)"/>
    <path class="cls-5" d="M44.23,254l-.2,1.84c-1.07.69-1.48-.15-2-.84-4.24-4.39-8.47-8.81-12.74-13.18-1.28-1.31-2.31-2.52-2.29-4.64.15-20.05.17-40.1.22-60.16,4.09.31,6,3.9,8.76,6.11,3.67,3,7.75,5.87,9.32,10.79.69,18.65.25,37.28.25,55.92A5.51,5.51,0,0,1,44.23,254Z" transform="translate(0 0)"/>
    <path class="cls-6" d="M63.21,275.16c-4.12-2.25-6.35-6.59-10.19-9.14-5.44-2.5-6.26-7.63-6.35-12.57-.31-17.43-.21-34.87-.06-52.31a6.61,6.61,0,0,1,1-3.79c2.64-1.44,4,.74,5.39,2.14,3.15,3.17,5.84,6.78,9,10A6.06,6.06,0,0,1,63.61,214c-.09,19.9,0,39.81,0,59.71A4.41,4.41,0,0,1,63.21,275.16Z" transform="translate(0 0)"/>
    <path class="cls-7" d="M48,197c-.1,20.36-.16,40.73-.33,61.1,0,4,4.07,5,5.34,7.94-1.71.47-2.94,1.83-4.23-1.45-1.37-3.5-1.53-7.72-4.56-10.54l-.1-61.84a3,3,0,0,1,2.52-1.34,192,192,0,0,1,22.57.08c-3.11-3.23-8.91-5.47-9.95-12,1.87-.08.55-3.29,2.87-2.93,4.89,2.68,8.37,7,12.17,10.87a12,12,0,0,0,9.28,3.81c7.44-.06,14.9-.42,22.33.34,6.68-2.51,5.61,2.57,6,6.18-8.69.34-17.39-.18-27,.23,3.76,3.85,7.07,7,10.16,10.25,1.39,1.48,3.53,2.66,3,5.28-2,.72-4,1.13-6.06,0-5.3-2.77-8.81-7.56-12.9-11.66a12.45,12.45,0,0,0-9.72-4A193.08,193.08,0,0,1,48,197Z" transform="translate(0 0)"/>
    <path class="cls-8" d="M48,197c2.82-2.13,6-.4,9-1,13.76-2.59,24.39,2.29,32.4,13.5.84,1.17,2.54,1.7,2.58,3.47-7.65,0-15.31.24-22.94-.09-4-.17-5.35.78-5.29,5.09.27,18.78.13,37.58.14,56.37,0,.16,0,.4-.06.48a2.81,2.81,0,0,1-.65.32c0-19.44-.13-38.88,0-58.32,0-3.06-.66-5.43-3-7.44C55.7,205.65,52.91,200.28,48,197Z" transform="translate(0 0)"/>
    <path class="cls-9" d="M98.07,213l-16.2-15.78.56-1.29c9.84.89,19.73-1.45,29.54,1.31l15.46,13.54L126,213Z" transform="translate(0 0)"/>
    <path class="cls-9" d="M105.92,191.07c-1.65,2.15-3.94.75-5.92,1a35.94,35.94,0,0,1-5,0c-19.48,0-19.49,0-32.47-14.72-.29-.33-.28-.91-.41-1.37,3.82,0,7.72.5,11.44-.11,12.34-2,21.84,2.16,29.08,12.14A21.68,21.68,0,0,0,105.92,191.07Z" transform="translate(0 0)"/>
    <path class="cls-4" d="M59.27,179l12.54,13.21H44.13L27.27,177.05c.89-1.84,2.58-.94,3.86-1,6.59-.11,13.19.14,19.77-.14C54.27,175.81,57,176.54,59.27,179Z" transform="translate(0 0)"/>
    <path class="cls-10" d="M150.54,209.37c.11,5.51-3.53,9.53-8.61,9.51-4.8,0-8.39-3.94-8.4-9.19s3.48-9.14,8.37-9.22S150.43,204.05,150.54,209.37Z" transform="translate(0 0)"/>
    <path class="cls-11" d="M471.75,236q-4.12,20.64-8.26,41.29a11.75,11.75,0,0,1-1.73,4.49L456,254c1.66,1.89,3,3.15,6.11,1.68s.11,2.18,1.75,2.82c3.11-.9-.82-5.94,3.91-6.42-4.72-.29-4.7-3.12-2.84-5.23C467.84,243.55,468,238.65,471.75,236Z" transform="translate(0 0)"/>
    <path class="cls-11" d="M443.92,331c6.58-4.11,11.57-9.8,15.95-16.1.73,3.57-.56,6.26-3.43,8.43-.7.53-3.38,1.22-.52,2.67.08,2.46-3.6,4.67.24,7-3.89,1.75-7.12-1.17-10.51.68C444,334.54,444,332.22,443.92,331Z" transform="translate(0 0)"/>
    <path class="cls-11" d="M452.82,305a33.25,33.25,0,0,1-13.89,16c.29-1.05-3.24-2.08,0-3.2.69-.23,1.76-1.18,1.67-1.54-1.4-5.46,2.43-5,5.85-5.79,2.44-.54,1.58-3.63,2.46-5.47C450.22,304,451.52,304.9,452.82,305Z" transform="translate(0 0)"/>
    <path class="cls-12" d="M371.61,299.82c5.22-3,8.4-7.8,11.26-12.86.16,3.78.19,7.73-1.17,11.15C379.85,302.74,376.72,303,371.61,299.82Z" transform="translate(0 0)"/>
    <path class="cls-13" d="M356.08,230.08c-1.45,2.1-3.64,3.5-4.62,6.09-2.69-2.57.5-6.72-3.49-8,1.07-.8,4.69-1,5.52-.25Z" transform="translate(0 0)"/>
    <path class="cls-11" d="M453.76,289c.89,3.29,3.26,6.38,1.35,10-1.39-2.82-3.15-5.54-4.07-8.51C450.23,287.94,452.49,288.92,453.76,289Z" transform="translate(0 0)"/>
    <path class="cls-7" d="M42.08,255l2,.84c.45,1.84.91,3.69,1.36,5.53C39.53,261.75,39.49,261.67,42.08,255Z" transform="translate(0 0)"/>
    <path class="cls-11" d="M460.91,322c3.54,7.83-3.6,2.33-5,4Z" transform="translate(0 0)"/>
    <path class="cls-11" d="M449.34,297.72l-1.14-5.11C452,293.64,449.2,296.29,449.34,297.72Z" transform="translate(0 0)"/>
    <path class="cls-11" d="M448.75,305.16c-1-1.79-1.46-3.87-.18-4.24,2.06-.59,1.83.88.87,2.23A8.19,8.19,0,0,0,448.75,305.16Z" transform="translate(0 0)"/>
    <path class="cls-11" d="M448.67,285.55c1.61,1.48,1.18,3,.46,4.47C449,288.53,448.82,287,448.67,285.55Z" transform="translate(0 0)"/>
    <path class="cls-11" d="M452.15,296.27a3.69,3.69,0,0,1-.94,3.22c-.08.08-1-.3-1-.58C449.8,297.36,451,297,452.15,296.27Z" transform="translate(0 0)"/>
    <path class="cls-13" d="M344,226c-.06-1.6.12-3,3-3.35L344,226Z" transform="translate(0 0)"/>
    <path class="cls-13" d="M340.93,228.13a1,1,0,0,1-.83.22c-.34-3.46,1.88-2.71,3.86-2.34h0Z" transform="translate(0 0)"/>
    <path class="cls-14" d="M467.78,295.92c.21-1.07-.07-2.3,1.07-3,.34,1.1,1.6,2.08.6,3.33C469.28,296.43,468.35,296,467.78,295.92Z" transform="translate(0 0)"/>
    <path class="cls-11" d="M454.82,300a7.14,7.14,0,0,1-1.76,4.28C451.69,302.05,453.14,301,454.82,300Z" transform="translate(0 0)"/>
    <path class="cls-11" d="M462,319.38c.23.27.64.54.73.89a1.12,1.12,0,0,1-.85,1.47c-.23.05-.94.83-.91-.25C461,320.73,460.82,319.86,462,319.38Z" transform="translate(0 0)"/>
    <path class="cls-11" d="M452,282.92c1.23,1.14,1,2.62,1,4.07C450.47,286.16,451.92,284.36,452,282.92Z" transform="translate(0 0)"/>
    <path class="cls-1" d="M108.15,263.88c-.5,5.41.73,10.79-1.05,16-1.24,3.61-2.9,6.84-7.27,7.22-4.62.41-7.23-2.53-8.59-6.26a48,48,0,0,1,.16-34.14c1.34-3.59,4-6.31,8.24-6.13s6.13,3.48,7.38,7.09C108.88,253,107.66,258.56,108.15,263.88Z" transform="translate(0 0)"/>
    <path class="cls-15" d="M351.85,264.2c.57-5.54-.84-11.25,1-16.78a28.39,28.39,0,0,1,1.58-4.15c1.79-3.43,4.5-6.11,8.51-5.91s6.63,2.88,8.14,6.5c3.48,8.31,4.12,17,3.37,25.88-.39,4.6-.76,9.26-2.57,13.61s-4.2,8-9.7,7.83c-5.29-.19-7.31-4-8.9-8.13C351,277,352.32,270.54,351.85,264.2Z" transform="translate(0 0)"/>
    <path class="cls-15" d="M421.92,272.38c0,4.46.2,8.9-1.85,13.11-2.21,4.55-6.16,7.32-10.05,6.36-4.67-1.16-6.58-4.76-7-9.19-1.18-11.12,3-16.9,13.76-19.31,3.57-.8,5.87-.5,5.22,4.06A35.8,35.8,0,0,0,421.92,272.38Z" transform="translate(0 0)"/>
  </g>
</svg>
