<svg id="Camada_1" data-name="Camada 1" xmlns="http://www.w3.org/2000/svg" viewBox="0 0 512 512"><defs><style>.cls-1{fill:#39384f;}.cls-2{fill:#6083a9;}.cls-3{fill:#1e2133;}.cls-4{fill:#1c1a1d;}</style></defs><path class="cls-1" d="M85.94,346.48H121.6v4.13H85.94v37.87H81.73v-57c0-13,9.68-22.61,22.44-22.61h22.45v4.25H104.17c-10.48,0-18.23,7.8-18.23,18.36Z"/><path class="cls-1" d="M140.52,388.36H136.3V329.27h4.22Zm0-75.16H136.3v-4.47h4.22Z"/><path class="cls-1" d="M163.05,333.51H147.32v-4.24h15.73m-2.48,38.67c0,10.1,4.56,17,15.72,16.52v3.9c-12.64,1.15-20-7.23-20-20.42v-59.1h4.33v20.43h15.72v4.24H160.57Z"/><path class="cls-1" d="M215.6,353.94H202.27v20.31h13.56c5.92,0,11.51-2.18,11.51-10,0-6.66-4.22-10.33-11.74-10.33m-13.33-14.11H214.8c.92,0,9.23-.23,9.23-8.84,0-6.65-5.12-9.41-10.82-9.41a10.67,10.67,0,0,0-10.94,10.9Zm15.84,48.53H187.23V332.48a25.32,25.32,0,0,1,7.41-18.13,25.9,25.9,0,0,1,18.57-7.57c15,0,26,9.64,26,23.52a19.72,19.72,0,0,1-6.95,15.49c6.72,3.56,10.59,10.1,10.59,19.16,0,14.23-9.45,23.41-24.72,23.41"/><path class="cls-1" d="M279.86,342c-8.32,0-15,7.22-15,17,0,9.41,6.72,16.64,15,16.64s15-7.46,15-16.64c0-9.41-6.72-17-15-17m30.08,46.35H295.7v-6.19c-4.45,4.93-10.82,7.45-17.89,7.45-15.49,0-28.14-13.76-28.14-30.75s12.42-31.09,30.19-31.09,30.08,14,30.08,31.09Z"/><path class="cls-1" d="M344,327.78c16.41,0,26.09,10.9,26.09,26.39v34.19h-15V353.82c0-3.32-1.14-11.24-11.05-11.24-6.61,0-11.4,4.59-11.4,11.24v34.54h-15V354.17c0-15,10.49-26.39,26.44-26.39"/><path class="cls-1" d="M430,376.32v12H414.88v-9.52c0-6.54-3.53-12.74-12.65-12.74h-8.32v22.26H378.76V306.78h15.15v44.75h8.32c9.12,0,12.65-6.31,12.65-12.85v-9.41H430v12.05c0,7.69-3.53,14.23-10,17.44,6.5,3.33,10,9.75,10,17.56"/><path class="cls-1" d="M304,122.38H195.35a18.56,18.56,0,0,0,0,37.12h90.2V141a18.44,18.44,0,1,1,36.87,0v-.05A18.55,18.55,0,0,0,304,122.38"/><path class="cls-2" d="M322.42,141A18.55,18.55,0,0,1,304,159.5H285.55v90.93a18.44,18.44,0,1,0,36.87,0V141"/><path class="cls-3" d="M304,122.47A18.55,18.55,0,0,0,285.55,141V159.5H304a18.52,18.52,0,0,0,0-37"/><path class="cls-1" d="M245.76,181.19H195.45a17.37,17.37,0,0,0-2.81.22,17.38,17.38,0,0,1,2.71-.21,18.56,18.56,0,0,1,18.44,18.57v18.55h32a18.57,18.57,0,0,0,0-37.13"/><path class="cls-1" d="M192.64,181.41a18.59,18.59,0,0,0-15.72,18.36v50.67a18.44,18.44,0,1,0,36.87,0V218.32H195.45a18.57,18.57,0,0,1-2.81-36.91"/><path class="cls-4" d="M195.35,181.2a17.38,17.38,0,0,0-2.71.21,18.57,18.57,0,0,0,2.81,36.91h18.34V199.77a18.56,18.56,0,0,0-18.44-18.57"/></svg>