<svg width="512" height="512" viewBox="0 0 512 512" fill="none" xmlns="http://www.w3.org/2000/svg">
<path d="M131.487 377.591H264.264C267.143 377.631 269.82 378.195 272.253 379.242C274.686 380.29 276.835 381.78 278.66 383.633C280.485 385.486 281.905 387.661 283 390.077C284.054 392.494 284.581 395.152 284.581 398.012C284.581 403.853 282.635 408.968 278.742 412.714C274.848 416.46 270.144 418.514 264.385 418.514H110.399C108.736 418.514 105.37 417.95 104.762 417.749C100.504 416.621 96.8537 414.124 94.1366 410.66C91.3789 407.196 90 403.047 90 398.334L90.2028 242.657C90.2028 239.797 90.73 237.139 91.7844 234.722C92.8388 232.305 94.2988 230.211 96.1238 228.479C97.9487 226.747 100.098 225.337 102.613 224.29C105.127 223.242 108.29 222.719 111.048 222.719C113.806 222.719 116.401 223.242 118.875 224.29C121.308 225.337 123.498 226.747 125.364 228.479C127.229 230.211 128.73 232.305 129.784 234.722C130.839 237.139 131.366 239.797 131.366 242.657L131.528 377.631L131.487 377.591Z" fill="#052FA9"/>
<path d="M257.045 294.294C279.778 294.294 298.208 275.99 298.208 253.411C298.208 230.832 279.778 212.528 257.045 212.528C234.311 212.528 215.882 230.832 215.882 253.411C215.882 275.99 234.311 294.294 257.045 294.294Z" fill="#052FA9"/>
<path d="M380.533 130.923H247.757C244.878 130.883 242.201 130.319 239.768 129.272C237.335 128.225 235.185 126.734 233.36 124.881C231.535 123.029 230.116 120.854 229.021 118.437C227.967 116.02 227.439 113.362 227.439 110.502C227.439 104.661 229.386 99.5461 233.279 95.8002C237.173 92.0542 241.877 90 247.636 90H401.622C403.285 90 406.651 90.5639 407.259 90.7653C411.517 91.8931 415.167 94.3904 417.884 97.8544C420.642 101.318 422.021 105.467 422.021 110.18L421.818 265.857C421.818 268.717 421.291 271.376 420.237 273.792C419.182 276.209 417.722 278.304 415.897 280.036C414.072 281.768 411.923 283.177 409.408 284.225C406.894 285.272 403.731 285.795 400.973 285.795C398.215 285.795 395.62 285.272 393.146 284.225C390.713 283.177 388.523 281.768 386.657 280.036C384.792 278.304 383.291 276.209 382.237 273.792C381.182 271.376 380.655 268.717 380.655 265.857L380.493 130.883L380.533 130.923Z" fill="#052FA9"/>
</svg>
