<svg width="512" height="512" viewBox="0 0 512 512" fill="none" xmlns="http://www.w3.org/2000/svg">
<rect width="512" height="512" fill="white"/>
<path d="M327.41 199.051H320.766C318.867 199.051 317.73 200.188 317.73 202.087V221.731C317.73 228.958 313.842 233.025 308.431 233.025C302.736 233.025 299.512 229.324 299.512 222.208V202.087C299.512 200.188 298.37 199.051 296.472 199.051H289.832C287.934 199.051 286.792 200.188 286.792 202.087V223.157C286.792 236.537 293.721 244.126 304.162 244.126C310.426 244.126 315.244 242.04 318.679 237.771L319.248 240.426C319.365 241.206 319.772 241.914 320.389 242.407C321.005 242.901 321.785 243.143 322.572 243.085H327.391C329.289 243.085 330.426 241.944 330.426 240.045V202.087C330.431 200.188 329.308 199.051 327.41 199.051Z" fill="#0086FF"/>
<path d="M281.102 231.507H269.143C264.965 231.507 262.782 229.324 262.782 225.147V202.087C262.782 200.188 261.645 199.051 259.747 199.051H252.915C251.016 199.051 249.879 200.188 249.879 202.087V226.761C249.879 236.913 256.047 243.085 266.199 243.085H281.102C283 243.085 284.137 241.944 284.137 240.045V234.543C284.137 232.644 283 231.507 281.102 231.507Z" fill="#0086FF"/>
<path d="M87.6964 201.99C87.5085 200.001 86.4629 199.051 84.5645 199.051H79.5342C78.7975 199.022 78.0675 199.202 77.4294 199.571C76.7912 199.941 76.2713 200.484 75.9302 201.138L63.6869 221.808L52.3014 201.138C51.9679 200.477 51.4489 199.927 50.8079 199.557C50.1669 199.186 49.4318 199.01 48.6925 199.051H43.2623C41.3687 199.051 40.3232 200.015 40.1352 201.99L37.0226 239.954C36.8299 242.04 37.8755 243.086 39.8654 243.086H45.9413C47.8397 243.086 48.9768 242.122 49.0731 240.142L50.403 218.883L57.7171 232.076C58.0506 232.737 58.5696 233.286 59.2106 233.657C59.8516 234.027 60.5867 234.203 61.326 234.162H65.4986C66.2393 234.212 66.9781 234.04 67.6208 233.669C68.2635 233.297 68.781 232.743 69.1075 232.076L77.3516 217.953L78.3152 240.161C78.4116 242.156 79.4571 243.105 81.3507 243.105H87.8988C89.8935 243.105 90.9391 242.059 90.7464 239.973L87.6964 201.99Z" fill="#0086FF"/>
<path d="M241.052 199.05H235.834C234.032 199.05 232.798 200.014 232.514 201.801L232.225 203.984C229.286 200.852 224.998 198.005 217.896 198.005C205.941 198.005 197.114 207.4 197.114 220.969C197.114 234.257 205.373 244.125 217.139 244.125C224.54 244.125 229.382 240.993 232.321 237.77L232.803 240.425C233.088 242.135 234.225 243.084 236.027 243.084H241.052C242.951 243.084 244.088 241.942 244.088 240.044V202.086C244.088 200.187 242.951 199.05 241.052 199.05ZM220.652 233.024C213.906 233.024 209.642 228.374 209.642 221.161C209.642 213.852 214.104 209.116 220.652 209.116C227.397 209.116 231.657 213.765 231.657 220.973C231.657 228.278 227.2 233.024 220.652 233.024V233.024Z" fill="#0086FF"/>
<path d="M189.522 199.05H184.304C182.502 199.05 181.268 200.014 180.984 201.802L180.7 203.979C177.756 200.848 173.472 198 166.37 198C154.411 198 145.584 206.827 145.584 220.395C145.584 233.303 153.746 242.415 165.512 242.415C172.822 242.415 177.187 239.374 180.131 236.151V238.334C180.131 245.923 175.857 250.765 166.842 250.765C163.148 250.769 159.495 249.993 156.122 248.486C154.315 247.633 152.893 248.004 152.04 249.816L149.949 253.993C149.097 255.699 149.381 257.125 150.995 258.074C156.025 260.917 162.193 262.059 168.172 262.059C183.07 262.059 192.562 252.663 192.562 239.567V202.086C192.562 200.187 191.42 199.05 189.522 199.05ZM169.121 231.598C162.573 231.598 158.111 227.232 158.111 220.516C158.111 213.399 162.761 209.13 169.121 209.13C175.669 209.13 180.131 213.019 180.131 220.328C180.131 226.857 175.477 231.598 169.121 231.598V231.598Z" fill="#0086FF"/>
<path d="M137.995 199.05H132.772C130.97 199.05 129.737 200.014 129.452 201.802L129.168 203.979C126.224 200.848 121.941 198 114.839 198C102.88 198 94.0574 207.396 94.0574 220.964C94.0574 234.253 102.311 244.12 114.077 244.12C121.483 244.12 126.321 240.989 129.264 237.765L129.746 240.42C130.031 242.131 131.192 243.08 132.975 243.08H138.005C139.903 243.08 141.04 241.938 141.04 240.039V202.086C141.031 200.187 139.894 199.05 137.995 199.05ZM117.59 233.024C110.844 233.024 106.58 228.374 106.58 221.161C106.58 213.852 111.042 209.116 117.59 209.116C124.335 209.116 128.6 213.765 128.6 220.974C128.6 228.278 124.138 233.024 117.59 233.024V233.024Z" fill="#0086FF"/>
<path d="M341.869 259.462V200.901C341.869 199.898 342.37 199.397 343.373 199.397H344.216C345.179 199.397 345.724 199.807 345.912 200.616C346.285 202.847 346.504 205.101 346.567 207.362C348.177 204.562 350.537 202.268 353.38 200.737C356.427 199.101 359.843 198.271 363.301 198.328C367.016 198.255 370.672 199.259 373.829 201.219C376.864 203.165 379.276 205.941 380.782 209.217C382.41 212.631 383.225 216.595 383.225 221.108C383.304 225.199 382.437 229.252 380.69 232.952C379.122 236.26 376.622 239.038 373.496 240.945C370.444 242.7 367.002 243.667 363.482 243.757C359.962 243.847 356.475 243.058 353.337 241.461C350.572 240.035 348.261 237.866 346.663 235.197V259.447C346.663 260.45 346.158 260.951 345.16 260.951H343.373C342.37 260.96 341.869 260.464 341.869 259.462ZM374.108 234.739C376.999 231.607 378.445 227.158 378.445 221.393C378.445 215.563 377.035 210.988 374.214 207.67C371.394 204.352 367.631 202.691 362.925 202.688C359.974 202.63 357.054 203.292 354.416 204.615C352.072 205.777 350.09 207.556 348.682 209.761C347.346 211.886 346.645 214.349 346.663 216.859V224.698C346.632 227.342 347.33 229.943 348.682 232.214C350.035 234.47 351.988 236.306 354.325 237.515C356.831 238.824 359.625 239.486 362.453 239.442C367.345 239.439 371.23 237.871 374.108 234.739Z" fill="#0086FF"/>
<path d="M397.704 240.897C394.66 238.943 392.244 236.153 390.746 232.86C389.061 229.143 388.226 225.097 388.304 221.017C388.304 216.5 389.164 212.537 390.886 209.125C392.49 205.843 394.997 203.087 398.114 201.18C401.316 199.272 404.987 198.295 408.714 198.361C412.006 198.325 415.256 199.117 418.162 200.664C420.905 202.102 423.198 204.27 424.788 206.928C424.826 204.841 425.078 202.763 425.539 200.727C425.583 200.343 425.774 199.991 426.073 199.746C426.371 199.5 426.754 199.38 427.139 199.412H428.102C429.105 199.412 429.606 199.913 429.606 200.915V241.225C429.606 242.227 429.105 242.728 428.102 242.728H427.351C426.966 242.759 426.583 242.639 426.285 242.394C425.986 242.148 425.795 241.797 425.751 241.413C425.313 239.215 425.094 236.98 425.096 234.739C423.476 237.549 421.096 239.845 418.23 241.364C415.135 243.004 411.676 243.833 408.174 243.773C404.479 243.85 400.841 242.851 397.704 240.897V240.897ZM417.064 237.606C419.401 236.427 421.37 234.629 422.754 232.407C424.085 230.264 424.785 227.789 424.773 225.266V217.461C424.804 214.823 424.121 212.226 422.798 209.944C421.482 207.693 419.56 205.857 417.252 204.644C414.763 203.332 411.984 202.669 409.171 202.717C404.279 202.717 400.378 204.283 397.468 207.415C394.558 210.547 393.101 214.996 393.098 220.761C393.098 226.656 394.492 231.262 397.28 234.58C400.068 237.898 403.844 239.559 408.608 239.562C411.544 239.615 414.449 238.943 417.064 237.606V237.606Z" fill="#0086FF"/>
<path d="M445.733 260.45C445.64 260.251 445.591 260.033 445.591 259.813C445.591 259.594 445.64 259.376 445.733 259.177L452.879 241.6L434.088 201.18L433.9 200.428C433.9 199.739 434.338 199.397 435.215 199.397H437.282C437.648 199.378 438.011 199.477 438.317 199.68C438.622 199.883 438.854 200.179 438.978 200.525L455.225 236.43L469.603 200.525C469.711 200.169 469.939 199.862 470.248 199.656C470.558 199.45 470.929 199.359 471.299 199.397H473.458C473.675 199.369 473.896 199.402 474.095 199.493C474.295 199.585 474.464 199.73 474.585 199.913C474.679 200.111 474.727 200.327 474.727 200.546C474.727 200.765 474.679 200.982 474.585 201.18L450.34 259.838C450.233 260.193 450.006 260.5 449.697 260.706C449.388 260.911 449.017 261.003 448.648 260.965H446.861C446.643 260.993 446.423 260.96 446.223 260.869C446.024 260.778 445.854 260.632 445.733 260.45V260.45Z" fill="#0086FF"/>
<path d="M273.817 304.846C271.316 304.846 269.148 304.329 267.314 303.295C265.513 302.262 264.129 300.811 263.162 298.943C262.195 297.076 261.712 294.942 261.712 292.541C261.712 290.306 262.195 288.256 263.162 286.388C264.129 284.487 265.497 282.987 267.264 281.886C269.031 280.752 271.066 280.185 273.367 280.185C276.835 280.185 279.519 281.269 281.42 283.437C283.321 285.571 284.271 288.489 284.271 292.191V292.491C284.271 292.924 284.155 293.258 283.921 293.491C283.688 293.725 283.354 293.841 282.921 293.841H266.964C267.197 295.775 267.931 297.326 269.165 298.493C270.432 299.66 272.066 300.244 274.067 300.244C276.568 300.244 278.586 299.51 280.12 298.043C280.453 297.71 280.803 297.543 281.17 297.543C281.47 297.543 281.754 297.66 282.02 297.893L283.171 298.843C283.571 299.244 283.771 299.61 283.771 299.944C283.771 300.177 283.671 300.427 283.471 300.694C281.27 303.462 278.052 304.846 273.817 304.846ZM278.969 289.89C278.802 288.189 278.252 286.888 277.318 285.988C276.418 285.054 275.134 284.587 273.467 284.587C271.799 284.587 270.415 285.054 269.315 285.988C268.214 286.888 267.481 288.189 267.114 289.89H278.969Z" fill="#788089"/>
<path d="M290.304 304.296C289.871 304.296 289.52 304.179 289.254 303.946C289.02 303.712 288.903 303.379 288.903 302.945V282.086C288.903 281.653 289.02 281.319 289.254 281.086C289.52 280.852 289.871 280.736 290.304 280.736H292.205C293.072 280.736 293.572 281.102 293.706 281.836C293.872 282.503 293.989 283.287 294.056 284.187C294.989 282.92 296.107 281.936 297.407 281.236C298.741 280.536 300.225 280.185 301.859 280.185C305.627 280.185 308.245 281.703 309.712 284.737C310.613 283.27 311.797 282.153 313.264 281.386C314.731 280.586 316.432 280.185 318.366 280.185C321.301 280.185 323.552 281.102 325.119 282.937C326.686 284.771 327.47 287.472 327.47 291.04V302.945C327.47 303.379 327.353 303.712 327.12 303.946C326.887 304.179 326.553 304.296 326.12 304.296H323.318C322.885 304.296 322.551 304.179 322.318 303.946C322.084 303.712 321.968 303.379 321.968 302.945V290.74C321.968 288.872 321.568 287.455 320.767 286.488C319.967 285.488 318.8 284.987 317.266 284.987C315.265 284.987 313.714 285.638 312.614 286.938C311.513 288.239 310.963 290.123 310.963 292.591V302.945C310.963 303.379 310.83 303.712 310.563 303.946C310.329 304.179 309.996 304.296 309.562 304.296H306.811C306.378 304.296 306.044 304.179 305.811 303.946C305.577 303.712 305.461 303.379 305.461 302.945V290.74C305.461 288.872 305.06 287.455 304.26 286.488C303.46 285.488 302.293 284.987 300.759 284.987C298.791 284.987 297.24 285.654 296.107 286.988C295.006 288.289 294.456 290.156 294.456 292.591V302.945C294.456 303.379 294.339 303.712 294.106 303.946C293.872 304.179 293.539 304.296 293.105 304.296H290.304Z" fill="#788089"/>
<path d="M334.17 314C333.736 314 333.403 313.883 333.169 313.65C332.936 313.416 332.819 313.083 332.819 312.649V282.086C332.819 281.653 332.936 281.319 333.169 281.086C333.403 280.852 333.736 280.736 334.17 280.736H336.07C336.904 280.736 337.421 281.102 337.621 281.836C337.721 282.303 337.854 283.103 338.021 284.237C338.988 282.97 340.189 281.986 341.623 281.286C343.057 280.552 344.624 280.185 346.325 280.185C348.492 280.185 350.393 280.719 352.027 281.786C353.661 282.82 354.928 284.27 355.829 286.138C356.729 288.005 357.179 290.14 357.179 292.541C357.179 294.942 356.713 297.076 355.779 298.943C354.878 300.811 353.578 302.262 351.877 303.295C350.21 304.329 348.292 304.846 346.125 304.846C344.524 304.846 343.057 304.529 341.723 303.896C340.422 303.262 339.288 302.378 338.321 301.244V312.649C338.321 313.083 338.205 313.416 337.971 313.65C337.738 313.883 337.404 314 336.971 314H334.17ZM345.274 300.044C347.175 300.044 348.709 299.444 349.876 298.243C351.043 297.009 351.627 295.159 351.627 292.691C351.627 290.19 351.043 288.289 349.876 286.988C348.742 285.654 347.242 284.987 345.374 284.987C343.273 284.987 341.573 285.604 340.272 286.838C338.972 288.039 338.321 289.723 338.321 291.89V292.941C338.321 295.242 338.955 297.009 340.222 298.243C341.523 299.444 343.207 300.044 345.274 300.044Z" fill="#788089"/>
<path d="M362.992 304.296C362.558 304.296 362.208 304.179 361.941 303.946C361.708 303.712 361.591 303.379 361.591 302.945V282.086C361.591 281.653 361.708 281.319 361.941 281.086C362.208 280.852 362.558 280.736 362.992 280.736H364.893C365.76 280.736 366.26 281.102 366.393 281.836C366.627 282.736 366.76 283.537 366.793 284.237C367.66 282.937 368.728 281.936 369.995 281.236C371.262 280.536 372.696 280.185 374.297 280.185C375.364 280.185 376.281 280.352 377.048 280.686C377.581 280.886 377.848 281.253 377.848 281.786C377.848 281.986 377.798 282.22 377.698 282.486L376.798 284.537C376.564 285.104 376.181 285.388 375.647 285.388C375.447 285.388 375.28 285.371 375.147 285.338C374.747 285.204 374.263 285.138 373.696 285.138C371.796 285.138 370.228 285.788 368.994 287.088C367.76 288.356 367.144 290.24 367.144 292.741V302.945C367.144 303.379 367.027 303.712 366.793 303.946C366.56 304.179 366.226 304.296 365.793 304.296H362.992Z" fill="#788089"/>
<path d="M390.42 304.846C387.919 304.846 385.751 304.329 383.917 303.295C382.116 302.262 380.732 300.811 379.765 298.943C378.798 297.076 378.315 294.942 378.315 292.541C378.315 290.306 378.798 288.256 379.765 286.388C380.732 284.487 382.1 282.987 383.867 281.886C385.635 280.752 387.669 280.185 389.97 280.185C393.438 280.185 396.122 281.269 398.023 283.437C399.924 285.571 400.874 288.489 400.874 292.191V292.491C400.874 292.924 400.758 293.258 400.524 293.491C400.291 293.725 399.957 293.841 399.524 293.841H383.567C383.8 295.775 384.534 297.326 385.768 298.493C387.035 299.66 388.669 300.244 390.67 300.244C393.171 300.244 395.189 299.51 396.723 298.043C397.056 297.71 397.406 297.543 397.773 297.543C398.073 297.543 398.357 297.66 398.624 297.893L399.774 298.843C400.174 299.244 400.374 299.61 400.374 299.944C400.374 300.177 400.274 300.427 400.074 300.694C397.873 303.462 394.655 304.846 390.42 304.846ZM395.572 289.89C395.405 288.189 394.855 286.888 393.921 285.988C393.021 285.054 391.737 284.587 390.07 284.587C388.402 284.587 387.019 285.054 385.918 285.988C384.818 286.888 384.084 288.189 383.717 289.89H395.572Z" fill="#788089"/>
<path d="M414.21 304.846C412.109 304.846 410.275 304.596 408.708 304.096C407.174 303.562 405.79 302.795 404.556 301.795C404.189 301.495 404.006 301.144 404.006 300.744C404.006 300.477 404.139 300.177 404.406 299.844L405.306 298.743C405.607 298.377 405.94 298.193 406.307 298.193C406.507 298.193 406.807 298.31 407.207 298.543C408.841 299.677 410.992 300.244 413.66 300.244C415.061 300.244 416.128 300.044 416.861 299.644C417.628 299.244 418.012 298.56 418.012 297.593C418.012 296.693 417.612 296.026 416.811 295.592C416.011 295.125 414.744 294.775 413.01 294.542C410.275 294.175 408.191 293.441 406.757 292.341C405.357 291.207 404.656 289.506 404.656 287.238C404.656 285.905 405.04 284.704 405.807 283.637C406.607 282.536 407.724 281.686 409.158 281.086C410.592 280.486 412.243 280.185 414.11 280.185C415.844 280.185 417.362 280.419 418.662 280.886C419.963 281.353 421.163 282.07 422.264 283.037C422.631 283.337 422.814 283.67 422.814 284.037C422.814 284.304 422.681 284.604 422.414 284.937L421.463 286.038C421.163 286.371 420.83 286.538 420.463 286.538C420.13 286.538 419.829 286.421 419.563 286.188C418.796 285.621 417.995 285.221 417.162 284.987C416.328 284.754 415.327 284.637 414.16 284.637C412.726 284.637 411.676 284.871 411.009 285.338C410.342 285.804 410.009 286.438 410.009 287.238C410.009 288.105 410.359 288.722 411.059 289.089C411.759 289.423 413.077 289.756 415.011 290.09C417.712 290.557 419.796 291.34 421.263 292.441C422.731 293.508 423.464 295.192 423.464 297.493C423.464 298.86 423.081 300.111 422.314 301.244C421.58 302.345 420.513 303.229 419.112 303.896C417.712 304.529 416.078 304.846 414.21 304.846Z" fill="#788089"/>
<path d="M437.039 304.846C434.872 304.846 432.971 304.329 431.337 303.295C429.736 302.228 428.486 300.761 427.585 298.893C426.718 296.993 426.285 294.842 426.285 292.441C426.285 290.04 426.752 287.905 427.685 286.038C428.619 284.17 429.92 282.72 431.587 281.686C433.254 280.652 435.189 280.135 437.389 280.135C440.658 280.135 443.292 281.386 445.293 283.887C445.36 283.153 445.46 282.47 445.593 281.836C445.793 281.102 446.293 280.736 447.094 280.736H449.145C449.578 280.736 449.912 280.852 450.145 281.086C450.412 281.319 450.545 281.653 450.545 282.086V302.945C450.545 303.379 450.412 303.712 450.145 303.946C449.912 304.179 449.578 304.296 449.145 304.296H447.344C446.51 304.296 445.993 303.912 445.793 303.145C445.626 302.445 445.51 301.611 445.443 300.644C444.476 301.978 443.259 303.012 441.791 303.746C440.357 304.479 438.773 304.846 437.039 304.846ZM437.99 300.094C440.091 300.094 441.775 299.477 443.042 298.243C444.342 296.976 444.993 295.259 444.993 293.091V292.041C444.993 289.74 444.376 287.989 443.142 286.788C441.908 285.554 440.274 284.937 438.24 284.937C436.339 284.937 434.788 285.554 433.588 286.788C432.421 288.022 431.837 289.873 431.837 292.341C431.837 294.875 432.387 296.809 433.488 298.143C434.622 299.444 436.122 300.094 437.99 300.094Z" fill="#788089"/>
<path d="M464.916 304.846C462.815 304.846 460.981 304.596 459.413 304.096C457.879 303.562 456.496 302.795 455.262 301.795C454.895 301.495 454.711 301.144 454.711 300.744C454.711 300.477 454.845 300.177 455.112 299.844L456.012 298.743C456.312 298.377 456.646 298.193 457.012 298.193C457.212 298.193 457.513 298.31 457.913 298.543C459.547 299.677 461.698 300.244 464.366 300.244C465.766 300.244 466.833 300.044 467.567 299.644C468.334 299.244 468.717 298.56 468.717 297.593C468.717 296.693 468.317 296.026 467.517 295.592C466.717 295.125 465.449 294.775 463.715 294.542C460.981 294.175 458.897 293.441 457.463 292.341C456.062 291.207 455.362 289.506 455.362 287.238C455.362 285.905 455.745 284.704 456.512 283.637C457.313 282.536 458.43 281.686 459.864 281.086C461.298 280.486 462.948 280.185 464.816 280.185C466.55 280.185 468.067 280.419 469.368 280.886C470.668 281.353 471.869 282.07 472.969 283.037C473.336 283.337 473.52 283.67 473.52 284.037C473.52 284.304 473.386 284.604 473.119 284.937L472.169 286.038C471.869 286.371 471.535 286.538 471.169 286.538C470.835 286.538 470.535 286.421 470.268 286.188C469.501 285.621 468.701 285.221 467.867 284.987C467.033 284.754 466.033 284.637 464.866 284.637C463.432 284.637 462.381 284.871 461.714 285.338C461.047 285.804 460.714 286.438 460.714 287.238C460.714 288.105 461.064 288.722 461.764 289.089C462.465 289.423 463.782 289.756 465.716 290.09C468.417 290.557 470.502 291.34 471.969 292.441C473.436 293.508 474.17 295.192 474.17 297.493C474.17 298.86 473.786 300.111 473.019 301.244C472.286 302.345 471.219 303.229 469.818 303.896C468.417 304.529 466.783 304.846 464.916 304.846Z" fill="#788089"/>
</svg>
