<svg id="Layer_1" data-name="Layer 1" xmlns="http://www.w3.org/2000/svg" viewBox="0 0 1244.44 700"><defs><style>.cls-1{fill:#00000a;fill-rule:evenodd;}</style></defs><path class="cls-1" d="M819.45,304.35H812a15.06,15.06,0,0,0-15,15V359a40.08,40.08,0,0,0,80.15,0V304.35h-7.51a15.06,15.06,0,0,0-15,15V359a17.56,17.56,0,0,1-35.11,0V304.35Zm-79.93,19.11c12.91,0,18,9.82,18,22.19s-8.11,22.12-20.81,22.12c-11.94,0-18.05-8.53-18.05-21.88s9.27-22.43,20.86-22.43Zm18,61.41c0,20.63-16.39,22.53-28.26,21.66a58.38,58.38,0,0,1-25.68-7.47v7.51c0,14.1,15.61,20,32.89,20,25.67,0,43.57-15.54,43.57-41.91V348h0c0-.77,0-1.55,0-2.33,0-24.48-14.47-44.71-40.52-44.71-25,0-43.38,20.24-43.38,44.95,0,24.47,14.83,44.41,40.57,44.41,9.86,0,16.32-3.2,20.81-7.64v2.21ZM625,304.35h-7.51a15.05,15.05,0,0,0-15,15V359a40.08,40.08,0,0,0,80.15,0V304.35h-7.51a15.05,15.05,0,0,0-15,15V359A17.56,17.56,0,0,1,625,359V304.35Zm-39.41,0h-7.51a15.06,15.06,0,0,0-15,15v61.28a15.06,15.06,0,0,0,15,15h7.51v-91.3Zm-16.93-30.93H580a5.61,5.61,0,0,1,5.6,5.59v11.33a5.62,5.62,0,0,1-5.6,5.6H568.69a5.62,5.62,0,0,1-5.6-5.6V279A5.61,5.61,0,0,1,568.69,273.42Z"/><path class="cls-1" d="M510.71,367.86c5.27-.65,7.47-2.35,7.34-8.41A122.4,122.4,0,0,0,516.51,343c-3.14-17.66-10.91-32.77-23.27-43.94-13.65-12.32-32.42-19.4-56.18-19.29a47.57,47.57,0,0,1-20-4.18,48.33,48.33,0,0,1-16.48-12.39l-7.44-8.49A14.69,14.69,0,0,0,371,274l7.44,8.49a78.1,78.1,0,0,0,26.5,19.87,76.58,76.58,0,0,0,32.23,6.71c16-.07,28.09,4.22,36.36,11.7,8,7.22,12.86,17.85,14.48,30.7,1.69,13.39,10.23,17.87,22.7,16.35Zm-126.1-35.72h0c12.48-1.52,21,3,22.71,16.35,1.62,12.85,6.48,23.48,14.48,30.7,8.28,7.48,20.38,11.77,36.35,11.7a76.59,76.59,0,0,1,32.24,6.71,78.07,78.07,0,0,1,26.5,19.87l7.44,8.49a14.69,14.69,0,0,1-22.12,19.35l-7.44-8.5a48.43,48.43,0,0,0-16.48-12.39,47.57,47.57,0,0,0-20-4.18c-23.76.11-42.54-7-56.18-19.3C389.73,389.78,382,374.67,378.82,357a122.55,122.55,0,0,1-1.54-16.46c-.13-6.07,2.07-7.77,7.33-8.41Zm55.15,2.15h15.81a7.83,7.83,0,0,1,7.81,7.8v15.82a7.83,7.83,0,0,1-7.81,7.8H439.76a7.83,7.83,0,0,1-7.81-7.8V342.09A7.83,7.83,0,0,1,439.76,334.29Z"/></svg>