<svg width="512" height="512" viewBox="0 0 512 512" fill="none" xmlns="http://www.w3.org/2000/svg">
<rect width="512" height="512" fill="white"/>
<path d="M255.998 361.059L162.417 267.485C156.15 261.219 156.105 251.121 162.221 244.764L93.3017 222.93C90.2059 238.242 89.199 254.321 90.6567 270.851C97.7801 351.953 164.04 416.554 245.298 421.663C291.239 424.549 333.453 408.71 365.088 381.09C366.516 379.843 364.983 377.604 363.33 378.49C352.795 384.171 338.248 388.889 319.026 388.889C282.147 388.889 255.998 361.074 255.998 361.074V361.059Z" fill="#00D700"/>
<path d="M255.998 90C214.174 90 175.987 105.478 146.802 131.009C145.39 132.241 146.938 134.48 148.591 133.579C159.141 127.883 173.718 123.135 192.984 123.135C231.667 123.135 255.998 150.935 255.998 150.935L349.579 244.509C355.906 250.835 355.921 261.099 349.609 267.44L417.867 292.731C420.542 280.904 422 268.627 422 255.989C422 164.309 347.67 90 255.998 90Z" fill="#00D700"/>
<path d="M162.221 244.764L162.332 244.651L237.326 169.586C237.326 169.586 213.026 141.835 174.392 141.835C83.3004 141.835 90.1746 263.551 90.1746 263.551" fill="url(#paint0_linear_29266_47321)"/>
<path d="M349.61 267.436L349.499 267.55L274.498 342.604C274.498 342.604 298.798 370.354 337.432 370.354C428.523 370.354 421.649 248.638 421.649 248.638" fill="url(#paint1_linear_29266_47321)"/>
<defs>
<linearGradient id="paint0_linear_29266_47321" x1="206.273" y1="139.027" x2="121.941" y2="223.366" gradientUnits="userSpaceOnUse">
<stop offset="0.0673" stop-color="#00D700" stop-opacity="0"/>
<stop offset="0.15974" stop-color="#00D700" stop-opacity="0.16102"/>
<stop offset="0.37783" stop-color="#00D700" stop-opacity="0.51708"/>
<stop offset="0.55822" stop-color="#00D700" stop-opacity="0.77798"/>
<stop offset="0.69166" stop-color="#00D700" stop-opacity="0.93909"/>
<stop offset="0.76356" stop-color="#00D700"/>
</linearGradient>
<linearGradient id="paint1_linear_29266_47321" x1="305.555" y1="373.167" x2="388.535" y2="290.181" gradientUnits="userSpaceOnUse">
<stop offset="0.04917" stop-color="#00D700" stop-opacity="0"/>
<stop offset="0.14363" stop-color="#00D700" stop-opacity="0.16102"/>
<stop offset="0.36646" stop-color="#00D700" stop-opacity="0.51708"/>
<stop offset="0.55077" stop-color="#00D700" stop-opacity="0.77798"/>
<stop offset="0.68711" stop-color="#00D700" stop-opacity="0.93909"/>
<stop offset="0.76057" stop-color="#00D700"/>
</linearGradient>
</defs>
</svg>
