<svg width="512" height="512" viewBox="0 0 512 512" fill="none" xmlns="http://www.w3.org/2000/svg">
<rect width="512" height="512" fill="#B5004C"/>
<path d="M451.435 265.18C446.578 265.18 442.452 264.112 439.057 261.976C435.662 259.84 433.279 256.855 431.907 253.023C430.547 249.127 430.303 244.698 431.175 239.735C432.014 234.96 433.793 230.656 436.512 226.823C439.305 222.928 442.781 219.881 446.938 217.682C451.095 215.483 455.57 214.383 460.363 214.383C465.22 214.383 469.314 215.451 472.646 217.588C476.041 219.724 478.419 222.739 479.779 226.635C481.151 230.467 481.406 234.834 480.544 239.735C479.694 244.572 477.872 248.939 475.078 252.834C472.36 256.667 468.922 259.682 464.765 261.881C460.672 264.08 456.228 265.18 451.435 265.18ZM453.506 253.4C456.957 253.4 459.92 252.175 462.396 249.724C464.936 247.274 466.57 243.975 467.299 239.829C468.016 235.745 467.542 232.446 465.874 229.933C464.207 227.42 461.68 226.164 458.293 226.164C454.906 226.164 451.905 227.42 449.29 229.933C446.751 232.384 445.127 235.619 444.421 239.64C443.692 243.787 444.161 247.117 445.828 249.63C447.559 252.143 450.119 253.4 453.506 253.4Z" fill="white"/>
<path d="M396.531 285.347C391.866 285.347 387.871 284.625 384.546 283.18C381.21 281.797 378.778 279.818 377.249 277.242C375.785 274.666 375.345 271.713 375.93 268.384C376.295 266.31 377.048 264.206 378.191 262.069C379.397 259.933 380.982 257.64 382.947 255.19L390.547 245.765C387.872 244.258 385.893 242.247 384.609 239.734C383.389 237.221 383.055 234.393 383.607 231.252C384.17 228.048 385.605 225.158 387.911 222.582C390.281 220.006 393.255 217.995 396.832 216.55C400.409 215.105 404.275 214.383 408.429 214.383C410.729 214.383 412.768 214.603 414.544 215.042C416.583 212.529 418.69 210.362 420.863 208.54C423.037 206.718 425.411 205.21 427.985 204.016C428.391 203.89 428.658 203.828 428.785 203.828C429.169 203.828 429.476 204.079 429.707 204.581L432.65 211.838C432.745 212.027 432.764 212.278 432.709 212.592C432.643 212.969 432.294 213.315 431.664 213.629C427.97 215.011 424.961 216.676 422.638 218.624C424.599 220.194 425.993 222.079 426.821 224.278C427.659 226.414 427.858 228.739 427.416 231.252C426.842 234.519 425.364 237.472 422.983 240.111C420.677 242.687 417.73 244.729 414.142 246.237C410.565 247.682 406.667 248.404 402.449 248.404C401.427 248.404 400.665 248.373 400.165 248.31L396.17 253.588L411.494 255.849C416.229 256.54 419.682 257.985 421.852 260.184C424.033 262.321 424.819 265.117 424.212 268.572C423.66 271.713 422.172 274.541 419.75 277.054C417.316 279.63 414.086 281.64 410.062 283.085C406.09 284.593 401.58 285.347 396.531 285.347ZM404.155 238.697C406.903 238.697 409.23 238.006 411.134 236.624C413.103 235.242 414.28 233.451 414.667 231.252C415.042 229.116 414.483 227.388 412.989 226.069C411.571 224.687 409.487 223.995 406.739 223.995C404.055 223.995 401.729 224.687 399.76 226.069C397.867 227.388 396.732 229.116 396.357 231.252C395.97 233.451 396.486 235.242 397.905 236.624C399.388 238.006 401.471 238.697 404.155 238.697ZM398.717 275.64C402.232 275.64 405.079 275.075 407.259 273.944C409.503 272.813 410.779 271.368 411.088 269.609C411.42 267.724 409.973 266.499 406.75 265.933L390.2 263.012C388.857 264.834 388.053 266.499 387.788 268.007C387.368 270.394 388.161 272.248 390.166 273.567C392.16 274.949 395.01 275.64 398.717 275.64Z" fill="white"/>
<path d="M343.444 265.18C339.546 265.18 336.144 264.175 333.238 262.164C330.407 260.091 328.369 257.138 327.126 253.305C325.882 249.473 325.713 244.981 326.618 239.829C327.524 234.677 329.24 230.185 331.767 226.352C334.358 222.52 337.465 219.567 341.089 217.493C344.777 215.42 348.602 214.383 352.564 214.383C355.568 214.383 358.083 214.98 360.11 216.174C362.148 217.305 363.624 218.907 364.538 220.98L365.25 216.928C365.404 216.048 365.929 215.608 366.824 215.608H376.506C377.401 215.608 377.771 216.048 377.616 216.928L373.442 240.677C372.713 244.824 372.404 248.216 372.516 250.855C372.638 253.431 373.265 256.227 374.397 259.243L374.456 259.997C374.39 260.374 374.073 260.719 373.507 261.033L363.992 264.991C363.714 265.117 363.479 265.18 363.288 265.18C362.84 265.18 362.501 264.929 362.27 264.426C361.134 262.164 360.399 259.62 360.065 256.792C357.95 259.368 355.45 261.41 352.565 262.918C349.68 264.426 346.64 265.18 343.444 265.18ZM348.199 253.4C350.372 253.4 352.426 252.803 354.361 251.609C356.296 250.415 357.958 248.782 359.345 246.708L361.084 236.813C361.658 233.546 361.216 230.97 359.758 229.085C358.375 227.137 356.181 226.164 353.177 226.164C349.918 226.164 347.051 227.389 344.575 229.839C342.174 232.227 340.604 235.525 339.864 239.735C339.124 243.944 339.529 247.274 341.08 249.724C342.694 252.175 345.067 253.4 348.199 253.4Z" fill="white"/>
<path d="M282.274 262.635C282.12 263.515 281.595 263.954 280.701 263.954H269.485C268.59 263.954 268.22 263.515 268.374 262.635L279.87 197.231C280.024 196.351 280.549 195.911 281.444 195.911H305.122C310.554 195.911 315.107 196.917 318.779 198.927C322.452 200.938 325.061 203.733 326.604 207.315C328.147 210.896 328.516 214.98 327.71 219.566C326.904 224.153 325.1 228.237 322.297 231.818C319.495 235.399 315.872 238.195 311.429 240.205C307.049 242.216 302.175 243.221 296.807 243.221H285.687L282.274 262.635ZM299.059 230.404C303.086 230.404 306.324 229.43 308.776 227.483C311.291 225.535 312.841 222.896 313.426 219.566C314.001 216.299 313.373 213.692 311.542 211.744C309.722 209.734 306.831 208.728 302.869 208.728H291.749L287.939 230.404H299.059Z" fill="white"/>
<path fill-rule="evenodd" clip-rule="evenodd" d="M55.0782 208.065H37.4306L40.2664 194H57.9358L55.0782 208.065ZM43.6476 264.566H26L35.8818 215.729H53.5294L43.6476 264.566Z" fill="white"/>
<path fill-rule="evenodd" clip-rule="evenodd" d="M50.5853 278.283H68.2547L78.9655 225.462H91.8576L93.8863 215.729H80.8633L81.2995 213.487C82.1285 209.328 83.481 204.473 90.1343 204.473C94.0826 204.473 97.8564 204.908 101.543 206.454L103.55 196.177C99.5361 194.74 95.1079 194.022 90.8323 194.022C76.6314 194.022 66.8587 202.492 63.2593 215.751H57.1295L55.2099 225.484H61.2524L50.5417 278.305L50.5853 278.283Z" fill="white"/>
<path fill-rule="evenodd" clip-rule="evenodd" d="M106.208 265.549C126.975 265.549 141.394 246.65 141.394 231.213C141.394 219.978 130.727 215.058 120.606 215.058C97.8099 215.058 85.4195 235.394 85.4195 249.393C85.4195 260.628 96.1738 265.549 106.208 265.549Z" fill="white"/>
<path fill-rule="evenodd" clip-rule="evenodd" d="M161.683 265.549C182.45 265.549 196.848 246.65 196.848 231.213C196.848 219.978 186.18 215.058 176.059 215.058C153.285 215.058 140.894 235.394 140.894 249.393C140.894 260.628 151.671 265.549 161.683 265.549Z" fill="white"/>
<path fill-rule="evenodd" clip-rule="evenodd" d="M225.638 264.463H243.133L257.203 195.007H239.577L235.389 215.648C233.099 215.191 230.721 214.842 228.278 214.842C211.023 214.842 195.339 236.898 195.339 252.705C195.339 259.193 199.527 265.595 206.66 265.595C216.782 265.595 223.784 260.609 226.707 255.928H227.798L225.638 264.484V264.463Z" fill="white"/>
<path fill-rule="evenodd" clip-rule="evenodd" d="M171.242 301.329C158.415 312.346 141.247 318.007 122.618 316.853C99.1242 315.394 82.8073 297.018 79.5352 278.38H80.6477C85.9267 290.29 98.797 301.263 114.961 303.07C130.733 304.834 150.06 297.627 160.662 287.372L148.751 278.293L184.068 278.402L176.477 316.134L171.22 301.329H171.242Z" fill="white"/>
</svg>
