<?xml version="1.0" encoding="UTF-8"?>
<svg id="Asaas" xmlns="http://www.w3.org/2000/svg" version="1.1" viewBox="0 0 512 512">
  <!-- Generator: Adobe Illustrator 30.3.0, SVG Export Plug-In . SVG Version: 2.1.3 Build 182)  -->
  <defs>
    <style>
      .st0 {
        fill: #fff;
      }

      .st1 {
        fill: #0038e5;
      }
    </style>
  </defs>
  <path class="st1" d="M449.7,512H60c-33.1,0-60-26.9-60-60V60C0,26.9,26.9,0,60,0h392c33.1,0,60,26.9,60,60v389.7c0,34.4-27.9,62.3-62.3,62.3"/>
  <path class="st0" d="M278.6,156.5c-5.7-10.3-13.7-14.6-26.9-14.6h-96.5l14.7,15.1c9,9,16,11.9,28.5,11.9h27.8l-112.5,201.2h34.3l14-26c16.3-30.1,44.4-46.4,92.5-46.4s78.1,16.3,94.5,46.7l13.7,25.8h35.5l-119.7-213.6h.1ZM254.6,268.7c-20.6,0-40.6,3.7-57.2,11.5l58.1-105.9,58.1,105.6c-16.3-7.4-36.9-11.2-59-11.2"/>
</svg>