<?xml version="1.0" encoding="UTF-8"?>
<svg xmlns="http://www.w3.org/2000/svg" version="1.1" viewBox="0 0 1587.4 1530.71">
  <defs>
    <style>
      .cls-1 {
        fill: #00af9d;
      }

      .cls-2 {
        fill: #7bc144;
      }

      .cls-3 {
        fill: #003c40;
      }
    </style>
  </defs>
  <!-- Generator: Adobe Illustrator 28.7.5, SVG Export Plug-In . SVG Version: 1.2.0 Build 176)  -->
  <g>
    <g id="Camada_1">
      <path class="cls-3" d="M245.63,696.04h0c-3.72-.93-9.3-2.18-17.98-2.18-38.74,0-70.35,40.85-70.66,82.63,0,16.84,5.89,33.36,25.72,33.36,21.39,0,46.8-28.06,54.24-68.28l8.68-45.52ZM228.89,827.62c0-9.04,1.55-23.39,3.41-38.97h-.62c-16.43,31.18-36.88,42.4-58.27,42.4-26.34,0-43.08-21.2-43.08-49.88,0-52.38,38.43-107.88,103.83-107.88,14.26,0,30.06,2.49,40.29,5.92l-15.19,78.57c-4.96,26.19-7.13,53-6.51,69.84h-23.86Z"/>
      <path class="cls-3" d="M316.9,676.71l13.02,86.05c2.17,17.15,4.03,28.68,4.65,37.1h.93c3.1-8.11,7.13-18.08,15.81-35.23l45.87-87.92h28.2l-83.37,150.9h-25.41l-26.03-150.9h26.34Z"/>
      <path class="cls-3" d="M527.65,696.04h0c-3.72-.93-9.3-2.18-17.98-2.18-38.74,0-70.35,40.85-70.66,82.63,0,16.84,5.89,33.36,25.72,33.36,21.39,0,46.8-28.06,54.24-68.28l8.68-45.52ZM510.91,827.62c0-9.04,1.55-23.39,3.41-38.97h-.62c-16.43,31.18-36.88,42.4-58.27,42.4-26.34,0-43.08-21.2-43.08-49.88,0-52.38,38.43-107.88,103.83-107.88,14.26,0,30.06,2.49,40.29,5.92l-15.19,78.57c-4.96,26.19-7.13,53-6.51,69.84h-23.86Z"/>
      <path class="cls-3" d="M565.45,827.62l20.15-106.94c3.41-16.84,5.27-31.49,7.13-43.96h22.93l-3.72,29.62h.62c13.33-21.2,33.47-33.05,55.48-33.05,17.98,0,38.12,10.29,38.12,42.09,0,6.55-1.24,16.21-2.79,24.32l-16.74,87.93h-25.73l16.43-86.99c1.24-5.93,2.17-13.1,2.17-19.33,0-15.28-5.89-26.5-23.55-26.5s-44.32,22.14-51.14,59.55l-13.64,73.27h-25.72Z"/>
      <path class="cls-3" d="M830.43,822.94c-9.61,4.68-25.11,7.79-43.08,7.79-37.5,0-63.85-22.76-63.85-62.36,0-54.25,41.22-96.65,98.87-96.65,13.02,0,24.17,2.5,30.68,5.3l-10.85,34.3c-5.27-2.18-11.47-3.74-20.46-3.74-31.92,0-51.45,27.12-51.45,55.81,0,20.89,13.02,31.49,29.75,31.49,13.02,0,22.31-3.12,30.06-6.24l.31,34.3Z"/>
      <path class="cls-3" d="M954.09,706.95h0c-3.41-.62-7.75-1.25-12.09-1.25-28.82,0-49.9,35.54-49.9,63.92,0,14.96,5.89,25.25,18.29,25.25,13.33,0,29.75-15.28,36.57-52.69l7.13-35.23ZM941.07,827.62c.31-9.04,1.24-19.33,2.17-30.24h-.93c-13.95,25.26-33.16,33.67-50.83,33.67-27.27,0-45.87-21.2-45.87-53,0-51.44,33.78-106.32,108.47-106.32,17.98,0,37.5,3.43,50.21,7.48l-16.12,79.82c-3.72,19.64-6.51,49.57-5.89,68.59h-41.22Z"/>
      <path class="cls-3" d="M1007.38,827.62l17.05-90.73c4.34-23.07,6.2-48.64,7.75-61.73h38.74c-.93,10.29-1.86,20.58-2.79,31.18h.93c10.54-20.27,27.58-34.61,48.35-34.61,2.79,0,5.58,0,8.37.31l-8.68,43.65c-2.17-.31-4.65-.31-7.13-.31-28.51,0-41.84,25.57-47.42,55.5l-10.54,56.75h-44.63Z"/>
      <path class="cls-3" d="M1228.05,711.01h0c-3.41-2.81-10.23-5.3-17.67-5.3-26.65,0-45.56,31.18-45.56,60.49,0,18.39,8.06,28.68,21.07,28.68s28.51-13.72,34.4-42.71l7.75-41.16ZM1292.2,606.25l-30.68,162.13c-3.72,19.64-6.51,41.16-7.13,59.24h-40.91l2.17-24.63h-.62c-13.33,20.27-31.92,28.06-49.59,28.06-25.73,0-47.11-20.58-47.11-57.68,0-53,38.12-101.64,95.46-101.64,6.2,0,14.26.94,20.76,3.43l13.02-68.9h44.63Z"/>
      <polygon class="cls-2" points="1309.12 637.38 1279.84 818.75 1330.86 784.81 1347.27 683.13 1309.12 637.38"/>
      <polygon class="cls-1" points="1469.04 745.5 1367.3 619.66 1359.72 666.6 1337.77 802.54 1332.29 836.48 1469.04 745.5"/>
    </g>
  </g>
</svg>