<svg width="2825" height="512" viewBox="0 0 2825 512" fill="none" xmlns="http://www.w3.org/2000/svg">
<path d="M2824.32 506.927L2081.14 38.958C2041.78 14.2034 1999.98 0.270535 1961.43 0.270535C1865.59 0.270535 1800.93 54.3789 1800.93 168.818V389.58C1800.93 413.185 1786.99 426.712 1768.6 426.712C1757.37 426.712 1745.13 421.03 1731.6 406.421L1414.19 54.1083C1385.71 22.4549 1347.77 0 1304.48 0C1241.45 0 1188.89 42.2721 1188.89 127.763V405.745C1188.89 419.272 1181.52 426.441 1171.92 426.441C1168.34 426.246 1164.86 425.199 1161.76 423.388C1158.67 421.576 1156.05 419.052 1154.13 416.025L883.048 56.6108C848.553 10.8217 815.074 0.270535 785.314 0.270535C719.37 0.270535 677.098 41.731 677.098 118.565V506.927H767.526V105.376C767.526 91.3078 774.628 85.5588 782.609 85.5588C786.034 85.6953 789.369 86.6973 792.302 88.4714C795.235 90.2455 797.671 92.7338 799.383 95.7041L1077.3 464.385C1088.17 479.248 1102.43 491.299 1118.9 499.535C1135.37 507.77 1153.57 511.951 1171.99 511.729C1238.88 511.729 1278.99 473.313 1278.99 396.343V117.347C1278.99 95.5688 1291.02 85.5588 1306.65 85.5588C1315.51 85.5588 1323.42 89.0758 1333.7 100.1L1647.46 448.49C1685.2 490.424 1724.77 512 1771.71 512C1848.48 512 1890.88 465.332 1890.88 374.362V159.958C1890.88 110.11 1922.74 85.5588 1959.94 85.5588C1982.87 85.5588 2001.2 95.5688 2020.2 107.54L2654.49 506.927H2824.32Z" fill="#0050FF"/>
<path d="M180.586 210.955H60.1955V291.238H180.586V210.955Z" fill="#0050FF"/>
<path d="M190.597 90.5638V5.27551H0V506.927H190.597V421.639H90.2933V90.5638H190.597Z" fill="#0050FF"/>
<path d="M479.535 226.511C567.867 243.893 611.965 290.088 611.965 356.371C611.965 439.157 552.581 506.927 445.92 506.927H260.802V5.27551H443.418C542.977 5.27551 595.733 58.7075 595.733 133.039C595.733 194.519 549.199 243.42 479.67 259.585L479.535 226.511ZM422.586 421.639C491.574 421.639 519.034 390.797 519.034 353.124C519.034 315.451 491.304 291.238 422.586 291.238H330.128V210.684H416.431C473.651 210.684 506.657 185.456 506.657 148.189C506.657 113.763 481.97 90.2932 424.886 90.2932H351.095V421.639H422.586Z" fill="#0050FF"/>
<path d="M1053.42 391.609H742.434V311.326H988.221L1053.42 391.609Z" fill="#0050FF"/>
<path d="M2652.59 5.27551L2325.3 221.912L2308.53 223.332L1879.93 506.927H2034.47L2349.99 298.137L2363.59 298.881L2807.07 5.27551H2652.59Z" fill="#0050FF"/>
</svg>
