<svg width="512" height="512" viewBox="0 0 512 512" fill="none" xmlns="http://www.w3.org/2000/svg">
<g clip-path="url(#clip0_11135_1311)">
<path d="M181.504 255.129H177.196C177.744 252.12 178.099 249.196 178.828 246.373C180.878 238.421 184.808 231.658 191.528 226.788C195.761 223.721 200.419 221.596 205.485 220.393C211.495 218.968 217.594 218.501 223.719 219.161C227.506 219.567 231.351 220.038 234.993 221.104C243.15 223.493 249.117 228.695 252.544 236.66C254.381 240.929 255.095 245.477 255.102 250.099C255.145 273.168 255.175 296.241 255.075 319.31C255.055 323.747 257.297 326.433 261.75 326.676C264.063 326.803 266.388 326.699 268.814 326.699V330.466C268.711 330.519 268.601 330.626 268.493 330.621C265.172 330.496 261.775 330.758 258.544 330.136C253.072 329.086 251.067 326.707 250.862 320.269C250.727 316.005 250.829 311.734 250.824 307.467C250.824 306.98 250.824 306.493 250.824 306.004C250.714 305.981 250.607 305.958 250.497 305.935C250.008 307.039 249.538 308.152 249.027 309.245C246.059 315.589 241.566 320.561 235.866 324.505C229.569 328.863 222.548 331.349 215.096 332.406C208.519 333.342 201.898 333.177 195.323 331.861C190.474 330.889 185.906 329.279 181.756 326.547C176.355 322.996 172.946 318.009 171.497 311.663C170.453 307.089 170.473 302.47 170.953 297.821C171.304 294.44 171.972 291.155 173.436 288.096C175.939 282.863 179.889 279.038 184.895 276.263C189.646 273.627 194.85 272.501 200.121 271.903C206.569 271.17 213.067 270.883 219.539 270.348C225.096 269.889 230.663 269.478 236.192 268.79C239.053 268.435 241.854 267.596 244.452 266.16C248.346 264.012 250.276 260.607 250.672 256.295C251.142 251.134 250.857 245.946 249.53 240.962C247.918 234.91 244.201 230.352 238.692 227.328C232.177 223.752 225.129 223.102 217.91 223.176C212.756 223.229 207.698 223.874 202.824 225.581C195.057 228.305 189.01 233.172 185.358 240.744C184.292 242.953 183.486 245.327 182.855 247.707C182.222 250.094 181.952 252.579 181.504 255.131V255.129ZM250.697 266.388C250.299 266.766 250.106 266.916 249.953 267.098C248.557 268.78 246.79 269.937 244.8 270.743C240.006 272.681 234.95 273.521 229.862 273.952C223.224 274.518 216.558 274.777 209.903 275.116C203.825 275.426 197.783 276.055 191.951 277.838C186.667 279.454 182.209 282.394 179.048 287.155C175.536 292.443 174.725 298.392 174.926 304.53C175.006 307.028 175.381 309.595 176.105 311.982C178.553 320.053 184.745 324.229 192.101 326.943C196.319 328.5 200.774 328.825 205.242 328.911C210.974 329.02 216.638 328.536 222.095 326.656C231.391 323.455 239.12 318.1 244.397 309.522C248.106 303.492 250.384 296.91 250.667 289.818C250.96 282.437 250.794 275.038 250.824 267.646C250.824 267.324 250.764 267.002 250.702 266.386L250.697 266.388Z" fill="black"/>
<path d="M388.85 276.956C388.85 278.954 388.7 280.778 388.883 282.564C389.253 286.211 389.681 289.861 390.312 293.468C391.183 298.458 392.8 303.234 395.108 307.734C397.931 313.235 401.598 318.03 406.664 321.652C411.207 324.898 416.166 327.052 421.637 328.059C427.722 329.18 433.85 329.289 439.927 328.401C451.361 326.735 461.022 321.799 467.628 311.805C470.616 307.285 472.531 302.285 473.592 296.948C473.845 295.673 474.165 294.412 474.488 292.991H478.741C478.225 295.531 477.812 298.006 477.209 300.436C475.545 307.145 472.536 313.17 467.963 318.339C463.655 323.209 458.417 326.73 452.469 329.223C444.773 332.447 436.71 333.152 428.493 332.894C421.983 332.688 415.693 331.536 409.773 328.668C402.317 325.051 396.63 319.508 392.565 312.261C389.153 306.174 387.103 299.602 385.877 292.72C384.385 284.352 384.012 275.938 384.838 267.502C385.556 260.171 387.486 253.15 390.73 246.51C394.107 239.6 398.58 233.591 404.524 228.746C410.436 223.93 417.162 220.992 424.618 219.605C429.599 218.676 434.588 218.697 439.549 219.338C450.737 220.789 460.156 225.781 467.435 234.575C472.468 240.655 475.715 247.669 477.632 255.387C479.189 261.65 479.94 267.974 479.992 274.404C480.013 276.953 479.987 276.953 477.555 276.956C448.58 276.956 419.602 276.956 390.628 276.956C390.049 276.956 389.471 276.956 388.845 276.956H388.85ZM475.795 272.514C475.615 268.113 475.249 263.852 474.396 259.621C473.062 253.006 470.814 246.784 467.102 241.153C463.811 236.158 459.723 231.986 454.579 228.932C448.132 225.101 441.163 223.288 433.699 223.158C427.409 223.052 421.317 224.018 415.603 226.654C404.777 231.648 397.759 240.295 393.241 251.24C391.293 255.958 390.032 260.861 389.328 265.914C389.028 268.068 388.848 270.239 388.6 272.514H475.795V272.514Z" fill="black"/>
<path d="M165.604 276.973H74.2296C74.3923 279.452 74.4548 281.805 74.7201 284.136C75.0931 287.398 75.4811 290.671 76.1043 293.889C77.7738 302.541 81.1379 310.445 87.095 316.972C92.5791 322.983 99.4274 326.613 107.404 328.074C113.452 329.18 119.537 329.287 125.571 328.406C136.907 326.755 146.534 321.905 153.159 312.036C156.296 307.363 158.243 302.161 159.377 296.639C159.58 295.65 159.717 294.64 160.023 293.686C160.13 293.347 160.626 292.946 160.979 292.91C162.003 292.806 163.044 292.872 164.348 292.872C163.985 294.957 163.732 296.905 163.302 298.81C161.562 306.488 158.301 313.38 152.897 319.146C148.659 323.668 143.608 326.928 137.946 329.294C129.376 332.878 120.403 333.312 111.329 332.744C105.818 332.399 100.491 331.126 95.4801 328.68C87.5481 324.812 81.6485 318.844 77.5686 310.975C74.6726 305.387 72.8729 299.455 71.6665 293.263C70.1446 285.445 69.8218 277.562 70.3549 269.686C71.2284 256.767 75.451 245.051 83.7936 235.062C89.3352 228.427 96.1734 223.701 104.371 221.058C110.275 219.153 116.31 218.583 122.49 219.097C127.203 219.491 131.779 220.366 136.169 222.169C144.301 225.51 150.849 230.824 155.815 238.18C160.1 244.529 162.623 251.555 164.15 259.035C165.262 264.478 165.75 269.957 165.607 275.502C165.597 275.921 165.607 276.342 165.607 276.968L165.604 276.973ZM74.1219 272.519C74.8253 272.555 75.2358 272.595 75.6463 272.595C103.783 272.598 131.916 272.595 160.053 272.618C161.059 272.618 161.427 272.377 161.389 271.271C161.219 266.328 160.616 261.462 159.412 256.656C157.685 249.761 154.836 243.456 150.404 237.911C143.353 229.094 134.087 224.429 123.083 223.389C119.306 223.032 115.434 223.384 111.632 223.729C107.212 224.13 103.039 225.609 99.127 227.724C88.8546 233.277 82.3243 242.071 78.307 252.909C77.1606 256.001 76.3646 259.253 75.6788 262.49C74.993 265.731 74.6476 269.044 74.1219 272.522V272.519Z" fill="black"/>
<path d="M307.528 326.319H309.898C335.121 326.319 360.341 326.319 385.564 326.319C386.707 326.319 387.281 326.895 387.286 328.046C387.293 329.791 386.441 330.664 384.73 330.664C358.048 330.664 331.369 330.664 304.687 330.664H302.97C302.97 328.904 302.89 327.303 303.012 325.718C303.055 325.165 303.545 324.612 303.918 324.127C310.574 315.44 317.252 306.77 323.905 298.082C329.619 290.622 335.296 283.129 341.018 275.675C347.986 266.594 354.995 257.544 361.971 248.468C367.572 241.178 373.154 233.868 378.736 226.562C378.896 226.352 378.984 226.081 379.201 225.647H308.847V221.563H383.819C383.627 223.973 384.378 226.327 382.505 228.663C376.553 236.092 370.846 243.722 365.052 251.281C357.525 261.1 350.011 270.929 342.485 280.745C337.631 287.074 332.755 293.385 327.9 299.711C323.544 305.385 319.207 311.069 314.859 316.749C312.476 319.861 310.093 322.973 307.528 326.321V326.319Z" fill="black"/>
<path d="M37.0248 330.608H33V221.56H36.9573V248.219L37.2826 248.343C37.4353 248.09 37.6531 247.854 37.7282 247.58C39.3551 241.533 42.0434 236.059 46.2559 231.422C50.5186 226.73 55.8099 223.643 61.6845 221.535C67.4014 219.483 73.331 218.826 79.3607 218.912C79.6811 218.917 80.0015 218.981 80.4446 219.031C80.4446 220.178 80.5121 221.274 80.3995 222.349C80.3695 222.628 79.7888 223.042 79.4408 223.062C77.6537 223.166 75.859 223.123 74.0719 223.201C66.1974 223.549 59.159 226.25 52.9515 231.131C48.008 235.017 44.3511 239.97 41.768 245.713C38.3289 253.353 37.0374 261.46 37.0298 269.8C37.0098 289.532 37.0248 309.263 37.0248 328.995C37.0248 329.497 37.0248 329.999 37.0248 330.611V330.608Z" fill="black"/>
<path d="M274.936 179H278.881C278.903 179.477 278.946 179.926 278.946 180.375C278.948 229.979 278.946 279.583 278.971 329.188C278.971 330.309 278.743 330.834 277.534 330.684C276.718 330.583 275.88 330.664 274.938 330.664V179H274.936Z" fill="black"/>
<path d="M291.018 221.527H295.185V330.573H291.018V221.527Z" fill="black"/>
<path d="M291.04 179H295.17C295.2 179.398 295.258 179.799 295.258 180.2C295.263 186.493 295.24 192.786 295.285 199.079C295.293 200.114 295.03 200.533 293.966 200.434C293.025 200.347 292.069 200.416 291.043 200.416V179H291.04Z" fill="black"/>
</g>
<defs>
<clipPath id="clip0_11135_1311">
<rect width="447" height="154" fill="white" transform="translate(33 179)"/>
</clipPath>
</defs>
</svg>
