<?xml version="1.0" encoding="utf-8"?>
<!-- Generator: Adobe Illustrator 22.1.0, SVG Export Plug-In . SVG Version: 6.00 Build 0)  -->
<svg version="1.1" id="Camada_1" xmlns="http://www.w3.org/2000/svg" xmlns:xlink="http://www.w3.org/1999/xlink" x="0px" y="0px"
	 viewBox="0 0 800 800" style="enable-background:new 0 0 800 800;" xml:space="preserve">
<style type="text/css">
	.st0{fill:#004B8D;}
</style>
<g>
	<g>
		<path class="st0" d="M521.2,304.9L521.2,304.9c-13.6-12.2-31.3-19.7-52.9-22.4c13.3-14.3,20.7-33.3,20.7-53.9
			c0-23.3-8.6-43-25.5-58.6c-17-15.8-40.6-23.4-72.2-23.4H276.9v242.2l60.8,104.2l152.4-53c13.1-4.7,22.9-10.4,31-17.8
			c16.9-15.9,25.5-35.7,25.5-58.6C546.6,340.5,538.1,320.8,521.2,304.9L521.2,304.9z M391.2,158L391.2,158
			c28.6,0,49.6,6.7,64.4,20.4c14.5,13.4,21.8,30.3,21.8,50.2c0,21.4-8.8,40.1-24.9,52.8h-3.7H334.6v69l-46.2,26.8V158H391.2
			L391.2,158z M334.6,464.8L334.6,464.8l-44.1-75.6l44.1-25.6V464.8L334.6,464.8z M434.4,292.9L434.4,292.9l-88.3,50.9v-50.9H434.4
			L434.4,292.9z M513.4,413.7L513.4,413.7c-6.9,6.4-15.3,11.1-27,15.4l-140.3,48.8V357l103.3-59.6l0.1,0c2.1-1.3,4-2.5,5.7-3.8
			c0.3-0.2,0.7-0.5,1-0.7c24.5,1.1,43.2,7.7,57.2,20.3c14.7,13.9,21.8,30.3,21.8,50.2C535.2,383.4,528,399.9,513.4,413.7z"/>
		<g>
			<polygon class="st0" points="520,647.4 520,561.8 494.5,561.8 494.5,544.2 565.1,544.2 565.1,561.8 539.5,561.8 539.5,647.4 			
				"/>
			<path class="st0" d="M136.5,593.8c7.6-3.7,12.5-13.1,12.5-21.9c0-4-0.6-7.6-2.1-11c-5.8-12.8-21-16.4-34.7-16.7H82.4v102.6H114
				c11.3,0,21-2.7,27.7-8.2c6.4-5.2,10-12.8,10-21.6c0-5.8-1.5-11.9-6.1-16.7C143.2,597.8,140.2,595.3,136.5,593.8L136.5,593.8z
				 M101.5,560.9L101.5,560.9h10.4c7.9,0,17.7,2.4,17.7,12.5c0,10-8.8,13.4-17.9,13.7h-10.1V560.9L101.5,560.9z M114.3,630
				L114.3,630h-12.8v-27.7h11c8.8,0,19.8,2.4,19.8,14C132.3,626.4,123.4,629.7,114.3,630z"/>
			<path class="st0" d="M212,544.2h-22.2l-35.3,102.6h19.8l10-30.4h33.2l9.7,30.4h21L212,544.2L212,544.2z M189.5,599.9L189.5,599.9
				l11.2-35l11.3,35H189.5z"/>
			<polygon class="st0" points="323.4,647.4 275.3,581.6 275.3,646.8 256.5,646.8 256.5,544.2 272.3,544.2 317.9,606.6 317.9,544.2 
				336.8,544.2 336.8,647.4 			"/>
			<path class="st0" d="M458.6,648.6c-11-0.3-21.6-3.4-29.8-10.4l-2.1-2.1l12.5-13.1l2.1,2.1c4.9,4.3,11.9,5.5,17.6,5.5
				c8.8,0,14.3-4,14.9-11c0.6-8.5-10-13.1-16.1-15.8c-8.2-3.6-15.8-7.3-21.3-12.8c-6.4-5.8-8.5-13.7-8.2-21.6
				c1.5-17.6,17-27.1,32.6-27.1c6.7,0,12.8,0.9,18.6,3.6v18.9c-8.2-4-13.4-5.2-18.3-5.2h-0.3c-7.6,0-12.5,4-13.1,10
				c-0.6,8.5,10.6,13.1,16.7,15.8c9.1,4.3,15.8,7.9,20.7,12.8c6.4,6.1,8.5,14,7.9,21.6C491.4,638.9,475.9,648.6,458.6,648.6z"/>
			<polygon class="st0" points="357.2,646.8 357.2,544.2 416.3,544.2 416.3,561.8 376.7,561.8 376.7,585.9 407.4,585.9 407.4,603.2 
				376.7,603.2 376.7,629.1 416.3,629.1 416.3,646.8 			"/>
			<path class="st0" d="M664.9,634.9c10.3-0.9,18.9-3,25-6.1c4-2.1,7.3-5.8,6.7-11.3c-0.9-7.6-9.4-11-15.5-13.7
				c-7.6-3.3-15.5-7-21.3-12.5c-6.4-6.4-8.5-14-8.2-21.9c1.2-17.3,16.4-27.1,32.6-27.1c11.3,0,21,3.6,28.6,11.3l-12.5,12.8
				c0,0-7.3-6.7-16.1-6.7c-7.6,0-12.8,4-13.1,10c-0.6,8.5,10.7,13.1,16.7,15.8c9.1,4.3,15.8,7.9,21,12.5c5.2,5.2,9.4,12.5,8.8,21.6
				c-1.5,19.2-19.2,28-35.3,31.4c-8.2,1.5-17.7,2.4-30.1,2.4v-18.3C657.6,635.2,664,634.9,664.9,634.9z"/>
			<path class="st0" d="M598.6,629.1v-25.9h30.7v-17.4h-30.7v-24h39.9v-17.7h-59V644c20.1,5.8,39,8.8,62.1,9.4v-18
				C626.9,634.9,612.6,632.8,598.6,629.1z"/>
		</g>
	</g>
</g>
</svg>
