<svg width="64" height="64" viewBox="0 0 64 64" fill="none" xmlns="http://www.w3.org/2000/svg">
<path fill-rule="evenodd" clip-rule="evenodd" d="M22.1026 47.7739L11.9164 27.418H9.99468L0 47.7739V6.56513C0 2.95385 2.90992 0 6.4675 0H57.7241C61.1904 0 64 2.85199 64 6.37068V29.8193C60.859 27.2174 58.168 26.8933 55.8632 26.8933C49.0734 26.8933 43.436 31.838 43.436 39.6408C43.436 42.9589 44.4607 45.5609 46.2547 47.7708H41.7058C42.2197 46.9282 42.6028 45.6905 42.6028 44.4559C42.6028 41.1378 40.8727 39.5143 39.9118 38.7982C41.0034 37.4956 41.4504 36.4555 41.4504 34.3751C41.4504 29.7607 38.1847 27.418 34.019 27.418H22.7442V47.7739H22.1026ZM48.6689 10.5746C48.1307 10.8863 47.7081 11.3215 47.404 11.874H47.401C47.0969 12.4296 46.9449 13.0438 46.9449 13.7198C46.9449 14.439 47.0908 15.0686 47.3797 15.6119C47.6716 16.1551 48.0821 16.5749 48.6203 16.8712C49.1555 17.1675 49.8092 17.3157 50.4873 17.3157C51.1653 17.3157 51.7735 17.1613 52.3117 16.8496C52.8499 16.5378 53.2695 16.1088 53.5735 15.5594C53.8776 15.01 54.0296 14.4297 54.0296 13.7105C54.0296 12.9914 53.8837 12.3586 53.5948 11.8123C53.3029 11.266 52.8924 10.8462 52.3542 10.5499C51.8191 10.2536 51.1957 10.1054 50.4873 10.1054C49.8153 10.1054 49.2102 10.2598 48.6689 10.5746ZM40.3649 10.5684C39.8084 10.8802 39.3706 11.3123 39.0513 11.8648L39.0452 11.8617C38.726 12.4142 38.5678 13.0408 38.5678 13.7383C38.5678 14.4791 38.7077 15.1149 38.9875 15.652C39.2672 16.186 39.6655 16.5965 40.1855 16.8835C40.7054 17.1706 41.3136 17.3126 42.016 17.3126C42.4386 17.3126 42.84 17.2724 43.2231 17.1953C43.6062 17.1181 43.9377 17.0101 44.2174 16.8774V15.6396C43.9316 15.7662 43.6427 15.8619 43.3478 15.9205C43.0528 15.9792 42.7184 16.01 42.3383 16.01C41.8578 16.01 41.4534 15.9174 41.125 15.7292C40.7967 15.544 40.5504 15.2785 40.3862 14.9359C40.222 14.5964 40.1399 14.1828 40.1399 13.726C40.1399 13.2692 40.2341 12.8617 40.4196 12.5099C40.6051 12.158 40.8727 11.8864 41.2284 11.6919C41.5842 11.4975 42.0038 11.4018 42.4903 11.4018C42.8126 11.4018 43.0984 11.4296 43.3539 11.4851C43.6093 11.5438 43.8738 11.6302 44.1536 11.7506V10.5036C43.8829 10.3647 43.591 10.2628 43.2839 10.198C42.9768 10.1332 42.6302 10.1023 42.244 10.1023C41.5477 10.1023 40.9244 10.2567 40.3649 10.5684ZM30.2972 10.2536H28.8407V17.1706H30.2243V12.4975L33.6693 17.1706H35.1501V10.2536H33.7545V14.9915L30.2972 10.2536ZM23.1304 10.2536H21.3181L18.5055 17.1706H20.0836L20.7161 15.4359H23.5804L24.2037 17.1706H25.8457L23.1304 10.2536ZM11.2991 10.2011C10.8917 10.2227 10.4994 10.2567 10.1285 10.3061V10.3153V17.1768H12.8772C13.9354 17.1768 14.7077 17.0132 15.1942 16.6891C15.6807 16.365 15.924 15.8526 15.924 15.1551C15.924 14.8217 15.8328 14.5192 15.6503 14.2445C15.4679 13.9698 15.2125 13.7476 14.8841 13.5778C15.106 13.4019 15.2733 13.1951 15.3827 12.9636C15.4952 12.729 15.55 12.4697 15.55 12.1796C15.55 11.4944 15.3037 10.9882 14.8111 10.661C14.3185 10.3338 13.5462 10.1702 12.5032 10.1702C12.1079 10.1702 11.7066 10.1795 11.2991 10.2011ZM55.8631 31.0602C57.4656 31.0602 58.9403 31.125 61.8867 33.2701V33.2732L64 30.6064V46.9375L61.8867 45.0423C59.962 47.1227 58.0403 47.7739 55.8631 47.7739C51.1197 47.7739 47.854 44.391 47.854 39.6439C47.854 34.5727 51.1227 31.0602 55.8631 31.0602ZM26.9707 38.5389V31.5818H33.5051C36.0046 31.5818 37.2208 32.4275 37.2208 34.443C37.2208 36.4585 36.0046 37.3043 33.5051 37.3043C30.4949 37.3043 28.4454 37.3043 26.9707 38.5389ZM8.29799 57.3639C9.08248 56.833 9.40783 55.9039 9.40783 55.0428C9.40783 52.1229 6.9236 51.5272 4.18092 51.5272C2.48119 51.5272 1.37134 51.5951 0 51.7926V63.7315H4.70392C7.51349 63.7315 10.1923 63.1358 10.1923 60.0831C10.1923 58.9565 9.34398 57.9596 8.29799 57.3639ZM2.76353 53.5447L2.76414 53.5446L2.76427 53.5446C3.30152 53.4938 3.76428 53.4501 4.18396 53.4501C5.5553 53.4501 7.12429 53.6507 7.12429 55.1076C7.12429 56.5644 4.90156 56.6324 3.66097 56.6324H2.35348V53.5828C2.49445 53.5701 2.63049 53.5572 2.76206 53.5448L2.76353 53.5447ZM4.31167 61.8085H2.35044V58.5584H3.65792C5.16002 58.5584 5.74991 58.4256 6.4675 58.2281C7.05435 58.5584 7.7081 59.0244 7.7081 60.0862C7.7081 61.8116 5.61612 61.8116 4.31167 61.8116V61.8085ZM58.7001 51.7896H56.3071V63.7315H64V61.6974H58.7001V51.7896ZM16.6568 51.5272C19.9894 51.5272 22.3428 52.3235 22.3428 55.4409L22.3398 55.4348C22.3398 56.9626 21.6222 58.0892 20.184 58.7528L22.9297 63.7284H20.3816L17.9004 59.3516C17.8418 59.3516 17.6125 59.3653 17.3595 59.3803C17.0486 59.3989 16.7019 59.4195 16.5929 59.4195H14.8932V63.7315H12.4759V51.7926C13.8472 51.592 14.9571 51.5272 16.6568 51.5272ZM14.8932 57.4966H16.3284C18.1589 57.4966 19.9225 57.299 19.9225 55.4409C19.9225 53.8483 18.5511 53.4501 16.6568 53.4501C16.2007 53.4501 15.5469 53.5149 14.8932 53.5828V57.4966ZM52.8803 51.7896H50.5542V63.7315H52.8803V51.7896ZM41.8214 56.4101L44.3542 56.8052L44.3573 56.8114C46.8263 57.2065 47.8024 58.1972 47.8024 60.2406C47.8024 62.682 46.1786 64 42.539 64C41.046 64 39.1608 63.6049 37.9263 62.9444V60.9011C39.2915 61.5616 40.9152 61.9567 42.539 61.9567C43.9012 61.9567 45.5918 61.824 45.5918 60.3733C45.5918 59.5152 45.1357 59.0522 43.9012 58.8547L40.9122 58.3917C38.8993 58.0614 37.8594 56.9379 37.8594 55.0922C37.8594 52.5859 40.4591 51.5303 43.1228 51.5303C44.5519 51.5303 46.0448 51.7957 47.2155 52.3883V54.4995C45.9171 53.9038 44.5519 53.5088 43.1228 53.5088C41.8214 53.5088 40.1976 53.7742 40.1976 55.0922C40.1976 55.8175 40.7176 56.2126 41.8214 56.4101ZM28.8317 51.7896L23.9818 63.7315H26.3748L27.214 61.6974C28.1201 61.1727 29.2178 61.0431 30.3185 61.0431C31.3524 61.0431 32.4531 61.1727 33.3562 61.6974L34.1954 63.7315H36.5884L31.7385 51.7896H28.8317ZM30.3185 59.0739C29.4793 59.0739 28.7009 59.2714 28.1201 59.4689L30.3185 54.2187L32.4531 59.4689C31.8723 59.2714 31.0939 59.0739 30.3185 59.0739ZM11.0194 34.8968L5.44581 46.2769C6.78979 45.6257 8.84224 45.172 11.0194 45.172C13.1965 45.172 15.3128 45.6936 16.6568 46.3418L11.0194 34.8968ZM32.9304 41.2057C30.881 41.2057 26.9738 41.5298 26.9738 44.1966V47.7739H34.4052C35.4299 47.7739 38.2486 47.4498 38.2486 44.4589C38.2486 41.4681 35.813 41.2057 32.9304 41.2057ZM14.2607 15.5594C14.3824 15.4174 14.4432 15.2291 14.4432 14.9884C14.4432 14.7847 14.3793 14.6056 14.2486 14.4544C14.1209 14.3031 13.9476 14.1735 13.7347 14.0686C13.3121 14.1673 12.8377 14.2167 12.3056 14.2167H11.5667V15.9606H12.6279C13.0718 15.9606 13.4246 15.9298 13.6861 15.865C13.9476 15.8001 14.1391 15.6983 14.2607 15.5594ZM50.4782 16.0162C50.0768 16.0162 49.7302 15.9236 49.4322 15.7353V15.7384C49.1342 15.5501 48.9092 15.2847 48.7511 14.939C48.5929 14.5933 48.5139 14.1889 48.5139 13.7229C48.5139 13.2846 48.599 12.8895 48.7663 12.5376C48.9335 12.1858 49.1676 11.908 49.4687 11.7073C49.7697 11.5067 50.1133 11.4049 50.4995 11.4049C50.9069 11.4049 51.2566 11.4975 51.5515 11.6857C51.8434 11.874 52.0684 12.1395 52.2265 12.4852C52.3847 12.8309 52.4637 13.2383 52.4637 13.7105C52.4637 14.1519 52.3786 14.5501 52.2113 14.8989C52.0441 15.2476 51.81 15.5223 51.5089 15.7199C51.2079 15.9174 50.8795 16.0162 50.4782 16.0162ZM13.2999 13.0439C13.5675 12.9945 13.7712 12.905 13.905 12.7753C14.0418 12.6457 14.1087 12.4667 14.1087 12.2413C14.1087 11.9111 13.9719 11.6796 13.6952 11.55C13.4185 11.4203 13.0414 11.3555 12.5641 11.3555C12.2205 11.3555 11.889 11.3709 11.5667 11.3987V13.1241H12.2661C12.6887 13.1241 13.0323 13.0994 13.3029 13.05L13.2999 13.0439ZM21.1843 14.2075L22.1817 11.5221L23.1486 14.2075H21.1843Z" fill="#A6874B"/>
</svg>
