<?xml version="1.0" encoding="UTF-8" standalone="no"?>
<svg
   xmlns:dc="http://purl.org/dc/elements/1.1/"
   xmlns:cc="http://creativecommons.org/ns#"
   xmlns:rdf="http://www.w3.org/1999/02/22-rdf-syntax-ns#"
   xmlns:svg="http://www.w3.org/2000/svg"
   xmlns="http://www.w3.org/2000/svg"
   viewBox="0 0 1368.7733 1758"
   height="1758"
   width="1368.7733"
   xml:space="preserve"
   id="svg2"
   version="1.1"><metadata
     id="metadata8"><rdf:RDF><cc:Work
         rdf:about=""><dc:format>image/svg+xml</dc:format><dc:type
           rdf:resource="http://purl.org/dc/dcmitype/StillImage" /></cc:Work></rdf:RDF></metadata><defs
     id="defs6" /><g
     transform="matrix(1.3333333,0,0,-1.3333333,0,1758)"
     id="g10"><g
       transform="scale(0.1)"
       id="g12"><path
         id="path14"
         style="fill:#2e4da8;fill-opacity:1;fill-rule:nonzero;stroke:none"
         d="m 7322.25,6859.43 c 1214.56,357.25 2101.31,1480.17 2101.31,2810.38 v 0.01 c -9.86,9.86 -15.49,15.49 -25.35,25.35 H 263.746 V 562.402 H 6954.35 c 1744.8,0 3159.25,1414.398 3159.25,3159.218 v 0.01 c 0,1620.33 -1219.91,2955.51 -2791.35,3137.8" /><path
         id="path16"
         style="fill:#ed1c43;fill-opacity:1;fill-rule:nonzero;stroke:none"
         d="M 6494.32,12599.1 H 263.746 V 9695.17 H 9423.24 C 9409.6,11301.3 8103.62,12599.1 6494.32,12599.1" /><path
         id="path18"
         style="fill:#ecebe3;fill-opacity:1;fill-rule:nonzero;stroke:none"
         d="m 2414.19,2928.5 c -52.86,94.1 -122.45,165.6 -208.78,214.6 -86.38,48.92 -179.79,73.46 -280.33,73.46 -97.98,0 -190.13,-25.14 -276.47,-75.36 -86.38,-50.3 -155.97,-123.2 -208.78,-218.5 -52.86,-95.4 -79.26,-207.5 -79.26,-336.4 0,-128.9 26.4,-241.1 79.26,-336.4 52.81,-95.4 122.4,-168.2 208.78,-218.4 86.34,-50.3 178.49,-75.4 276.47,-75.4 100.54,0 193.95,25.7 280.33,77.3 86.33,51.5 155.92,125 208.78,220.4 52.82,95.3 79.29,208.8 79.29,340.2 0,128.9 -26.47,240.4 -79.29,334.5 z m -765.58,665.04 c 122.41,65.74 262.27,98.61 419.55,98.61 182.98,0 348.59,-45.13 496.83,-135.34 148.21,-90.26 265.48,-218.45 351.86,-384.71 86.33,-166.3 129.53,-359 129.53,-578.1 0,-219.1 -43.2,-413.1 -129.53,-581.9 -86.38,-168.8 -203.65,-299.6 -351.86,-392.4 -148.24,-92.8 -313.85,-139.2 -496.83,-139.2 -157.28,0 -295.81,32.2 -415.66,96.6 -119.88,64.4 -217.2,145.6 -291.93,243.6 V 562.402 H 819.238 V 3657.35 h 541.332 v -309.32 c 69.6,97.93 165.59,179.78 288.04,245.51" /><path
         id="path20"
         style="fill:#ecebe3;fill-opacity:1;fill-rule:nonzero;stroke:none"
         d="m 4808.78,2924.6 c -51.61,94.1 -121.21,166.3 -208.78,216.6 -87.69,50.22 -181.74,75.36 -282.28,75.36 -100.53,0 -193.33,-24.54 -278.38,-73.46 -85.08,-49 -154.06,-120.5 -206.87,-214.6 -52.86,-94.1 -79.25,-205.6 -79.25,-334.5 0,-128.9 26.39,-241.6 79.25,-338.3 52.81,-96.6 122.41,-170.8 208.79,-222.3 86.33,-51.6 178.46,-77.3 276.46,-77.3 100.54,0 194.59,25.1 282.28,75.4 87.57,50.2 157.17,122.4 208.78,216.5 51.53,94.1 77.34,206.8 77.34,338.3 0,131.5 -25.81,244.2 -77.34,338.3 z m -1478.97,245.6 c 86.34,167.49 203.61,296.35 351.87,386.61 148.18,90.21 313.79,135.34 496.86,135.34 159.78,0 299.63,-32.27 419.51,-96.67 119.85,-64.46 215.87,-145.67 288.07,-243.6 v 305.47 h 545.16 V 1515.3 h -545.16 v 313.2 c -69.62,-100.6 -165.66,-183.7 -288.07,-249.4 -122.45,-65.8 -263.59,-98.6 -423.4,-98.6 -180.46,0 -344.79,46.4 -492.97,139.2 -148.26,92.8 -265.53,223.6 -351.87,392.4 -86.38,168.8 -129.53,362.8 -129.53,581.9 0,216.6 43.15,408.6 129.53,576.2" /><path
         id="path22"
         style="fill:#ecebe3;fill-opacity:1;fill-rule:nonzero;stroke:none"
         d="M 7904.72,3657.35 6603.77,562.402 H 6028.51 L 6466.35,1569.4 5607.98,3657.35 h 607.05 L 6767.93,2161 7328.59,3657.35 h 576.13" /></g></g></svg>