<svg xmlns="http://www.w3.org/2000/svg" xmlns:xlink="http://www.w3.org/1999/xlink" width="641.237" height="641.237" viewBox="0 0 641.237 641.237">
  <defs>
    <linearGradient id="linear-gradient" x1="0.11" y1="0.063" x2="0.939" y2="1.123" gradientUnits="objectBoundingBox">
      <stop offset="0" stop-color="#1c49a5"/>
      <stop offset="1" stop-color="#57d9ff"/>
    </linearGradient>
    <clipPath id="clip-path">
      <rect id="Retângulo_1" data-name="Retângulo 1" width="641.237" height="641.237" fill="none"/>
    </clipPath>
  </defs>
  <g id="Grupo_3" data-name="Grupo 3" transform="translate(64.618 64.618)">
    <circle id="Elipse_1" data-name="Elipse 1" cx="256" cy="256" r="256" fill="url(#linear-gradient)"/>
    <g id="Grupo_2" data-name="Grupo 2" transform="translate(-64.618 -64.618)">
      <g id="Grupo_1" data-name="Grupo 1" clip-path="url(#clip-path)">
        <path id="Caminho_1" data-name="Caminho 1" d="M150.579,163.935a21.849,21.849,0,0,1,12.334,3.866,22.657,22.657,0,0,1,8.16,10.23,23.284,23.284,0,0,1,1.239,13.15,22.935,22.935,0,0,1-6.1,11.639,22.062,22.062,0,0,1-11.386,6.209,21.736,21.736,0,0,1-12.834-1.313,22.356,22.356,0,0,1-9.961-8.392,23.273,23.273,0,0,1-2.034-21.368,22.811,22.811,0,0,1,4.833-7.388,22.18,22.18,0,0,1,7.23-4.924,21.736,21.736,0,0,1,8.521-1.709" transform="translate(73.409 93.801)" fill="#fff" fill-rule="evenodd"/>
        <path id="Caminho_2" data-name="Caminho 2" d="M288.5,304.884c-26.248-22.6-51.308-57.278-73.322-33.142-16.593,18.209.4,32.161,9.177,40.775,22.856,22.919,52.8,53.8,77.366,74.7,8.2,6.966,13.948,8.752,19.945,10.126,18.145,4.1,28.375-11.774,24.907-27.472-3.256-15.011-21.075-29.884-24.562-31.73A137.881,137.881,0,0,0,345.821,276.9a144.354,144.354,0,0,0-14.159-85.456C312.5,154.164,278.016,130.284,251.6,122.14c-14.293-4.415-27.474-2.846-33.989,1.962-7.8,5.671-11.725,19.171-5.306,30.1a16.54,16.54,0,0,0,4.349,5,16.137,16.137,0,0,0,5.921,2.847c9.233,2.256,27.263,7.043,42.724,19.622a94.9,94.9,0,0,1,33.8,54.138c5.308,23.135.8,51.626-10.576,69.071" transform="translate(119.116 68.398)" fill="#fff" fill-rule="evenodd"/>
        <path id="Caminho_3" data-name="Caminho 3" d="M136.523,211.591c-12.989,5.553-14.983,17.406-12.338,29.826,4.254,19.995,20.866,47.84,33.664,61.065C177.007,322.1,200,336.764,227.032,342.63c22.092,4.789,46.307,4.907,59.528.412,19.159-6.514,22.437-43.5-9.31-44.032-5.116,0-10.845.354-16.917.608a90.947,90.947,0,0,1-36.042-5.963,92.622,92.622,0,0,1-31.018-19.723A81.212,81.212,0,0,1,175.3,249.462a179.838,179.838,0,0,1-7.451-17.915c-1.132-3.492-.959-6.867-3.144-10.557a23.081,23.081,0,0,0-12.414-9.971,22.489,22.489,0,0,0-15.769.572" transform="translate(70.475 120.079)" fill="#fff" fill-rule="evenodd"/>
        <path id="Caminho_4" data-name="Caminho 4" d="M202.518,170.568a34.089,34.089,0,0,1,19.261,5.973,35.332,35.332,0,0,1,12.774,15.926,36.291,36.291,0,0,1,1.979,20.511,35.774,35.774,0,0,1-9.48,18.181,34.426,34.426,0,0,1-17.747,9.721,33.906,33.906,0,0,1-20.026-2.017,34.862,34.862,0,0,1-15.558-13.074,36.151,36.151,0,0,1,4.3-44.817,34.249,34.249,0,0,1,24.495-10.4" transform="translate(96.057 97.596)" fill="#fff" fill-rule="evenodd"/>
        <path id="Caminho_5" data-name="Caminho 5" d="M178.085,111.264a26.558,26.558,0,0,1,15.008,4.663,27.539,27.539,0,0,1,9.95,12.417,28.3,28.3,0,0,1,1.538,15.986,27.883,27.883,0,0,1-7.394,14.165,26.825,26.825,0,0,1-13.832,7.572,26.424,26.424,0,0,1-15.609-1.574A27.171,27.171,0,0,1,155.623,154.3a28.177,28.177,0,0,1,3.36-34.935,26.7,26.7,0,0,1,19.1-8.1" transform="translate(86.44 63.663)" fill="#fff" fill-rule="evenodd"/>
        <path id="Caminho_6" data-name="Caminho 6" d="M128.115,130.974a16.7,16.7,0,0,1,9.474,2.877,17.316,17.316,0,0,1,6.311,7.79,17.791,17.791,0,0,1,1.011,10.068,17.54,17.54,0,0,1-4.63,8.941,16.858,16.858,0,0,1-8.705,4.792,16.614,16.614,0,0,1-9.836-.978,17.085,17.085,0,0,1-7.641-6.418,17.743,17.743,0,0,1,2.108-21.981,16.774,16.774,0,0,1,12-5.092" transform="translate(63.647 74.941)" fill="#fff" fill-rule="evenodd"/>
      </g>
    </g>
  </g>
</svg>
