<?xml version="1.0" encoding="UTF-8"?>
<svg id="Camada_1" data-name="Camada 1" xmlns="http://www.w3.org/2000/svg" version="1.1" width="512" height="512" viewBox="0 0 512 512">
  <defs>
    <style>
      .cls-1 {
        fill: #1526ff;
        stroke-width: 0px;
      }
    </style>
  </defs>
  <g id="Logo_Mercantil_Azul" data-name="Logo Mercantil Azul">
    <g>
      <path class="cls-1" d="M290.9,270.7c.1.3.1.5,0,.7,0,0-.1.2-.5.2h-11.2c-.2,0-.3,0-.4-.2,0,0-.2-.3,0-.7l5.6-15.4c.1-.3.3-.5.5-.5s.3.1.4.5l5.7,15.4h0ZM302.8,280.5l-12.6-32.7c-.4-1.1-1.4-1.8-2.5-1.8h-5.9c-1.1,0-2.1.7-2.5,1.8l-13.2,34.7-.2.5c-.3.9.3,1.8,1.3,1.8h5.3l2.3-6.6h20l2.2,6.4v.2h5.4c1,0,1.6-1,1.3-1.9l-.9-2.5h0Z"/>
      <path class="cls-1" d="M264.9,273.9l-3-2.4c-.4-.3-.7-.4-1.1-.4-.5,0-.8.4-1.1.7h0c-1.3,2.2-3,3.8-5,4.7-2,1-4.6,1.5-7.6,1.5s-7-.9-9.2-2.8c-2.2-1.8-3.3-4.7-3.3-8.7v-2.2c0-7.6,4.2-11.4,12.5-11.4s9.7,1.9,12.2,5.7h0c.7.8,1.4.9,2.2.2l2.9-2.7c.3-.3.5-.6.6-.9,0-.4,0-.8-.3-1.2-3.4-5.4-9.3-8.1-17.7-8.1-12.9,0-19.2,6-19.2,18.4v2.1c0,12.4,6.3,18.5,19.2,18.5s14.4-3,18-8.8h0c.2-.4.4-.8.3-1.2,0-.4-.3-.8-.6-1.1"/>
      <path class="cls-1" d="M341.3,246h-4.1c-.4,0-.7.2-1,.5-.3.3-.4.7-.4,1.1v21.6c0,.8-.5,1.2-1,1.4s-1.2.1-1.7-.5l-18.8-23.7c-.2-.3-.5-.4-.9-.4h-5c-.4,0-.7.2-.9.5-.3.3-.4.7-.4,1.1v35.6c0,.4.1.8.4,1.1.3.3.6.5.9.5h4.1c.4,0,.7-.2,1-.5.3-.3.4-.7.4-1.1v-26l21.5,27.2c.2.3.5.4.9.4h5c.4,0,.7-.2,1-.5.3-.3.4-.7.4-1.1v-35.6c0-.5-.1-.9-.4-1.2-.3-.3-.6-.4-.9-.4"/>
      <path class="cls-1" d="M389.2,246h-4.3c-.4,0-.7.2-.9.5-.3.3-.4.7-.4,1.1v35.6c0,.4.1.8.4,1.1.3.3.6.5.9.5h4.3c.4,0,.7-.2,1-.5.3-.3.4-.7.4-1.1v-35.6c0-.5-.1-.9-.4-1.2-.3-.3-.6-.4-.9-.4"/>
      <path class="cls-1" d="M421.2,278c-.3-.3-.6-.5-1-.5h-15.6c-1.2,0-2.2-1-2.2-2.2v-27.8c0-.5-.1-.8-.4-1.2-.3-.3-.6-.4-.9-.4h-4.3c-.4,0-.7.2-.9.5-.3.3-.4.7-.4,1.1v35.6c0,.4.1.8.4,1.1.3.3.6.5.9.5h23.4c.4,0,.7-.2,1-.5.3-.3.4-.7.4-1.1v-4.1c0-.4-.2-.8-.5-1.1"/>
      <path class="cls-1" d="M218.1,258.6c0,2.2-.6,3.8-1.7,4.8-1.2,1.1-2.9,1.6-5,1.6h-14.4v-9.9c0-.4.3-2.1,2.2-2.1h12.2c2.2,0,3.9.4,5.1,1.2,1.1.8,1.7,2.2,1.7,4.3M225.1,258.6c0-4.5-1.1-7.8-3.3-9.7-2.2-1.9-5.5-2.9-9.9-2.9h-20.4c-.4,0-.7.2-.9.5-.3.3-.4.7-.4,1.1v35.6c0,.4.1.8.4,1.1.3.3.6.5.9.5h4.1c.4,0,.7-.2,1-.5.3-.3.4-.7.4-1.1v-11.2h12.6l7.9,11.8c.5.7,1.2,1.1,2.1,1.1h3.4c.7,0,1.3-.3,1.6-1,.3-.7.2-1.4-.3-2.1l-7.2-10.6.7-.3c4.9-1.7,7.4-5.9,7.4-12.3"/>
      <path class="cls-1" d="M379.2,246.6h0l.2-.2c-.3-.3-.6-.4-1-.4h-31.2c-.4,0-.7.2-1,.5-.3.3-.4.7-.4,1.1v3.9c0,.5.1.9.4,1.1.3.3.6.4,1,.4h12.1v30.2c0,.4.1.8.4,1.1.3.3.6.5,1,.5h4.2c.4,0,.7-.2,1-.5.3-.3.4-.7.4-1.1v-28.2h0c.2-1.3,1-2,2.1-2h9.9c.4,0,.7-.1,1-.4.3-.3.4-.7.4-1.1v-3.9c0-.5-.1-.9-.4-1.2l-.2.2h0Z"/>
      <path class="cls-1" d="M185.6,277.6h-18.6v-8.4h5.8c.6,0,1.1-.6,1.1-1.3v-5.2c0-.7-.5-1.3-1.1-1.3h-5.8v-6.3c.2-1.2,1-1.9,2.2-1.9h16.3c.4,0,.7-.1.9-.4.3-.3.4-.7.4-1.1v-3.9c0-.5-.1-.8-.4-1.2-.3-.3-.6-.4-.9-.4h-24c-.4,0-.8.2-1,.5-.3.3-.4.7-.4,1.1v13.8h-5.5c-.6,0-1.1.6-1.1,1.3v5.2c0,.7.5,1.3,1.1,1.3h5.5v.6s0,12.7,0,12.7c0,.9.2,1.5.5,1.9.1.1.5.5,1.6.5h23.5c.4,0,.7-.1.9-.4.3-.3.5-.8.5-1.3v-3.9c0-.5-.1-.9-.4-1.2-.3-.3-.6-.4-1-.4"/>
      <path class="cls-1" d="M147.4,246h-5c-.4,0-.7.1-.9.4l-19.3,24.4c-.3.4-.8.6-1.3.4-.5-.2-.8-.7-.8-1.2v-22.4c0-.4-.1-.8-.4-1.1-.3-.3-.6-.5-1-.5h-5c-.4,0-.7.1-.9.4l-21.8,27c-.4.4-.6,1-.6,1.6v8.5c-.1.5.1.9.5,1,.3.1.6,0,.8-.3l19.2-24.2c.3-.4.8-.6,1.3-.4.5.2.8.7.8,1.2v22.3c0,.4.1.8.3,1.1.3.4.6.6,1,.6h5c.5,0,.7-.2,1-.5l19.3-24.3c.3-.4.8-.6,1.3-.4.5.2.8.7.8,1.2v22.3c0,.5.2,1,.4,1.3.3.3.6.4.9.4h4c.4,0,.7-.1.9-.3.4-.3.5-.7.5-1.3v-35.6c0-.4-.1-.8-.4-1.1-.3-.3-.6-.5-.9-.5"/>
      <path class="cls-1" d="M121.2,236.2c.9,0,1.4-.4,1.4-1.1s-.4-1-1.3-1h-5.3c-.1,0-.2,0-.2.2v1.8c0,.1,0,.2.2.2h5.2ZM120.6,232c.8,0,1.3-.4,1.3-1s-.4-.9-1.1-.9h-4.6c-.1,0-.2,0-.2.2v1.6c0,.1,0,.2.2.2h4.5ZM113.5,238.9c-.3,0-.5-.2-.5-.5v-10.5c0-.3.2-.5.5-.5h7.7c2.3,0,3.6,1,3.6,2.9s-.4,1.9-1.3,2.4c-.1,0-.1.2,0,.2,1.3.4,2.1,1.4,2.1,2.7,0,2.3-1.4,3.4-3.9,3.4h-8.2Z"/>
      <path class="cls-1" d="M135.7,234.8c.2,0,.2,0,.2-.2l-1.9-4.3c0-.2-.2-.2-.3,0l-1.8,4.3c0,.2,0,.2.2.2h3.7ZM127.7,238.9c-.2,0-.4,0-.5-.3-.1-.2-.1-.4,0-.6l4.7-10.5c0-.2.2-.3.4-.3h3.1c.2,0,.3,0,.4.3l4.7,10.5c.2.4,0,.8-.5.8h-2.1c-.2,0-.4-.1-.4-.3l-.6-1.3c0,0-.1-.1-.2-.1h-5.7c-.1,0-.2,0-.2.1l-.5,1.3c0,.2-.2.3-.4.3h-2.1Z"/>
      <path class="cls-1" d="M154.7,227.4c.3,0,.5.2.5.5v10.5c0,.3-.2.5-.5.5h-2.3c-.2,0-.3,0-.3-.2l-6-6.9c0-.1-.2,0-.2,0v6.5c0,.3-.2.5-.5.5h-1.9c-.3,0-.5-.2-.5-.5v-10.5c0-.3.2-.5.5-.5h2.3c.1,0,.3,0,.3.1l5.9,6.9c.1.1.2,0,.2-.1v-6.4c0-.3.2-.5.5-.5h1.9Z"/>
      <path class="cls-1" d="M171,235.8c.3.2.3.5.1.7-1.4,1.8-3.5,2.7-6.3,2.7-4.5,0-6.8-1.9-6.8-5.8v-.6c0-3.9,2.3-5.8,6.8-5.8s4.9.8,6.2,2.4c.2.2.1.5,0,.7l-1.4,1.2c-.3.2-.6.2-.9,0-.9-1-2.1-1.5-3.8-1.5-2.6,0-3.8,1-3.8,3v.6c0,2,1.3,3,3.8,3s3.1-.5,3.9-1.6c.3-.3.6-.4.9-.1l1.4,1h0Z"/>
      <path class="cls-1" d="M182.7,235.8c.7-.5,1.1-1.2,1.1-2.3v-.6c0-2-1.4-3-4.1-3s-2.1.2-2.8.6-1.2,1.3-1.2,2.4v.6c0,1.1.4,1.8,1.1,2.3.7.5,1.7.7,2.9.7s2.2-.2,3-.7M172.7,233.4v-.6c0-3.8,2.4-5.8,7-5.8s7.1,2,7.1,5.8v.6c0,3.8-2.4,5.8-7.1,5.8s-7-1.9-7-5.8"/>
    </g>
  </g>
</svg>