<svg xmlns="http://www.w3.org/2000/svg" width="512.309" height="512" viewBox="0 0 512.309 512">
  <g id="Grupo_27104" data-name="Grupo 27104" transform="translate(5553.309 20557)">
    <rect id="Retângulo_3089" data-name="Retângulo 3089" width="512" height="512" transform="translate(-5553 -20557)" fill="none"/>
    <g id="efi-by-gerencianet" transform="translate(-5553 -20510.357)">
      <g id="Grupo_25715" data-name="Grupo 25715">
        <rect id="Retângulo_3014" data-name="Retângulo 3014" width="511.987" height="404.879" transform="translate(0 0.61)" fill="none"/>
        <path id="Caminho_21411" data-name="Caminho 21411" d="M179.51-7811.367l6.015-14.359-13.065-32.766h6.47l9.628,25.852h.126l9.628-25.852h6.2l-18.928,47.125Zm46.019-36.445c0-14.75,10.854-24.359,23.844-24.359a28.936,28.936,0,0,1,13.836,3.391v6.219a25.775,25.775,0,0,0-13.571-3.891c-10.02,0-17.968,7.6-17.968,18.641s7.821,18.641,17.639,18.641a19.943,19.943,0,0,0,9.439-2.078v-18.516h5.75v22.148a30.046,30.046,0,0,1-15.252,4.016C236.586-7823.6,225.53-7833.141,225.53-7847.812Zm318.015,6.453c0-10.992,7.809-17.875,16.869-17.875,8.264,0,15.049,5.875,15.049,17.07a15.4,15.4,0,0,1-.19,2.57H549.357c.834,6.7,5.749,10.781,12.345,10.781a18.35,18.35,0,0,0,11.751-4.445v5.7a20.668,20.668,0,0,1-12.206,3.773C550.393-7823.789,543.544-7830.883,543.544-7841.359Zm5.813-2.562h20.356c-.127-7.031-4.587-10.3-9.376-10.3C554.98-7854.219,550.254-7850.266,549.357-7843.922Zm-87.515,2.438c0-10.867,7.682-17.75,15.9-17.75a14.173,14.173,0,0,1,12.471,7.031l.708-6.289h4.852v33.953h-4.852l-.708-6.211a14.141,14.141,0,0,1-12.471,6.961C469.525-7823.789,461.842-7830.75,461.842-7841.484Zm6,0c0,7.273,4.852,12.313,11.12,12.313,6.141,0,11.056-5.039,11.056-12.367,0-7.273-4.915-12.312-11.056-12.312C472.7-7853.852,467.844-7848.812,467.844-7841.484Zm-57-.055a17.279,17.279,0,0,1,17.639-17.7,18.249,18.249,0,0,1,9.692,2.383v5.9a15,15,0,0,0-9.363-2.891,11.884,11.884,0,0,0-11.966,12.3,11.88,11.88,0,0,0,12.029,12.367,15.242,15.242,0,0,0,9.3-2.781v5.836a19.694,19.694,0,0,1-9.692,2.328C418.4-7823.789,410.844-7831.383,410.844-7841.539Zm-77.305.18c0-10.992,7.821-17.875,16.869-17.875,8.264,0,15.049,5.875,15.049,17.07a15.419,15.419,0,0,1-.19,2.57H339.352c.846,6.7,5.749,10.781,12.345,10.781a18.407,18.407,0,0,0,11.764-4.445v5.7a20.707,20.707,0,0,1-12.219,3.773C340.388-7823.789,333.539-7830.883,333.539-7841.359Zm5.812-2.562h20.356c-.126-7.031-4.587-10.3-9.363-10.3C344.975-7854.219,340.261-7850.266,339.352-7843.922Zm-67.159,2.563c0-10.992,7.821-17.875,16.868-17.875,8.276,0,15.062,5.875,15.062,17.07a15.432,15.432,0,0,1-.19,2.57H278.005c.847,6.7,5.762,10.781,12.345,10.781a18.356,18.356,0,0,0,11.764-4.445v5.7a20.668,20.668,0,0,1-12.206,3.773C279.042-7823.789,272.193-7830.883,272.193-7841.359Zm5.812-2.562h20.369c-.139-7.031-4.587-10.3-9.375-10.3C283.628-7854.219,278.915-7850.266,278.005-7843.922ZM140.529-7830.75l-.708,6.211h-4.852v-50.2h5.951v22.211c2.388-4.32,7.3-6.7,12.156-6.7,8.2,0,15.757,6.828,15.757,17.75,0,10.789-7.682,17.7-15.9,17.7A14.04,14.04,0,0,1,140.529-7830.75Zm.266-10.789c0,7.328,4.839,12.367,10.98,12.367,6.267,0,11.119-5.039,11.119-12.312,0-7.328-4.852-12.367-11.119-12.367C145.634-7853.852,140.795-7848.812,140.795-7841.539ZM585.1-7836.4v-17.07h-5.244v-5.023h5.37v-7.969h5.686v7.969h10.02v5.023h-10.02v16.82c0,5.273,3.235,7.477,7.7,7.477a18.805,18.805,0,0,0,3.1-.328v5.016a22.384,22.384,0,0,1-4.132.383C590.006-7824.1,585.1-7828.492,585.1-7836.4Zm-55.786,11.859v-20.391c0-5.969-2.78-8.789-8.011-8.789-4.978,0-8.731,3.508-8.731,8.469v20.711h-5.939v-33.953h4.587l.644,5.133h.19a12.718,12.718,0,0,1,10.728-5.875c7.569,0,12.472,4.758,12.472,12.227v22.469Zm-82.145,0v-33.953h5.939v33.953Zm-50.492,0v-20.391c0-5.969-2.78-8.789-8.011-8.789-4.979,0-8.731,3.508-8.731,8.469v20.711H374v-33.953h4.587l.645,5.133h.19a12.734,12.734,0,0,1,10.728-5.875c7.569,0,12.484,4.758,12.484,12.227v22.469Zm-84.015,0v-33.953h4.713l.645,5.406h.063a11.361,11.361,0,0,1,10.02-5.789,12.185,12.185,0,0,1,2.325.2v5.516a16.64,16.64,0,0,0-2.451-.258c-4.663,0-9.376,2.891-9.376,9.547v19.328Zm133.787-45.25a3.51,3.51,0,0,1,3.689-3.516,3.5,3.5,0,0,1,3.677,3.516,3.491,3.491,0,0,1-3.677,3.516A3.5,3.5,0,0,1,446.452-7869.789Z" transform="translate(-134.778 8216.852)" fill="#f37021" stroke="rgba(0,0,0,0)" stroke-width="1"/>
        <path id="Caminho_21413" data-name="Caminho 21413" d="M446.369,88.661,512,64.479V0L432.552,62.177c-4.99,3.837-8.061,7.675-8.061,13.433,0,9.977,9.6,17.654,21.877,13.05M424.492,312.419h42.221V109H424.492Zm-191.518,0h42.219v-78.3H380.737V195.742H275.192c-.769-31.856,20.725-51.046,50.279-51.046a70.064,70.064,0,0,1,40.3,13.05l26.867-30.321c-19.575-14.586-40.683-22.263-66.015-22.263-55.652,0-93.648,36.846-93.648,90.579ZM42.985,189.217c6.144-27.633,28.021-44.521,58.34-44.521,30.707,0,51.048,16.887,54.886,44.521Zm156.6,17.271c0-46.823-33.775-101.325-98.257-101.325C44.523,105.162,0,147.767,0,209.175S44.906,316.256,105.548,316.256c37.612,0,67.936-18.037,87.892-44.521l-29.552-24.179c-14.583,19.189-34.544,29.169-59.492,29.169-33.006,0-55.266-18.806-61.411-49.127H178.739c13.048,0,20.843-6.142,20.843-21.111" fill="#f37021"/>
      </g>
    </g>
  </g>
</svg>
