<svg width="512" height="512" viewBox="0 0 512 512" fill="none" xmlns="http://www.w3.org/2000/svg">
<path fill-rule="evenodd" clip-rule="evenodd" d="M147.948 128H364.052C375.063 128 384 136.937 384 147.948V364.052C384 375.063 375.063 384 364.052 384H147.948C136.937 384 128 375.063 128 364.052V147.948C128 136.937 136.937 128 147.948 128Z" fill="black"/>
<path fill-rule="evenodd" clip-rule="evenodd" d="M202.717 329.797C228.397 352.083 267.313 351.026 291.71 326.629C316.259 302.08 317.201 262.9 294.463 237.258C292.879 235.712 290.39 235.675 288.769 237.183L202.189 323.763C200.718 325.384 200.756 327.912 202.302 329.457C202.415 329.57 202.566 329.684 202.717 329.797ZM223.155 274.854L309.773 188.237C311.244 186.615 311.205 184.127 309.66 182.581C309.584 182.524 309.518 182.467 309.452 182.411C309.386 182.354 309.32 182.298 309.245 182.241C283.565 159.955 244.65 161.011 220.252 185.409C195.741 209.92 194.798 249.137 217.461 274.779C219.045 276.325 221.571 276.362 223.155 274.854Z" fill="white"/>
</svg>
