<?xml version="1.0" encoding="UTF-8"?>
<svg xmlns="http://www.w3.org/2000/svg" viewBox="0 0 512 512">
  <defs>
    <style>
      .cls-1 {
        fill: #0a81c4;
        fill-rule: evenodd;
      }

      .cls-1, .cls-2 {
        stroke-width: 0px;
      }

      .cls-2 {
        fill: #fff;
        opacity: 0;
      }
    </style>
  </defs>
  <g id="Layer_2" data-name="Layer 2">
    <rect class="cls-2" width="512" height="512"/>
  </g>
  <g id="Layer_1" data-name="Layer 1">
    <path id="logo" class="cls-1" d="m403.42,334.92c-2.19,4.38-4.38,7.67-7.67,12.06h0c-30.69,42.75-80.01,67.96-132.62,67.96-87.68,1.1-161.12-67.96-162.22-156.74-1.1-88.78,67.96-160.02,155.64-161.12h5.48c49.32,0,95.36,21.92,127.14,60.28l-48.23,27.4c-20.83-21.92-49.32-33.98-78.92-33.98-59.19-1.1-107.41,46.03-108.51,104.13-1.1,59.19,46.03,107.41,104.13,108.51h4.38c38.36,0,74.53-20.83,94.26-53.71l-41.65-24.11c-10.96,18.63-30.69,30.69-52.61,30.69-32.88,1.1-60.28-25.21-61.38-59.19-1.1-32.88,25.21-60.28,59.19-61.38h2.19c21.92,0,41.65,10.96,52.61,29.59l12.06,19.73,129.33-73.44-12.06-19.73c-38.36-62.48-107.41-101.93-181.95-101.93-113.99,0-206.06,92.07-206.06,206.06s92.07,206.06,206.06,206.06h0c48.23,0,95.36-16.44,132.62-47.13v46.03h47.13v-103.03l-18.63-10.96-19.73-12.06Z"/>
  </g>
</svg>