<svg width="512" height="512" viewBox="0 0 512 512" fill="none" xmlns="http://www.w3.org/2000/svg">
<rect width="512" height="512" fill="#FE3E6D"/>
<path fill-rule="evenodd" clip-rule="evenodd" d="M245.149 73.0011C238.082 73.0874 229.556 74.2069 225.239 74.9516C199.399 79.4033 174.471 89.4139 152.773 104.277C119.753 126.894 94.348 160.67 81.919 198.74C67.2966 243.532 70.8001 293.726 91.3533 335.899C110.879 375.965 145.402 408.403 186.598 425.338C221.25 439.581 260.033 442.734 296.336 434.579C340.529 424.652 380.103 397.874 405.962 361.154C425.337 333.642 436.811 300.729 438.982 267.122C439.153 264.23 438.127 261.394 436.143 259.283C434.161 257.172 431.396 255.971 428.501 255.964L426.59 255.959C413.781 255.929 394.298 255.884 382.533 255.882C377.051 255.87 372.482 260.081 372.046 265.548C371.521 271.8 370.501 277.996 368.976 284.078C361.911 312.255 343.778 337.514 319.353 353.396C294.494 369.56 263.497 375.572 234.427 370.085C205.407 364.607 179.148 347.696 161.938 324.008C147.586 304.257 139.729 279.855 139.767 255.483C139.817 223.806 153.346 192.693 176.254 171.033C195.329 152.999 220.446 141.831 246.691 139.635C252.138 139.177 256.329 134.62 256.334 129.148L256.336 125.883C256.345 113.464 256.359 95.1715 256.353 83.501C256.356 80.5908 255.152 77.8083 253.028 75.8188C250.905 73.8281 248.067 72.9654 245.149 73.0011ZM438.766 132.042C438.766 99.6753 412.509 73.3972 380.167 73.3972C347.825 73.3972 321.567 99.6753 321.567 132.042C321.567 164.41 347.825 190.688 380.167 190.688C412.509 190.688 438.766 164.41 438.766 132.042Z" fill="white"/>
</svg>
