<?xml version="1.0" encoding="UTF-8"?>
<svg id="Layer_1" data-name="Layer 1" xmlns="http://www.w3.org/2000/svg" viewBox="0 0 512 512" width="512" height="512">
  <defs>
    <style>
      .cls-1 {
        fill: #ee4d2d;
      }

      .cls-2 {
        fill: #fff;
      }
    </style>
  </defs>
  <path class="cls-2" d="m252.76,281.57c44.14,14.08,60.86,30.65,57.7,56.6-1.95,16.02-11.73,28.85-26.87,35.28-8.43,3.57-19.72,5.49-28.67,4.89-13.92-.52-27.02-3.9-39.07-10.05-4.39-2.24-10.83-6.65-15.68-10.71-1.11-.91-1.67-1.73-.62-3.24,1.14-1.7,5.63-8.18,6.33-9.25.95-1.45,2.52-1.52,3.96-.4.2.15,1.65,1.28,1.95,1.5,11.6,9.02,26.58,15.81,43.22,16.44,20.98-.28,36.2-9.63,38.92-24.1,3-15.95-9.72-29.62-34.24-37.26-7.79-2.42-27.38-10.22-30.99-12.32-17.08-9.94-25.03-23-23.9-39.05,1.73-22.27,22.51-38.95,48.88-39.05,12.51-.03,24.25,2.73,34.71,7.1,3.85,1.62,11.02,5.45,13.58,7.35,1.79,1.3,1.65,2.76.94,3.89-1.04,1.73-4.14,6.55-5.39,8.56-.91,1.37-2.04,1.54-3.63.52-13.48-8.99-27.36-12.04-39.85-12.29-18.01.36-31.59,10.99-32.48,25.56-.24,13.17,9.84,22.72,31.21,30.02Z"/>
  <path class="cls-1" d="m403.85,176.33c0,.11-.01.22-.01.32l-10.69,215.36-.09,1.82c-1.3,15.11-13.52,27.3-28.61,27.71h-1.1s-218.07-.02-218.07-.02c-14.83-.55-25.75-12.58-27.23-27.5l-.15-2.69-9.75-214.51c-.02-.16-.02-.32-.02-.49,0-1.73.69-3.3,1.82-4.44,1.12-1.15,2.67-1.87,4.4-1.9h68.74c1.69-44.51,33.67-79.99,72.88-79.99s71.2,35.48,72.88,79.99h68.64c3.5,0,6.34,2.84,6.34,6.34Zm-93.4,161.84c3.16-25.96-13.56-42.52-57.7-56.6-21.37-7.3-31.45-16.85-31.21-30.02.9-14.57,14.48-25.2,32.48-25.56,12.49.25,26.36,3.3,39.85,12.29,1.6,1.01,2.73.85,3.63-.52,1.25-2.02,4.35-6.83,5.39-8.56.71-1.13.85-2.59-.94-3.89-2.56-1.9-9.72-5.73-13.58-7.35-10.46-4.38-22.2-7.13-34.71-7.1-26.37.1-47.15,16.78-48.88,39.05-1.13,16.05,6.82,29.11,23.9,39.05,3.61,2.11,23.2,9.9,30.99,12.32,24.51,7.64,37.24,21.31,34.24,37.26-2.72,14.47-17.93,23.81-38.92,24.1-16.64-.63-31.62-7.42-43.22-16.44-.3-.22-1.75-1.36-1.95-1.5-1.44-1.13-3.01-1.05-3.96.4-.7,1.08-5.19,7.55-6.33,9.25-1.05,1.5-.49,2.33.62,3.24,4.85,4.05,11.29,8.47,15.68,10.71,12.05,6.15,25.15,9.53,39.07,10.05,8.95.61,20.24-1.32,28.67-4.89,15.15-6.43,24.92-19.26,26.87-35.28Zm-107.41-168.18h105.9c-1.1-33.71-24.38-60.63-52.96-60.63s-51.86,26.93-52.95,60.63Z"/>
</svg>