<svg width="512" height="512" viewBox="0 0 84 25" fill="none" xmlns="http://www.w3.org/2000/svg">
<path d="M29.4237 9.10893C29.3517 7.25249 29.3087 5.39604 29.1936 3.542C29.0757 1.66379 28.3277 0.968328 26.4835 0.953157C24.4118 0.936789 22.3397 0.924809 20.2676 0.958744C18.5962 0.987089 17.7851 1.70332 17.5314 3.34857C16.9399 7.17404 16.0622 10.954 15.79 14.8292C15.7704 15.1086 15.8116 15.4983 15.4577 15.5398C14.9426 15.6011 15.0952 15.108 15.0275 14.8292C14.9552 14.5072 14.9059 14.1803 14.8802 13.851C14.5446 10.2344 13.7938 6.68478 13.1624 3.11721C12.8979 1.61709 12.131 1.01484 10.6304 0.960145C9.53436 0.920221 8.43616 0.952358 7.33915 0.95136C6.24214 0.950362 5.14493 0.92621 4.0489 0.956752C2.46996 1.00047 1.71387 1.70232 1.6471 3.29427C1.37216 9.85071 1.14592 16.4103 0.857628 22.967C0.82542 23.7113 1.11784 23.7654 1.68245 23.7541C2.98174 23.7311 4.29281 23.6437 5.57934 23.7758C6.88413 23.9092 7.21739 23.3922 7.2498 22.1567C7.38 17.2461 7.58974 12.3379 7.78868 7.43015C7.80262 7.06605 7.55302 6.47677 8.11782 6.39373C8.78043 6.29632 8.68145 6.94149 8.76099 7.35689C9.4177 10.7954 10.073 14.234 10.727 17.6727C11.0713 19.4669 11.7541 20.0408 13.5591 20.0593C14.8185 20.0713 16.0781 20.0769 17.3376 20.0572C18.9872 20.031 19.6704 19.4461 19.9921 17.7787C20.6612 14.301 21.3042 10.8179 21.9927 7.34451C22.0604 6.99678 21.9658 6.37797 22.5337 6.38795C23.1726 6.39793 22.9306 7.00336 22.9461 7.35209C23.1795 12.4224 23.4238 17.4945 23.5775 22.5685C23.6076 23.571 23.9076 23.8181 24.8295 23.7662C26.1682 23.6877 27.5103 23.6885 28.8489 23.7684C29.7857 23.8283 30.0019 23.5225 29.9579 22.5953C29.7411 18.1023 29.5968 13.6045 29.4237 9.10893Z" fill="#00B2DE"/>
<path d="M70.5363 14.0907C68.8982 13.6206 67.237 13.2323 65.5907 12.7898C65.3354 12.7209 64.9259 12.7045 64.9271 12.3678C64.9271 11.8867 65.4035 12.0344 65.6832 11.9741C66.0042 11.9212 66.3296 11.9011 66.6545 11.9143C68.6053 11.9067 70.5564 11.9034 72.5078 11.9045C72.9585 11.9033 73.421 11.9679 73.4308 11.2671C73.4438 10.1748 74.0644 9.07509 73.3792 7.99715C73.3458 7.94465 73.2307 7.93587 73.1512 7.92509C69.4823 7.40609 65.7973 6.97931 62.1221 7.73266C59.475 8.27482 58.3103 10.0199 58.521 12.763C58.693 15.0151 59.9171 16.4014 61.9951 17.0312C63.7822 17.5724 65.5875 18.0513 67.3827 18.5629C67.6463 18.6384 67.9947 18.6679 67.9785 19.055C67.9589 19.5163 67.5858 19.5163 67.26 19.5175C65.9994 19.5241 64.7399 19.5197 63.4793 19.5197V19.5273C62.2596 19.5273 61.041 19.5414 59.8213 19.5207C59.3362 19.5119 59.063 19.6496 59.0253 20.193C58.965 21.0567 58.8607 21.9171 58.7673 22.7786C58.7199 23.2204 58.8458 23.4468 59.334 23.5134C63.0889 24.026 66.8491 24.353 70.617 23.7364C72.8069 23.3771 73.9707 22.2516 74.3287 20.3559C74.9538 17.0295 73.7523 15.0145 70.5363 14.0907Z" fill="#00B2DE"/>
<path d="M83.1406 1.91926C83.1799 1.1703 82.9566 0.908995 82.1919 0.930952C80.3279 0.983385 78.4632 0.983385 76.5978 0.930952C75.8331 0.910991 75.662 1.18786 75.6428 1.92365C75.5287 6.33939 75.8761 10.7268 76.3011 15.113C76.36 15.7274 76.6129 15.8598 77.1455 15.8516C78.6051 15.8316 80.0646 15.8154 81.5232 15.8581C82.1836 15.8781 82.4212 15.6843 82.4794 14.9798C82.7516 11.7011 83.2355 8.43657 83.1275 5.32932C83.1265 4.06095 83.0856 2.98662 83.1406 1.91926Z" fill="#00B2DE"/>
<path d="M55.5558 8.60329C54.178 8.63503 52.7958 8.66897 51.4213 8.59351C50.549 8.5454 50.2919 8.91489 50.2607 9.71297C50.1326 12.9206 49.5368 16.1021 49.723 18.9185C49.723 20.5235 49.753 21.7206 49.7112 22.9145C49.6886 23.5616 49.8984 23.7716 50.5394 23.7584C52.3636 23.7213 54.19 23.6986 56.013 23.766C56.8659 23.7966 56.9908 23.4478 57.0079 22.6913C57.1091 18.234 56.7919 13.8017 56.3496 9.37282C56.2915 8.79692 56.1291 8.59031 55.5558 8.60329Z" fill="#00B2DE"/>
<path d="M50.7025 6.45443C51.5931 6.42828 52.4859 6.44785 53.3765 6.44904C54.2272 6.44904 55.0792 6.42709 55.9295 6.45563C56.6222 6.47739 57.0061 6.23485 56.9943 5.47391C56.977 4.32052 56.9869 3.16693 56.9912 2.01474C56.9943 1.31828 56.7115 0.939003 55.979 0.944393C54.1956 0.958565 52.4134 0.955369 50.63 0.946586C49.9492 0.94439 49.707 1.29532 49.718 1.95346C49.7377 3.10565 49.7481 4.26024 49.7149 5.41143C49.6925 6.14602 49.9678 6.47639 50.7025 6.45443Z" fill="#00B2DE"/>
<path d="M81.9276 18.2237C80.2637 18.2597 78.5987 18.2593 76.9325 18.2225C76.1118 18.2025 75.7375 18.4674 75.7827 19.3551C75.8375 20.4255 75.8269 21.5024 75.7858 22.5737C75.7546 23.4101 76.0504 23.8016 76.9109 23.7555C77.7208 23.7118 78.535 23.7457 79.3471 23.7445C80.2409 23.7445 81.1342 23.7313 82.0274 23.7489C82.6951 23.7621 82.9953 23.4495 82.9897 22.7801C82.9822 21.6246 82.9618 20.468 82.9993 19.3122C83.024 18.5167 82.7181 18.2061 81.9276 18.2237Z" fill="#00B2DE"/>
<path d="M47.7437 12.594C47.6404 9.73285 46.127 8.12134 43.3855 7.60753C40.5503 7.07515 37.7117 7.39873 34.8938 7.7233C32.0827 8.04808 32.0905 8.13233 32.4175 10.9687C32.4411 11.1731 32.4906 11.3753 32.5069 11.5797C32.5574 12.1919 32.8629 12.3844 33.4692 12.3624C35.2956 12.2957 37.1241 12.286 38.9525 12.2706C39.3986 12.2573 39.8449 12.2881 40.2851 12.3624C40.5526 12.4014 40.7948 12.544 40.961 12.7605C41.1272 12.977 41.2045 13.2505 41.1767 13.5236C41.1455 14.2791 40.512 13.9554 40.1398 13.9707C38.6803 14.032 37.2121 13.9697 35.7569 14.0767C32.7785 14.2963 31.1253 16.1508 31.1911 19.0839C31.2579 22.0469 33.0992 23.8901 36.0269 24.0169C38.3018 24.1167 40.2734 23.4867 41.9674 21.5975C42.1082 22.0239 42.2331 22.2435 42.247 22.4711C42.3179 23.6191 42.9817 23.8376 43.9752 23.7622C44.9893 23.7054 46.0055 23.7027 47.0198 23.7542C47.5748 23.7718 47.8179 23.6145 47.8114 22.9976C47.7802 19.5299 47.8674 16.0575 47.7437 12.594ZM38.9955 19.7135C38.2264 19.7091 37.5226 19.5047 37.5004 18.4989C37.4778 17.4886 38.1145 17.1215 39.8828 17.1191C40.5112 17.1606 41.3348 16.838 41.2445 18.0505C41.1754 18.9722 40.2877 19.7201 38.9955 19.7135Z" fill="#00B2DE"/>
</svg>
