<?xml version="1.0" encoding="utf-8"?>
<!-- Generator: Adobe Illustrator 28.3.0, SVG Export Plug-In . SVG Version: 6.00 Build 0)  -->
<svg version="1.1" xmlns="http://www.w3.org/2000/svg" xmlns:xlink="http://www.w3.org/1999/xlink" x="0px" y="0px"
	 viewBox="0 0 1920 1080" style="enable-background:new 0 0 1920 1080;" xml:space="preserve">
<style type="text/css">
	.st0{fill:#010035;}
	.st1{fill:#E1DBD2;}
	.st2{fill:#667DFF;}
	.st3{fill:#010035;stroke:#000000;stroke-miterlimit:10;}
	.st4{fill:#FFFFFF;}
	.st5{fill:#FFFFFF;stroke:#000000;stroke-miterlimit:10;}
</style>
<g id="BACKGROUD">
	<rect y="0" class="st0" width="1920" height="1080"/>
</g>
<g id="Camada_1">
	<g>
		<g>
			<g>
				<path class="st4" d="M670.39,832.63c0,0,5.33,5.2,12.26,5.2c3.74,0,7.14-1.94,7.14-5.96c0-8.8-23.21-7.27-23.21-22.37
					c0-8.17,7.07-14.27,16.49-14.27c9.7,0,14.69,5.26,14.69,5.26l-3.88,7.27c0,0-4.71-4.29-10.88-4.29c-4.16,0-7.41,2.42-7.41,5.89
					c0,8.73,23.14,6.58,23.14,22.31c0,7.83-5.96,14.41-16.21,14.41c-10.95,0-16.97-6.72-16.97-6.72L670.39,832.63z"/>
				<path class="st4" d="M723.04,809.08c10.81,0,19.47,7.69,19.47,18.5c0,10.87-8.66,18.5-19.4,18.5c-10.81,0-19.47-7.62-19.47-18.5
					C703.64,816.77,712.3,809.08,723.04,809.08z M723.1,838.59c5.68,0,10.46-4.43,10.46-11.01c0-6.51-4.78-11.02-10.46-11.02
					c-5.75,0-10.53,4.5-10.53,11.02C712.57,834.15,717.35,838.59,723.1,838.59z"/>
				<path class="st4" d="M749.08,796.05h8.73v36.85c0,3.88,1.32,4.85,3.6,4.85c0.69,0,1.32-0.07,1.32-0.07v7.69
					c0,0-1.32,0.21-2.77,0.21c-4.85,0-10.88-1.25-10.88-11.36V796.05z"/>
				<path class="st4" d="M768.75,809.91h8.8v20.92c0,4.29,1.11,7.2,5.47,7.2c6.37,0,9.91-5.61,9.91-11.92v-16.21h8.8v35.33h-8.45
					v-4.02c0-1.39,0.14-2.49,0.14-2.49h-0.14c-1.73,3.67-6.23,7.34-12.26,7.34c-7.55,0-12.26-3.81-12.26-13.44V809.91z"/>
				<path class="st4" d="M828.12,809.08c9.21,0,13.58,5.26,13.58,5.26l-3.88,6.03c0,0-3.67-3.81-9.21-3.81
					c-6.51,0-10.74,4.92-10.74,10.94c0,5.96,4.29,11.08,11.02,11.08c5.96,0,10.39-4.5,10.39-4.5l3.39,6.23c0,0-4.71,5.26-13.44,5.68
					l-0.48,2.29c2.84,0.35,5.06,2.01,5.06,5.27c0,4.57-3.74,6.1-7.48,6.1c-2.35,0-4.23-0.48-4.23-0.48v-4.85
					c0,0,1.45,0.55,2.98,0.55c1.66,0,3.05-0.48,3.05-1.94c0-1.32-1.45-1.87-3.32-1.87c-0.76,0-1.45,0.14-1.45,0.14l1.45-5.4
					c-9.77-1.32-15.86-8.94-15.86-18.22C808.93,817.53,816.41,809.08,828.12,809.08z"/>
				<path class="st4" d="M866.01,809.08c10.81,0,19.47,7.69,19.47,18.5c0,10.87-8.66,18.5-19.4,18.5c-10.81,0-19.47-7.62-19.47-18.5
					C846.62,816.77,855.28,809.08,866.01,809.08z M861.23,795.98c4.64,0,5.89,4.5,8.73,4.5c1.94,0,2.7-2.08,2.7-4.29h5.96
					c0,6.23-2.49,9.49-7.76,9.49c-4.64,0-5.89-4.5-8.73-4.5c-1.94,0-2.63,2.01-2.63,4.29h-6.03
					C853.48,799.17,856.04,795.98,861.23,795.98z M866.08,838.59c5.68,0,10.46-4.43,10.46-11.01c0-6.51-4.78-11.02-10.46-11.02
					c-5.75,0-10.53,4.5-10.53,11.02C855.55,834.15,860.33,838.59,866.08,838.59z"/>
				<path class="st4" d="M907.99,809.08c10.18,0,15.66,7.41,15.66,16.76c0,1.04-0.21,3.39-0.21,3.39h-24.38
					c0.55,6.17,5.33,9.35,10.6,9.35c5.68,0,10.18-3.88,10.18-3.88l3.39,6.3c0,0-5.4,5.06-14.2,5.06c-11.71,0-18.98-8.45-18.98-18.5
					C890.05,816.7,897.46,809.08,907.99,809.08z M914.78,823.21c-0.14-4.78-3.12-7.34-7-7.34c-4.5,0-7.62,2.77-8.45,7.34H914.78z"/>
				<path class="st4" d="M931.96,834.71c0,0,3.88,3.88,9.63,3.88c2.49,0,4.64-1.11,4.64-3.19c0-5.27-17.18-4.57-17.18-15.93
					c0-6.58,5.89-10.39,13.51-10.39c7.97,0,11.85,4.02,11.85,4.02l-3.26,6.51c0,0-3.26-3.05-8.66-3.05c-2.29,0-4.5,0.97-4.5,3.19
					c0,4.99,17.18,4.36,17.18,15.73c0,5.89-5.13,10.6-13.51,10.6c-8.8,0-13.72-5.2-13.72-5.2L931.96,834.71z"/>
				<path class="st4" d="M988.64,795.73h28.26v7.69h-19.33v13.92h16.28v7.69h-16.28v19.88h-8.94V795.73z"/>
				<path class="st4" d="M1023.9,795.73h8.73v7.83h-8.73V795.73z M1023.9,809.59h8.8v35.33h-8.8V809.59z"/>
				<path class="st4" d="M1042.4,809.59h8.45v4.09c0,1.32-0.14,2.42-0.14,2.42h0.14c1.52-2.98,5.4-7.34,12.54-7.34
					c7.83,0,12.26,4.09,12.26,13.44v22.72h-8.73V824c0-4.29-1.11-7.2-5.61-7.2c-4.71,0-8.17,2.98-9.49,7.2
					c-0.48,1.46-0.62,3.05-0.62,4.71v16.21h-8.8V809.59z"/>
				<path class="st4" d="M1102.8,822.75h1.18v-0.49c0-4.64-2.91-6.23-6.79-6.23c-5.06,0-9.7,3.39-9.7,3.39l-3.32-6.3
					c0,0,5.47-4.37,13.85-4.37c9.28,0,14.69,5.13,14.69,14.06v22.1h-8.11v-2.91c0-1.39,0.14-2.49,0.14-2.49h-0.14
					c0.07,0-2.7,6.23-10.74,6.23c-6.3,0-11.98-3.95-11.98-11.02C1081.88,823.51,1097.05,822.75,1102.8,822.75z M1096.08,838.89
					c4.64,0,7.97-4.99,7.97-9.28v-0.83h-1.53c-4.5,0-11.78,0.62-11.78,5.54C1090.75,836.68,1092.48,838.89,1096.08,838.89z"/>
				<path class="st4" d="M1121.85,809.59h8.45v4.09c0,1.32-0.14,2.42-0.14,2.42h0.14c1.52-2.98,5.4-7.34,12.54-7.34
					c7.83,0,12.26,4.09,12.26,13.44v22.72h-8.73V824c0-4.29-1.11-7.2-5.61-7.2c-4.71,0-8.17,2.98-9.49,7.2
					c-0.48,1.46-0.62,3.05-0.62,4.71v16.21h-8.8V809.59z"/>
				<path class="st4" d="M1180.94,808.76c9.21,0,13.58,5.27,13.58,5.27l-3.88,6.03c0,0-3.67-3.81-9.21-3.81
					c-6.51,0-10.74,4.92-10.74,10.95c0,5.96,4.29,11.08,11.01,11.08c5.96,0,10.39-4.5,10.39-4.5l3.39,6.23c0,0-5.06,5.75-14.55,5.75
					c-11.71,0-19.19-8.24-19.19-18.5C1161.75,817.21,1169.24,808.76,1180.94,808.76z"/>
				<path class="st4" d="M1217.52,808.76c10.18,0,15.66,7.41,15.66,16.77c0,1.04-0.21,3.39-0.21,3.39h-24.38
					c0.55,6.17,5.33,9.35,10.6,9.35c5.68,0,10.18-3.88,10.18-3.88l3.39,6.3c0,0-5.4,5.06-14.2,5.06c-11.71,0-18.98-8.45-18.98-18.5
					C1199.58,816.38,1206.99,808.76,1217.52,808.76z M1224.31,822.89c-0.14-4.78-3.12-7.34-7-7.34c-4.5,0-7.62,2.77-8.45,7.34
					H1224.31z"/>
				<path class="st4" d="M1240.45,795.73h8.73v7.83h-8.73V795.73z M1240.45,809.59h8.8v35.33h-8.8V809.59z"/>
				<path class="st4" d="M1258.94,809.59h8.45v6.1c0,1.32-0.14,2.49-0.14,2.49h0.14c1.59-5.06,5.82-9.08,11.22-9.08
					c0.83,0,1.59,0.14,1.59,0.14v8.66c0,0-0.9-0.14-2.08-0.14c-3.74,0-7.97,2.15-9.63,7.41c-0.55,1.73-0.76,3.67-0.76,5.75v13.99
					h-8.8V809.59z"/>
				<path class="st4" d="M1304.11,822.75h1.18v-0.49c0-4.64-2.91-6.23-6.79-6.23c-5.06,0-9.7,3.39-9.7,3.39l-3.32-6.3
					c0,0,5.47-4.37,13.85-4.37c9.28,0,14.69,5.13,14.69,14.06v22.1h-8.11v-2.91c0-1.39,0.14-2.49,0.14-2.49h-0.14
					c0.07,0-2.7,6.23-10.74,6.23c-6.3,0-11.98-3.95-11.98-11.02C1283.19,823.51,1298.36,822.75,1304.11,822.75z M1297.39,838.89
					c4.64,0,7.97-4.99,7.97-9.28v-0.83h-1.53c-4.5,0-11.78,0.62-11.78,5.54C1292.06,836.68,1293.79,838.89,1297.39,838.89z"/>
				<path class="st4" d="M1324.2,834.39c0,0,3.88,3.88,9.63,3.88c2.49,0,4.64-1.11,4.64-3.19c0-5.27-17.18-4.57-17.18-15.93
					c0-6.58,5.89-10.39,13.51-10.39c7.97,0,11.85,4.02,11.85,4.02l-3.26,6.51c0,0-3.26-3.05-8.66-3.05c-2.29,0-4.5,0.97-4.5,3.19
					c0,4.99,17.18,4.36,17.18,15.73c0,5.89-5.13,10.6-13.51,10.6c-8.8,0-13.72-5.2-13.72-5.2L1324.2,834.39z"/>
			</g>
			<g>
				<path class="st2" d="M717.69,438.78h195.26V220.35H589.88v308.89l36.2,0.13L717.69,438.78z M877.19,403.02H753.86l123.34-121.96
					V403.02z M625.34,256.11h226.23L703.04,403.02h-77.69V256.11z M625.25,438.78h41.24l-41.24,40.79V438.78z"/>
			</g>
			<g>
				<g>
					<path class="st4" d="M669.72,602.48c-34.05,0-46.35,23.18-46.35,23.18h-0.57c0,0,0-2.29,0-5.72c0-8.01-4.86-14.02-18.31-14.02
						h-32.33v30.9h11.45c4.01,0,6.29,2,6.29,6.3v165.96h36.05V748.7c0-7.44-0.57-12.59-0.57-12.59h0.57c0,0,12.88,19.17,41.78,19.17
						c38.34,0,66.96-30.04,66.96-76.4C734.68,633.67,709.21,602.48,669.72,602.48z M661.14,724.66c-24.04,0-36.05-22.32-36.05-44.92
						c0-32.33,17.74-46.07,36.63-46.07c21.46,0,36.34,18.03,36.34,45.78C698.05,708.35,681.17,724.66,661.14,724.66z"/>
				</g>
				<g>
					<path class="st4" d="M822.1,602.48c-43.78,0-74.11,31.48-74.11,76.4c0,41.49,30.04,76.4,78.4,76.4
						c36.34,0,58.66-22.03,58.66-22.03l-15.17-25.18c0,0-17.45,16.31-40.92,16.31c-22.03,0-40.92-13.45-43.78-39.2h100.72
						c0,0,0.86-9.16,0.86-13.45C886.77,633.1,863.88,602.48,822.1,602.48z M786.34,659.99c4.01-18.31,17.17-29.47,35.77-29.47
						c14.88,0,26.9,12.02,27.47,29.47H786.34z"/>
				</g>
				<g>
					<path class="st4" d="M1035.89,547.67c-6.93-4.7-15.05-8.92-24.13-12.53c-9.58-3.8-20.7-5.73-33.06-5.73
						c-10.87,0-20.53,1.93-28.72,5.75c-8.17,3.81-15.18,8.95-20.85,15.27c-5.67,6.33-9.98,13.67-12.81,21.84
						c-2.83,8.15-4.26,16.81-4.26,25.73v7.93h-17.11v31.04h18.03v114.89h36.34V636.96h54.37c4.01,0,6.3,2.29,6.3,6.3v89.13
						c0,13.73,5.72,19.46,19.46,19.46h34.34v-30.62h-11.16c-4.01,0-6.29-2.29-6.29-6.3v-89.56c0-13.45-6.01-19.46-19.46-19.46
						h-77.68c0-1.11,0.02-8.9,0.02-8.9c0-4.45,0.65-8.86,1.92-13.11c1.27-4.23,3.2-8.09,5.73-11.47c2.52-3.36,5.83-6.08,9.82-8.08
						c4-2,8.81-3.01,14.3-3.01c7.66,0,15.17,1.4,22.31,4.17c6.55,2.54,12.24,5.76,16.92,9.56L1035.89,547.67z"/>
				</g>
				<g>
					<path class="st4" d="M1118.45,646.55c0-9.16,9.16-13.16,18.6-13.16c22.32,0,35.77,12.59,35.77,12.59l13.45-26.9
						c0,0-16.02-16.6-48.93-16.6c-31.48,0-55.8,15.74-55.8,42.92c0,46.93,70.96,44.07,70.96,65.81c0,8.58-8.87,13.16-19.17,13.16
						c-23.75,0-39.77-16.02-39.77-16.02l-16.6,25.47c0,0,20.32,21.46,56.66,21.46c34.62,0,55.8-19.46,55.8-43.78
						C1189.41,664.57,1118.45,667.15,1118.45,646.55z"/>
				</g>
				<g>
					<path class="st4" d="M1336.27,721.23c-4.01,0-6.29-2.29-6.29-6.3v-54.37c0-36.91-22.32-58.09-60.66-58.09
						c-34.62,0-57.23,18.03-57.23,18.03l13.73,26.04c0,0,19.17-14.02,40.06-14.02c16.02,0,28.04,6.58,28.04,25.75v2h-4.86
						c-23.75,0-86.41,3.15-86.41,49.5c0,29.19,23.46,45.5,49.5,45.5c23.8,0,36.42-13.24,41.55-20.73c0.59,12.17,6.41,17.3,19.4,17.3
						h34.34v-30.62H1336.27z M1294.21,688.61c0,17.74-13.73,38.34-32.91,38.34c-14.88,0-22.03-9.16-22.03-18.89
						c0-20.32,30.05-22.89,48.64-22.89h6.29V688.61z"/>
				</g>
			</g>
		</g>
	</g>
</g>
</svg>
