<?xml version="1.0" encoding="utf-8"?>
<!-- Generator: Adobe Illustrator 25.4.1, SVG Export Plug-In . SVG Version: 6.00 Build 0)  -->
<svg version="1.1" id="Camada_1" xmlns="http://www.w3.org/2000/svg" xmlns:xlink="http://www.w3.org/1999/xlink" x="0px" y="0px"
	 viewBox="0 0 512 512" style="enable-background:new 0 0 512 512;" xml:space="preserve">
<style type="text/css">
	.st0{fill:#00219E;}
	.st1{fill:#00DDFF;}
</style>
<path class="st0" d="M112,241.55c0-25.06-19.81-45.64-44.85-46.59h-1.28h-0.55c-12.47,0-23.81,4.36-31.93,12.3
	c-2.04,1.99-3.87,4.19-5.45,6.56c-15.34,20.69-11,49.89,9.69,65.23c8.03,5.96,17.77,9.17,27.77,9.17c6.8,0,27.59-1.91,27.59,20.85
	c0,19.55-22.16,21.07-28.65,21.07c-13.22,0-27.34-5.53-27.34-21.07v-1.64c0.03-0.92-0.69-1.68-1.61-1.71c-0.02,0-0.05,0-0.07,0
	H20.41c-0.92,0-1.67,0.75-1.67,1.67l0,0v1.65c0,11.91,4.71,22,13.64,29.09c8.11,6.47,19.45,10,31.93,10
	c27.78,0,46.71-15.36,46.71-39.13c0-13.2-5.94-23.82-17-30.72c11.36-8.81,18-22.38,18-36.76 M94.18,241.52
	c-0.01,15.9-12.91,28.78-28.81,28.77s-28.78-12.91-28.77-28.81c0-7.7,3.09-15.08,8.58-20.49c2.47-2.69,5.56-4.75,9-6
	c14.67-6.15,31.55,0.75,37.7,15.42c1.48,3.53,2.24,7.31,2.24,11.13"/>
<path class="st0" d="M213.32,268.31c0.63-0.85,0.49-2.05-0.33-2.73l-9.85-7.88c-0.87-0.68-2.13-0.52-2.81,0.35c0,0,0,0,0,0
	l-1.62,2.15c-4.67,6.18-15.2,10.5-25.6,10.5c-11.78,0-24.22-6.51-27.68-20.9h71.99l0.41-4.14c1.49-15.16-2-27.94-10.21-37
	s-20.3-13.74-34.47-13.74c-12.14-0.11-23.81,4.63-32.44,13.17c-8.74,8.87-13.56,20.88-13.39,33.33c0,13.64,4.65,25.35,13.46,33.86
	c8.33,8.05,19.83,12.49,32.39,12.49c15.66,0,30.47-6.68,38.66-17.42L213.32,268.31z M173.11,211.49c16.15,0,26.13,8,28,22.06h-55.63
	c3.15-13.39,13.77-22.06,27.67-22.06"/>
<path class="st0" d="M277.66,194.75c-9.45,0.14-17.83,3-24.28,8.16v-6.42c0-0.87-0.7-1.57-1.57-1.57c0,0-0.01,0-0.01,0h-13.92
	c-0.87,0-1.57,0.7-1.57,1.57v0v88.55c0,0.87,0.7,1.57,1.57,1.57h0h14.09c0.87,0,1.57-0.7,1.57-1.57l0,0v-48.22
	c0-14.58,9.82-24.87,23.9-25h0.38c7.59,0,13.74,2.12,17.81,6.15s6.11,9.86,6.11,17.37v49.7c0,0.87,0.7,1.57,1.57,1.57l0,0h14.09
	c0.87,0,1.57-0.7,1.57-1.57l0,0v-49.86C318.97,210.62,302.78,194.75,277.66,194.75"/>
<path class="st0" d="M463.38,286.62c0.87,0,1.57-0.7,1.57-1.57l0,0v-88.57c0-0.86-0.7-1.56-1.56-1.56c0,0-0.01,0-0.01,0h-14.06
	c-0.87-0.01-1.57,0.69-1.58,1.56c0,0,0,0,0,0v6.56c-7.9-6.16-17.85-8-28.65-8c-8.66-0.01-17.16,2.39-24.53,6.95
	c-1.78,1.08-3.48,2.29-5.09,3.62c-19.86,16.24-22.79,45.51-6.54,65.36c16.07,19.64,44.93,22.75,64.81,6.99v7.08
	c0,0.87,0.7,1.57,1.57,1.57c0,0,0.01,0,0.01,0L463.38,286.62z M390.48,241.23c0-16.89,12-29.16,28.62-29.16
	c20.15,0,29.32,15.16,29.32,29.24c0.12,7.41-2.48,14.6-7.32,20.21c-5.26,5.91-12.87,9-22,9c-16.58,0-28.62-12.33-28.62-29.32"/>
<path class="st0" d="M498.76,162.88h-14.08c-0.87-0.01-1.57,0.69-1.58,1.56c0,0,0,0.01,0,0.01v120.59c0,0.87,0.7,1.57,1.57,1.57
	c0,0,0.01,0,0.01,0h14.08c0.86-0.01,1.56-0.71,1.56-1.57V164.45C500.32,163.59,499.62,162.88,498.76,162.88c-0.01,0-0.02,0-0.02,0"
	/>
<path class="st0" d="M338.67,286.62h14.13c0.85-0.01,1.53-0.71,1.52-1.56c0-0.01,0-0.01,0-0.02v-88.6c0.01-0.85-0.68-1.54-1.53-1.55
	c-0.01,0-0.01,0-0.02,0h-14.1c-0.86,0-1.55,0.69-1.55,1.55v88.6c0,0.86,0.69,1.55,1.55,1.55"/>
<path class="st1" d="M90.17,170.54L90.17,170.54c0,4.23,3.43,7.66,7.66,7.66h10.88c1.81,0,3.28,1.47,3.28,3.28v10.88
	c0,4.23,3.43,7.66,7.66,7.66c4.23,0,7.66-3.43,7.66-7.66V166.7c0-2.11-1.71-3.82-3.82-3.82c0,0-0.01,0-0.01,0H97.83
	C93.6,162.88,90.17,166.31,90.17,170.54"/>
</svg>
