<svg width="512" height="512" viewBox="0 0 512 512" fill="none" xmlns="http://www.w3.org/2000/svg">
<path d="M324.76 218.551H310.936V292.626H324.76V218.551Z" fill="#FF9400"/>
<path d="M441.102 218.375C436.613 218.375 433.022 221.902 433.022 226.312C433.022 230.721 436.434 234.248 440.922 234.248C445.411 234.248 449.002 230.721 449.002 226.488C449.002 221.902 445.59 218.375 441.102 218.375Z" fill="#FF9400"/>
<path d="M447.925 238.125H434.1V292.623H447.925V238.125Z" fill="#FF9400"/>
<path d="M278.797 238.125C263.356 238.125 252.045 249.589 252.045 265.462C252.045 281.159 263.356 292.623 279.156 292.623C289.389 292.623 298.546 287.156 302.855 278.514L304.291 275.692H288.851C286.337 278.161 282.926 279.572 279.335 279.572C275.026 279.572 271.615 277.808 269.101 274.457C268.204 273.223 267.485 272.164 267.126 270.754H305.728L305.907 268.108C306.087 266.873 306.087 265.462 306.087 264.757C305.907 249.589 294.237 238.125 278.797 238.125ZM267.126 259.113C267.485 257.878 268.024 256.82 268.563 255.938C270.717 252.764 274.667 250.824 278.797 250.824C282.926 250.824 286.876 252.764 289.389 255.938C290.108 256.997 290.646 257.878 291.005 259.289H267.126V259.113Z" fill="#FF9400"/>
<path d="M476.651 238.125C463.545 238.125 452.952 248.531 452.952 261.406V292.623H466.597V261.23C466.597 255.938 471.085 251.529 476.472 251.529C481.858 251.529 486.346 255.938 486.346 261.23V292.447H499.991V261.23C500.35 248.531 489.758 238.125 476.651 238.125Z" fill="#FF9400"/>
<path d="M401.604 238.125C386.343 238.125 373.955 250.295 373.955 265.286C373.955 271.812 376.289 277.808 380.059 282.394C378.443 285.921 375.211 292.447 375.211 292.447L390.113 289.978C393.525 291.565 397.474 292.447 401.604 292.447C416.865 292.447 429.253 280.278 429.253 265.286C429.253 250.295 416.865 238.125 401.604 238.125ZM404.297 279.925V280.983C404.297 282.394 403.04 283.629 401.604 283.629C400.168 283.629 398.911 282.394 398.911 280.983V279.925C395.859 279.572 393.345 278.867 391.729 277.808C390.652 277.103 390.472 275.692 391.011 274.634C391.729 273.752 392.986 273.399 393.884 273.928L394.602 274.281C396.218 275.163 398.372 275.868 400.886 275.868C404.836 275.868 406.99 274.457 406.99 272.164C406.99 269.343 404.297 268.813 399.808 267.932C395.679 267.05 389.934 265.815 389.934 259.995C389.934 255.586 393.345 252.235 398.731 251.529V249.765C398.731 248.354 399.988 247.12 401.424 247.12C402.861 247.12 404.117 248.354 404.117 249.765V251.529C407.17 251.882 409.504 252.587 411.119 253.646C412.197 254.351 412.376 255.762 411.838 256.82C411.119 257.702 409.863 258.055 408.965 257.526L408.247 257.173C406.99 256.468 405.374 255.938 403.399 255.762C403.22 255.762 402.322 255.586 401.783 255.586C397.833 255.586 395.679 256.997 395.679 259.289C395.679 261.759 398.193 262.288 402.681 263.346C406.99 264.228 412.915 265.462 412.915 271.459C412.915 275.868 409.683 279.043 404.297 279.925Z" fill="#FF9400"/>
<path d="M374.492 285.392L370.004 273.928C368.568 274.81 366.413 276.221 363.181 277.808C360.309 279.219 356.179 280.101 352.768 279.043C350.973 278.513 349.357 277.632 348.1 276.397L347.92 276.221C347.561 275.868 347.202 275.515 347.023 275.162C346.843 274.986 346.843 274.986 346.664 274.81C346.484 274.633 346.305 274.281 346.125 274.104C345.766 273.575 345.407 272.87 345.048 272.164C345.048 272.164 345.048 272.164 345.048 271.988C344.868 271.635 344.689 271.106 344.509 270.753C344.509 270.577 344.509 270.577 344.33 270.4C344.15 270.048 344.15 269.695 343.97 269.166C343.97 268.813 343.791 268.284 343.791 267.931C343.611 267.049 343.611 266.167 343.611 265.286C343.611 258.231 347.202 253.116 352.768 251.529C356.179 250.471 360.488 251.352 363.181 252.763C366.234 254.351 368.568 255.762 370.004 256.643L374.672 244.827C373.056 243.416 371.44 242.357 369.645 241.299C369.286 241.123 368.927 240.77 368.568 240.594C368.029 240.241 367.49 240.065 366.952 239.888C365.874 239.536 364.977 239.183 363.899 238.83C363.54 238.83 363.361 238.654 363.002 238.654C360.847 238.125 358.513 237.772 356 237.948C350.254 237.948 345.048 239.712 340.918 242.534C340.2 243.063 339.661 243.592 338.943 244.121L338.764 244.298C338.225 244.827 337.687 245.356 337.148 245.885C336.968 246.061 336.968 246.061 336.968 246.238C336.43 246.767 336.071 247.296 335.532 247.825C335.353 248.001 335.353 248.178 335.173 248.354C334.814 248.883 334.455 249.412 334.096 249.941C333.916 250.118 333.916 250.294 333.737 250.647C333.378 251.176 333.198 251.705 332.839 252.234C332.659 252.411 332.659 252.763 332.48 252.94C332.3 253.469 331.941 253.998 331.762 254.527C331.582 254.88 331.582 255.056 331.403 255.409C331.223 255.938 331.044 256.467 330.864 256.996C330.684 257.349 330.684 257.702 330.684 258.054C330.505 258.584 330.505 259.113 330.325 259.642C330.325 259.995 330.146 260.347 330.146 260.7C330.146 261.229 329.966 261.758 329.966 262.464C329.966 262.816 329.966 263.169 329.966 263.522C329.966 264.051 329.966 264.58 329.966 264.933C329.966 265.109 329.966 265.286 329.966 265.462V265.638C329.966 267.049 330.146 268.46 330.325 269.695C330.505 270.4 330.505 271.106 330.684 271.811C330.864 272.693 331.044 273.399 331.403 274.281C333.737 281.688 338.943 287.332 345.945 290.33C346.125 290.507 346.484 290.507 346.664 290.683C347.741 291.036 348.639 291.388 349.716 291.565C350.613 291.741 351.511 291.918 352.409 292.094C352.768 292.094 355.641 292.447 356.897 292.447C359.411 292.447 361.745 292.094 363.899 291.565C364.259 291.565 364.438 291.388 364.797 291.388C365.874 291.036 366.772 290.683 367.849 290.33C368.029 290.154 368.208 290.154 368.388 289.977C368.568 289.977 368.747 289.801 368.927 289.801C369.286 289.625 369.645 289.448 370.004 289.096C371.799 288.214 373.415 286.979 375.031 285.568L374.492 285.392Z" fill="#FF9400"/>
<path d="M252.406 285.392L247.918 273.928C246.482 274.81 244.327 276.221 241.095 277.808C238.223 279.219 234.093 280.101 230.682 279.043C228.887 278.513 227.271 277.632 226.014 276.397L225.834 276.221C225.475 275.868 225.116 275.515 224.937 275.162C224.757 274.986 224.757 274.986 224.578 274.81C224.398 274.633 224.219 274.281 224.039 274.104C223.68 273.575 223.321 272.87 222.962 272.164C222.962 272.164 222.962 272.164 222.962 271.988C222.782 271.635 222.603 271.106 222.423 270.753C222.423 270.577 222.423 270.577 222.244 270.4C222.064 270.048 222.064 269.695 221.885 269.166C221.885 268.813 221.705 268.284 221.705 267.931C221.525 267.049 221.525 266.167 221.525 265.286C221.525 258.231 225.116 253.116 230.682 251.529C234.093 250.471 238.402 251.352 241.095 252.763C244.148 254.351 246.482 255.762 247.918 256.643L252.586 244.827C250.97 243.416 249.354 242.357 247.559 241.299C247.2 241.123 246.841 240.77 246.482 240.594C245.943 240.241 245.404 240.065 244.866 239.888C243.789 239.536 242.891 239.183 241.814 238.83C241.454 238.83 241.275 238.654 240.916 238.654C238.761 238.125 236.427 237.772 233.914 237.948C228.168 237.948 222.962 239.712 218.832 242.534C218.114 243.063 217.576 243.592 216.857 244.121L216.678 244.298C216.139 244.827 215.601 245.356 215.062 245.885C214.882 246.061 214.882 246.061 214.882 246.238C214.344 246.767 213.985 247.296 213.446 247.825C213.267 248.001 213.267 248.178 213.087 248.354C212.728 248.883 212.369 249.412 212.01 249.941C211.83 250.118 211.83 250.294 211.651 250.647C211.292 251.176 211.112 251.705 210.753 252.234C210.573 252.411 210.573 252.763 210.394 252.94C210.214 253.469 209.855 253.998 209.676 254.527C209.496 254.88 209.496 255.056 209.317 255.409C209.137 255.938 208.958 256.467 208.778 256.996C208.599 257.349 208.599 257.702 208.599 258.054C208.419 258.584 208.419 259.113 208.239 259.642C208.239 259.995 208.06 260.347 208.06 260.7C208.06 261.229 207.88 261.758 207.88 262.464C207.88 262.816 207.88 263.169 207.88 263.522C207.88 264.051 207.88 264.58 207.88 264.933C207.88 265.109 207.88 265.286 207.88 265.462V265.638C207.88 267.049 208.06 268.46 208.239 269.695C208.419 270.4 208.419 271.106 208.599 271.811C208.778 272.693 208.958 273.399 209.317 274.281C211.651 281.688 216.857 287.332 223.859 290.33C224.039 290.507 224.398 290.507 224.578 290.683C225.655 291.036 226.553 291.388 227.63 291.565C228.528 291.741 229.425 291.918 230.323 292.094C230.682 292.094 233.555 292.447 234.811 292.447C237.325 292.447 239.659 292.094 241.814 291.565C242.173 291.565 242.352 291.388 242.711 291.388C243.789 291.036 244.686 290.683 245.763 290.33C245.943 290.154 246.123 290.154 246.302 289.977C246.482 289.977 246.661 289.801 246.841 289.801C247.2 289.625 247.559 289.448 247.918 289.096C249.713 288.214 251.329 286.979 252.945 285.568L252.406 285.392Z" fill="#FF9400"/>
<path d="M148.81 218.551H143.783V248.71C139.295 242.184 132.292 237.952 124.393 237.952C110.927 237.952 99.9751 250.121 99.9751 265.113C99.9751 280.104 110.927 292.274 124.393 292.274C137.499 292.274 148.272 280.633 148.81 266.171V265.818C148.81 265.465 148.81 265.289 148.81 264.936C148.81 264.583 148.81 264.407 148.81 264.054V218.551ZM143.783 265.642C143.603 277.635 134.986 287.512 124.393 287.512C113.8 287.512 105.002 277.458 105.002 265.289C105.002 253.119 113.8 242.89 124.393 242.89C134.986 242.89 143.603 252.59 143.783 264.76V265.642Z" fill="#FF9400"/>
<path d="M70.7095 237.953C57.244 237.953 46.292 250.123 46.292 265.114C46.292 280.106 57.244 292.275 70.7095 292.275C81.841 292.275 91.3567 283.809 94.2293 272.522H89.0227C86.3295 281.164 79.1479 287.337 70.7095 287.337C60.8348 287.337 52.5759 278.695 51.4987 267.583H92.793H94.9475C94.9475 266.701 95.127 265.996 95.127 265.114C95.127 250.123 84.1751 237.953 70.7095 237.953ZM51.4987 262.821C52.5759 251.71 60.6552 242.891 70.7095 242.891C80.5842 242.891 88.8431 251.534 89.9204 262.645H51.4987V262.821Z" fill="#FF9400"/>
<path d="M178.254 237.953C164.788 237.953 153.836 250.123 153.836 265.114C153.836 280.106 164.788 292.275 178.254 292.275C189.385 292.275 198.901 283.809 201.774 272.522H196.567C193.874 281.164 186.692 287.337 178.254 287.337C168.379 287.337 160.12 278.695 159.043 267.583H200.517H202.671C202.671 266.701 202.851 265.996 202.851 265.114C202.671 250.123 191.719 237.953 178.254 237.953ZM159.043 262.821C160.12 251.71 168.2 242.891 178.254 242.891C188.129 242.891 196.388 251.534 197.465 262.645H159.043V262.821Z" fill="#FF9400"/>
<path d="M32.2881 238.125C20.977 238.125 12 247.473 12 259.289V292.623H17.0271V259.289C17.0271 250.295 23.8497 243.063 32.2881 243.063C37.4948 243.063 41.9833 245.885 44.6764 250.118C45.3946 248.531 46.2923 246.944 47.3695 245.356C43.5991 240.947 38.2129 238.125 32.2881 238.125Z" fill="#FF9400"/>
</svg>
