<svg width="512" height="512" viewBox="0 0 512 512" fill="none" xmlns="http://www.w3.org/2000/svg">
<circle cx="256" cy="256" r="256" fill="#9C8555"/>
<path d="M249.113 331.529H272.383L193.78 163.443L115.201 331.529H138.446L153.468 299.698H215.267L205.926 279.786H162.857L193.851 214.078L249.113 331.529Z" fill="white"/>
<path d="M309.387 163.437L274.256 238.487L241.147 167.963C238.746 162.69 237.605 158.164 237.605 153.685C237.605 137.24 250.797 123.877 267.031 123.877C277.489 123.877 287.234 129.584 292.487 138.805L294.46 142.272L304.989 119.736L304.039 118.7C294.484 108.347 280.983 102.4 267.007 102.4C239.079 102.4 216.356 125.418 216.356 153.709C216.356 161.27 217.948 168.565 221.11 175.379L297.574 338.216C299.974 343.489 301.115 348.016 301.115 352.494C301.115 368.939 287.923 382.302 271.689 382.302C261.231 382.302 251.486 376.596 246.233 367.374L244.26 363.907L233.731 386.444L234.682 387.479C244.237 397.833 257.737 403.78 271.713 403.78C299.641 403.78 322.364 380.761 322.364 352.47C322.364 344.91 320.772 337.614 317.611 330.8L285.998 263.455L309.315 214.072L340.333 279.78H312.619L321.984 299.668H349.722L364.744 331.499H387.99L309.41 163.437H309.387Z" fill="white"/>
</svg>
