<svg width="512" height="512" viewBox="0 0 512 512" fill="none" xmlns="http://www.w3.org/2000/svg">
<rect width="512" height="512" fill="white"/>
<path d="M185.855 171.936H124V422H185.855V171.936Z" fill="black"/>
<path d="M288.37 282.371C339.047 279.827 379.832 237.256 379.832 186.235C379.832 133.172 336.612 90 283.485 90H124V143.404H275.902C299.944 143.404 319.86 162.289 320.3 185.5C320.52 197.121 316.157 208.09 308.016 216.383C299.872 224.679 288.99 229.251 277.376 229.251H218.203C216.101 229.251 214.391 230.958 214.391 233.058V280.522C214.391 281.329 214.641 282.101 215.11 282.751L315.507 422H389L288.37 282.371Z" fill="black"/>
</svg>
