<svg xmlns="http://www.w3.org/2000/svg" xmlns:xlink="http://www.w3.org/1999/xlink" id="Layer_1" x="0px" y="0px" viewBox="0 0 512 512" style="enable-background:new 0 0 512 512;" xml:space="preserve"><style type="text/css">	.st0{fill:#2DB56F;}</style><g>	<g>		<g>			<path class="st0" d="M453.9,368.3c-85.5,85.5-224.7,85.5-310.2,0c-85.5-85.5-85.5-224.7,0-310.2L92,6.4     C-22.2,120.6-22.2,305.8,92,420c114.2,114.2,299.4,114.2,413.6,0L453.9,368.3z"></path>			<path class="st0" d="M373.5,359.8c10.1-5.2,10-25.7-0.3-46c-10.3-20.2-26.9-32.5-37-27.3c-10.1,5.2-10,25.7,0.3,46     C346.8,352.7,363.4,364.9,373.5,359.8z"></path>			<path class="st0" d="M152.3,138.5c-5.2,10.1,7.1,26.7,27.3,37c20.2,10.3,40.8,10.5,46,0.3c5.2-10.1-7.1-26.7-27.3-37     C178,128.5,157.4,128.4,152.3,138.5z"></path>			<path class="st0" d="M182.5,329.5c8,8,27.6,1.5,43.6-14.5c16.1-16.1,22.6-35.6,14.5-43.6c-8-8-27.6-1.5-43.6,14.5     C181,301.9,174.5,321.5,182.5,329.5z"></path>			<path class="st0" d="M273.1,375.7c11.2,1.8,23.2-15,26.7-37.4c3.6-22.4-2.7-42.1-13.9-43.8c-11.2-1.8-23.2,15-26.7,37.4     C255.7,354.3,261.9,373.9,273.1,375.7z"></path>			<path class="st0" d="M136.4,238.9c1.8,11.2,21.4,17.4,43.8,13.9c22.4-3.6,39.2-15.5,37.4-26.7c-1.8-11.2-21.4-17.4-43.8-13.9     C151.3,215.7,134.6,227.7,136.4,238.9z"></path>		</g>	</g></g></svg>