<svg width="512" height="512" viewBox="0 0 512 512" fill="none" xmlns="http://www.w3.org/2000/svg">
<rect width="512" height="512" fill="white"/>
<path d="M203.322 278.871C198.122 278.871 194.136 277.657 191.863 276.167V222.263H198.053V241.064C199.973 240.064 202.108 239.281 205.887 239.281C214.712 239.281 220.764 246.687 220.764 258.297C220.764 270.621 214.712 278.88 203.322 278.88V278.871ZM204.321 242.984C201.471 242.984 199.835 243.484 198.053 244.483V273.893C199.474 274.608 201.471 274.824 203.46 274.824C211.363 274.824 214.496 268.201 214.496 258.512C214.496 250.106 211.578 242.984 204.321 242.984Z" fill="#14625D"/>
<path d="M242.045 278.872C232.075 278.872 227.452 274.532 227.452 267.547C227.452 257.368 236.991 254.371 248.88 253.165V250.814C248.88 244.906 245.325 243.192 240.409 243.192C236.707 243.192 233.289 244.544 231.154 245.612L229.656 241.909C231.86 240.694 236.13 239.058 241.399 239.058C248.519 239.058 254.777 242.124 254.777 251.52V276.16C251.859 277.796 247.374 278.864 242.036 278.864L242.045 278.872ZM248.88 256.369C239.195 257.583 233.435 259.641 233.435 267.41C233.435 272.964 236.853 275.247 242.544 275.247C244.963 275.247 247.313 274.816 248.88 273.964V256.377V256.369Z" fill="#14625D"/>
<path d="M286.467 278.156V250.597C286.467 247.04 284.969 243.121 278.426 243.121C274.871 243.121 273.157 243.621 271.169 244.474V278.156H264.901V241.769C268.319 240.133 272.804 239.065 278.926 239.065C289.601 239.065 292.734 244.973 292.734 250.459V278.165H286.467V278.156Z" fill="#14625D"/>
<path d="M315.945 278.871C307.542 278.871 301.353 271.327 301.353 258.934C301.353 246.54 307.542 239.065 316.091 239.065C320.792 239.065 323.349 240.564 324.563 241.631L323.065 245.266C321.928 244.413 320.215 243.414 317.365 243.414C310.392 243.414 307.68 249.753 307.68 258.727C307.68 267.701 310.952 274.255 317.15 274.255C319.785 274.255 321.567 273.402 322.987 272.403L324.554 276.322C323.056 277.674 320.215 278.888 315.936 278.888L315.945 278.871Z" fill="#14625D"/>
<path d="M345.63 278.871C335.17 278.871 330.607 270.259 330.607 259.002C330.607 247.746 335.23 239.065 345.552 239.065C355.874 239.065 360.575 247.54 360.575 259.002C360.575 270.465 356.021 278.871 345.63 278.871ZM345.63 243.053C338.295 243.053 336.874 251.243 336.874 259.002C336.874 266.762 338.441 274.53 345.63 274.53C352.818 274.53 354.316 266.702 354.316 259.002C354.316 251.303 352.965 243.053 345.63 243.053Z" fill="#14625D"/>
<path d="M401.518 278.872C391.549 278.872 386.926 274.532 386.926 267.547C386.926 257.368 396.465 254.371 408.354 253.165V250.814C408.354 244.906 404.798 243.192 399.882 243.192C396.181 243.192 392.763 244.544 390.628 245.612L389.13 241.909C391.334 240.694 395.612 239.058 400.872 239.058C407.992 239.058 414.26 242.124 414.26 251.52V276.16C411.341 277.796 406.856 278.864 401.518 278.864V278.872ZM408.354 256.369C398.669 257.583 392.909 259.641 392.909 267.41C392.909 272.964 396.327 275.247 402.017 275.247C404.437 275.247 406.787 274.816 408.354 273.964V256.377V256.369Z" fill="#14625D"/>
<path d="M439.39 243.903C436.256 242.973 432.7 243.266 430.634 244.618V278.163H424.367V241.845C428.137 239.924 431.77 238.925 440.879 239.141L439.381 243.912L439.39 243.903Z" fill="#14625D"/>
<path d="M458.751 278.871C453.551 278.871 449.565 277.657 447.292 276.167V222.263H453.482V241.064C455.402 240.064 457.537 239.281 461.316 239.281C470.14 239.281 476.193 246.687 476.193 258.297C476.193 270.621 470.14 278.88 458.751 278.88V278.871ZM459.749 242.984C456.9 242.984 455.264 243.484 453.482 244.483V273.893C454.902 274.608 456.9 274.824 458.888 274.824C466.791 274.824 469.925 268.201 469.925 258.512C469.925 250.106 467.007 242.984 459.749 242.984Z" fill="#14625D"/>
<path d="M488.367 232.364C486.301 232.364 484.665 230.796 484.665 228.945C484.665 227.093 486.301 225.457 488.367 225.457C490.433 225.457 492 227.024 492 228.945C492 230.865 490.364 232.364 488.367 232.364ZM485.233 278.155V239.77H491.501V278.155H485.233Z" fill="#14625D"/>
<path d="M124.919 188.683C115.543 184.403 105.135 182 94.1584 182C53.1965 182 20 215.218 20 256.186C20 279.586 30.8388 300.445 47.7556 314.043C55.7534 299.756 98.8159 222.814 106.426 208.819C112.014 198.553 118.445 192.369 124.91 188.692L124.919 188.683Z" fill="#14625D"/>
<path d="M132.399 226.337C134.689 222.246 101.449 281.731 96.2491 291.299C82.2508 317.05 62.9062 317.084 51.043 316.524C63.199 325.231 78.0754 330.373 94.1657 330.373C115.043 330.373 133.888 321.735 147.37 307.843C146.741 304.424 138.761 260.743 132.407 226.337H132.399Z" fill="#14625D"/>
<path d="M169.789 257.047C169.281 254.454 168.42 249.916 167.326 244.068C167.128 243.017 166.922 241.924 166.715 240.795C163.9 225.689 159.854 203.728 156.195 183.799C156.178 183.825 148.731 197.131 139.046 214.459C136.919 218.266 134.689 222.253 132.399 226.344C138.753 260.75 146.742 304.431 147.362 307.85C147.388 307.988 147.405 308.074 147.405 308.074C155.911 301.365 176.22 289.902 169.789 257.055V257.047Z" fill="#BBBDBF"/>
<path d="M124.918 188.681C118.453 192.367 112.013 198.542 106.435 208.808C98.8242 222.803 55.7617 299.754 47.7639 314.033C46.9374 315.505 46.4897 316.315 46.4897 316.315C47.8328 316.349 49.3652 316.436 51.0525 316.522C62.9158 317.081 82.2604 317.047 96.2587 291.296C102.233 280.316 130.041 230.563 145.597 202.754C151.908 191.463 156.212 183.789 156.212 183.789C149.161 183.617 136.988 181.817 124.927 188.681H124.918Z" fill="white"/>
</svg>
