<svg width="512" height="512" viewBox="0 0 512 512" fill="none" xmlns="http://www.w3.org/2000/svg">
<rect width="512" height="512" fill="white"/>
<path d="M301.606 230.662C294.691 230.662 290.176 226.726 290.176 220.817C290.176 215.894 293.527 211.952 297.469 211.952C299.041 211.952 300.424 212.543 300.424 214.121C300.424 215.102 300.028 215.894 301.015 215.894C301.606 215.894 302.197 215.303 302.197 213.725C302.197 211.757 300.424 210.179 297.865 210.179H297.268C297.535 209.626 297.67 209.019 297.664 208.406C297.674 208.041 297.609 207.678 297.474 207.339C297.338 206.999 297.135 206.691 296.877 206.433C296.619 206.175 296.311 205.972 295.972 205.837C295.632 205.701 295.269 205.636 294.904 205.646C293.527 205.646 292.144 206.438 292.144 207.425C292.134 207.506 292.142 207.587 292.168 207.664C292.195 207.741 292.238 207.81 292.296 207.867C292.354 207.924 292.425 207.966 292.502 207.991C292.579 208.016 292.661 208.022 292.742 208.01C293.326 208.01 293.527 207.425 294.508 207.425C294.694 207.405 294.882 207.428 295.058 207.49C295.235 207.552 295.395 207.653 295.527 207.784C295.66 207.916 295.761 208.076 295.824 208.252C295.887 208.428 295.91 208.616 295.891 208.802C295.891 210.179 294.709 210.77 293.722 211.361C292.082 212.323 290.726 213.703 289.792 215.359C288.857 217.016 288.378 218.89 288.403 220.791C288.403 226.305 291.547 229.851 296.086 231.423L293.131 235.956C289.189 235.956 287.222 238.911 283.701 245.21C283.537 244.403 283.089 243.68 282.438 243.174C281.788 242.668 280.978 242.411 280.155 242.45C277.986 242.45 276.603 244.028 276.603 246.222C276.58 246.456 276.649 246.69 276.796 246.873C276.943 247.056 277.155 247.175 277.389 247.203C277.52 247.212 277.652 247.193 277.775 247.148C277.899 247.102 278.011 247.03 278.105 246.937C278.198 246.844 278.271 246.732 278.317 246.609C278.364 246.486 278.384 246.354 278.376 246.222C278.354 245.974 278.384 245.724 278.463 245.488C278.542 245.251 278.669 245.034 278.836 244.849C279.003 244.663 279.206 244.515 279.433 244.411C279.66 244.308 279.906 244.253 280.155 244.248C281.532 244.248 282.123 245.235 282.123 246.417C282.17 247.773 281.753 249.104 280.941 250.19C276.804 256.885 271.089 260.249 266.16 260.249C261.828 260.249 259.244 257.69 259.244 255.131C259.244 252.767 260.627 250.799 263.016 250.799C264.588 250.799 265.575 251.78 265.575 253.157C265.575 254.339 264.588 254.339 264.588 254.93C264.588 255.326 264.984 255.521 265.38 255.521C266.562 255.521 267.354 254.144 267.354 252.767C267.354 250.598 265.575 248.995 263.016 248.995C261.98 248.99 260.963 249.284 260.089 249.841C259.215 250.399 258.52 251.196 258.087 252.139C257.656 251.197 256.962 250.399 256.089 249.842C255.216 249.284 254.201 248.99 253.165 248.995C250.599 248.995 248.827 250.573 248.827 252.767C248.827 254.144 249.619 255.521 250.801 255.521C251.19 255.521 251.587 255.326 251.587 254.93C251.587 254.339 250.599 254.339 250.599 253.157C250.599 251.78 251.587 250.799 253.165 250.799C255.529 250.799 256.905 252.767 256.905 255.131C256.905 257.69 254.34 260.249 249.99 260.249C245.067 260.249 239.352 256.904 235.209 250.19C234.228 248.612 234.027 247.826 234.027 246.417C234.027 245.235 234.618 244.248 236.001 244.248C236.25 244.252 236.495 244.308 236.722 244.411C236.949 244.515 237.151 244.664 237.318 244.849C237.484 245.034 237.611 245.252 237.689 245.488C237.768 245.724 237.796 245.974 237.774 246.222C237.767 246.354 237.787 246.485 237.834 246.608C237.881 246.731 237.954 246.842 238.047 246.935C238.14 247.027 238.252 247.099 238.375 247.145C238.498 247.192 238.63 247.211 238.761 247.203C238.994 247.175 239.207 247.056 239.354 246.873C239.501 246.69 239.57 246.456 239.547 246.222C239.547 244.053 238.17 242.45 236.001 242.45C235.178 242.411 234.368 242.668 233.717 243.174C233.067 243.68 232.619 244.403 232.455 245.21C228.903 238.923 226.935 235.956 223.025 235.956L220.07 231.423C224.603 229.851 227.759 226.305 227.759 220.791C227.784 218.889 227.304 217.014 226.369 215.358C225.433 213.701 224.075 212.322 222.434 211.361C221.453 210.77 220.265 210.179 220.265 208.802C220.246 208.616 220.269 208.428 220.332 208.252C220.395 208.076 220.496 207.916 220.628 207.784C220.761 207.653 220.921 207.552 221.097 207.49C221.274 207.428 221.462 207.405 221.648 207.425C222.635 207.425 222.83 208.01 223.421 208.01C223.5 208.021 223.582 208.014 223.658 207.989C223.734 207.963 223.804 207.921 223.861 207.864C223.918 207.808 223.962 207.738 223.988 207.662C224.014 207.586 224.022 207.505 224.012 207.425C224.012 206.438 222.635 205.646 221.252 205.646C220.887 205.636 220.523 205.701 220.184 205.837C219.845 205.972 219.537 206.175 219.279 206.433C219.021 206.691 218.818 206.999 218.682 207.339C218.547 207.678 218.482 208.041 218.492 208.406C218.486 209.019 218.621 209.626 218.888 210.179H218.24C215.681 210.179 213.908 211.757 213.908 213.725C213.908 215.303 214.499 215.894 215.09 215.894C216.071 215.894 215.681 215.102 215.681 214.121C215.681 212.543 217.058 211.952 218.636 211.952C222.578 211.952 225.923 215.894 225.923 220.817C225.923 226.726 221.396 230.662 214.499 230.662C206.42 230.662 200.309 224.752 200.309 216.478C200.309 208.406 205.037 202.892 210.369 197.969L214.902 193.631C220.617 188.319 222.981 182.799 222.981 175.908C222.981 168.427 218.448 160.153 208.992 156.016C210.96 155.425 212.135 153.457 212.135 151.093C212.135 149.515 211.544 148.534 211.544 147.352C211.544 144.988 212.928 143.58 214.895 143.58C215.653 143.556 216.389 143.833 216.942 144.351C217.496 144.868 217.822 145.583 217.85 146.34C217.865 146.628 217.819 146.916 217.715 147.185C217.611 147.455 217.453 147.699 217.249 147.904C217.045 148.108 216.801 148.267 216.532 148.372C216.263 148.476 215.976 148.523 215.688 148.509C215.097 148.509 214.7 148.509 214.7 149.1C214.7 149.691 215.291 149.886 216.077 149.886C216.928 149.915 217.76 149.63 218.414 149.085C219.068 148.54 219.499 147.773 219.623 146.931C220.044 147.178 220.519 147.314 221.006 147.327C221.32 147.34 221.633 147.287 221.925 147.173C222.218 147.058 222.483 146.884 222.705 146.662C222.928 146.44 223.101 146.175 223.216 145.882C223.33 145.59 223.383 145.277 223.37 144.963C223.37 144.567 223.175 143.976 222.584 143.976C222.188 143.976 221.993 144.372 221.993 144.762C222.001 144.894 221.98 145.025 221.933 145.148C221.886 145.271 221.814 145.383 221.721 145.476C221.627 145.569 221.516 145.642 221.393 145.689C221.269 145.736 221.138 145.756 221.006 145.749C220.611 145.712 220.234 145.562 219.92 145.318C219.606 145.075 219.368 144.746 219.233 144.372C218.797 143.603 218.168 142.961 217.406 142.511C216.645 142.061 215.78 141.819 214.895 141.807C213.714 141.787 212.565 142.194 211.66 142.955C210.755 143.715 210.156 144.777 209.973 145.944C208.619 144.575 207.096 143.386 205.44 142.405C207.018 141.417 208.395 140.632 209.973 139.443C212.47 137.569 214.786 135.464 216.888 133.156L227.727 121.337C237.158 110.9 243.294 108.341 249.204 108.341C254.321 108.341 256.887 110.9 256.887 113.855C256.887 116.024 255.956 117.627 254.479 118.419C253.584 117.483 252.983 116.305 252.75 115.031C252.555 114.056 252.354 114.056 252.159 114.056C251.763 114.056 251.763 114.446 251.763 114.842C251.719 116.28 252.088 117.7 252.825 118.935C252.604 118.96 252.381 118.973 252.159 118.973C250.191 118.973 249.015 117.992 249.015 116.81C249.005 116.626 249.035 116.443 249.104 116.272C249.172 116.102 249.277 115.948 249.411 115.823C249.807 115.433 249.612 115.238 249.411 115.238C248.625 115.238 247.833 116.219 247.833 117.401C247.833 118.778 249.015 120.746 252.366 120.746C253.005 120.749 253.641 120.656 254.252 120.469C255.368 121.29 256.718 121.732 258.103 121.732C259.489 121.732 260.838 121.29 261.954 120.469C262.565 120.657 263.201 120.75 263.84 120.746C267.191 120.746 268.373 118.778 268.373 117.401C268.373 116.219 267.587 115.238 266.795 115.238C266.6 115.238 266.399 115.433 266.795 115.823C266.929 115.948 267.034 116.102 267.102 116.272C267.171 116.443 267.201 116.626 267.191 116.81C267.191 117.992 266.009 118.973 264.047 118.973C263.825 118.973 263.602 118.96 263.381 118.935C264.118 117.7 264.487 116.28 264.444 114.842C264.444 114.446 264.444 114.056 264.047 114.056C263.853 114.056 263.658 114.056 263.463 115.031C263.23 116.306 262.627 117.485 261.728 118.419C260.25 117.627 259.32 116.024 259.32 113.855C259.32 110.9 261.885 108.341 267.009 108.341C272.919 108.341 279.03 110.9 288.485 121.337L299.324 133.156C301.379 135.512 303.699 137.622 306.24 139.443C307.812 140.632 309.195 141.417 310.773 142.405C309.116 143.384 307.592 144.574 306.24 145.944C306.055 144.776 305.454 143.714 304.549 142.954C303.643 142.194 302.493 141.787 301.311 141.807C300.427 141.82 299.562 142.063 298.801 142.513C298.04 142.963 297.41 143.604 296.973 144.372C296.838 144.746 296.6 145.075 296.286 145.318C295.972 145.562 295.596 145.712 295.2 145.749C295.069 145.757 294.937 145.736 294.814 145.689C294.692 145.642 294.58 145.569 294.488 145.476C294.395 145.383 294.323 145.271 294.277 145.148C294.23 145.025 294.211 144.893 294.219 144.762C294.219 144.372 294.018 143.976 293.628 143.976C293.037 143.976 292.842 144.567 292.842 144.963C292.83 145.277 292.882 145.589 292.996 145.881C293.11 146.173 293.283 146.438 293.505 146.66C293.726 146.882 293.991 147.056 294.283 147.171C294.574 147.285 294.887 147.339 295.2 147.327C295.687 147.315 296.163 147.178 296.583 146.931C296.708 147.773 297.138 148.54 297.792 149.085C298.446 149.63 299.278 149.915 300.129 149.886C300.915 149.886 301.506 149.691 301.506 149.1C301.506 148.509 301.116 148.509 300.525 148.509C300.233 148.54 299.937 148.505 299.66 148.407C299.383 148.308 299.131 148.15 298.923 147.942C298.715 147.734 298.557 147.482 298.458 147.205C298.36 146.928 298.325 146.633 298.356 146.34C298.384 145.583 298.71 144.868 299.264 144.351C299.818 143.833 300.554 143.556 301.311 143.58C303.285 143.58 304.662 144.963 304.662 147.352C304.662 148.534 304.071 149.515 304.071 151.093C304.071 153.457 305.253 155.425 307.214 156.016C297.784 160.153 293.226 168.427 293.226 175.908C293.226 182.824 295.59 188.319 301.305 193.631L305.837 197.969C311.156 202.892 315.897 208.406 315.897 216.478C315.897 224.752 309.786 230.662 301.707 230.662M258.157 267.297C257.028 265.103 255.639 263.053 254.02 261.192C255.82 260.493 257.295 259.148 258.157 257.42C259.019 259.147 260.494 260.492 262.293 261.192C260.676 263.055 259.287 265.104 258.157 267.297ZM260.15 119.551C259.522 119.829 258.843 119.973 258.157 119.973C257.47 119.973 256.791 119.829 256.164 119.551C257.057 118.859 257.746 117.938 258.157 116.885C258.571 117.936 259.26 118.856 260.15 119.551ZM319.047 208.01C318.535 207.986 318.026 208.103 317.575 208.346C317.124 208.59 316.749 208.952 316.488 209.393C314.91 205.847 313.344 202.477 306.428 196.19C307.323 196.459 308.254 196.59 309.188 196.58C311.357 196.58 313.721 195.989 315.098 194.612C315.277 195.252 315.665 195.814 316.201 196.207C316.737 196.601 317.389 196.803 318.053 196.781C320.222 196.781 321.008 195.404 321.008 193.826C321.008 193.235 320.813 192.644 320.222 192.644C319.04 192.644 320.027 195.008 318.053 195.008C317.856 195.005 317.661 194.961 317.482 194.878C317.303 194.795 317.143 194.675 317.013 194.526C316.883 194.377 316.786 194.203 316.728 194.014C316.67 193.825 316.653 193.626 316.676 193.43C316.676 192.449 317.267 191.267 317.267 189.884C317.325 188.552 316.927 187.241 316.138 186.166C315.349 185.091 314.217 184.318 312.929 183.974C312.332 183.857 311.792 183.54 311.398 183.075C311.005 182.61 310.782 182.024 310.767 181.416C310.767 179.844 311.948 179.643 312.734 179.643C313.52 179.643 314.111 179.844 314.111 179.247C314.111 178.649 313.52 178.266 312.338 178.266C310.961 178.266 308.987 179.247 308.987 181.409C308.977 181.851 309.059 182.289 309.229 182.696C309.399 183.104 309.653 183.471 309.974 183.773C309.043 183.934 308.197 184.416 307.584 185.137C306.972 185.857 306.632 186.77 306.623 187.715C306.623 189.092 307.019 190.469 308.006 190.469C309.188 190.469 308.201 189.482 308.201 187.91C308.201 186.137 309.779 185.351 311.345 185.351C313.508 185.351 315.482 187.319 315.482 189.878C315.482 192.833 313.118 194.801 309.371 194.801C307.89 194.872 306.412 194.608 305.047 194.029C303.682 193.45 302.465 192.571 301.487 191.456C297.35 186.923 294.986 182.987 294.986 175.896C294.986 166.836 301.487 158.958 310.949 156.406C311.974 156.11 312.874 155.489 313.514 154.636C314.154 153.783 314.498 152.744 314.495 151.678C314.495 149.71 313.313 148.132 311.351 148.132C310.559 148.132 309.968 148.327 309.968 148.918C309.968 149.509 310.559 149.509 310.955 149.509C311.475 149.569 311.95 149.829 312.281 150.234C312.612 150.639 312.772 151.157 312.728 151.678C312.729 152.109 312.641 152.535 312.471 152.931C312.3 153.326 312.049 153.683 311.735 153.977C311.421 154.272 311.05 154.499 310.644 154.644C310.238 154.79 309.807 154.85 309.377 154.821C307.208 154.821 305.831 153.25 305.831 151.049C305.831 146.912 310.76 144.133 314.501 142.386C311.15 140.808 309.968 140.217 307.409 138.249C307.141 137.998 306.931 137.691 306.794 137.35C306.657 137.009 306.597 136.642 306.617 136.275C306.617 135.294 307.208 134.502 308 134.502C308.131 134.494 308.263 134.515 308.386 134.562C308.508 134.609 308.62 134.682 308.712 134.775C308.805 134.868 308.877 134.98 308.923 135.103C308.969 135.226 308.989 135.358 308.981 135.489C308.981 136.08 308.591 136.08 308.591 136.47C308.58 136.55 308.587 136.632 308.612 136.709C308.638 136.786 308.681 136.856 308.739 136.913C308.796 136.97 308.866 137.014 308.943 137.039C309.02 137.065 309.102 137.072 309.182 137.061C309.578 137.061 310.559 136.671 310.559 135.093C310.566 134.763 310.503 134.436 310.374 134.133C310.245 133.83 310.054 133.558 309.812 133.335C309.57 133.111 309.283 132.942 308.971 132.837C308.659 132.733 308.328 132.696 308 132.729C307.569 132.728 307.143 132.815 306.747 132.986C306.352 133.157 305.995 133.407 305.701 133.722C305.406 134.036 305.179 134.407 305.034 134.813C304.888 135.219 304.828 135.65 304.857 136.08C303.316 134.806 301.868 133.424 300.525 131.943L294.238 125.027C292.465 123.059 293.446 119.318 296.011 119.318C296.259 119.298 296.509 119.328 296.745 119.408C296.981 119.487 297.198 119.614 297.383 119.781C297.568 119.948 297.717 120.151 297.82 120.377C297.924 120.604 297.98 120.849 297.985 121.098C297.985 122.871 296.206 122.072 296.206 123.059C296.195 123.165 296.208 123.272 296.243 123.372C296.279 123.473 296.337 123.564 296.412 123.639C296.487 123.714 296.578 123.772 296.679 123.807C296.779 123.843 296.886 123.856 296.992 123.845C297.372 123.85 297.748 123.775 298.098 123.626C298.447 123.477 298.762 123.257 299.022 122.979C299.281 122.702 299.48 122.373 299.606 122.015C299.732 121.656 299.781 121.275 299.752 120.897C299.7 119.956 299.276 119.075 298.575 118.447C297.873 117.818 296.951 117.494 296.011 117.546C293.446 117.546 291.679 119.513 291.679 122.273L289.705 120.104C281.035 110.674 273.943 106.518 267.072 106.518C264.848 106.482 262.662 107.098 260.785 108.291C259.846 107.171 258.989 105.986 258.219 104.745C257.452 105.986 256.597 107.171 255.661 108.291C253.783 107.1 251.597 106.483 249.374 106.518C242.458 106.518 235.379 110.655 226.74 120.104L224.766 122.273C224.766 119.513 222.993 117.546 220.428 117.546C219.488 117.496 218.567 117.82 217.866 118.449C217.164 119.077 216.741 119.957 216.687 120.897C216.657 121.275 216.707 121.656 216.833 122.015C216.958 122.373 217.157 122.702 217.417 122.979C217.677 123.257 217.991 123.477 218.341 123.626C218.69 123.775 219.067 123.85 219.447 123.845C219.553 123.856 219.66 123.843 219.76 123.807C219.861 123.772 219.952 123.714 220.027 123.639C220.102 123.564 220.16 123.473 220.195 123.372C220.231 123.272 220.244 123.165 220.233 123.059C220.233 122.072 218.46 122.871 218.46 121.098C218.464 120.849 218.52 120.604 218.623 120.377C218.726 120.151 218.874 119.948 219.058 119.781C219.243 119.615 219.459 119.487 219.695 119.408C219.931 119.328 220.18 119.298 220.428 119.318C222.993 119.318 223.974 123.091 222.207 125.027L215.92 131.943C214.575 133.424 213.125 134.806 211.582 136.08C211.611 135.65 211.55 135.219 211.405 134.813C211.26 134.407 211.033 134.036 210.738 133.722C210.443 133.407 210.087 133.157 209.691 132.986C209.296 132.815 208.869 132.728 208.439 132.729C208.111 132.696 207.779 132.733 207.467 132.837C207.154 132.942 206.867 133.111 206.625 133.334C206.383 133.558 206.19 133.83 206.061 134.133C205.931 134.436 205.867 134.763 205.873 135.093C205.873 136.671 206.861 137.061 207.257 137.061C207.336 137.071 207.418 137.063 207.494 137.037C207.57 137.011 207.639 136.967 207.696 136.91C207.752 136.853 207.795 136.783 207.82 136.707C207.845 136.63 207.853 136.549 207.841 136.47C207.841 136.08 207.452 136.08 207.452 135.489C207.443 135.357 207.463 135.225 207.51 135.101C207.556 134.978 207.629 134.866 207.722 134.772C207.816 134.679 207.928 134.607 208.051 134.56C208.175 134.513 208.307 134.493 208.439 134.502C209.224 134.502 209.815 135.294 209.815 136.275C209.836 136.641 209.777 137.008 209.641 137.349C209.505 137.69 209.297 137.997 209.03 138.249C206.666 140.613 205.257 140.808 201.931 142.386C205.704 144.152 210.601 146.912 210.601 151.049C210.601 153.218 209.224 154.821 207.055 154.821C206.625 154.85 206.194 154.79 205.789 154.644C205.383 154.499 205.011 154.272 204.697 153.977C204.383 153.683 204.133 153.326 203.962 152.931C203.791 152.535 203.704 152.109 203.704 151.678C203.66 151.157 203.82 150.639 204.151 150.234C204.482 149.829 204.958 149.569 205.477 149.509C205.873 149.509 206.464 149.509 206.464 148.918C206.464 148.327 205.873 148.132 205.088 148.132C203.113 148.132 201.944 149.71 201.944 151.678C201.941 152.744 202.285 153.783 202.925 154.636C203.565 155.489 204.465 156.11 205.49 156.406C214.952 159.166 221.453 166.842 221.453 175.896C221.453 182.987 218.894 186.728 214.952 191.456C213.974 192.571 212.757 193.45 211.392 194.029C210.027 194.608 208.549 194.872 207.068 194.801C203.327 194.801 200.963 192.833 200.963 189.878C200.963 187.319 202.931 185.351 205.1 185.351C206.678 185.351 208.244 186.137 208.244 187.91C208.244 189.482 207.263 190.469 208.445 190.469C209.426 190.469 209.822 189.092 209.822 187.715C209.813 186.77 209.473 185.857 208.861 185.137C208.248 184.416 207.403 183.934 206.471 183.773C206.794 183.472 207.049 183.105 207.219 182.698C207.39 182.29 207.471 181.851 207.458 181.409C207.458 179.24 205.484 178.266 204.107 178.266C202.925 178.266 202.334 178.662 202.334 179.247C202.334 179.831 202.925 179.643 203.711 179.643C204.497 179.643 205.685 179.844 205.685 181.416C205.668 182.025 205.443 182.61 205.049 183.076C204.655 183.541 204.114 183.858 203.516 183.974C202.229 184.319 201.098 185.093 200.311 186.168C199.523 187.242 199.126 188.553 199.184 189.884C199.184 191.267 199.769 192.449 199.769 193.43C199.794 193.626 199.777 193.826 199.719 194.015C199.661 194.204 199.564 194.379 199.434 194.528C199.304 194.677 199.144 194.797 198.964 194.88C198.785 194.962 198.59 195.006 198.392 195.008C196.424 195.008 197.411 192.644 196.223 192.644C195.632 192.644 195.437 193.235 195.437 193.826C195.437 195.404 196.223 196.781 198.392 196.781C199.056 196.804 199.709 196.602 200.245 196.209C200.781 195.815 201.169 195.253 201.347 194.612C202.73 195.989 205.119 196.58 207.263 196.58C208.195 196.59 209.124 196.459 210.017 196.19C203.101 202.477 201.542 205.841 199.957 209.393C199.696 208.953 199.319 208.592 198.869 208.348C198.418 208.105 197.91 207.988 197.399 208.01C195.424 208.01 194.437 209.198 194.437 210.971C194.437 211.361 194.437 212.543 195.424 212.543C196.21 212.543 195.82 211.757 195.82 211.166C195.822 210.968 195.866 210.773 195.949 210.593C196.032 210.414 196.152 210.254 196.301 210.124C196.45 209.993 196.625 209.896 196.814 209.839C197.003 209.781 197.202 209.764 197.399 209.789C198.97 209.789 199.366 211.166 198.97 213.335C198.808 214.375 198.743 215.427 198.775 216.478C198.775 225.739 205.691 232.441 214.738 232.441C216.058 232.404 217.374 232.269 218.674 232.039L221.434 236.182C220.486 236.45 219.649 237.014 219.046 237.793C218.443 238.571 218.105 239.523 218.083 240.508C218.067 241.674 218.51 242.8 219.315 243.644C220.12 244.488 221.224 244.982 222.39 245.022C223.968 245.022 225.15 244.229 225.15 243.444C225.159 243.338 225.146 243.232 225.109 243.132C225.073 243.032 225.016 242.941 224.941 242.866C224.866 242.791 224.775 242.734 224.675 242.698C224.576 242.662 224.469 242.648 224.364 242.658C223.766 242.658 223.766 243.249 222.39 243.249C222.025 243.257 221.662 243.192 221.323 243.056C220.984 242.92 220.677 242.717 220.419 242.459C220.161 242.201 219.958 241.894 219.822 241.555C219.686 241.216 219.621 240.853 219.63 240.489C219.63 238.917 221.013 237.735 222.981 237.735C226.753 237.735 228.501 242.067 231.059 246.398L233.624 250.737C237.761 257.822 244.463 261.959 249.971 261.959C250.764 261.991 251.558 261.926 252.335 261.764C254.699 264.128 257.069 268.46 258.05 270.428C259.037 268.46 261.401 264.141 263.765 261.764C264.542 261.926 265.336 261.991 266.129 261.959C271.649 261.959 278.344 257.822 282.475 250.737L285.04 246.398C287.599 242.067 289.372 237.735 293.119 237.735C295.087 237.735 296.47 238.917 296.47 240.489C296.478 240.853 296.413 241.216 296.277 241.555C296.142 241.894 295.939 242.201 295.681 242.459C295.423 242.717 295.115 242.92 294.776 243.056C294.437 243.192 294.075 243.257 293.71 243.249C292.333 243.249 292.333 242.658 291.742 242.658C291.636 242.647 291.529 242.66 291.428 242.696C291.328 242.731 291.236 242.789 291.16 242.864C291.085 242.939 291.027 243.03 290.99 243.13C290.954 243.23 290.94 243.337 290.95 243.444C290.95 244.229 292.132 245.022 293.71 245.022C294.308 245.032 294.902 244.922 295.456 244.697C296.011 244.473 296.515 244.14 296.938 243.717C297.361 243.294 297.694 242.79 297.918 242.235C298.143 241.681 298.253 241.087 298.243 240.489C298.221 239.504 297.883 238.552 297.28 237.774C296.677 236.995 295.84 236.431 294.892 236.163L297.652 232.02C298.954 232.251 300.272 232.385 301.594 232.422C310.66 232.448 317.575 225.739 317.575 216.478C317.608 215.427 317.542 214.375 317.38 213.335C316.991 211.166 317.38 209.789 318.959 209.789C319.155 209.764 319.354 209.781 319.543 209.839C319.732 209.896 319.907 209.993 320.056 210.124C320.205 210.254 320.325 210.414 320.408 210.593C320.491 210.773 320.535 210.968 320.537 211.166C320.537 211.757 320.14 212.543 320.926 212.543C321.913 212.543 321.913 211.361 321.913 210.971C321.913 209.198 320.926 208.01 318.959 208.01M313.803 241.878C305.133 250.743 292.327 257.042 280.111 262.952C272.026 266.894 264.148 270.83 258.037 275.526C251.932 270.799 244.048 266.863 235.97 262.952C223.748 257.042 210.941 250.743 202.277 241.878C191.237 230.649 185.931 219.245 185.931 206.231C185.931 195.197 190.269 185.942 200.121 173.538C200.907 172.545 201.693 171.564 201.693 170.772C201.693 169.979 200.907 168.414 200.511 167.628L193.595 152.652C192.023 149.308 190.451 146.158 190.451 142.807C190.451 140.053 192.224 138.079 194.588 136.111L204.44 127.253C204.611 127.07 204.722 126.84 204.756 126.592C204.791 126.344 204.749 126.092 204.635 125.87L201.491 119.369C201.095 118.583 201.095 117.992 201.686 117.596C211.343 111.101 219.422 109.127 231.047 105.977C242.081 103.022 251.939 100.464 258.043 96.5468C264.154 100.489 274.006 103.048 285.04 105.977C296.665 109.121 304.53 111.491 314.4 117.596C314.991 117.992 314.991 118.583 314.595 119.369L311.452 125.87C311.344 126.094 311.305 126.345 311.34 126.591C311.374 126.837 311.481 127.067 311.647 127.253L321.505 136.111C323.862 138.079 325.635 140.053 325.635 142.807C325.635 146.158 324.064 149.308 322.492 152.652L315.576 167.628C315.186 168.414 314.394 169.992 314.394 170.772C314.394 171.551 315.186 172.545 315.972 173.538C326.61 185.351 330.162 195.197 330.162 206.231C330.162 219.226 324.837 230.649 313.816 241.878M323.077 174.129C321.304 171.96 320.323 170.985 320.323 170.181C320.323 169.376 320.908 168.219 321.505 166.836L327.415 153.841C329.188 149.899 330.759 146.548 330.759 142.417C330.759 139.456 329.577 136.501 326.622 133.942L318.147 126.662C317.807 126.38 317.581 125.985 317.509 125.55C317.438 125.114 317.526 124.667 317.758 124.292L320.901 117.206C321.027 116.97 321.057 116.694 320.985 116.436C320.912 116.178 320.742 115.959 320.511 115.823C310.855 109.328 299.821 105.386 289.372 102.431C278.935 99.6778 264.94 95.7358 258.043 90.4169C251.128 95.7358 237.158 99.4766 226.715 102.431C216.272 105.386 205.232 109.347 195.582 115.823C195.351 115.959 195.181 116.178 195.107 116.435C195.033 116.693 195.061 116.969 195.185 117.206L198.329 124.292C198.558 124.669 198.643 125.115 198.571 125.55C198.498 125.985 198.272 126.379 197.933 126.662L189.458 133.942C186.503 136.501 185.321 139.456 185.321 142.417C185.321 146.548 186.899 149.899 188.672 153.841L194.582 166.836C195.173 168.219 195.764 169.395 195.764 170.181C195.764 170.967 194.777 171.96 193.004 174.129C184.139 185.15 180.593 194.21 180.593 206.231C180.593 222.973 188.867 235.78 198.329 245.424C207.98 255.27 221.384 261.77 233.599 267.68C241.678 271.622 250.153 275.558 258.031 281.864C265.915 275.577 274.377 271.622 282.462 267.68C294.684 261.77 308.283 255.27 317.739 245.424C327.169 235.767 335.475 222.973 335.475 206.231C335.475 194.21 331.929 185.15 323.058 174.129" fill="#00003C"/>
<path d="M271.68 211.386C270.715 213.647 269.138 215.593 267.126 217.006C265.114 218.419 262.748 219.242 260.294 219.383C251.102 220.144 250.964 209.23 250.964 209.23V182.591H251.234C254.19 182.278 257.177 182.534 260.036 183.346C268.323 185.691 274.251 193.166 273.95 201.76C273.825 205.086 273.054 208.355 271.68 211.386ZM250.964 146.001C250.964 146.001 252.932 140.858 260.212 141.405C267.493 141.952 271.491 147.956 271.68 153.86C271.869 159.763 273.447 172.721 258.477 177.958H250.983L250.964 146.001ZM278.093 194.348C277.346 191.507 276.082 188.828 274.364 186.445C270.485 181.214 265.996 179.53 265.808 179.441C266.87 178.846 267.889 178.175 268.857 177.436C271.988 175.051 274.343 171.794 275.628 168.075C277.504 162.769 277.747 157.023 276.326 151.577C273.082 139.443 264.418 137.626 264.418 137.626C264.418 137.626 254.359 133.628 247.443 142.411C247.362 142.285 243.602 136.495 236.944 139.531C231.179 142.706 234.492 147.704 235.913 148.604C235.913 148.604 237.799 149.861 238.88 148.604C239.673 147.673 238.843 146.717 238.428 146.057C237.598 144.756 238.975 143.322 240.905 143.348C242.583 143.348 245.934 144.605 245.934 149.157V210.707C245.934 211.223 245.413 214.479 242.646 214.441C239.88 214.404 238.874 211.48 240.452 209.915C240.351 209.649 240.182 209.415 239.962 209.236C239.673 209.091 235.404 208.972 235.926 213.48C236.447 217.987 241.816 220.15 247.022 217.327C248.295 219.558 250.144 221.406 252.376 222.677C254.608 223.948 257.141 224.595 259.709 224.551C268.819 224.551 274.534 216.912 274.534 216.912C274.534 216.912 281.846 208.041 278.118 194.386" fill="#00003C"/>
<path d="M239.88 205.709C246.531 210.689 254.711 213.194 263.01 212.794C268.636 212.564 274.084 210.754 278.728 207.57C292.188 198.177 286.178 185.993 285.782 184.892C285.782 184.892 282.06 176.43 272.906 173.274C272.906 173.274 266.04 170.967 255.126 170.174C244.212 169.382 239.93 164.692 241.596 158.99C243.262 153.287 251.756 150.685 257.012 150.364C264.493 149.926 271.911 151.946 278.137 156.117C279.226 156.986 280.235 157.949 281.155 158.996C281.155 158.996 282.651 160.964 283.594 159.939C284.399 159.071 283.003 157.845 283.003 157.845C281.495 156.013 280.596 153.756 280.432 151.389C280.282 149.765 280.252 148.132 280.343 146.504C280.413 145.866 280.533 145.236 280.702 144.618C280.865 144.064 280.991 143.272 280.193 143.134C279.532 143.027 279.224 143.763 279.162 143.907C278.37 145.227 277.181 146.263 275.765 146.866C274.348 147.469 272.778 147.608 271.278 147.264C262.476 145.378 257.012 145.441 257.012 145.441C257.012 145.441 246.733 144.712 239.811 152.105C238.289 153.688 237.162 155.609 236.523 157.71C235.884 159.811 235.75 162.033 236.133 164.195C237.768 172.469 246.324 175.512 255.132 175.411C258.618 175.374 262.096 175.763 265.487 176.568C267.389 177 269.252 177.589 271.058 178.329C273.366 179.244 275.44 180.665 277.126 182.487C278.813 184.31 280.069 186.487 280.802 188.859C282.06 193.26 281.601 199.132 273.604 203.904C258.842 212.706 241.075 204.533 233.631 187.181C233.488 186.895 233.237 186.678 232.935 186.577C232.632 186.475 232.301 186.498 232.015 186.64C231.072 187.03 231.594 188.369 231.594 188.369C231.594 188.369 234.36 193.348 233.826 197.272C233.398 199.936 231.99 202.345 229.877 204.024C229.117 204.722 228.174 205.558 228.909 206.281C229.645 207.004 230.412 206.602 231.518 205.652L231.562 205.621C232.782 204.76 234.242 204.306 235.734 204.324C237.227 204.342 238.676 204.831 239.874 205.721" fill="#00003C"/>
<path d="M257.018 146.378V218.899C257.044 221.526 256.467 224.124 255.334 226.494C254.076 229.009 252.008 231.561 248.701 231.561C248.701 231.561 244.828 231.894 243.552 229.442C242.055 226.569 244.57 225.444 244.57 225.444C244.57 225.444 246.318 224.639 245.482 223.287C244.646 221.936 242.785 222.627 242.785 222.627C241.819 223.015 240.941 223.592 240.201 224.324C239.462 225.056 238.876 225.928 238.478 226.89C237.051 230.216 239.396 235.773 245.765 236.39C248.266 236.639 250.789 236.22 253.077 235.176C255.364 234.132 257.334 232.501 258.785 230.448C258.785 230.448 263.438 235.949 270.196 236.848C270.196 236.848 271.007 236.943 271.24 236.603C271.472 236.264 271.529 235.692 270.441 234.944C269.354 234.195 263.104 230.612 263.129 224.306V143.964C263.11 141.744 263.653 139.556 264.709 137.603C265.764 135.651 267.297 133.997 269.165 132.798L269.329 132.704C271.84 131.341 274.506 130.286 277.269 129.56C277.269 129.56 278.816 129.29 279.004 128.523C279.193 127.756 278.734 127.265 277.709 127.391C275.717 127.544 273.754 127.956 271.868 128.617C269.09 129.604 265.726 131.585 260.338 131.591C256.182 131.591 250.606 130.126 248.267 129.453C247.681 129.278 247.105 129.068 246.544 128.824C245.997 128.586 245.243 128.334 244.765 128.648C244.529 128.835 244.373 129.105 244.331 129.403C244.303 129.642 244.353 129.883 244.473 130.092C244.593 130.3 244.777 130.464 244.998 130.56C246.607 131.578 247.06 131.484 248.569 132.27C250.351 133.174 251.943 134.412 253.259 135.916C255.748 138.843 257.088 142.574 257.031 146.416" fill="#00003C"/>
<path d="M120.527 388.637C121.147 393.025 122.367 396.305 124.186 398.476C127.51 402.424 133.21 404.398 141.287 404.398C146.119 404.398 150.044 403.878 153.062 402.839C158.792 400.84 161.657 397.126 161.657 391.698C161.695 390.205 161.323 388.73 160.581 387.433C159.84 386.136 158.757 385.067 157.451 384.343C154.647 382.645 150.202 381.147 144.116 379.847L133.717 377.571C123.503 375.312 116.482 372.858 112.655 370.209C106.18 365.783 102.944 358.867 102.948 349.462C102.948 340.866 106.113 333.723 112.442 328.036C118.771 322.348 128.073 319.504 140.35 319.504C150.589 319.504 159.328 322.187 166.567 327.552C173.805 332.917 177.598 340.698 177.946 350.895H158.645C158.285 345.124 155.703 341.021 150.899 338.585C147.689 336.984 143.707 336.182 138.954 336.177C133.652 336.177 129.421 337.225 126.261 339.321C124.77 340.228 123.546 341.512 122.712 343.045C121.878 344.578 121.465 346.303 121.514 348.047C121.514 351.476 123.073 354.037 126.191 355.73C128.195 356.853 132.449 358.178 138.954 359.704L155.81 363.677C163.199 365.412 168.736 367.734 172.42 370.643C178.15 375.157 181.012 381.691 181.008 390.246C181.008 399.019 177.617 406.301 170.836 412.094C164.054 417.886 154.466 420.77 142.072 420.745C129.431 420.745 119.485 417.89 112.234 412.182C104.983 406.473 101.362 398.625 101.37 388.637H120.527Z" fill="#00003C"/>
<path d="M230.814 383.758C229.675 384.47 228.468 385.068 227.212 385.543C225.589 386.104 223.921 386.524 222.226 386.801L218.001 387.587C214.036 388.278 211.19 389.116 209.463 390.101C206.529 391.778 205.062 394.404 205.062 397.979C205.062 401.148 205.955 403.438 207.741 404.851C209.603 406.29 211.907 407.039 214.26 406.97C218.273 406.982 222.191 405.752 225.476 403.449C228.897 401.106 230.672 396.831 230.802 390.623L230.814 383.758ZM219.435 375.094C222.886 374.66 225.363 374.113 226.847 373.466C229.521 372.334 230.856 370.576 230.852 368.191C230.852 365.278 229.829 363.268 227.784 362.162C225.738 361.055 222.733 360.502 218.768 360.502C214.317 360.502 211.173 361.588 209.338 363.759C207.896 365.658 206.985 367.905 206.697 370.272H188.779C189.169 364.065 190.914 358.964 194.016 354.969C198.932 348.733 207.389 345.614 219.384 345.614C227.201 345.614 234.14 347.157 240.201 350.242C246.261 353.326 249.292 359.144 249.292 367.694V400.255C249.292 402.514 249.336 405.251 249.424 408.466C249.556 410.893 249.92 412.546 250.53 413.414C251.237 414.359 252.18 415.1 253.265 415.564V418.299H233.071C232.543 416.995 232.149 415.64 231.895 414.256C231.675 412.999 231.506 411.565 231.374 409.962C228.773 412.76 225.768 415.153 222.459 417.06C218.293 419.392 213.582 420.574 208.809 420.487C202.342 420.487 197 418.653 192.784 414.986C188.567 411.318 186.459 406.119 186.459 399.387C186.459 390.661 189.852 384.343 196.638 380.432C200.351 378.307 205.821 376.788 213.047 375.874L219.435 375.094Z" fill="#00003C"/>
<path d="M292.226 321.397C293.182 321.46 294.489 321.56 296.136 321.692V336.781C295.099 336.649 293.345 336.555 290.893 336.486C288.441 336.416 286.744 336.963 285.813 338.114C284.909 339.178 284.412 340.528 284.411 341.924V347.915H296.595V361.005H284.411V418.255H265.971V361.024H255.541V347.934H265.707V343.376C265.707 335.781 266.99 330.542 269.555 327.659C272.246 323.409 278.742 321.283 289.045 321.283C290.214 321.283 291.277 321.283 292.232 321.378" fill="#00003C"/>
<path d="M340.837 345.614L342.434 345.709V364.727C341.259 364.595 340.221 364.507 339.291 364.469C338.36 364.431 337.637 364.4 337.072 364.4C329.603 364.4 324.585 366.831 322.02 371.693C320.587 374.43 319.87 378.642 319.87 384.33V418.28H301.191V347.287H318.915V359.66C321.794 354.907 324.282 351.671 326.377 349.952C329.873 347.06 334.4 345.614 339.957 345.614C340.251 345.612 340.545 345.625 340.837 345.652" fill="#00003C"/>
<path d="M388.569 383.758C387.43 384.47 386.223 385.068 384.966 385.543C383.343 386.105 381.675 386.525 379.981 386.801L375.756 387.587C371.791 388.278 368.945 389.116 367.218 390.101C364.284 391.778 362.817 394.404 362.817 397.979C362.817 401.148 363.71 403.438 365.495 404.851C367.358 406.29 369.662 407.039 372.015 406.97C376.028 406.983 379.946 405.753 383.231 403.449C386.651 401.106 388.426 396.831 388.556 390.623L388.569 383.758ZM377.214 375.094C380.672 374.675 383.145 374.132 384.633 373.466C387.299 372.334 388.632 370.576 388.632 368.191C388.632 365.278 387.609 363.268 385.564 362.162C383.518 361.055 380.513 360.502 376.548 360.502C372.105 360.502 368.962 361.588 367.117 363.759C365.671 365.656 364.757 367.904 364.47 370.272H346.552C346.946 364.065 348.692 358.964 351.789 354.969C356.71 348.733 365.17 345.614 377.17 345.614C384.979 345.614 391.916 347.157 397.98 350.242C404.045 353.326 407.078 359.144 407.078 367.694V400.255C407.078 402.514 407.12 405.251 407.204 408.466C407.336 410.893 407.7 412.546 408.31 413.414C409.018 414.36 409.963 415.102 411.051 415.564V418.299H390.851C390.323 416.995 389.929 415.64 389.675 414.256C389.455 412.999 389.285 411.565 389.153 409.962C386.553 412.76 383.548 415.153 380.238 417.06C376.08 419.388 371.379 420.57 366.614 420.487C360.147 420.487 354.805 418.653 350.589 414.986C346.372 411.318 344.264 406.119 344.264 399.387C344.264 390.661 347.657 384.343 354.443 380.432C358.165 378.307 363.634 376.788 370.852 375.874L377.214 375.094Z" fill="#00003C"/>
</svg>
