<svg width="512" height="512" viewBox="0 0 512 512" fill="none" xmlns="http://www.w3.org/2000/svg">
<rect width="512" height="512" fill="#00BCE7"/>
<g clip-path="url(#clip0)">
<path d="M256 181.471C236.117 181.492 217.055 189.382 202.994 203.411C188.934 217.44 181.024 236.462 181 256.304V370.935H225.244V324.567L228.728 325.933C239.005 329.981 250.051 331.714 261.076 331.008C272.102 330.301 282.835 327.172 292.508 321.845C302.181 316.517 310.555 309.123 317.032 300.19C323.508 291.258 327.927 281.008 329.972 270.173C332.018 259.338 331.639 248.186 328.864 237.514C326.088 226.842 320.984 216.913 313.917 208.439C306.849 199.964 297.993 193.152 287.981 188.49C277.969 183.828 267.048 181.432 256 181.471V181.471ZM256 287.01C249.918 287.01 243.972 285.21 238.914 281.838C233.856 278.466 229.914 273.673 227.586 268.065C225.258 262.458 224.648 256.287 225.834 250.333C227.019 244.38 229.947 238.911 234.247 234.618C238.547 230.325 244.027 227.401 249.992 226.215C255.957 225.029 262.141 225.635 267.761 227.956C273.381 230.277 278.186 234.209 281.567 239.255C284.948 244.301 286.754 250.234 286.756 256.304C286.753 264.444 283.512 272.25 277.745 278.008C271.978 283.765 264.157 287.003 256 287.01V287.01Z" fill="#343741"/>
<path d="M225.244 121H181V165.152H225.244V121Z" fill="white"/>
</g>
<defs>
<clipPath id="clip0">
<rect width="150" height="250" fill="white" transform="translate(181 121)"/>
</clipPath>
</defs>
</svg>
