<svg width="512" height="512" viewBox="0 0 512 512" fill="none" xmlns="http://www.w3.org/2000/svg">
<rect width="512" height="512" fill="white"/>
<path d="M286.181 189.568C290.535 189.568 294.228 189.949 297.259 190.707L292.685 207.982C292.171 209.923 290.275 211.127 288.292 210.833C287.332 210.691 286.393 210.621 285.473 210.621C282.724 210.621 280.762 211.238 279.578 212.469C278.393 213.704 277.47 216.167 276.809 219.866L275.956 224.275H287.603L284.379 241.018C284.025 242.859 282.415 244.189 280.543 244.189H271.981L263.647 288.905C261.658 299.905 257.705 308.179 251.788 313.727C245.87 319.274 238.319 322.048 229.137 322.048C226.379 322.048 223.695 321.877 221.088 321.535C218.716 321.222 217.154 318.907 217.792 316.6L222.461 299.715C223.313 299.999 224.308 300.215 225.444 300.355C226.58 300.499 227.575 300.569 228.426 300.569C231.079 300.569 233.134 299.762 234.604 298.15C236.071 296.537 237.278 293.266 238.227 288.337L246.559 244.189H237.754L241.103 227.42C241.468 225.592 243.07 224.275 244.933 224.275H250.535L251.53 218.587C253.138 209.009 256.642 201.779 262.039 196.894C267.436 192.011 275.482 189.568 286.181 189.568ZM94.889 222.426C99.148 222.426 103.408 222.853 107.67 223.707L102.731 242.321C102.195 244.336 100.19 245.518 98.1422 245.138C96.7809 244.885 95.3176 244.758 93.7523 244.758C91.2887 244.758 89.0882 245.351 87.1482 246.537C85.2067 247.724 83.6442 249.309 82.462 251.301C81.277 253.292 80.3773 255.475 79.7641 257.844C79.1468 260.216 78.841 262.634 78.841 265.098C78.841 270.98 81.8695 273.918 87.9294 273.918C91.432 273.918 94.6052 273.444 97.445 272.494L95.064 292.331C94.8656 293.973 93.6669 295.314 92.0589 295.688C88.4103 296.536 84.4324 296.961 80.1196 296.961C70.5544 296.961 63.4791 294.733 58.888 290.275C54.2942 285.82 52 279.323 52 270.788C52 264.057 53.0155 257.726 55.052 251.799C57.0871 245.875 59.9986 240.705 63.7863 236.294C67.5713 231.885 72.1169 228.471 77.4204 226.053C82.7224 223.635 88.5439 222.426 94.889 222.426ZM429.615 222.569C434.727 222.569 439.72 222.759 444.598 223.137C449.473 223.518 454.231 224.134 458.87 224.987L449.212 275.482C449.948 275.62 459.878 275.427 461 275.524L458.41 290.933C458.094 292.649 456.685 293.961 454.953 294.125C446.987 294.879 438.873 295.253 430.61 295.253H426.064C424.453 295.158 422.986 295.112 421.66 295.112C421.671 295.065 425.726 281.726 425.78 281.599H425.496C418.679 291.746 410.393 296.818 400.642 296.818C388.808 296.818 382.891 289.138 382.891 273.775C382.891 266.759 383.885 260.168 385.873 254.005C387.861 247.841 390.819 242.389 394.749 237.647C398.677 232.905 403.576 229.207 409.448 226.552C415.318 223.898 422.039 222.569 429.615 222.569ZM368.264 222.568C372.525 222.568 376.405 222.852 379.909 223.422L376.127 238.921C375.647 240.88 373.754 242.187 371.767 241.858C370.269 241.611 368.816 241.487 367.412 241.487C363.151 241.487 361.021 242.674 361.021 245.043C361.021 246.277 362.44 248.409 365.281 251.444C368.31 254.572 370.678 257.559 372.383 260.405C374.087 263.249 374.939 266.758 374.939 270.93C374.939 274.059 374.251 277.143 372.88 280.176C371.505 283.211 369.4 285.985 366.56 288.497C363.719 291.011 360.074 293.002 355.624 294.471C351.173 295.941 345.966 296.676 340.002 296.676C337.823 296.676 335.601 296.556 333.327 296.32C332.542 296.239 331.773 296.146 331.019 296.048C328.791 295.754 327.303 293.597 327.754 291.393L331.198 274.486C332.522 274.963 334.299 275.411 336.524 275.838C338.746 276.264 340.617 276.478 342.133 276.478C346.633 276.478 348.526 274.949 347.807 271.888C347.583 270.927 347.149 270.029 346.537 269.252C345.82 268.34 344.777 267.241 343.412 265.951C340.664 263.298 338.511 260.667 336.948 258.058C335.61 255.823 334.846 252.943 334.654 249.417C334.431 245.3 335.132 241.185 336.933 237.478C341.758 227.542 352.198 222.568 368.264 222.568ZM209.705 223.56C214.791 224.088 218.974 225.07 222.252 226.504C225.531 227.941 228.039 229.677 229.78 231.717C231.519 233.755 232.653 235.923 233.18 238.217C233.702 240.512 233.844 242.838 233.601 245.195C233.115 249.914 231.656 253.886 229.231 257.112C226.804 260.343 223.57 262.868 219.526 264.688C215.484 266.511 210.861 267.723 205.659 268.33C200.457 268.935 194.788 268.971 188.658 268.43L188.483 270.129C188.279 272.108 188.791 273.591 190.023 274.576C191.254 275.562 193.706 276.245 197.38 276.626C204.16 277.327 211.416 276.648 219.149 274.587L217.443 291.119C217.268 292.816 216.018 294.231 214.344 294.548C210.521 295.27 206.554 295.763 202.445 296.025C197.318 296.353 192.355 296.268 187.551 295.771C177.85 294.766 171.202 291.863 167.605 287.058C164.006 282.254 162.627 275.795 163.465 267.682C164.263 259.949 166.154 253.138 169.142 247.249C172.127 241.362 175.833 236.573 180.261 232.884C184.685 229.195 189.428 226.588 194.489 225.062C199.546 223.536 204.619 223.035 209.705 223.56ZM164.619 222.427C165.943 222.427 167.364 222.569 168.879 222.853L164.046 244.035C163.624 245.878 161.946 247.208 160.062 247.066C159.783 247.045 159.503 247.034 159.222 247.034C154.962 247.034 151.055 249.786 147.506 255.284C143.955 260.785 141.09 269.224 138.913 280.602L136.814 291.78C136.466 293.63 134.854 294.968 132.976 294.968H110.795L120.593 244.19V243.762C118.983 243.478 117.136 243.218 115.054 242.979C114.334 242.898 113.606 242.819 112.873 242.743C110.611 242.507 109.023 240.386 109.438 238.145L111.787 225.413C120.498 224.466 129.54 223.991 138.913 223.991H143.6C145.209 224.087 146.676 224.134 148.002 224.134C147.87 224.865 145.276 236.032 145.085 236.515H145.369C148.494 231.111 150.347 229.183 153.613 226.48C156.88 223.778 160.547 222.427 164.619 222.427ZM323.104 223.991C325.377 224.086 327.08 224.133 328.217 224.133L315.331 291.791C314.98 293.635 313.369 294.969 311.494 294.969H289.305L299.103 244.047V243.763C297.492 243.478 295.647 243.218 293.565 242.98C291.48 242.744 289.35 242.532 287.173 242.34L289.765 228.304C290.08 226.591 291.48 225.281 293.211 225.116C301.078 224.368 309.434 223.991 318.276 223.991H323.104ZM425.071 242.909C422.798 242.909 420.668 243.715 418.679 245.327C416.69 246.94 414.987 249.05 413.565 251.657C412.146 254.266 411.056 257.086 410.3 260.12C409.541 263.156 409.164 266.047 409.164 268.796C409.164 272.495 410.061 274.344 411.862 274.344C413.186 274.344 414.724 273.491 416.478 271.784C418.228 270.077 420.004 267.801 421.804 264.955C423.602 262.112 425.163 259.053 426.49 255.782C427.814 252.51 428.763 249.452 429.331 246.608L429.899 243.62C428.288 243.147 426.679 242.909 425.071 242.909ZM197.73 244.845C195.655 246.967 193.928 249.624 192.553 252.817C197.271 253.212 201.086 252.913 203.996 251.929C206.902 250.942 208.51 248.988 208.812 246.062C209.056 243.706 207.812 242.384 205.081 242.101C202.256 241.81 199.805 242.724 197.73 244.845ZM320.264 189C324.429 189 327.884 190.376 330.631 193.125C333.376 195.875 334.75 199.052 334.75 202.656C334.75 207.302 333.092 211.168 329.78 214.248C326.464 217.329 322.63 218.871 318.276 218.871C314.108 218.871 310.653 217.496 307.909 214.745C305.161 211.997 303.79 208.725 303.79 204.931C303.79 200.38 305.445 196.587 308.76 193.551C312.072 190.518 315.908 189 320.264 189Z" fill="#00537F"/>
</svg>
