<svg width="344" height="121" viewBox="0 0 344 121" fill="none" xmlns="http://www.w3.org/2000/svg">
<path d="M125.121 42.052V23.1625L105.678 7.94751L86.2344 23.1625L66.791 7.94751L47.3477 23.1625L27.9043 7.94751L8.46094 23.1625V42.052L21.1369 31.5866V38.187L8.46094 48.1081V66.9976L21.1369 56.5321V63.1325L8.46094 73.0536V91.9431L21.1369 81.4777V112.173H34.6682V81.4777L47.3443 91.9431L60.0203 81.4777V112.173H73.5516V81.4777L86.2276 91.9431L98.9036 81.4777V112.173H112.435V81.4777L125.111 91.9431V73.0536L112.435 63.1325V56.5321L125.111 66.9976V48.1081L112.435 38.187V31.5866L125.121 42.052ZM98.9138 31.5866V38.187L86.2378 48.1081L73.5618 38.187V31.5866L86.2378 42.052L98.9138 31.5866ZM60.0271 31.5866V38.187L47.3511 48.1081L34.6751 38.187V31.5866L47.3511 42.052L60.0271 31.5866ZM47.3511 73.0502L34.6751 63.1292V56.5287L47.3511 66.9941L60.0271 56.5287V63.1292L47.3511 73.0502ZM86.2378 73.0502L73.5618 63.1292V56.5287L86.2378 66.9941L98.9138 56.5287V63.1292L86.2378 73.0502Z" fill="#D8CFC1"/>
<path d="M120.742 120.118H12.843C5.76213 120.118 0 114.364 0 107.294V12.8232C0 5.75326 5.76213 0 12.843 0H120.742C127.823 0 133.585 5.75326 133.585 12.8232V107.291C133.589 114.364 127.827 120.118 120.742 120.118ZM12.843 3.89221C7.91228 3.89221 3.89821 7.9001 3.89821 12.8232V107.291C3.89821 112.214 7.91228 116.222 12.843 116.222H120.742C125.673 116.222 129.687 112.214 129.687 107.291V12.8232C129.687 7.9001 125.673 3.89221 120.742 3.89221H12.843Z" fill="#D8CFC1"/>
<path d="M155.25 38.9527V8.36621H164.951C168.471 8.36621 171.143 9.04326 172.962 10.394C174.782 11.7481 175.692 13.7384 175.692 16.3752C175.692 17.9572 175.228 19.3352 174.305 20.5056C173.378 21.6759 172.114 22.5129 170.502 23.0164C172.414 23.4077 173.951 24.2821 175.116 25.6396C176.281 26.9971 176.864 28.5656 176.864 30.3416C176.864 33.043 175.927 35.1524 174.056 36.6698C172.182 38.1872 169.579 38.9493 166.239 38.9493H155.25V38.9527ZM158.024 22.0842H165.605C167.923 22.0434 169.715 21.533 170.986 20.56C172.257 19.5835 172.894 18.1648 172.894 16.2969C172.894 14.3338 172.237 12.8844 170.921 11.9522C169.606 11.02 167.616 10.5539 164.955 10.5539H158.027V22.0842H158.024ZM158.024 24.2719V36.7719H166.352C168.727 36.7719 170.611 36.2105 172.005 35.0843C173.395 33.9582 174.09 32.3965 174.09 30.396C174.09 28.5077 173.426 27.0141 172.093 25.9186C170.761 24.8197 168.921 24.2719 166.577 24.2719H158.024Z" fill="#D8CFC1"/>
<path d="M198.992 30.362H184.077L180.693 38.9527H177.783L190.217 8.36621H192.858L205.292 38.9527H202.403L198.992 30.362ZM184.932 28.1777H198.109L191.522 11.5201L184.932 28.1777Z" fill="#D8CFC1"/>
<path d="M232.262 38.9527H229.489L210.604 12.779V38.9527H207.807V8.36621H210.604L229.513 34.5638V8.36621H232.266V38.9527H232.262Z" fill="#D8CFC1"/>
<path d="M261.565 29.4159C261.19 32.6379 259.953 35.1011 257.854 36.8091C255.755 38.517 252.961 39.371 249.471 39.371C247.035 39.371 244.881 38.8028 243.007 37.6699C241.133 36.5369 239.685 34.9276 238.663 32.8488C237.64 30.77 237.119 28.3918 237.105 25.7176V21.7472C237.105 19.0287 237.617 16.6199 238.639 14.5207C239.661 12.4215 241.133 10.7986 243.052 9.65886C244.97 8.51569 247.175 7.94751 249.672 7.94751C253.192 7.94751 255.973 8.8287 258.011 10.5945C260.048 12.3603 261.234 14.8031 261.565 17.9264H258.767C258.075 12.7311 255.043 10.1318 249.672 10.1318C246.694 10.1318 244.323 11.1695 242.554 13.2449C240.786 15.3203 239.903 18.185 239.903 21.8424V25.5849C239.903 29.1165 240.762 31.9336 242.486 34.0362C244.207 36.1388 246.534 37.1901 249.468 37.1901C252.371 37.1901 254.559 36.5403 256.034 35.2474C257.51 33.9512 258.42 32.0085 258.764 29.4193H261.565V29.4159Z" fill="#D8CFC1"/>
<path d="M290.279 25.3196C290.279 28.1333 289.755 30.6067 288.712 32.7366C287.666 34.8664 286.173 36.5029 284.234 37.6528C282.292 38.8028 280.053 39.3744 277.511 39.3744C273.675 39.3744 270.577 38.0986 268.216 35.54C265.854 32.9849 264.672 29.535 264.672 25.1937V22.0432C264.672 19.2567 265.203 16.7866 266.263 14.6364C267.323 12.4862 268.826 10.8326 270.765 9.67927C272.707 8.52249 274.939 7.94751 277.467 7.94751C279.996 7.94751 282.224 8.51569 284.156 9.64865C286.088 10.7816 287.581 12.3875 288.634 14.4595C289.687 16.5315 290.235 18.9335 290.279 21.6655V25.3196ZM287.502 22.0023C287.502 18.3211 286.606 15.4359 284.817 13.3469C283.028 11.2613 280.575 10.2168 277.46 10.2168C274.407 10.2168 271.974 11.2647 270.161 13.3571C268.349 15.4495 267.442 18.3755 267.442 22.1282V25.323C267.442 28.9498 268.345 31.8247 270.151 33.9478C271.957 36.0708 274.407 37.1323 277.508 37.1323C280.653 37.1323 283.103 36.0844 284.865 33.992C286.627 31.8996 287.506 28.9804 287.506 25.2413V22.0023H287.502Z" fill="#D8CFC1"/>
<path d="M167.217 88.3811V112.163H155.25V48.0369H181.6C189.295 48.0369 195.408 49.9047 199.933 53.637C204.458 57.3693 206.721 62.3094 206.721 68.4506C206.721 74.7414 204.506 79.6339 200.076 83.1348C195.646 86.6324 189.441 88.3811 181.461 88.3811H167.217ZM167.217 79.3957H181.6C185.856 79.3957 189.107 78.4635 191.346 76.599C193.585 74.7346 194.706 72.04 194.706 68.5152C194.706 65.0517 193.571 62.2822 191.298 60.2136C189.029 58.1451 185.904 57.0801 181.931 57.0223H167.217V79.3957Z" fill="#D8CFC1"/>
<path d="M224.962 112.166H213.039V48.0369H224.962V112.166Z" fill="#D8CFC1"/>
<path d="M289.47 112.166H277.503L246.801 66.6678V112.166H234.834V48.0369H246.801L277.598 93.7125V48.0369H289.474V112.166H289.47Z" fill="#D8CFC1"/>
<path d="M339.029 83.5397H310.74V103.273H343.807V112.17H298.77V48.0369H343.476V57.0223H310.74V74.7278H339.029V83.5397Z" fill="#D8CFC1"/>
</svg>
