<svg width="512" height="512" viewBox="0 0 512 512" fill="none" xmlns="http://www.w3.org/2000/svg">
<rect width="512" height="512" fill="white"/>
<path d="M189.005 277.523V318.439L156.05 277.523H147.348V333.311H156.298V292.507L189.329 333.311H198.42V277.523H189.005Z" fill="#094D38"/>
<path d="M208.734 277.523V333.311H220.316V277.523H208.734Z" fill="#094D38"/>
<path d="M312.859 227.744L285.508 180.509L285.277 180.115C285.265 180.085 285.248 180.065 285.235 180.034C284.634 179.165 283.661 178.583 282.543 178.501C282.46 178.496 282.377 178.49 282.29 178.49C282.215 178.49 282.144 178.496 282.076 178.501H247.753H247.677C247.611 178.501 247.544 178.501 247.481 178.506C247.476 178.506 247.476 178.506 247.471 178.506C247.348 178.511 247.226 178.522 247.098 178.547C247.091 178.547 247.079 178.547 247.068 178.547C247.016 178.562 246.957 178.567 246.906 178.583C246.835 178.598 246.771 178.619 246.704 178.639C246.68 178.645 246.65 178.655 246.626 178.659C245.903 178.89 245.17 179.375 244.377 180.223L200.542 227.56C200.542 227.56 200.427 227.657 200.287 227.82C200.231 227.892 200.169 227.975 200.113 228.061C199.944 228.332 199.85 228.638 199.85 228.97C199.85 229.895 200.581 230.657 201.492 230.686C201.528 230.686 201.558 230.692 201.59 230.692C201.607 230.692 222.38 230.702 222.408 230.702C222.709 230.702 222.954 230.947 222.954 231.259C222.954 231.397 222.903 231.53 222.809 231.622C222.809 231.622 222.813 231.622 222.813 231.627V231.632L201.769 254.166C201.705 254.228 201.646 254.294 201.59 254.355C201.436 254.539 201.319 254.728 201.24 254.912C201.191 255.06 201.155 255.219 201.155 255.382C201.155 255.847 201.38 256.256 201.72 256.516C201.97 256.669 202.283 256.777 202.65 256.808C202.729 256.812 202.807 256.823 202.895 256.823H217.067H217.115C217.897 256.823 218.791 256.501 219.527 255.796C219.549 255.775 219.57 255.76 219.593 255.74L241.803 231.816C241.938 231.698 242.031 231.53 242.031 231.336C242.031 230.988 241.747 230.702 241.396 230.702C241.374 230.702 229.364 230.706 229.359 230.702C229.052 230.661 228.812 230.395 228.812 230.074C228.812 229.92 228.868 229.782 228.959 229.67C228.959 229.67 228.959 229.67 228.959 229.66L252.363 204.453C252.447 204.361 252.534 204.285 252.625 204.208C252.919 203.902 253.333 203.707 253.796 203.707C254.368 203.707 254.861 203.998 255.147 204.444C255.155 204.444 268.416 227.355 268.416 227.355L269.778 229.711C269.783 229.711 269.789 229.721 269.791 229.731L269.844 229.823C269.844 229.823 269.844 229.823 269.839 229.829C269.871 229.9 269.888 229.976 269.888 230.063C269.888 230.405 269.618 230.682 269.28 230.686C269.275 230.692 257.053 230.713 257.045 230.713C256.598 230.733 256.237 231.1 256.237 231.551C256.237 231.749 256.309 231.852 256.421 232.071L269.661 254.989L269.753 255.147C270.305 256.067 271.272 256.715 272.399 256.823H273.045H300.09H300.108C300.434 256.818 300.73 256.771 300.992 256.69C301.726 256.394 302.244 255.678 302.244 254.846C302.244 254.57 302.19 254.314 302.093 254.079L301.84 253.645L288.98 231.53C288.98 231.519 288.918 231.35 288.918 231.259H288.921C288.921 231.254 288.918 231.254 288.918 231.243C288.918 230.947 289.163 230.706 289.457 230.706H289.459C289.5 230.702 289.548 230.692 289.597 230.692C289.597 230.692 311.286 230.692 311.299 230.692C311.304 230.692 311.307 230.692 311.312 230.692H311.457C311.636 230.686 311.808 230.661 311.974 230.605C311.979 230.605 311.987 230.6 311.997 230.6C312.045 230.579 312.102 230.559 312.158 230.534C312.175 230.527 312.193 230.518 312.212 230.503C312.216 230.503 312.216 230.503 312.219 230.503C312.232 230.492 312.25 230.488 312.262 230.477C312.335 230.441 312.403 230.395 312.47 230.349C312.482 230.339 312.495 230.334 312.51 230.324C312.572 230.282 312.627 230.231 312.676 230.176C312.697 230.155 312.72 230.13 312.742 230.109C312.788 230.053 312.835 230.003 312.873 229.946C312.911 229.895 312.947 229.839 312.988 229.777C313.031 229.701 313.074 229.629 313.11 229.547C313.136 229.466 313.161 229.389 313.185 229.307C313.235 229.036 313.27 228.454 312.859 227.744ZM270.683 202.558C270.672 202.563 270.67 202.573 270.659 202.573H237.476C237.476 202.573 237.473 202.563 237.468 202.563C237.149 202.543 236.893 202.272 236.893 201.945C236.893 201.792 236.954 201.649 237.057 201.531C237.052 201.531 237.052 201.531 237.047 201.527L256.61 180.386C256.759 180.232 256.93 180.095 257.114 179.982C257.377 179.794 257.702 179.671 258.055 179.671C258.067 179.671 258.115 179.676 258.123 179.676C258.172 179.676 258.212 179.686 258.243 179.696C258.721 179.752 259.137 180.009 259.39 180.386L271.387 201.296C271.392 201.306 271.395 201.321 271.4 201.337C271.472 201.455 271.51 201.598 271.51 201.735C271.51 202.19 271.137 202.558 270.683 202.558Z" fill="#958146"/>
<path d="M370.037 277.462H339.574L329.13 333.285H362.623L364.378 323.798H346.038L348.826 308.885H363.742L365.493 299.394H350.582L352.9 286.949H368.283L370.037 277.462Z" fill="#958146"/>
<path d="M398.947 277.462H379.493L369.042 333.285H387.945C406.206 333.285 422 321.009 422 300.9C422 287.025 414.02 277.462 398.947 277.462ZM389.942 323.798H385.953L392.809 286.949H396.957C403.018 286.949 406.525 293.896 406.525 301.069C406.525 315.889 396.957 323.798 389.942 323.798Z" fill="#958146"/>
<path d="M255.65 323.797C249.583 323.797 246.076 316.85 246.076 309.678C246.076 294.857 255.65 286.949 262.665 286.949L281.523 286.953L283.298 277.462H264.663C246.398 277.462 230.605 289.743 230.605 309.845C230.605 323.721 238.582 333.29 253.658 333.29H272.942L274.693 323.797H255.65Z" fill="#958146"/>
<path d="M315.982 308.477C321.172 305.922 327.785 301.381 327.785 291.659C327.785 285.754 323.874 277.462 312.076 277.462H289.75L279.303 333.285H294.375L298.354 312.155H302.668L308.341 333.295H324.883L315.982 308.477ZM304.496 302.668H299.956L302.985 286.949H306.898C310.086 286.949 312.794 290.218 312.794 293.564C312.794 298.745 308.573 302.668 304.496 302.668Z" fill="#958146"/>
<path d="M125.628 277.498V308.073C125.37 320.548 122.951 327.788 113.666 327.788C113.625 327.788 113.47 327.788 113.428 327.788C104.146 327.788 101.724 320.548 101.466 308.073V277.498H90V311.599C90 323.685 94.4572 330.93 104.731 333.325C104.731 333.325 107.63 334 112.775 334C112.798 334 114.302 334 114.323 334C119.47 334 121.894 333.321 121.894 333.321C132.663 331.159 137.095 323.685 137.095 311.599V277.498H125.628Z" fill="#094D38"/>
</svg>
